<?xml version="1.0" encoding="iso-8859-1"?>
<!-- Generator: Adobe Illustrator 19.0.0, SVG Export Plug-In . SVG Version: 6.00 Build 0)  -->
<svg version="1.1" id="Layer_1" xmlns="http://www.w3.org/2000/svg" xmlns:xlink="http://www.w3.org/1999/xlink" x="0px" y="0px"
	 viewBox="0 0 515.01 515.01" style="enable-background:new 0 0 515.01 515.01;" xml:space="preserve">
<g>
	<g>
		<path d="M474.12,404.87h-28.101V199.024h68.99L257.505,10.168L0,199.024h68.99V404.87H40.889
			c-16.289,0-29.539,13.25-29.539,29.538v70.433h492.308v-70.433C503.659,418.12,490.409,404.87,474.12,404.87z M60.144,179.332
			l197.361-144.74l197.361,144.74H60.144z M426.327,199.024V404.87h-51.774V199.024H426.327z M354.861,199.024V404.87h-51.774
			V199.024H354.861z M283.394,199.024V404.87H231.62V199.024H283.394z M211.928,199.024V404.87h-51.779V199.024H211.928z
			 M140.457,199.024V404.87H88.683V199.024H140.457z M483.966,485.149H31.043v-50.74c0-5.433,4.418-9.846,9.846-9.846H474.12
			c5.428,0,9.846,4.414,9.846,9.846V485.149z"/>
	</g>
</g>
<g>
	<g>
		<path d="M257.505,80.322c-22.168,0-40.207,17.913-40.207,39.923c0,22.01,18.038,39.923,40.207,39.923s40.207-17.913,40.207-39.923
			C297.712,98.236,279.673,80.322,257.505,80.322z M257.505,140.476c-11.313,0-20.514-9.077-20.514-20.231
			c0-11.154,9.202-20.231,20.514-20.231c11.313,0,20.514,9.077,20.514,20.231C278.019,131.399,268.817,140.476,257.505,140.476z"/>
	</g>
</g>
<g>
</g>
<g>
</g>
<g>
</g>
<g>
</g>
<g>
</g>
<g>
</g>
<g>
</g>
<g>
</g>
<g>
</g>
<g>
</g>
<g>
</g>
<g>
</g>
<g>
</g>
<g>
</g>
<g>
</g>
</svg>
