<svg width="32" height="32" viewBox="0 0 32 32" fill="none" xmlns="http://www.w3.org/2000/svg">
<mask id="mask0_8262_102190" style="mask-type:alpha" maskUnits="userSpaceOnUse" x="0" y="0" width="32" height="32">
<rect width="32" height="32" rx="8" fill="#002522"/>
</mask>
<g mask="url(#mask0_8262_102190)">
<rect width="32" height="32" rx="8" fill="#F6E8D7"/>
<path fill-rule="evenodd" clip-rule="evenodd" d="M25.5693 14.8216C25.7913 15.0021 25.9412 15.2564 25.9918 15.5382C26.0016 15.6203 26.0026 15.7031 25.9948 15.7853C25.9733 15.8502 25.9733 15.9027 25.9733 15.9614C25.9552 16.0752 25.9295 16.1877 25.8962 16.2981C25.8282 16.5283 25.7241 16.7462 25.5878 16.9436C25.5623 16.9808 25.5298 17.0233 25.5074 17.0525C25.5 17.0622 25.4937 17.0703 25.4891 17.0764C25.4899 17.0809 25.4917 17.0875 25.4941 17.0958C25.5014 17.1218 25.5138 17.1655 25.5138 17.2216C25.5501 17.4472 25.5604 17.6763 25.5447 17.9042C25.5141 18.3448 25.4099 18.7771 25.2363 19.183C25.0632 19.6075 24.7915 19.9845 24.4438 20.2826L24.4037 20.3166L24.3482 20.3382C23.9183 20.4981 23.4772 20.6261 23.0285 20.7212C22.5668 20.8292 22.0931 20.8759 21.6193 20.8602H21.5823H21.5391C20.5595 20.5444 19.5482 20.3372 18.5234 20.2425C18.2445 20.2233 17.9672 20.1841 17.6939 20.1251C17.4167 20.0518 17.1448 19.9599 16.8799 19.8502C16.4666 19.7019 16.0443 19.5802 15.6156 19.4857C15.414 19.7678 15.321 20.1133 15.3535 20.4587C15.3841 20.8389 15.726 21.493 15.9709 21.9615C16.0225 22.0602 16.0698 22.1506 16.109 22.2286C16.3846 22.8409 16.4847 23.5179 16.3981 24.184C16.3115 24.85 16.0417 25.4788 15.6187 26C14.9513 24.6021 13.6999 23.9387 12.5793 23.3446C10.9663 22.4895 9.62422 21.7779 10.685 19.2263C10.985 18.48 11.1706 17.6597 11.3226 16.9879C11.4518 16.4167 11.5568 15.9528 11.6872 15.7328V15.7514C11.6005 16.2625 11.6005 16.7846 11.6872 17.2958C11.7278 17.5353 11.8181 17.7637 11.9523 17.966C12.092 18.1504 12.2798 18.2926 12.4951 18.3768C12.9602 18.5614 13.4513 18.6718 13.9505 18.7043C14.2064 18.7413 14.4623 18.7413 14.7213 18.7413H14.7214C14.8583 18.7403 14.9952 18.7464 15.1315 18.7598C15.2672 18.7722 15.4059 18.7876 15.5416 18.8093C16.0795 18.8963 16.6095 19.0264 17.1265 19.1985C17.5908 19.383 18.0829 19.4875 18.582 19.5073C19.6427 19.5906 20.69 19.7979 21.7025 20.1251C22.1076 20.1391 22.513 20.108 22.9113 20.0324C23.0113 20.0132 23.1098 19.9911 23.2079 19.9691C23.252 19.9592 23.2959 19.9493 23.3399 19.9398C24.0337 19.7359 24.8262 18.6579 23.9196 18.7598C23.6679 18.7717 23.4174 18.8027 23.1703 18.8525C22.9466 18.8982 22.7709 18.9402 22.6226 18.9757C22.1702 19.0838 21.973 19.1309 21.4435 19.0378C21.0697 18.9081 20.6813 18.8251 20.2872 18.7907C20.6174 18.5779 21.0094 18.4822 21.4004 18.5189C21.6892 18.5555 21.9821 18.543 22.2668 18.4818C22.4106 18.4407 22.5571 18.3615 22.7155 18.276C22.8426 18.2073 22.9772 18.1346 23.1241 18.0741C23.5425 17.942 23.9809 17.8845 24.4191 17.9042C24.5285 17.7889 24.6092 17.6494 24.6548 17.497C24.7003 17.3446 24.7094 17.1836 24.6812 17.027C24.5926 16.892 24.4577 16.7942 24.302 16.7521C24.2406 16.7385 24.1625 16.7233 24.0733 16.706C23.6159 16.6171 22.8652 16.4712 22.5659 16.1869C22.3593 15.9892 22.2483 15.3869 22.976 15.2201C23.3608 15.1523 23.7531 15.1387 24.1416 15.1799C24.3081 15.1985 24.7614 15.2417 24.8663 15.1552C24.7956 14.91 23.9966 14.4719 23.2011 14.0356C22.5036 13.6532 21.8088 13.2721 21.61 13.0239C20.7246 12.1202 19.9812 11.087 19.4053 9.95985C19.2186 9.48852 18.8651 9.10257 18.4124 8.87567C18.9503 8.83623 19.4838 8.99679 19.911 9.32665C19.9727 9.37785 20.0512 9.51823 20.1518 9.69811C20.4336 10.2018 20.8886 11.0152 21.6316 11.0471C21.7099 11.0546 21.7888 11.0408 21.8598 11.007C21.4921 10.6595 21.2438 10.2403 21.0112 9.84777C20.6586 9.25266 20.3423 8.71869 19.7013 8.58842C19.6917 8.58463 19.6821 8.58087 19.6725 8.57712C19.5262 8.51972 19.3891 8.46593 19.2357 8.38765L18.8009 8.17143L17.9375 7.75135C17.3677 7.47552 16.7806 7.23718 16.1799 7.03784C15.5857 6.84235 14.9729 6.70882 14.3513 6.63938C14.2157 6.62394 14.0337 6.60541 13.9073 6.60541C13.7882 6.60581 13.671 6.63438 13.565 6.68881C13.4914 6.71967 13.4074 6.7629 13.3229 6.80636C13.2552 6.84119 13.1872 6.87617 13.1241 6.90503C13.0967 6.91753 13.0693 6.93004 13.0418 6.94256C12.9266 6.99501 12.8106 7.04785 12.6986 7.1027C12.1352 7.37577 11.6036 7.71036 11.1136 8.10039C10.746 8.36027 10.4231 8.67847 10.1577 9.04247C10.6212 9.00878 11.0868 9.06865 11.5268 9.21854C10.8583 9.25057 10.2033 9.41852 9.60159 9.71217C8.99991 10.0058 8.46419 10.419 8.02699 10.9266C7.23451 11.7761 6.61779 16.1097 7.51511 17.2556C7.95317 17.0502 8.54547 16.0464 9.21854 14.9057C10.2558 13.1478 11.4849 11.0649 12.6369 11.078C11.9431 11.6988 11.4066 13.3668 10.87 15.2355C10.4383 16.7521 8.97362 20.2116 8.04855 20.295C7.68778 20.3166 7.5552 20.1436 7.3116 19.7915L7.10807 19.5135C6.75234 19.0182 6.48141 18.467 6.30636 17.8826C6.14477 17.3105 6.04755 16.722 6.0165 16.1282C5.98511 15.5442 5.99852 14.9587 6.05659 14.3768C6.11913 13.8001 6.21592 13.2277 6.34645 12.6625C6.47634 12.0969 6.64427 11.5407 6.84907 10.9977C6.90457 10.8587 6.96006 10.7228 7.03099 10.5838C7.06698 10.5059 7.10819 10.4306 7.15434 10.3583C7.20736 10.2857 7.26614 10.2176 7.3301 10.1544C7.55509 9.94017 7.80948 9.75919 8.08557 9.61699C8.48953 9.40592 8.91991 9.25009 9.36524 9.15367C9.506 8.83744 9.69885 8.54716 9.93571 8.29499C10.17 8.04919 10.4248 7.82391 10.6973 7.62162C11.2201 7.20653 11.7867 6.85021 12.3871 6.55907C12.529 6.48494 12.714 6.40155 12.8373 6.34904C12.9024 6.32131 12.971 6.28583 13.0467 6.2467C13.1143 6.21172 13.1875 6.17381 13.269 6.13591C13.4531 6.04819 13.6541 6.00181 13.858 6C14.0323 6.00047 14.2064 6.01286 14.3791 6.03707C15.0427 6.10963 15.6969 6.25145 16.331 6.46024C16.9554 6.66877 17.5661 6.91636 18.1595 7.20155L19.0353 7.6278L19.47 7.84401C19.5763 7.90152 19.7118 7.95368 19.8594 8.01044C19.8704 8.01466 19.8814 8.0189 19.8925 8.02317C20.0528 8.08495 20.2009 8.14981 20.3612 8.23012C20.4479 8.27463 20.5314 8.32521 20.611 8.38147C20.6868 8.44295 20.7589 8.50896 20.8268 8.57915C21.0629 8.83646 21.2698 9.11928 21.4435 9.4224C21.4627 9.45595 21.4818 9.48939 21.5007 9.52269C21.805 10.0565 22.0877 10.5525 22.5289 10.8432L22.8373 11.0471C22.832 11.0643 22.8247 11.0809 22.8157 11.0965L22.751 11.217L22.4426 11.3745C22.3815 11.4041 22.334 11.4561 22.31 11.5197C22.2985 11.5482 22.2922 11.5785 22.2915 11.6093V11.807C22.2931 11.9113 22.2796 12.0154 22.2514 12.1158C22.2388 12.1563 22.2241 12.192 22.2112 12.2236C22.1925 12.2692 22.1774 12.3059 22.1774 12.3351C22.1686 12.3664 22.1686 12.3996 22.1774 12.4309C22.2643 12.8225 23.4015 13.4806 24.3406 14.0241C24.9349 14.368 25.4498 14.666 25.5693 14.8216ZM17.9621 12.1065C17.996 12.5358 17.4748 12.8725 16.8581 12.9436C16.0657 13.0208 15.6648 12.5853 15.7542 12.0354C15.8437 11.4856 15.4582 11.4856 15.1992 11.7945C15.1934 11.802 15.1854 11.8073 15.1764 11.8098C15.1673 11.8123 15.1577 11.8117 15.149 11.8082C15.1403 11.8047 15.133 11.7985 15.1281 11.7904C15.1232 11.7824 15.1211 11.773 15.1221 11.7636C15.2516 10.8463 15.7881 10.8061 16.0287 10.8061C16.7521 10.8576 17.4689 10.9796 18.1686 11.1706C18.1881 11.1753 18.2059 11.1854 18.2199 11.1997C18.234 11.214 18.2438 11.2319 18.2483 11.2514C18.2528 11.271 18.2517 11.2914 18.2453 11.3104C18.2389 11.3294 18.2273 11.3462 18.2118 11.359C18.1075 11.45 18.0294 11.5673 17.9855 11.6987C17.9416 11.8301 17.9335 11.9709 17.9621 12.1065Z" fill="#002522"/>
</g>
</svg>
