<svg width="183" height="184" viewBox="0 0 183 184" fill="none" xmlns="http://www.w3.org/2000/svg">
<path d="M11.1904 90.9997L11.1904 90.9995C11.1807 74.9668 15.9262 59.2914 24.8266 45.9562C33.7271 32.6209 46.3825 22.2249 61.1922 16.0832C76.0019 9.94143 92.3003 8.32994 108.026 11.4525C123.752 14.5751 138.198 22.2915 149.538 33.6255C160.877 44.9596 168.6 59.4022 171.731 75.1263C174.861 90.8505 173.257 107.15 167.123 121.962C160.988 136.775 150.598 149.436 137.267 158.342C123.936 167.249 108.263 172.002 92.2306 172C70.7441 172 50.1372 163.468 34.9404 148.278C19.7436 133.089 11.2009 112.486 11.1904 90.9997Z" stroke="white" stroke-width="3"/>
<path d="M154.73 74.6897H147.1V67.1797H146.97H141.31H140.73V74.6897H133.1V80.6997H140.73V88.1997H147.1V80.6997H154.73V74.6897Z" fill="white"/>
<path d="M55.55 102C53.6035 102.892 51.4807 103.333 49.34 103.29C42.99 103.29 37.84 98.7098 37.84 92.0198C37.84 85.3298 42.75 80.9998 49.39 80.9998C52.3255 80.9247 55.2173 81.7216 57.7 83.2898L60.61 77.9998C59.37 77.1898 55.84 74.7998 49.1 74.7998C38.5 74.7998 31 82.3398 31 91.9998C31 101.66 38.49 109.19 49 109.19C56 109.19 60 106.66 61.8 105.28V92.0798H55.55V102Z" fill="white"/>
<path d="M80.2302 93.3997H75.2302V80.6297H80.2302C84.7002 80.6297 87.7402 83.0397 87.7402 87.1597C87.7402 90.9497 84.7402 93.3997 80.1802 93.3997M94.7702 87.1597C94.7702 79.4497 89.1702 74.6797 80.7702 74.6797H68.4902V109.22H75.2702V99.3497H81.2102L87.9402 109.22H95.9402L88.0002 97.8197C90.066 96.9235 91.8159 95.429 93.0243 93.529C94.2328 91.629 94.8444 89.4105 94.7802 87.1597" fill="white"/>
<path d="M108.65 74.6797H101.87V109.22H108.65V74.6797Z" fill="white"/>
<path d="M147.07 92.2397V91.2397H140.74V92.2397C140.74 92.2397 140.68 94.7597 140.57 95.5897C139.92 100.42 135.33 103.23 129.47 103.23H123.23V80.6797H129.51V74.6797H116.45V109.22H129.77C139.34 109.22 146.31 103.99 147.07 95.5897C147.14 94.7497 147.07 92.2397 147.07 92.2397Z" fill="white"/>
</svg>
