<svg width="160" height="160" viewBox="0 0 160 160" fill="none" xmlns="http://www.w3.org/2000/svg">
<path d="M109.818 112.795C104.688 115.284 97.8585 116.997 89.6279 116.997C68.9557 116.997 52.2112 102.042 52.2112 80.2345C52.2112 58.4274 68.1977 44.0942 89.781 44.0942C104.849 44.0942 114.006 49.7015 116.8 51.568L126.271 34.4312C122.236 31.7888 110.744 24 88.8546 24C54.4009 24 30 48.58 30 80.2345C30 111.889 54.3779 136.308 88.3876 136.308C111.211 136.308 124.105 128.05 130 123.534V112.795H109.818Z" fill="white"/>
<path d="M129.999 67.8462H109.76H85.5371V87.6865H109.76V104.385H129.999V87.6865V67.8462Z" fill="white"/>
</svg>
