<svg width="32" height="32" viewBox="0 0 32 32" fill="none" xmlns="http://www.w3.org/2000/svg">
<path fill-rule="evenodd" clip-rule="evenodd" d="M20 9.5H11C10.7239 9.5 10.5 9.72386 10.5 10V22C10.5 22.2761 10.7239 22.5 11 22.5H20C20.2761 22.5 20.5 22.2761 20.5 22V20H22V22C22 23.1046 21.1046 24 20 24H11C9.89543 24 9 23.1046 9 22V10C9 8.89543 9.89543 8 11 8H20C21.1046 8 22 8.89543 22 10V12H20.5V10C20.5 9.72386 20.2761 9.5 20 9.5ZM16.9417 19.2004L15.8811 20.261L13.0502 17.4302C12.2692 16.6492 12.2692 15.3828 13.0502 14.6018L15.8971 11.7549L16.9578 12.8156L14.5234 15.25L24.0001 15.25L24.0001 16.75H14.4913L16.9417 19.2004Z" fill="#B4CAC9"/>
</svg>
