<svg width="32" height="32" viewBox="0 0 32 32" fill="none" xmlns="http://www.w3.org/2000/svg">
<rect width="32" height="32" rx="8" fill="#F6E8D7"/>
<path fill-rule="evenodd" clip-rule="evenodd" d="M15.881 20.261L16.9416 19.2003L14.4912 16.7499H24L24 15.2499L14.5233 15.2499L16.9576 12.8155L15.897 11.7548L13.0501 14.6017C12.2691 15.3827 12.2691 16.6491 13.0501 17.4301L15.881 20.261Z" fill="#002522"/>
<path fill-rule="evenodd" clip-rule="evenodd" d="M11 9.5H20C20.2761 9.5 20.5 9.72386 20.5 10V12H22V10C22 8.89543 21.1046 8 20 8H11C9.89543 8 9 8.89543 9 10V22C9 23.1046 9.89543 24 11 24H20C21.1046 24 22 23.1046 22 22V20H20.5V22C20.5 22.2761 20.2761 22.5 20 22.5H11C10.7239 22.5 10.5 22.2761 10.5 22V10C10.5 9.72386 10.7239 9.5 11 9.5Z" fill="#002522"/>
</svg>
