<svg width="32" height="32" viewBox="0 0 32 32" fill="none" xmlns="http://www.w3.org/2000/svg">
<rect width="32" height="32" rx="8" fill="#F6E8D7"/>
<path d="M19.5 23.3419V24.507H25.5179V19.2521H24.3496V23.3419H19.5ZM19.5 5.9998V7.16497H24.3496V11.2549H25.5179V5.9998H19.5ZM15.1977 11.2549H14.0295V19.2519H19.2983V18.2009H15.1977V11.2549ZM7.00005 19.2521V24.5073H13.0178V23.3419H8.16826V19.2521H7.00005ZM7.00005 5.9998V11.2549H8.16826V7.16497H13.0178V5.9998H7.00005Z" fill="#193330"/>
<path fill-rule="evenodd" clip-rule="evenodd" d="M19.3 23.1419H24.1496V19.0521H25.7179V24.707H19.3V23.1419ZM24.3496 19.2521H25.5179V24.507H19.5V23.3419H24.3496V19.2521ZM19.3 5.7998H25.7179V11.4549H24.1496V7.36497H19.3V5.7998ZM24.3496 11.2549V7.16497H19.5V5.9998H25.5179V11.2549H24.3496ZM15.3977 11.0549V18.0009H19.4983V19.4519H13.8295V11.0549H15.3977ZM19.2983 18.2009V19.2519H14.0295V11.2549H15.1977V18.2009H19.2983ZM6.80005 19.0521H8.36826V23.1419H13.2178V24.7073H6.80005V19.0521ZM13.0178 23.3419V24.5073H7.00005V19.2521H8.16826V23.3419H13.0178ZM6.80005 5.7998H13.2178V7.36497H8.36826V11.4549H6.80005V5.7998ZM8.16826 11.2549H7.00005V5.9998H13.0178V7.16497H8.16826V11.2549Z" fill="#193330"/>
</svg>
