<svg width="32" height="33" viewBox="0 0 32 33" fill="none" xmlns="http://www.w3.org/2000/svg">
<path d="M19.5 24.3421V25.5072H25.5179V20.2523H24.3496V24.3421H19.5ZM19.5 6.99999V8.16515H24.3496V12.2551H25.5179V6.99999H19.5ZM15.1977 12.2551H14.0295V20.252H19.2983V19.2011H15.1977V12.2551ZM7.00005 20.2523V25.5075H13.0178V24.3421H8.16826V20.2523H7.00005ZM7.00005 6.99999V12.2551H8.16826V8.16515H13.0178V6.99999H7.00005Z" fill="#B4CAC9"/>
<path fill-rule="evenodd" clip-rule="evenodd" d="M19.3 24.1421H24.1496V20.0523H25.7179V25.7072H19.3V24.1421ZM24.3496 20.2523H25.5179V25.5072H19.5V24.3421H24.3496V20.2523ZM19.3 6.79999H25.7179V12.4551H24.1496V8.36515H19.3V6.79999ZM24.3496 12.2551V8.16515H19.5V6.99999H25.5179V12.2551H24.3496ZM15.3977 12.0551V19.0011H19.4983V20.452H13.8295V12.0551H15.3977ZM19.2983 19.2011V20.252H14.0295V12.2551H15.1977V19.2011H19.2983ZM6.80005 20.0523H8.36826V24.1421H13.2178V25.7075H6.80005V20.0523ZM13.0178 24.3421V25.5075H7.00005V20.2523H8.16826V24.3421H13.0178ZM6.80005 6.79999H13.2178V8.36515H8.36826V12.4551H6.80005V6.79999ZM8.16826 12.2551H7.00005V6.99999H13.0178V8.16515H8.16826V12.2551Z" fill="#B4CAC9"/>
</svg>
