<svg fill="none" height="32" viewBox="0 0 32 32" width="32" xmlns="http://www.w3.org/2000/svg"><path clip-rule="evenodd" d="m6.37988 15.409c2.32981-2.5644 6.03562-5.0685 9.61882-5.008 3.5831-.0605 7.2889 2.4436 9.6214 5.008.5065.5624.5065 1.4164 0 1.9787-2.2809 2.5103-5.9769 5.0721-9.6214 5.0108-3.6445.0613-7.33968-2.5005-9.61882-5.0108-.50651-.5623-.50651-1.4163 0-1.9787zm9.59352 5.4897c-2.9952.0504-6.2971-2.1195-8.46572-4.5003 2.21251-2.4273 5.52542-4.5472 8.46572-4.4976.0168.0002.0337.0002.0506 0 2.94-.0496 6.2527 2.0699 8.4683 4.4976-2.1706 2.381-5.4732 4.5507-8.4684 4.5003-.0168-.0003-.0336-.0003-.0505 0zm.0266-5.9988h.0004c.3978-.0001.7794.1579 1.0606.4392.2813.2814.4392.663.439 1.0608l1.4996.0008-1.4996-.0004c-.0002.8284-.6719 1.4997-1.5003 1.4996-.8283-.0001-1.4998-.6718-1.4997-1.5001.0001-.8284.6716-1.4999 1.5-1.4999zm2.1218-.6213c.5627.5629.8786 1.3262.8782 2.1221-.0004 1.6567-1.3438 2.9995-3.0005 2.9992-1.6568-.0003-2.9996-1.3435-2.9995-3.0003.0001-1.6567 1.3433-2.9997 3-2.9997.7959-.0002 1.5592.3159 2.1218.8787z" fill="#b4cac9" fill-rule="evenodd"/></svg>