<svg fill="none" height="16" viewBox="0 0 16 16" width="16" xmlns="http://www.w3.org/2000/svg"><path d="m13.5447 3.03618c-1.0198-.4796-2.1134-.83295-3.2568-1.03533-.0208-.00391-.0416.00585-.0523.02538-.1407.25638-.29645.59086-.40554.85376-1.22979-.18871-2.45327-.18871-3.65785 0-.10911-.26874-.27055-.59738-.41183-.85376-.01072-.01887-.03152-.02864-.05235-.02538-1.14276.20173-2.23632.55508-3.25674 1.03533-.00883.00391-.01641.01042-.02143.01887-2.074266 3.17628-2.642493 6.27448-2.3637399 9.33425.0012613.015.0094598.0293.0208119.0384 1.368538 1.0301 2.694208 1.6555 3.995258 2.07.02082.0065.04288-.0013.05613-.0188.30776-.4308.58211-.885.81733-1.3627.01388-.028.00063-.0612-.02774-.0722-.43516-.1692-.84951-.3755-1.24809-.6098-.03153-.0188-.03405-.0651-.00505-.0872.08388-.0644.16778-.1314.24787-.1991.01449-.0124.03468-.015.05171-.0072 2.61851 1.2254 5.45335 1.2254 8.04095 0 .017-.0084.0372-.0058.0524.0065.0801.0677.1639.1354.2484.1998.029.0221.0272.0684-.0044.0872-.3986.2388-.8129.4406-1.2487.6091-.0284.0111-.041.0449-.0271.0729.2403.477.5146.9312.8167 1.362.0126.0182.0353.026.0561.0195 1.3074-.4145 2.633-1.0399 4.0016-2.07.012-.0091.0195-.0228.0208-.0377.3336-3.53748-.5588-6.61028-2.3656-9.3343-.0044-.0091-.012-.01561-.0208-.01952zm-8.19802 7.49002c-.78835 0-1.43793-.7418-1.43793-1.65285s.63699-1.65288 1.43793-1.65288c.80724 0 1.45053.74835 1.43791 1.65288 0 .91105-.63698 1.65285-1.43791 1.65285zm5.31652 0c-.78836 0-1.43794-.7418-1.43794-1.65285s.63696-1.65288 1.43794-1.65288c.8072 0 1.4505.74835 1.4379 1.65288 0 .91105-.6307 1.65285-1.4379 1.65285z" fill="#ef9c32"/></svg>