<svg width="16" height="16" viewBox="0 0 16 16" fill="none" xmlns="http://www.w3.org/2000/svg">
<path fill-rule="evenodd" clip-rule="evenodd" d="M7.00004 8.67419V7.14481C5.81693 6.66561 5.13883 5.41419 5.38261 4.15984C5.62639 2.9055 6.72368 2 7.99992 2C9.27616 2 10.3734 2.9055 10.6172 4.15984C10.861 5.41419 10.1829 6.66561 8.9998 7.14481V12.9985C8.99988 13.5515 8.55222 13.9999 7.99992 14C7.44762 14.0001 6.99982 13.5518 6.99974 12.9988L6.33325 12.6133C6.12699 12.4941 5.99993 12.2737 5.99993 12.0352C5.99993 11.7968 6.12699 11.5764 6.33325 11.4571L7.00004 11.0719L7.00004 10.6008L6.33325 10.2156C6.12722 10.0962 6.00036 9.87586 6.00036 9.6375C6.00036 9.39913 6.12722 9.17882 6.33325 9.05939L7.00004 8.67419ZM8 5.5C8.41421 5.5 8.75 5.16421 8.75 4.75C8.75 4.33579 8.41421 4 8 4C7.58579 4 7.25 4.33579 7.25 4.75C7.25 5.16421 7.58579 5.5 8 5.5Z" fill="#D6EAE9"/>
</svg>
