<svg fill="none" height="16" viewBox="0 0 16 16" width="16" xmlns="http://www.w3.org/2000/svg"><path clip-rule="evenodd" d="m8 13c2.5695 0 4.6864-1.9383 4.9681-4.43248l1.9044-1.90435c.0837.43273.1275.87966.1275 1.33683 0 3.866-3.134 7-7 7-3.86599 0-7-3.134-7-7 0-3.86599 3.13401-7 7-7 1.54123 0 2.9661.4981 4.1225 1.3421l-1.4386 1.43856c-.77538-.49427-1.69619-.78066-2.6839-.78066-2.76142 0-5 2.23858-5 5 0 2.7614 2.23858 5 5 5zm1.41429-3 5.79291-5.79289-1.4142-1.41422-5.79292 5.79289-2.2929-2.29289-1.41421 1.41422 2.29289 2.29289c.78105.781 2.04738.781 2.82843 0z" fill="#7da19f" fill-rule="evenodd"/></svg>