<svg width="16" height="16" viewBox="0 0 16 16" fill="none" xmlns="http://www.w3.org/2000/svg">
<path fill-rule="evenodd" clip-rule="evenodd" d="M13 8C13 10.7614 10.7614 13 8 13C6.98094 13 6.03308 12.6951 5.24265 12.1716L12.1716 5.24265C12.6951 6.03308 13 6.98094 13 8ZM3.82843 10.7574L10.7574 3.82843C9.96699 3.30489 9.0191 3 8 3C5.23858 3 3 5.23858 3 8C3 9.0191 3.30489 9.96699 3.82843 10.7574ZM15 8C15 11.866 11.866 15 8 15C4.13401 15 1 11.866 1 8C1 4.13401 4.13401 1 8 1C11.866 1 15 4.13401 15 8Z" fill="#7DA19F"/>
</svg>
