<svg fill="none" height="16" viewBox="0 0 16 16" width="16" xmlns="http://www.w3.org/2000/svg"><path clip-rule="evenodd" d="m10.7259 5.2449-4.27585 3.08138.33296 1.06618 5.26949.1004zm-5.42224 6.1197 1.05392.0201.49681 1.5908c.16463.5272.72546.8211 1.25263.6565.52718-.1646.82107-.7255.65644-1.2526l-.29808-.9545 4.93622.094c.6824.013 1.177-.6464.9736-1.2979l-2.1538-6.89664c-.2035-.65153-.9855-.91225-1.5392-.51319l-6.57093 4.73532zm-.95456.2981-1.1924-3.81818-.95453.2981c-.52718.16464-.82107.72546-.65644 1.25264l.5962 1.90904c.16463.5272.72545.8211 1.25263.6565z" fill="#7da19f" fill-rule="evenodd"/></svg>