<svg width="17" height="16" viewBox="0 0 17 16" fill="none" xmlns="http://www.w3.org/2000/svg">
<path d="M7.50077 3.02462C7.77557 2.99737 8.00007 2.77614 8.00007 2.5V1.5C8.00007 1.22386 7.77546 0.998144 7.5 1.01759C5.59463 1.15208 3.8998 2.04914 2.71885 3.40542L2.70912 3.41629C2.19388 4.00979 1.79514 4.66937 1.5129 5.36515C1.24189 6.03173 1.07063 6.7495 1.01766 7.49993L1.01697 7.5118C0.920229 8.90402 1.23786 10.3196 1.96986 11.5582L0.544713 11.2399L0.108765 13.1918L5.22534 14.3346L6.3681 9.21798L4.4162 8.78203L3.93908 10.9183C2.9253 9.51114 2.73236 7.69562 3.36027 6.13305C4.04068 4.44367 5.61699 3.21139 7.50077 3.02462Z" fill="#588382"/>
<path fill-rule="evenodd" clip-rule="evenodd" d="M8.49937 12.9754C8.22458 13.0026 8.00007 13.2239 8.00007 13.5V14.5C8.00007 14.7761 8.22469 15.0019 8.50014 14.9824C10.4063 14.8479 12.1018 13.9501 13.2828 12.5929L13.2909 12.5837C13.7841 12.0157 14.1705 11.3871 14.4502 10.7241C14.7427 10.0325 14.9271 9.28412 14.9825 8.50007L14.9833 8.48516C15.088 6.96914 14.7014 5.42555 13.8234 4.11321L15.4014 4.62119L16.0143 2.7174L11.0238 1.11094L9.41737 6.10139L11.3212 6.71423L11.9105 4.88347C13.0758 6.34189 13.3063 8.30123 12.6022 9.95788C11.9025 11.6004 10.3492 12.792 8.49937 12.9754ZM12.3148 3.62758L12.3584 3.64162L12.2874 3.71264L12.3148 3.62758Z" fill="#588382"/>
</svg>
