<svg fill="none" height="16" viewBox="0 0 16 16" width="16" xmlns="http://www.w3.org/2000/svg"><path clip-rule="evenodd" d="m7.42019 2c-.52009 0-.95335.39866-.99654.91695l-.1217 1.46034c-.20683.09712-.40399.21143-.58963.34109l-1.32612-.62505c-.47045-.22174-1.03233-.04585-1.29238.40456l-.57986 1.00436c-.26005.45041-.13143 1.02496.29583 1.32151l1.20453.83604c-.00944.11214-.01426.22561-.01426.3402 0 .11464.00482.22816.01427.34035l-1.20442.83596c-.42726.29655-.55587.87109-.29583 1.32149l.57987 1.0044c.26004.4504.82193.6263 1.29238.4045l1.3261-.625c.18561.1296.38273.2439.58952.341l.1217 1.4603c.04319.5183.47645.917.99654.917h1.15974c.52008 0 .95335-.3987.99654-.917l.1217-1.4603c.20683-.0971.40403-.2114.58963-.3411l1.3261.6251c.4705.2217 1.0323.0458 1.2924-.4046l.5799-1.0043c.26-.4505.1314-1.02501-.2959-1.32156l-1.2045-.83604c.0094-.11214.0143-.22561.0143-.3402 0-.11464-.0049-.22816-.0143-.34035l1.2044-.83596c.4273-.29655.5559-.87111.2958-1.32152l-.5798-1.00435c-.2601-.45041-.822-.6263-1.2924-.40456l-1.3261.62504c-.1856-.12963-.38274-.24391-.58953-.34101l-.1217-1.46034c-.04319-.51829-.47646-.91695-.99654-.91695zm.57981 8c1.10457 0 2-.89543 2-2s-.89543-2-2-2-2 .89543-2 2 .89543 2 2 2z" fill="#7da19f" fill-rule="evenodd"/></svg>