<svg width="67" height="24" viewBox="0 0 67 24" fill="none" xmlns="http://www.w3.org/2000/svg">
<path d="M13.418 7.2H11.878L8.322 17H9.89L10.632 14.83H14.664L15.406 17H16.974L13.418 7.2ZM11.024 13.542L12.648 8.782L14.272 13.542H11.024ZM19.4109 8.474C19.9289 8.474 20.3209 8.082 20.3209 7.578C20.3209 7.074 19.9289 6.682 19.4109 6.682C18.9069 6.682 18.5289 7.074 18.5289 7.578C18.5289 8.082 18.9069 8.474 19.4109 8.474ZM20.1109 17V9.972H18.7249V17H20.1109ZM26.3575 9.86C26.1895 9.832 26.0355 9.832 25.8955 9.846C24.9295 9.86 24.2855 10.28 23.7955 11.148V9.972H22.4095V17H23.7955V13.486C23.7955 11.792 24.8175 10.924 26.3575 11.092V9.86ZM34.3643 6.92H32.9783V11.05C32.4603 10.294 31.5503 9.832 30.5143 9.832C28.5683 9.832 27.2383 11.414 27.2383 13.472C27.2383 15.516 28.5543 17.14 30.5003 17.14C31.5223 17.14 32.4743 16.692 32.9783 15.908V17H34.3643V6.92ZM32.9923 13.486C32.9923 14.844 32.1943 15.922 30.7943 15.922C29.4783 15.922 28.6243 14.956 28.6243 13.486C28.6243 12.016 29.4783 11.05 30.7943 11.05C32.1943 11.05 32.9923 12.128 32.9923 13.486ZM40.5549 9.86C40.3869 9.832 40.2329 9.832 40.0929 9.846C39.1269 9.86 38.4829 10.28 37.9929 11.148V9.972H36.6069V17H37.9929V13.486C37.9929 11.792 39.0149 10.924 40.5549 11.092V9.86ZM45.0477 9.832C42.8917 9.832 41.4217 11.358 41.4217 13.486C41.4217 15.614 42.8917 17.14 45.0477 17.14C47.1757 17.14 48.6457 15.614 48.6457 13.486C48.6457 11.358 47.1617 9.832 45.0477 9.832ZM45.0337 15.922C43.6337 15.922 42.8357 14.872 42.8357 13.486C42.8357 12.1 43.6337 11.05 45.0337 11.05C46.4337 11.05 47.2317 12.1 47.2317 13.486C47.2317 14.872 46.4337 15.922 45.0337 15.922ZM50.5596 20.08H51.9456V15.922C52.4636 16.678 53.3736 17.14 54.4096 17.14C56.3556 17.14 57.6856 15.558 57.6856 13.5C57.6856 11.456 56.3696 9.832 54.4236 9.832C53.3736 9.832 52.4496 10.294 51.9456 11.064V9.972H50.5596V20.08ZM51.9316 13.486C51.9316 12.128 52.7296 11.05 54.1296 11.05C55.4456 11.05 56.2996 12.016 56.2996 13.486C56.2996 14.956 55.4456 15.922 54.1296 15.922C52.7296 15.922 51.9316 14.858 51.9316 13.486Z" fill="#FF1E6F"/>
<rect x="0.75" y="0.75" width="65.5" height="22.5" rx="11.25" stroke="#FF1E6F" stroke-width="1.5"/>
</svg>
