<svg width="46" height="24" viewBox="0 0 46 24" fill="none" xmlns="http://www.w3.org/2000/svg">
<path d="M16.904 7.2L13.852 14.844L10.772 7.2H9.05V17H10.478V9.622L13.376 17H14.314L17.212 9.622V17H18.626V7.2H16.904ZM21.7898 8.474C22.3078 8.474 22.6998 8.082 22.6998 7.578C22.6998 7.074 22.3078 6.682 21.7898 6.682C21.2858 6.682 20.9078 7.074 20.9078 7.578C20.9078 8.082 21.2858 8.474 21.7898 8.474ZM22.4898 17V9.972H21.1038V17H22.4898ZM28.4424 9.832C27.5184 9.832 26.6784 10.308 26.1884 11.092V9.972H24.8024V17H26.1884V13.374C26.1884 12.212 26.7904 11.05 28.0924 11.05C29.1284 11.05 29.6324 11.82 29.6324 12.772V17H31.0184V12.45C31.0184 11.008 29.8984 9.832 28.4424 9.832ZM36.5111 11.12V9.972H34.9851V7.914L33.6271 8.152V9.972H32.4931V11.12H33.6131V15.026C33.6131 16.426 34.2991 17.14 35.6991 17.14C35.9651 17.14 36.2871 17.112 36.5531 17.056V15.796C36.3571 15.866 36.1471 15.894 35.9371 15.894C35.1111 15.894 34.9991 15.53 34.9991 14.746V11.12H36.5111Z" fill="#0BBA71"/>
<rect x="0.75" y="0.75" width="44.5" height="22.5" rx="11.25" stroke="#0BBA71" stroke-width="1.5"/>
</svg>
