<svg fill="none" height="24" viewBox="0 0 25 24" width="25" xmlns="http://www.w3.org/2000/svg"><path clip-rule="evenodd" d="m13.8281 2.98194c0-.3395-.228-.63667-.556-.72448-.3279-.08781-.674.05563-.8436.34971l-2.5085 4.34839c-.00835.01448-.01617.02912-.02345.0439l-2.97937 5.19674c-.27428.4756-.28537 1.065-.03098 1.5506.25667.49.75974.8211 1.33395.8213h1.85785v6.45c0 .3395.2281.6366.556.7244.328.0879.674-.0556.8437-.3497l4.8634-8.4699c.01-.0148.0196-.0301.0287-.0458l.6192-1.0733c.2742-.4756.2853-1.065.0309-1.5506-.2566-.49004-.7597-.82106-1.3339-.82126h-1.8579zm1.2851 9.07156.5764-.9991c.0169-.0293.0183-.0733.0016-.1052-.0051-.0097-.01-.0148-.0128-.0173h-2.6003c-.4142 0-.75-.3357-.75-.75v-4.39892l-.9364 1.62319c-.0048.0093-.0099.01854-.0152.02772l-3.15993 5.51171c-.01693.0293-.01832.0733-.00162.1052.00506.0097.00998.0148.0128.0173h2.60025c.4142 0 .75.3357.75.75v4.3989l3.5052-6.1157c.0095-.0165.0195-.0324.03-.0478z" fill="#20c580" fill-rule="evenodd"/></svg>