<svg fill="none" height="24" viewBox="0 0 24 24" width="24" xmlns="http://www.w3.org/2000/svg"><path clip-rule="evenodd" d="m19 4.5h-8c-.2761 0-.5.22386-.5.5v1h-1.5v-1c0-1.10457.89543-2 2-2h8c1.1046 0 2 .89543 2 2v8c0 1.1046-.8954 2-2 2h-1v-1.5h1c.2761 0 .5-.2239.5-.5v-8c0-.27614-.2239-.5-.5-.5zm-14.5 6.5c0-.2761.22386-.5.5-.5h8c.2761 0 .5.2239.5.5v8c0 .2761-.2239.5-.5.5h-8c-.27614 0-.5-.2239-.5-.5zm-1.5 0c0-1.10457.89543-2 2-2h8c1.1046 0 2 .89543 2 2v8c0 1.1046-.8954 2-2 2h-8c-1.10457 0-2-.8954-2-2z" fill="#7da19f" fill-rule="evenodd"/></svg>