<svg fill="none" height="24" viewBox="0 0 24 24" width="24" xmlns="http://www.w3.org/2000/svg"><path clip-rule="evenodd" d="m17.3183 6.95655c-.9167 4.86405-5.1877 8.54345-10.31808 8.54345-.74011 0-1.46354-.0768-2.16228-.2232 1.3558 1.9498 3.61142 3.2232 6.16226 3.2232 4.1421 0 7.5-3.3578 7.5-7.5 0-1.48932-.4332-2.87642-1.1819-4.04345zm-1.3181-1.95653c0 4.97056-4.0294 8.99998-8.99998 8.99998-.97891 0-1.92131-.1563-2.80363-.4452-.82886-.2715-1.74354.4044-1.37955 1.197 1.42238 3.0973 4.55157 5.2482 8.18316 5.2482 4.9705 0 9-4.0294 9-9 0-2.61099-1.1119-4.96231-2.888-6.6063-.4429-.40999-1.112.00276-1.112.60632z" fill="#7da19f" fill-rule="evenodd"/></svg>