<svg fill="none" height="24" viewBox="0 0 24 24" width="24" xmlns="http://www.w3.org/2000/svg"><path clip-rule="evenodd" d="m13.3633 3-4.65871 17.3867 1.44891.3882 3.9325-14.67627v.00003l.0629-.23492v.00006l.6633-2.47557zm-9.71685 9.7309 3.15763 3.1576-.44829 1.673-3.77-3.77c-.78105-.781-.78105-2.0473 0-2.8284l6.01102-6.01101 1.06066 1.06066-6.01102 6.01105c-.19527.1952-.19527.5118 0 .7071zm13.33735-5.85578-.4483 1.67303 3.5191 3.51905c.1952.1953.1952.5119 0 .7072l-6.011 6.011 1.0606 1.0606 6.011-6.011c.7811-.781.7811-2.0474 0-2.8284z" fill="#7da19f" fill-rule="evenodd"/></svg>