<svg fill="none" height="24" viewBox="0 0 24 24" width="24" xmlns="http://www.w3.org/2000/svg"><path clip-rule="evenodd" d="m12.819 2.27553c.328.08781.5561.38497.5561.72448v6.45h1.8578c.5742.0002 1.0773.33122 1.334.82119.2544.4857.2433 1.0751-.031 1.5507l-.6192 1.0733c-.207.3588-.6657.4818-1.0244.2748-.3588-.207-.4819-.6656-.2749-1.0244l.6191-1.0731c.0169-.0293.0183-.0734.0016-.1053-.005-.0096-.01-.0148-.0128-.0172h-2.6002c-.4143 0-.75-.3358-.75-.75v-4.39896l-1.1089 1.92213c-.2069.35879-.6656.48186-1.02439.27488s-.48186-.66563-.27488-1.02442l2.50847-4.34839c.1697-.29408.5157-.43752.8436-.34971zm-8.34933 2.26082c.29289-.29289.76777-.29289 1.06066 0l13.86667 13.86665c.2929.2929.2929.7678 0 1.0607s-.7678.2929-1.0607 0l-13.86663-13.86669c-.29289-.29289-.29289-.76777 0-1.06066zm5.15527 16.49975c0 .3395.22807.6367.55606.7245.3279.0878.6739-.0556.8436-.3497l2.8327-4.8953c.207-.3588.0839-.8174-.2749-1.0244s-.8174-.0839-1.0244.2749l-1.4331 2.469v-4.399c0-.4142-.3357-.75-.75-.75h-2.60022c-.00282-.0024-.00774-.0076-.0128-.0172-.0167-.0319-.01531-.0759.00162-.1053l.90034-1.577c.20699-.3588.08394-.8174-.27485-1.0244-.35878-.207-.81744-.0839-1.02443.2748l-.90045 1.5772c-.27428.4756-.28537 1.065-.03098 1.5507.25667.49.75974.821 1.33395.8212h1.85786z" fill="#ec3137" fill-rule="evenodd"/></svg>