<svg fill="none" height="24" viewBox="0 0 24 24" width="24" xmlns="http://www.w3.org/2000/svg"><path clip-rule="evenodd" d="m7.41503 5.49987c.21186.59939.77854 1.00013 1.41426 1.00013h6.34141c.6357 0 1.2024-.40074 1.4143-1.00013.2066-.58462.7642-.99987 1.415-.99987.8284 0 1.5.67157 1.5 1.5 0 .27571-.073.52981-.1998.74891-.2687.46466-.2687 1.03753 0 1.50218.1268.21911.1998.4732.1998.74891 0 .82843-.6716 1.5-1.5 1.5-.6508 0-1.2084-.4152-1.415-.99987-.2119-.59939-.7786-1.00013-1.4143-1.00013h-6.34141c-.63572 0-1.2024.40074-1.41426 1.00013-.20663.58467-.76426.99987-1.41503.99987-.82843 0-1.5-.67157-1.5-1.5 0-.27571.07301-.5298.19976-.74891.26878-.46465.26878-1.03752 0-1.50218-.12675-.2191-.19976-.4732-.19976-.74891 0-.82843.67157-1.5 1.5-1.5.65077 0 1.2084.41525 1.41503.99987zm10.58497-2.49987c-1.3062 0-2.4175.83481-2.8293 2h-6.34141c-.41183-1.16519-1.52307-2-2.82929-2-1.65685 0-3 1.34315-3 3 0 .54643.14609 1.05874.40135 1.5-.25526.44126-.40135.95357-.40135 1.5 0 1.6569 1.34315 3 3 3 1.30622 0 2.41746-.8348 2.82929-2h6.34141c.4118 1.1652 1.5231 2 2.8293 2 1.6569 0 3-1.3431 3-3 0-.54643-.1461-1.05874-.4013-1.5.2552-.44126.4013-.95357.4013-1.5 0-1.65685-1.3431-3-3-3zm-12.68113 12.5h13.36243c.2 0 .3808.1192.4596.303l1.2857 3c.1414.33-.1006.697-.4596.697h-15.93384c-.35896 0-.60097-.367-.45957-.697l1.28571-3c.07879-.1838.25956-.303.45957-.303zm-1.83829-.2878c.31516-.7354 1.03824-1.2122 1.83829-1.2122h13.36243c.8 0 1.5231.4768 1.8383 1.2122l1.2857 3c.5656 1.3197-.4025 2.7878-1.8383 2.7878h-15.93384c-1.43583 0-2.40389-1.4681-1.83829-2.7878z" fill="#7da19f" fill-rule="evenodd"/></svg>