<svg fill="none" height="24" viewBox="0 0 24 24" width="24" xmlns="http://www.w3.org/2000/svg"><path clip-rule="evenodd" d="m13 5.5h-6c-.27614 0-.5.22386-.5.5v12c0 .2761.22386.5.5.5h6c.2761 0 .5-.2239.5-.5v-2h1.5v2c0 1.1046-.8954 2-2 2h-6c-1.10457 0-2-.8954-2-2v-12c0-1.10457.89543-2 2-2h6c1.1046 0 2 .89543 2 2v2h-1.5v-2c0-.27614-.2239-.5-.5-.5zm3.8083 3.3156 1.0606-1.06066 2.8309 2.83086c.781.781.781 2.0474 0 2.8284l-2.8469 2.8469-1.0607-1.0607 2.4344-2.4344h-9.47672v-1.5h9.50882z" fill="#7da19f" fill-rule="evenodd"/></svg>