<svg fill="none" height="24" viewBox="0 0 24 24" width="24" xmlns="http://www.w3.org/2000/svg"><path clip-rule="evenodd" d="m7.83596 15.3807 1.68589-1.6896c-.32932-.4816-.52191-1.0641-.52185-1.6916.00015-1.6567 1.3432-2.99971 3-2.99971.6055-.00017 1.1921.18275 1.6859.51809l1.3921-1.39521c-1.0227-.40746-2.0597-.6388-3.054-.62202-.0169.00028-.0338.00028-.0506 0-2.94027-.0496-6.25321 2.07031-8.46572 4.49765 1.18332 1.2991 2.70406 2.5354 4.32828 3.3824zm.31673 1.8062c.00065.0003.0013.0006.00194.0009l1.15831-1.1609c-.00068-.0002-.00136-.0005-.00204-.0007l1.3421-1.3451.0018.0009 1.1878-1.1904-.0025-.0002 1.6511-1.6548.0003.0025 1.1875-1.1901-.0009-.0019 1.833-1.83708c.0006.00033.0012.00066.0018.00099l1.0962-1.0986c-.0006-.00034-.0012-.00068-.0017-.00103l2.378-2.38334-1.0618-1.05949-2.7048 2.71079c-1.3641-.62447-2.8017-1.00241-4.2201-.97848-3.58319-.06045-7.28901 2.44358-9.61882 5.00804-.50651.5623-.50651 1.4164 0 1.9787 1.15188 1.2687 2.66544 2.5505 4.35136 3.5003l-2.33646 2.3416 1.06183 1.0595zm4.43431-6.5677-1.9664 1.9708c-.0777-.1812-.1206-.3808-.1206-.5903.0001-.8284.6716-1.4999 1.5-1.4999h.0004c.2035-.0001.4028.0413.5866.1194zm-.0892 4.3395c1.2602-.2105 2.2544-1.2065 2.4622-2.4677zm-.4991 3.0396c-.7551.0127-1.5123-.0871-2.25863-.2758l1.27693-1.2798c.3211.0418.6405.0612.9564.0559.0169-.0003.0337-.0003.0505 0 2.9952.0504 6.2978-2.1194 8.4684-4.5003-.7791-.8537-1.6937-1.6692-2.6802-2.3657l1.073-1.07538c1.0273.74868 1.9575 1.59688 2.735 2.45168.5065.5623.5065 1.4164 0 1.9787-2.2809 2.5103-5.9769 5.0721-9.6214 5.0107z" fill="#7da19f" fill-rule="evenodd"/></svg>