<svg fill="none" height="24" viewBox="0 0 24 24" width="24" xmlns="http://www.w3.org/2000/svg"><path clip-rule="evenodd" d="m2.37988 11.409c2.32981-2.56444 6.03563-5.06847 9.61882-5.00802 3.5831-.06045 7.2889 2.44358 9.6214 5.00802.5065.5624.5065 1.4164 0 1.9787-2.2809 2.5103-5.9769 5.0721-9.6214 5.0108-3.64452.0613-7.33968-2.5005-9.61882-5.0108-.50651-.5623-.50651-1.4163 0-1.9787zm9.59352 5.4897c-2.99521.0504-6.2971-2.1195-8.46572-4.5003 2.21251-2.42733 5.52545-4.54724 8.46572-4.49764.0168.00029.0337.00029.0506 0 2.94-.04959 6.2527 2.06991 8.4683 4.49764-2.1706 2.381-5.4732 4.5507-8.4684 4.5003-.0168-.0003-.0336-.0003-.0505 0zm.0266-5.9988h.0004c.3978-.0001.7794.1579 1.0606.4392.2813.2814.4392.663.439 1.0608l1.4996.0008-1.4996-.0004c-.0002.8284-.6719 1.4997-1.5003 1.4996-.8283-.0001-1.4998-.6718-1.4997-1.5001.0001-.8284.6716-1.4999 1.5-1.4999zm2.1218-.6213c.5627.5629.8786 1.3262.8782 2.1221-.0004 1.6568-1.3438 2.9995-3.0005 2.9992-1.6568-.0003-2.99965-1.3435-2.9995-3.0003.00015-1.6567 1.3433-2.9997 3-2.9997.7959-.00021 1.5592.3159 2.1218.8787z" fill="#7da19f" fill-rule="evenodd"/></svg>