<svg fill="none" height="24" viewBox="0 0 24 24" width="24" xmlns="http://www.w3.org/2000/svg"><path clip-rule="evenodd" d="m3.5 14.5v-9h17v9h-1.5c-1.3807 0-2.5 1.1193-2.5 2.5v.3787l-2.1464-2.1465c-.4689-.4688-1.1048-.7322-1.7678-.7322zm-.5-10.5c-.55228 0-1 .44772-1 1v10c0 .5523.44772 1 1 1h9.5858c.2652 0 .5196.1054.7071.2929l3 3c.63.63 1.7071.1838 1.7071-.7071v-1.5858c0-.5523.4477-1 1-1h2c.5523 0 1-.4477 1-1v-10c0-.55228-.4477-1-1-1zm5 7c.55228 0 1-.4477 1-1 0-.55228-.44772-1-1-1s-1 .44772-1 1c0 .5523.44772 1 1 1zm5-1c0 .5523-.4477 1-1 1s-1-.4477-1-1c0-.55228.4477-1 1-1s1 .44772 1 1zm3 1c.5523 0 1-.4477 1-1 0-.55228-.4477-1-1-1s-1 .44772-1 1c0 .5523.4477 1 1 1z" fill="#7da19f" fill-rule="evenodd"/></svg>