<svg fill="none" height="24" viewBox="0 0 24 24" width="24" xmlns="http://www.w3.org/2000/svg"><path clip-rule="evenodd" d="m11.2046 6.78111c-.4059-.8004-.9877-1.58625-1.31119-1.92101-.3297-.34116-.87355-.35045-1.21472-.02075-.34117.32971-.35046.87356-.02075 1.21472.0722.07471.30274.2553.7143.48096.30331.16631.65226.32836 1.00956.46504h.7843c.0091-.07154.0221-.14463.0385-.21896zm.7654-1.67767c-.3283-.51351-.6988-.9762-.998-1.28572-.9054-.93688-2.39882-.96239-3.3357-.05699-.90536.87494-.95964 2.29905-.14519 3.23934h-2.49111c-1.10457 0-2 .89543-2 2v2.00003c0 .7403.4022 1.3866 1 1.7324v6.2675c0 1.1046.89543 2 2 2h5.25v.0001h1.5v-.0001h5.25c1.1046 0 2-.8954 2-2v-6.2675c.5978-.3458 1-.9921 1-1.7324v-2.00003c0-1.10457-.8954-2-2-2h-2.5512c.8145-.94029.7602-2.3644-.1452-3.23934-.9368-.9054-2.4303-.87989-3.3357.05699-.2991.30952-.6696.77221-.9979 1.28572zm1.5882 1.89663h-.7844c-.0091-.07154-.022-.14463-.0385-.21896.406-.8004.9877-1.58625 1.3112-1.92101.3297-.34116.8736-.35045 1.2148-.02075.3411.32971.3504.87356.0207 1.21472-.0722.07471-.3027.2553-.7143.48096-.3033.16631-.6523.32836-1.0095.46504zm-2.3082 1.5h-6.25c-.27614 0-.5.22386-.5.5v2.00003c0 .2761.22386.5.5.5h6.25zm1.5 0v3.00003h6.25c.2761 0 .5-.2239.5-.5v-2.00003c0-.27614-.2239-.5-.5-.5zm-1.5 4.50003h-5.75v5.9999c0 .2762.22386.5.5.5h5.25zm1.5 6.4999v-6.4999h5.75v5.9999c0 .2762-.2239.5-.5.5z" fill="#7da19f" fill-rule="evenodd"/></svg>