<svg fill="none" height="24" viewBox="0 0 24 24" width="24" xmlns="http://www.w3.org/2000/svg"><path clip-rule="evenodd" d="m16 5.5h-9c-.27614 0-.5.22386-.5.5v12c0 .2761.22386.5.5.5h9c.2761 0 .5-.2239.5-.5v-2h1.5v2c0 1.1046-.8954 2-2 2h-9c-1.10457 0-2-.8954-2-2v-12c0-1.10457.89543-2 2-2h9c1.1046 0 2 .89543 2 2v2h-1.5v-2c0-.27614-.2239-.5-.5-.5zm-3.0583 9.7004-1.0606 1.0606-2.83085-2.8308c-.78105-.781-.78105-2.0474 0-2.8284l2.84685-2.84687 1.0607 1.06066-2.4344 2.43441h9.4767v1.5h-9.5088z" fill="#7da19f" fill-rule="evenodd"/></svg>