<svg fill="none" height="16" viewBox="0 0 16 16" width="16" xmlns="http://www.w3.org/2000/svg"><path clip-rule="evenodd" d="m8 16c4.4183 0 8-3.5817 8-8 0-4.41828-3.5817-8-8-8-4.41828 0-8 3.58172-8 8 0 4.4183 3.58172 8 8 8zm1.22875-11.67266c0 .546-.448.98-.98.98-.546 0-.994-.434-.994-.98 0-.56.448-.994.994-.994.532 0 .98.434.98.994zm.89595 8.37196h-3.45795v-.434c.658-.056.896-.252.896-.896v-3.52796c0-.644-.266-.812-.896-.756v-.434l1.96-.364c.406-.07.616.112.616.49v4.59196c0 .644.238.84.88195.896z" fill="#b8d1d0" fill-rule="evenodd"/></svg>