<svg fill="none" height="24" viewBox="0 0 24 24" width="24" xmlns="http://www.w3.org/2000/svg"><circle cx="12" cy="12" r="3.25" stroke="#7da19f" stroke-width="1.5"/><path clip-rule="evenodd" d="m12 4.25c.4142 0 .75.33579.75.75v1.04642c-.2457-.03064-.496-.04642-.75-.04642s-.5043.01578-.75.04642v-1.04642c0-.41421.3358-.75.75-.75zm-3.68102 3.01149-.78764-.79078c-.29231-.29348-.76719-.29442-1.06066-.00211-.29348.29231-.29442.76719-.00211 1.06066l.79015.79329c.30781-.39628.66422-.75295 1.06026-1.06106zm-2.27256 3.98851h-1.29642c-.41421 0-.75.3358-.75.75s.33579.75.75.75h1.29642c-.03064-.2457-.04642-.496-.04642-.75s.01578-.5043.04642-.75zm1.29758 4.5347-.87436.8744c-.29289.2929-.29289.7677 0 1.0606.2929.2929.76777.2929 1.06066 0l.89809-.8981c-.40329-.2992-.76773-.6478-1.08439-1.0369zm3.906 2.1689v1.0464c0 .4142.3358.75.75.75s.75-.3358.75-.75v-1.0464c-.2457.0306-.496.0464-.75.0464s-.5043-.0158-.75-.0464zm4.4086-1.1977.6969.6996c.2923.2935.7672.2945 1.0607.0022.2934-.2924.2944-.7672.0021-1.0607l-.6945-.6972c-.3096.3948-.6677.7498-1.0652 1.0561zm2.295-4.0059h1.2964c.4142 0 .75-.3358.75-.75s-.3358-.75-.75-.75h-1.2964c.0306.2457.0464.496.0464.75s-.0158.5043-.0464.75zm-1.132-4.32162.785-.78498c.2929-.2929.2929-.76777 0-1.06066s-.7678-.29289-1.0607 0l-.7612.76125c.3891.31665.7377.6811 1.0369 1.08439z" fill="#7da19f" fill-rule="evenodd"/></svg>