<svg fill="none" height="24" viewBox="0 0 24 24" width="24" xmlns="http://www.w3.org/2000/svg"><path clip-rule="evenodd" d="m14.2473 4.69903 4.3551 8.76577c.1618.3256-.0672.7096-.4306.7222l-8.0064.2761-1.81011-3.6434 5.05641-6.21379c.2296-.28206.6738-.23254.8356.09312zm-7.6651 5.92307 2.66961 5.3734 8.97169-.3094c1.4537-.0502 2.3694-1.5861 1.7222-2.8887l-.8553-1.7215c.9822-.4959 1.3797-1.69299.8878-2.67846l-.8932-1.78945c-.4903-.98209-1.6794-1.38447-2.6641-.90537l-.8302-1.67099c-.6472-1.30267-2.4243-1.50071-3.3424-.37248zm-1.80259 5.362c.49146.9892 1.69178 1.3927 2.68099.9013l1.79113-.8899-2.66961-5.3734-1.79113.8899c-.98921.4915-1.39272 1.6918-.90125 2.681zm5.80129 4.9342c-.4946.2457-1.09476.0439-1.34049-.4507l-.88987-1.7911 1.79116-.8899.8898 1.7912c.2458.4946.044 1.0947-.4506 1.3405z" fill="#7da19f" fill-rule="evenodd"/></svg>