<svg fill="none" height="24" viewBox="0 0 24 24" width="24" xmlns="http://www.w3.org/2000/svg"><path clip-rule="evenodd" d="m19.2486 18.7808-6.7991-13.93822c-.1826-.37437-.7161-.37438-.8988.00001l-6.79909 13.93821c-.16202.3321.07984.7192.44939.7192h13.5982c.3696 0 .6114-.3871.4494-.7192zm-5.4509-14.59585c-.7305-1.49754-2.8646-1.49753-3.5951 0l-6.79914 13.93825c-.64808 1.3285.31933 2.8768 1.79754 2.8768h13.5982c1.4783 0 2.4457-1.5483 1.7976-2.8769zm-2.7977 12.81505c0-.5523.4477-1 1-1s1 .4477 1 1-.4477 1-1 1-1-.4477-1-1zm.25-7v5h1.5v-5z" fill="#7da19f" fill-rule="evenodd"/></svg>