<svg fill="none" height="24" viewBox="0 0 24 24" width="24" xmlns="http://www.w3.org/2000/svg"><path clip-rule="evenodd" d="m12 20.5c4.6944 0 8.5-3.8056 8.5-8.5 0-.0849-.0012-.1694-.0037-.2537l1.3722-1.3722c.0865.5292.1315 1.0723.1315 1.6259 0 5.5228-4.4772 10-10 10-5.52285 0-10-4.4772-10-10 0-5.52285 4.47715-10 10-10 2.6997 0 5.1495 1.06981 6.9487 2.80863l-1.0608 1.06084c-1.5276-1.46745-3.6024-2.36947-5.8879-2.36947-4.69442 0-8.5 3.80558-8.5 8.5 0 4.6944 3.80558 8.5 8.5 8.5zm2.4446-5.8839 8.0858-8.08577-1.0607-1.06066-8.0858 8.08583c-.4881.4881-1.2796.4881-1.7677 0l-3.08581-3.0858-1.06066 1.0606 3.08577 3.0858c1.074 1.074 2.8152 1.074 3.8891 0z" fill="#7da19f" fill-rule="evenodd"/></svg>