<svg fill="none" height="24" viewBox="0 0 24 24" width="24" xmlns="http://www.w3.org/2000/svg"><path clip-rule="evenodd" d="m9.41416 5.12132c-.78105.78105-.78105 2.04738 0 2.82843l2.12134 2.12135 1.0606-1.06069-1.8093-1.80934h8.4632c.138 0 .25.11193.25.25v4.00003h1.5v-4.00003c0-.9665-.7835-1.75-1.75-1.75h-8.2943l1.6404-1.64041-1.0606-1.06066zm5.17164 13.75738c.7811-.781.7811-2.0474 0-2.8284l-2.1213-2.1213-1.0607 1.0606 1.8093 1.8093h-8.46305c-.13807 0-.25-.1119-.25-.25v-4h-1.5v4c0 .9665.78351 1.75 1.75 1.75h8.29425l-1.6405 1.6405 1.0607 1.0606zm-12.5858-12.3787c0-.82843.67157-1.5 1.5-1.5s1.5.67157 1.5 1.5-.67157 1.5-1.5 1.5-1.5-.67157-1.5-1.5zm18.5 9.5c-.8284 0-1.5.6716-1.5 1.5s.6716 1.5 1.5 1.5 1.5-.6716 1.5-1.5-.6716-1.5-1.5-1.5z" fill="#7da19f" fill-rule="evenodd"/></svg>