<svg width="24" height="24" viewBox="0 0 24 24" fill="none" xmlns="http://www.w3.org/2000/svg">
<path fill-rule="evenodd" clip-rule="evenodd" d="M8.75 9H7.25H6H5.5C4.67157 9 4 9.67157 4 10.5V20.5C4 21.3284 4.67157 22 5.5 22H18.5C19.3284 22 20 21.3284 20 20.5V10.5C20 9.67157 19.3284 9 18.5 9H16.75H15.25H8.75ZM18.5 10.5V20.5H5.5V10.5H18.5ZM11.25 14V17H12.75V14H11.25Z" fill="#789594"/>
<path d="M15.0503 10H16.3848L17.3085 9.07629C19.1635 7.2213 19.1635 4.21376 17.3085 2.35877C15.4535 0.503782 12.4459 0.503782 10.591 2.35877L9 3.94973L10.0607 5.01039L11.6516 3.41943C12.9208 2.15023 14.9786 2.15023 16.2478 3.41943C17.517 4.68864 17.517 6.74642 16.2478 8.01563L14.6569 9.60659L15.0503 10Z" fill="#789594"/>
</svg>
