<svg width="16" height="16" viewBox="0 0 16 16" fill="none" xmlns="http://www.w3.org/2000/svg">
<path fill-rule="evenodd" clip-rule="evenodd" d="M12 4.47013V6.00004C12.5523 6.00004 13 6.44775 13 7.00004V13C13 14.1046 12.1046 15 11 15H5C3.89543 15 3 14.1046 3 13V7.00004C3 6.44775 3.44772 6.00004 4 6.00004H10V4.00004H10.0045C9.94309 3.25709 9.4669 2.57849 8.7239 2.29491C7.95896 2.00295 7.12595 2.21162 6.58565 2.75944L4.63563 2.01517C5.63358 0.443686 7.63028 -0.263224 9.43707 0.426383C11.1323 1.07341 12.1331 2.7486 12 4.47013ZM10 8.00004H11V13H5L5 8.00004H10Z" fill="#789594"/>
</svg>
