<svg fill="none" height="24" viewBox="0 0 24 24" width="24" xmlns="http://www.w3.org/2000/svg"><path clip-rule="evenodd" d="m17 5.5h-12c-.82843 0-1.5.67157-1.5 1.5v10c0 .8284.67157 1.5 1.5 1.5h12c.8284 0 1.5-.6716 1.5-1.5v-1h-1.5c-2.2091 0-4-1.7909-4-4 0-2.20914 1.7909-4 4-4h1.5v-1c0-.82843-.6716-1.5-1.5-1.5zm3 2.5h.9995c.5523 0 1.0005.44772 1.0005 1v6c0 .5523-.4477 1-1 1h-1v1c0 1.6569-1.3431 3-3 3h-12c-1.65685 0-3-1.3431-3-3v-10c0-1.65685 1.34315-3 3-3h12c1.6569 0 3 1.34315 3 3zm.5 1.5h-3.5c-1.3807 0-2.5 1.1193-2.5 2.5s1.1193 2.5 2.5 2.5h3.5zm-2.5 2.5c0 .5523-.4477 1-1 1s-1-.4477-1-1 .4477-1 1-1 1 .4477 1 1z" fill="#7da19f" fill-rule="evenodd"/></svg>