<svg width="32" height="32" viewBox="0 0 32 32" fill="none" xmlns="http://www.w3.org/2000/svg">
<path fill-rule="evenodd" clip-rule="evenodd" d="M0 31.9999L30.7493 6.39449C31.126 6.06609 31.4312 5.66382 31.6459 5.21261C31.8607 4.7614 31.9804 4.27088 31.9978 3.77147C32.0152 3.27206 31.9297 2.7744 31.7467 2.30939C31.5637 1.84436 31.2873 1.42188 30.9343 1.06815C30.5804 0.714443 30.1577 0.437267 29.6922 0.253888C29.2266 0.0705108 28.7284 -0.0151517 28.2284 0.00219377C27.7284 0.0195393 27.2372 0.139525 26.7856 0.354719C26.3339 0.569913 25.9313 0.875701 25.6028 1.25308L0 31.9999ZM14.8337 4.72665L1.88659 14.4362L11.597 1.49014C11.7955 1.22545 12.0486 1.00648 12.3391 0.848022C12.6296 0.689561 12.9509 0.595304 13.281 0.571635C13.6111 0.547965 13.9423 0.595428 14.2525 0.710816C14.5627 0.826203 14.8445 1.00683 15.0788 1.24048C15.3135 1.47453 15.4951 1.7563 15.6113 2.0667C15.7277 2.37711 15.7758 2.70889 15.7525 3.03954C15.7293 3.37018 15.6352 3.69195 15.4767 3.98305C15.3182 4.27414 15.0989 4.52773 14.8337 4.72665ZM30.5093 20.4038L17.5622 30.1133L27.2726 17.1673C27.4712 16.9026 27.7243 16.6836 28.0148 16.5251C28.3054 16.3667 28.6265 16.2724 28.9566 16.2487C29.2866 16.2251 29.6179 16.2725 29.9281 16.3879C30.2383 16.5033 30.5201 16.6839 30.7544 16.9175C30.9891 17.1516 31.1708 17.4334 31.2871 17.7438C31.4033 18.0542 31.4514 18.386 31.4281 18.7166C31.4049 19.0472 31.3107 19.3691 31.1522 19.6602C30.9937 19.9512 30.7745 20.2048 30.5093 20.4038Z" fill="#F5F7F6"/>
</svg>
