<svg width="32" height="26" viewBox="0 0 32 26" fill="none" xmlns="http://www.w3.org/2000/svg">
<path d="M7.21704 5.34741C12.0676 0.524171 19.932 0.524171 24.7826 5.34741L28.9728 9.51378L24.7826 13.6801C19.932 18.5034 12.0676 18.5034 7.21704 13.6801L3.02686 9.51378L7.21704 5.34741Z" fill="black"/>
<path fill-rule="evenodd" clip-rule="evenodd" d="M0 9.5201L9.51323 0H22.4864L32 9.5201L16 25.5135L0 9.5201ZM23.3514 6.05366C19.309 1.9937 12.691 1.9937 8.64864 6.05366L5.18911 9.51319L8.64864 12.9726C12.691 17.0326 19.309 17.0326 23.3514 12.9726L26.8109 9.51319L23.3514 6.05366Z" fill="#0CE466"/>
<path d="M15.9999 12.5404C14.3286 12.5404 12.9727 11.1858 12.9727 9.51333C12.9727 7.84089 14.3286 6.48633 15.9999 6.48633C17.6708 6.48633 19.0267 7.84089 19.0267 9.51333C19.0267 11.1858 17.6708 12.5404 15.9999 12.5404Z" fill="black"/>
<path fill-rule="evenodd" clip-rule="evenodd" d="M11.0273 9.51348C11.0273 12.2611 13.2548 14.4865 16.0003 14.4865C18.7454 14.4865 20.9733 12.2611 20.9733 9.51352C20.9733 6.76589 18.7454 4.54053 16.0003 4.54053C13.2548 4.54053 11.0273 6.76589 11.0273 9.51348ZM13.838 9.51352C13.838 10.7082 14.8065 11.6757 15.9999 11.6757C17.1937 11.6757 18.1622 10.7082 18.1622 9.51352C18.1622 8.31892 17.1937 7.35138 15.9999 7.35138C14.8065 7.35138 13.838 8.31892 13.838 9.51352Z" fill="white"/>
</svg>
