<svg width="32" height="32" viewBox="0 0 32 32" fill="none" xmlns="http://www.w3.org/2000/svg">
<path d="M32 16C32 24.8361 24.8361 32 16 32C7.16395 32 0 24.8361 0 16C0 7.16395 7.16395 0 16 0C24.8379 0 32 7.16395 32 16Z" fill="#2081E2"/>
<path d="M7.89345 16.5377L7.9625 16.4293L12.1247 9.91797C12.1855 9.82261 12.3286 9.8325 12.3746 9.93604C13.0699 11.4944 13.6699 13.4325 13.3888 14.6391C13.2688 15.1355 12.9401 15.8079 12.5702 16.4293C12.5225 16.5197 12.4699 16.6085 12.4141 16.6939C12.3877 16.7334 12.3434 16.7564 12.2957 16.7564H8.01509C7.90003 16.7564 7.83265 16.6315 7.89345 16.5377Z" fill="white"/>
<path d="M26.4459 17.7474V18.7781C26.4459 18.8373 26.4098 18.8899 26.3572 18.9129C26.035 19.051 24.932 19.5573 24.4733 20.1951C23.3029 21.8242 22.4087 24.1535 20.4097 24.1535H12.0705C9.11482 24.1535 6.71973 21.7502 6.71973 18.7847V18.6893C6.71973 18.6104 6.78383 18.5463 6.86277 18.5463H11.5115C11.6036 18.5463 11.671 18.6318 11.6628 18.7222C11.6299 19.0247 11.6858 19.3337 11.8288 19.6148C12.105 20.1754 12.6771 20.5255 13.2952 20.5255H15.5965V18.7288H13.3214C13.2047 18.7288 13.1357 18.594 13.2031 18.4986C13.2277 18.4608 13.2557 18.4214 13.2853 18.377C13.5006 18.0713 13.808 17.5962 14.1138 17.0553C14.3225 16.6904 14.5247 16.3008 14.6875 15.9096C14.7204 15.8389 14.7467 15.7666 14.773 15.6959C14.8174 15.571 14.8634 15.4542 14.8963 15.3375C14.9291 15.2389 14.9554 15.1353 14.9817 15.0383C15.059 14.7063 15.0919 14.3545 15.0919 13.9896C15.0919 13.8466 15.0853 13.697 15.0722 13.5539C15.0656 13.3978 15.0458 13.2416 15.0261 13.0854C15.013 12.9474 14.9883 12.8109 14.962 12.6679C14.9291 12.4591 14.8831 12.252 14.8305 12.0432L14.8124 11.9643C14.773 11.8213 14.7401 11.6849 14.6941 11.5419C14.5642 11.0931 14.4146 10.6558 14.2568 10.2465C14.1993 10.0838 14.1335 9.92762 14.0677 9.77146C13.9707 9.53636 13.8721 9.32268 13.7817 9.12047C13.7357 9.02842 13.6962 8.94458 13.6568 8.8591C13.6124 8.76211 13.5664 8.66515 13.5204 8.57306C13.4875 8.50237 13.4496 8.43663 13.4234 8.37089L13.1423 7.85142C13.1028 7.78074 13.1686 7.6969 13.2458 7.71827L15.0047 8.195H15.0097C15.013 8.195 15.0146 8.19663 15.0163 8.19663L15.248 8.26074L15.5028 8.33306L15.5965 8.35937V7.31389C15.5965 6.80922 16.0009 6.3999 16.5007 6.3999C16.7505 6.3999 16.9774 6.5018 17.1401 6.66785C17.3028 6.83389 17.4048 7.06074 17.4048 7.31389V8.86568L17.5922 8.91827C17.607 8.92321 17.6218 8.92979 17.6349 8.93964C17.6809 8.97416 17.7467 9.02515 17.8305 9.08758C17.8963 9.1402 17.967 9.20431 18.0525 9.27005C18.2218 9.40652 18.4239 9.58241 18.6459 9.78458C18.705 9.83556 18.7626 9.88815 18.8152 9.94077C19.1012 10.207 19.4218 10.5194 19.7276 10.8646C19.813 10.9616 19.8969 11.0602 19.9823 11.1638C20.0678 11.269 20.1582 11.3726 20.2371 11.4761C20.3407 11.6142 20.4525 11.7572 20.5495 11.9068C20.5955 11.9775 20.6481 12.0498 20.6925 12.1205C20.8174 12.3096 20.9275 12.5052 21.0328 12.7008C21.0771 12.7912 21.1232 12.8898 21.1626 12.9868C21.2793 13.2482 21.3714 13.5145 21.4306 13.7808C21.4487 13.8383 21.4618 13.9008 21.4684 13.9567V13.9698C21.4881 14.0488 21.4947 14.1326 21.5012 14.2181C21.5275 14.4909 21.5144 14.7638 21.4552 15.0383C21.4306 15.1551 21.3977 15.2652 21.3582 15.3819C21.3188 15.4937 21.2793 15.6104 21.2284 15.7205C21.1298 15.949 21.013 16.1775 20.8749 16.3912C20.8306 16.4701 20.778 16.554 20.7253 16.6329C20.6678 16.7167 20.6087 16.7956 20.556 16.8729C20.4837 16.9715 20.4064 17.0751 20.3275 17.1671C20.2569 17.2641 20.1845 17.3611 20.1056 17.4466C19.9955 17.5764 19.8903 17.6997 19.7801 17.8181C19.7144 17.8954 19.6437 17.9743 19.5714 18.045C19.5007 18.1238 19.4283 18.1945 19.3626 18.2603C19.2525 18.3704 19.1604 18.4559 19.0831 18.5266L18.9023 18.6926C18.876 18.7156 18.8415 18.7288 18.8053 18.7288H17.4048V20.5255H19.167C19.5615 20.5255 19.9363 20.3858 20.2388 20.1294C20.3423 20.0389 20.7944 19.6477 21.3287 19.0576C21.3467 19.0378 21.3698 19.023 21.396 19.0165L26.2635 17.6093C26.3539 17.583 26.4459 17.6521 26.4459 17.7474Z" fill="white"/>
</svg>
