<svg width="26" height="32" viewBox="0 0 26 32" fill="none" xmlns="http://www.w3.org/2000/svg">
<path d="M7.29157 27.7001C7.48493 27.6099 7.69756 27.5687 7.91062 27.5803C8.39021 27.6062 8.82101 27.9081 9.0395 28.3727L10.1214 30.6909L11.9928 25.5487C11.7062 25.4745 11.431 25.3619 11.1745 25.2141L10.3599 24.7436C9.94831 24.5057 9.48141 24.3801 9.006 24.3794H8.06539C7.57633 24.379 7.09347 24.27 6.65175 24.0601L4.92676 28.8013L7.29157 27.7001Z" fill="#E4CBF5"/>
<path d="M10.2786 30.9566C10.2682 30.986 10.2491 31.0116 10.2239 31.0301C10.1987 31.0486 10.1686 31.0592 10.1374 31.0604H10.1301C10.1 31.0603 10.0706 31.0518 10.0453 31.0357C10.0199 31.0195 9.99969 30.9965 9.98695 30.9693L8.82167 28.4738C8.64323 28.0911 8.28928 27.8401 7.89818 27.8183C7.72386 27.8085 7.54982 27.842 7.39164 27.9159L4.84949 29.0994C4.82119 29.1125 4.78963 29.117 4.7588 29.1122C4.72796 29.1075 4.69923 29.0937 4.67621 29.0726C4.6532 29.0516 4.63694 29.0241 4.62947 28.9939C4.62201 28.9636 4.62368 28.9317 4.63427 28.9024L6.43647 23.9506C6.26612 23.8543 6.10465 23.743 5.95396 23.6182L3.9118 29.233C3.87828 29.3248 3.87274 29.4245 3.8959 29.5194C3.91905 29.6143 3.96985 29.7003 4.04186 29.7663C4.11388 29.8324 4.20386 29.8756 4.30044 29.8904C4.39701 29.9053 4.49583 29.8912 4.58439 29.8499L7.63198 28.4297C7.75061 28.3747 7.88621 28.369 8.00907 28.4137C8.13193 28.4585 8.23204 28.5502 8.28745 28.6686L9.70765 31.7129C9.74898 31.8015 9.81564 31.8758 9.89921 31.9265C9.98277 31.9772 10.0795 32.0019 10.1771 31.9976C10.2748 31.9934 10.369 31.9602 10.4478 31.9024C10.5266 31.8446 10.5864 31.7647 10.6199 31.6729L12.8106 25.6538C12.6147 25.6533 12.4192 25.6353 12.2265 25.6002L10.2786 30.9566Z" fill="#E4CBF5"/>
<path d="M4.67725 29.0736C4.70022 29.0948 4.72898 29.1086 4.75986 29.1134C4.79074 29.1181 4.82233 29.1135 4.85059 29.1002L7.39274 27.9167C7.55092 27.8428 7.72496 27.8092 7.89927 27.8191C8.29037 27.8402 8.64433 28.0911 8.82276 28.4746L9.98805 30.9701C10.0008 30.9973 10.021 31.0203 10.0464 31.0364C10.0717 31.0526 10.1011 31.0611 10.1312 31.0611H10.1384C10.1697 31.06 10.1998 31.0494 10.225 31.0309C10.2502 31.0124 10.2693 30.9868 10.2797 30.9574L12.2269 25.5999C12.1478 25.5854 12.0692 25.5683 11.9913 25.5479L10.1213 30.6908L9.03944 28.3726C8.82349 27.9098 8.39161 27.6079 7.91056 27.5802C7.6975 27.5686 7.48487 27.6098 7.2915 27.7L4.9267 28.8012L6.65169 24.0614C6.57886 24.025 6.50603 23.9886 6.43793 23.9521L4.63501 28.9046C4.62468 28.9338 4.62317 28.9654 4.63068 28.9955C4.6382 29.0255 4.65439 29.0527 4.67725 29.0736Z" fill="white"/>
<path d="M16.6714 28.329C16.7512 28.157 16.868 28.0047 17.0133 27.8829C17.0315 27.8676 17.0497 27.8526 17.0694 27.8384C17.4529 27.5497 17.9798 27.5041 18.4423 27.7197L20.7615 28.7987L19.0293 24.0483C18.5803 24.2667 18.0876 24.3804 17.5883 24.3808H16.6481C16.1727 24.3815 15.7058 24.5071 15.2942 24.745L14.4799 25.214C14.2321 25.357 13.9667 25.4672 13.6904 25.5417L15.5691 30.6938L16.6714 28.329Z" fill="#E4CBF5"/>
<path d="M21.0529 28.9007C21.0636 28.9301 21.0653 28.9619 21.0579 28.9923C21.0505 29.0227 21.0342 29.0501 21.0112 29.0713C20.9882 29.0924 20.9594 29.1062 20.9285 29.111C20.8976 29.1158 20.866 29.1113 20.8377 29.0981L18.341 27.9364C17.9579 27.7583 17.5257 27.794 17.2122 28.0293C17.1961 28.0413 17.1808 28.0533 17.1659 28.0657C17.0473 28.1651 16.952 28.2894 16.887 28.4298L15.7017 30.9713C15.6891 30.9986 15.669 31.0217 15.6437 31.0379C15.6184 31.0541 15.589 31.0627 15.5589 31.0627H15.5516C15.5204 31.0615 15.4902 31.051 15.4651 31.0325C15.4399 31.014 15.4208 30.9883 15.4103 30.9589L13.4552 25.5953C13.2631 25.632 13.0681 25.6518 12.8726 25.6546L15.0684 31.6766C15.102 31.768 15.162 31.8474 15.2406 31.9049C15.3193 31.9623 15.4132 31.9952 15.5105 31.9994C15.6078 32.0036 15.7042 31.9789 15.7875 31.9285C15.8708 31.8781 15.9374 31.8041 15.9788 31.7159L17.399 28.6694C17.4545 28.5511 17.5546 28.4595 17.6774 28.4147C17.8002 28.37 17.9358 28.3757 18.0544 28.4306L21.1002 29.8475C21.1888 29.8887 21.2876 29.9027 21.3842 29.8877C21.4807 29.8727 21.5706 29.8295 21.6426 29.7634C21.7146 29.6974 21.7654 29.6115 21.7885 29.5166C21.8117 29.4217 21.8062 29.322 21.7728 29.2302L19.7226 23.5972C19.5729 23.7238 19.4121 23.8369 19.2423 23.9351L21.0529 28.9007Z" fill="#E4CBF5"/>
<path d="M15.5527 31.0624H15.56C15.5901 31.0624 15.6195 31.0538 15.6448 31.0376C15.6701 31.0214 15.6902 30.9983 15.7028 30.971L16.8881 28.4299C16.9531 28.2895 17.0484 28.1651 17.167 28.0658C17.1819 28.053 17.1972 28.041 17.2133 28.0294C17.5261 27.7941 17.9583 27.7584 18.3421 27.9365L20.8388 29.0981C20.8671 29.1113 20.8987 29.1158 20.9296 29.1111C20.9605 29.1063 20.9893 29.0925 21.0123 29.0713C21.0353 29.0502 21.0516 29.0227 21.059 28.9924C21.0664 28.962 21.0647 28.9301 21.054 28.9008L19.2427 23.9355C19.1731 23.976 19.1018 24.0135 19.0293 24.0484L20.7616 28.7988L18.4423 27.7198C17.9791 27.5042 17.4529 27.5498 17.0694 27.8385C17.0501 27.8527 17.033 27.8677 17.0133 27.883C16.868 28.0048 16.7513 28.1571 16.6714 28.329L15.5691 30.6931L13.6904 25.5411C13.6125 25.5622 13.5342 25.5801 13.4556 25.5954L15.4114 30.9586C15.4219 30.988 15.441 31.0137 15.4661 31.0322C15.4913 31.0507 15.5215 31.0612 15.5527 31.0624Z" fill="white"/>
<path d="M24.6942 14.1825C24.9312 13.7707 25.0559 13.3039 25.0559 12.8288C25.0559 12.3536 24.9312 11.8869 24.6942 11.475L24.2241 10.6604C23.9342 10.1579 23.7814 9.58804 23.7813 9.00789V8.06729C23.7805 7.59216 23.6551 7.12555 23.4175 6.71409C23.1799 6.30262 22.8385 5.96071 22.4274 5.72251L21.6128 5.25239C21.1106 4.96188 20.6934 4.54461 20.4031 4.04231L19.933 3.22806C19.6947 2.81695 19.3527 2.47555 18.9412 2.23797C18.5296 2.00039 18.063 1.87494 17.5878 1.87414H16.6476C16.0671 1.87392 15.4969 1.72122 14.9939 1.43133L14.1797 0.961212C13.7678 0.724296 13.301 0.599609 12.8258 0.599609C12.3506 0.599609 11.8838 0.724296 11.4719 0.961212L10.6583 1.43133C10.1557 1.72119 9.5857 1.87389 9.00546 1.87414H8.06522C7.59008 1.87489 7.12346 2.00033 6.71199 2.23792C6.30052 2.47551 5.95861 2.81693 5.72044 3.22806L5.24995 4.04231C4.95976 4.54474 4.54258 4.96205 4.04024 5.25239L3.22563 5.72251C2.81456 5.96073 2.47321 6.30265 2.23569 6.71412C1.99817 7.12559 1.87278 7.59218 1.87207 8.06729V9.00789C1.87176 9.58801 1.71906 10.1579 1.42926 10.6604L0.958778 11.475C0.721858 11.8869 0.597168 12.3536 0.597168 12.8288C0.597168 13.3039 0.721858 13.7707 0.958778 14.1825L1.42926 14.9971C1.71906 15.4997 1.87176 16.0695 1.87207 16.6496V17.5888C1.87278 18.0639 1.99817 18.5305 2.23569 18.942C2.47321 19.3534 2.81456 19.6953 3.22563 19.9336L4.04024 20.4037C4.54258 20.694 4.95976 21.1113 5.24995 21.6138L5.72044 22.428C5.95856 22.8392 6.30045 23.1807 6.71193 23.4183C7.12341 23.6558 7.59006 23.7813 8.06522 23.7819H9.00546C9.5857 23.7822 10.1557 23.9349 10.6583 24.2247L11.4726 24.6949C11.8845 24.9318 12.3513 25.0565 12.8265 25.0565C13.3017 25.0565 13.7685 24.9318 14.1804 24.6949L14.9939 24.2262C15.4965 23.9364 16.0663 23.7836 16.6465 23.7834H17.5867C18.0619 23.7827 18.5286 23.6572 18.9401 23.4197C19.3517 23.1821 19.6936 22.8406 19.9319 22.4295L20.402 21.6152C20.6923 21.1129 21.1095 20.6956 21.6117 20.4051L22.4263 19.935C22.8378 19.6968 23.1796 19.3548 23.4174 18.943C23.6552 18.5312 23.7807 18.0643 23.7813 17.5888V16.6496C23.7814 16.0695 23.9342 15.4996 24.2241 14.9971L24.6942 14.1825ZM13.2766 15.4825L14.731 10.7394C14.7441 10.6947 14.7668 10.6534 14.7977 10.6185C14.8148 10.602 14.8353 10.5893 14.8577 10.5812C14.8801 10.5731 14.9039 10.5698 14.9277 10.5716H15.3282C15.352 10.5698 15.3758 10.5731 15.3982 10.5812C15.4206 10.5893 15.4411 10.602 15.4582 10.6185C15.4887 10.6535 15.5115 10.6946 15.5249 10.7391L16.9728 15.4807C16.9803 15.5078 16.9843 15.5357 16.9848 15.5637C16.9859 15.6033 16.973 15.642 16.9484 15.673C16.9382 15.6874 16.9248 15.6993 16.9093 15.7075C16.8937 15.7158 16.8764 15.7203 16.8588 15.7207H16.5598C16.5391 15.7222 16.5183 15.7186 16.4992 15.7102C16.4802 15.7018 16.4635 15.6889 16.4506 15.6726C16.4312 15.6476 16.4161 15.6195 16.4058 15.5896L16.1192 14.6646C16.1094 14.6329 16.0896 14.6052 16.0629 14.5855C16.0361 14.5659 16.0038 14.5553 15.9706 14.5554H14.2868C14.2536 14.5553 14.2213 14.5659 14.1946 14.5856C14.168 14.6052 14.1483 14.633 14.1386 14.6646L13.852 15.5896C13.8453 15.6206 13.8306 15.6494 13.8094 15.673C13.7957 15.6892 13.7783 15.702 13.7588 15.7102C13.7392 15.7185 13.718 15.7221 13.6968 15.7207H13.3979C13.3802 15.7203 13.3629 15.7158 13.3474 15.7075C13.3318 15.6993 13.3184 15.6874 13.3083 15.673C13.2836 15.642 13.2707 15.6033 13.2719 15.5637C13.2718 15.5366 13.2734 15.5095 13.2766 15.4825ZM9.14056 12.6858L10.3976 10.6393C10.4279 10.5902 10.4702 10.5497 10.5206 10.5216C10.5709 10.4934 10.6276 10.4787 10.6853 10.4787C10.743 10.4787 10.7997 10.4934 10.85 10.5216C10.9004 10.5497 10.9427 10.5902 10.973 10.6393L12.2326 12.6895C12.2937 12.7891 12.327 12.9033 12.3288 13.0201C12.3307 13.137 12.3011 13.2522 12.2431 13.3537L10.9952 15.5386C10.966 15.5902 10.9237 15.6331 10.8725 15.663C10.8213 15.6929 10.7631 15.7087 10.7039 15.7087H10.702C10.6431 15.7089 10.5851 15.6936 10.5339 15.6643C10.4827 15.6349 10.4402 15.5926 10.4107 15.5415L9.13328 13.3566C9.07339 13.2547 9.04242 13.1384 9.0437 13.0202C9.04499 12.902 9.07847 12.7864 9.14056 12.6858ZM5.66764 13.7193C5.63222 13.7194 5.59828 13.7335 5.57324 13.7585C5.5482 13.7836 5.53409 13.8175 5.53399 13.8529V15.5419C5.5356 15.5875 5.52145 15.6322 5.49393 15.6686C5.48103 15.6851 5.46442 15.6984 5.44544 15.7073C5.42646 15.7162 5.40565 15.7206 5.38469 15.72H5.07407C5.05334 15.7208 5.03271 15.7166 5.01403 15.7076C4.99535 15.6985 4.97919 15.685 4.96701 15.6682C4.94157 15.6312 4.92879 15.5868 4.93059 15.5419V11.0512C4.93078 10.924 4.98137 10.8021 5.07127 10.7122C5.16117 10.6223 5.28304 10.5718 5.41018 10.5716H6.56382C6.85514 10.5716 7.11004 10.6313 7.32162 10.7485C7.53794 10.8693 7.71196 11.0537 7.82014 11.2766C7.9374 11.5089 7.99712 11.8024 7.99712 12.1505C7.99712 12.4987 7.9374 12.7903 7.82014 13.0194C7.71103 13.241 7.53684 13.4239 7.32089 13.5438C7.10786 13.6614 6.85259 13.7208 6.56309 13.7208L5.66764 13.7193ZM21.068 13.0179C20.9589 13.2395 20.7847 13.4225 20.5688 13.5423C20.3554 13.6599 20.1005 13.7193 19.811 13.7193H18.9162C18.8808 13.7194 18.8469 13.7335 18.8218 13.7585C18.7968 13.7836 18.7827 13.8175 18.7826 13.8529V15.5419C18.7842 15.5875 18.7701 15.6322 18.7425 15.6686C18.7296 15.6851 18.713 15.6984 18.694 15.7073C18.675 15.7162 18.6542 15.7205 18.6333 15.72H18.3227C18.3019 15.7208 18.2812 15.7165 18.2625 15.7075C18.2438 15.6985 18.2275 15.685 18.2152 15.6682C18.1898 15.6312 18.177 15.5868 18.1788 15.5419V11.0512C18.179 10.9242 18.2295 10.8025 18.3191 10.7126C18.4088 10.6228 18.5304 10.572 18.6573 10.5716H19.811C20.1023 10.5716 20.3572 10.6313 20.5688 10.7485C20.7854 10.8692 20.9596 11.0536 21.068 11.2766C21.1853 11.5089 21.2446 11.8024 21.2446 12.1505C21.2446 12.4987 21.1845 12.7885 21.068 13.0179Z" fill="white"/>
<path d="M18.9172 13.0854H19.782C20.0672 13.0854 20.2835 13.005 20.4259 12.8466C20.5682 12.6882 20.6389 12.4544 20.6389 12.1492C20.6389 11.844 20.5686 11.6154 20.4302 11.4522C20.2919 11.2891 20.0734 11.2061 19.7806 11.2061H18.9172C18.8801 11.2062 18.8446 11.2209 18.8184 11.2471C18.7922 11.2733 18.7774 11.3088 18.7773 11.3459V12.9452C18.7773 12.9824 18.7921 13.018 18.8183 13.0443C18.8445 13.0705 18.8801 13.0854 18.9172 13.0854Z" fill="white"/>
<path d="M6.53302 11.2061H5.66815C5.6311 11.2062 5.59559 11.2209 5.56938 11.2471C5.54318 11.2733 5.52842 11.3088 5.52832 11.3459V12.9452C5.52832 12.9824 5.54304 13.018 5.56926 13.0443C5.59547 13.0705 5.63103 13.0854 5.66815 13.0854H6.53302C6.81778 13.0854 7.03446 13.005 7.17684 12.8466C7.31922 12.6882 7.39169 12.4529 7.39169 12.1492C7.39169 11.8455 7.32141 11.6154 7.18267 11.4522C7.04392 11.2891 6.8258 11.2061 6.53302 11.2061Z" fill="white"/>
<path d="M14.426 13.9059H15.8279C15.837 13.906 15.8459 13.9039 15.8539 13.8999C15.8619 13.8958 15.8689 13.8899 15.8742 13.8826C15.8795 13.8754 15.8831 13.867 15.8847 13.8582C15.8863 13.8493 15.8858 13.8402 15.8833 13.8316L15.1823 11.5273C15.1785 11.5158 15.1712 11.5058 15.1614 11.4987C15.1516 11.4916 15.1398 11.4878 15.1277 11.4878C15.1156 11.4878 15.1038 11.4916 15.094 11.4987C15.0842 11.5058 15.0769 11.5158 15.0731 11.5273L14.3717 13.8316C14.3694 13.8401 14.369 13.849 14.3707 13.8577C14.3723 13.8664 14.3759 13.8745 14.3812 13.8816C14.3866 13.8886 14.3934 13.8943 14.4013 13.8983C14.4092 13.9023 14.4179 13.9044 14.4267 13.9044L14.426 13.9059Z" fill="white"/>
<path d="M25.2119 11.176L24.7418 10.3618C24.5038 9.95023 24.3782 9.4833 24.3777 9.00788V8.06727C24.3767 7.48726 24.2236 6.91764 23.9335 6.41537C23.6435 5.91309 23.2267 5.49574 22.7248 5.20503L21.9131 4.73418C21.5015 4.49657 21.1596 4.15484 20.9219 3.74332L20.4517 2.92871C20.161 2.42682 19.7435 2.01005 19.2412 1.72006C18.7388 1.43007 18.1692 1.27701 17.5891 1.27619H16.6478C16.1724 1.2755 15.7055 1.14992 15.2939 0.912035L14.4796 0.44155C13.9769 0.152256 13.407 0 12.8269 0C12.2469 0 11.677 0.152256 11.1742 0.44155L10.3596 0.912035C9.94801 1.14995 9.48111 1.27553 9.00569 1.27619H8.06545C7.48541 1.27701 6.91575 1.43007 6.4134 1.72006C5.91106 2.01005 5.49363 2.42682 5.20285 2.92871L4.73272 3.74369C4.49501 4.15503 4.15329 4.49662 3.74187 4.73418L2.92762 5.20467C2.42572 5.49537 2.00891 5.91272 1.71885 6.415C1.4288 6.91728 1.27565 7.48689 1.27473 8.06691V9.00751C1.27416 9.48294 1.14858 9.94986 0.910578 10.3614L0.44155 11.176C0.152256 11.6788 0 12.2487 0 12.8287C0 13.4088 0.152256 13.9787 0.44155 14.4815L0.911671 15.2946C1.14967 15.7062 1.27525 16.1731 1.27582 16.6485V17.5888C1.27687 18.1688 1.43006 18.7384 1.7201 19.2407C2.01014 19.7431 2.42688 20.1605 2.92871 20.4514L3.74187 20.923C4.15347 21.1606 4.49532 21.5023 4.73309 21.9138L5.20321 22.7284C5.49841 23.2382 5.92415 23.66 6.43659 23.9505C6.50651 23.9902 6.57789 24.027 6.65035 24.0598C7.09207 24.2697 7.57493 24.3787 8.06399 24.3791H9.00424C9.47965 24.3798 9.94655 24.5054 10.3582 24.7433L11.1742 25.2141C11.4307 25.362 11.7059 25.4746 11.9925 25.5488C12.0704 25.5692 12.1491 25.5852 12.2281 25.6009C12.4203 25.6361 12.6153 25.6543 12.8107 25.6551H12.8257H12.8723C13.0678 25.6523 13.2628 25.6325 13.4549 25.5958C13.5336 25.5805 13.6119 25.5626 13.6898 25.5415C13.966 25.467 14.2314 25.3568 14.4793 25.2138L15.2935 24.7433C15.7051 24.5054 16.172 24.3798 16.6474 24.3791H17.5877C18.087 24.3787 18.5796 24.265 19.0286 24.0467C19.1015 24.0102 19.1743 23.9738 19.242 23.9338C19.7433 23.6439 20.1599 23.2277 20.4503 22.7266L20.9204 21.912C21.1589 21.501 21.5012 21.16 21.9131 20.923L22.7273 20.4528C23.2293 20.1618 23.6461 19.7441 23.9359 19.2415C24.2258 18.7389 24.3786 18.169 24.3791 17.5888V16.6496C24.3797 16.1742 24.5053 15.7073 24.7433 15.2957L25.2134 14.4815C25.5025 13.9786 25.6545 13.4086 25.6542 12.8286C25.654 12.2485 25.5015 11.6787 25.2119 11.176ZM23.7815 17.5888C23.7808 18.0639 23.6553 18.5305 23.4177 18.942C23.1801 19.3534 22.8387 19.6953 22.4276 19.9335L21.613 20.4037C21.1108 20.6942 20.6937 21.1114 20.4033 21.6137L19.9332 22.428C19.695 22.8392 19.353 23.1806 18.9415 23.4182C18.5299 23.6558 18.0632 23.7812 17.588 23.7819H16.6478C16.0672 23.7824 15.4969 23.9356 14.9942 24.2262L14.1796 24.6963C13.7677 24.9332 13.3008 25.0579 12.8257 25.0579C12.3505 25.0579 11.8836 24.9332 11.4717 24.6963L10.6575 24.2262C10.1548 23.9363 9.58484 23.7836 9.0046 23.7834H8.06545C7.5903 23.7827 7.12365 23.6573 6.71216 23.4197C6.30068 23.1821 5.95879 22.8406 5.72067 22.4295L5.25019 21.6152C4.96 21.1128 4.54281 20.6955 4.04047 20.4051L3.22586 19.935C2.81458 19.6967 2.4731 19.3545 2.23556 18.9428C1.99802 18.531 1.87276 18.0641 1.87231 17.5888V16.6496C1.87199 16.0695 1.71929 15.4996 1.4295 14.9971L0.959011 14.1825C0.722091 13.7707 0.597401 13.3039 0.597401 12.8287C0.597401 12.3536 0.722091 11.8868 0.959011 11.475L1.4295 10.6604C1.71929 10.1579 1.87199 9.58799 1.87231 9.00788V8.06727C1.87302 7.59217 1.9984 7.12557 2.23592 6.7141C2.47345 6.30264 2.8148 5.96071 3.22586 5.72249L4.04047 5.25237C4.54281 4.96203 4.96 4.54472 5.25019 4.04229L5.72067 3.22805C5.95884 2.81691 6.30075 2.47549 6.71222 2.2379C7.12369 2.00031 7.59031 1.87487 8.06545 1.87413H9.00569C9.58593 1.87388 10.1559 1.72118 10.6586 1.43132L11.4728 0.961195C11.8847 0.724279 12.3516 0.599593 12.8267 0.599593C13.3019 0.599593 13.7688 0.724279 14.1807 0.961195L14.9942 1.43132C15.4969 1.72108 16.0668 1.87378 16.6471 1.87413H17.5873C18.0625 1.87492 18.5291 2.00037 18.9407 2.23796C19.3522 2.47554 19.6942 2.81693 19.9325 3.22805L20.4033 4.04229C20.6937 4.5446 21.1108 4.96187 21.613 5.25237L22.4276 5.72249C22.8387 5.96069 23.1801 6.30261 23.4177 6.71407C23.6553 7.12553 23.7808 7.59214 23.7815 8.06727V9.00788C23.7817 9.58802 23.9344 10.1579 24.2244 10.6604L24.6945 11.475C24.9314 11.8868 25.0561 12.3536 25.0561 12.8287C25.0561 13.3039 24.9314 13.7707 24.6945 14.1825L24.2244 14.9971C23.9344 15.4996 23.7817 16.0695 23.7815 16.6496V17.5888Z" fill="#5C5AA0"/>
<path d="M7.32039 13.5425C7.53661 13.4228 7.71107 13.2398 7.82037 13.0181C7.93763 12.7891 7.99735 12.4967 7.99735 12.1493C7.99735 11.8019 7.93763 11.5091 7.82037 11.2753C7.712 11.0523 7.53772 10.868 7.32112 10.7473C7.10809 10.63 6.85282 10.5703 6.56332 10.5703H5.40896C5.28182 10.5705 5.15995 10.6211 5.07005 10.711C4.98015 10.8009 4.92956 10.9228 4.92937 11.0499V15.5421C4.92757 15.587 4.94034 15.6314 4.96578 15.6684C4.97797 15.6852 4.99413 15.6987 5.01281 15.7078C5.03149 15.7168 5.05211 15.721 5.07284 15.7202H5.38346C5.40443 15.7208 5.42524 15.7164 5.44422 15.7075C5.46319 15.6986 5.47981 15.6853 5.49271 15.6688C5.52023 15.6324 5.53438 15.5877 5.53277 15.5421V13.8531C5.53286 13.8177 5.54698 13.7838 5.57202 13.7588C5.59706 13.7337 5.631 13.7196 5.66641 13.7195H6.56114C6.85209 13.7195 7.10736 13.6601 7.32039 13.5425ZM7.39322 12.1493C7.39322 12.453 7.32039 12.6879 7.17837 12.8466C7.03635 13.0054 6.81932 13.0855 6.53455 13.0855H5.66823C5.63111 13.0854 5.59555 13.0706 5.56933 13.0443C5.54312 13.018 5.5284 12.9824 5.5284 12.9453V11.346C5.52849 11.3089 5.54326 11.2734 5.56946 11.2472C5.59566 11.221 5.63118 11.2062 5.66823 11.2061H6.53309C6.82442 11.2061 7.04473 11.2888 7.18274 11.4523C7.32076 11.6158 7.39177 11.8499 7.39177 12.1493H7.39322Z" fill="#5C5AA0"/>
<path d="M13.3983 15.7201H13.6973C13.7184 15.7215 13.7397 15.718 13.7592 15.7097C13.7787 15.7014 13.7961 15.6886 13.8098 15.6724C13.831 15.6488 13.8457 15.6201 13.8524 15.589L14.139 14.6641C14.1487 14.6324 14.1684 14.6047 14.1951 14.585C14.2217 14.5654 14.254 14.5548 14.2872 14.5548H15.9674C16.0006 14.5548 16.0329 14.5653 16.0597 14.585C16.0864 14.6047 16.1061 14.6324 16.116 14.6641L16.4025 15.589C16.4128 15.619 16.428 15.647 16.4473 15.6721C16.4603 15.6884 16.477 15.7013 16.496 15.7096C16.515 15.718 16.5358 15.7216 16.5566 15.7201H16.8555C16.8732 15.7198 16.8905 15.7153 16.906 15.707C16.9216 15.6987 16.935 15.6869 16.9451 15.6724C16.9698 15.6415 16.9827 15.6028 16.9815 15.5632C16.9811 15.5351 16.977 15.5072 16.9695 15.4802L15.5235 10.7392C15.5101 10.6948 15.4873 10.6537 15.4568 10.6187C15.4397 10.6022 15.4192 10.5895 15.3968 10.5814C15.3744 10.5733 15.3506 10.57 15.3268 10.5717H14.9263C14.9025 10.57 14.8787 10.5733 14.8563 10.5814C14.8339 10.5895 14.8134 10.6022 14.7963 10.6187C14.7654 10.6536 14.7426 10.6949 14.7296 10.7396L13.277 15.4827C13.2736 15.5096 13.2718 15.5368 13.2716 15.5639C13.2704 15.6035 13.2833 15.6422 13.308 15.6732C13.3183 15.6876 13.3318 15.6993 13.3475 15.7075C13.3632 15.7156 13.3806 15.72 13.3983 15.7201ZM14.3713 13.8316L15.0727 11.5273C15.0765 11.5158 15.0838 11.5058 15.0936 11.4987C15.1034 11.4916 15.1152 11.4878 15.1273 11.4878C15.1394 11.4878 15.1512 11.4916 15.161 11.4987C15.1708 11.5058 15.1781 11.5158 15.1819 11.5273L15.8829 13.8316C15.8854 13.8403 15.8859 13.8493 15.8843 13.8582C15.8827 13.867 15.8791 13.8754 15.8738 13.8826C15.8685 13.8899 15.8615 13.8958 15.8535 13.8999C15.8455 13.9039 15.8366 13.906 15.8275 13.9059H14.4263C14.4175 13.9058 14.4088 13.9037 14.4009 13.8998C14.393 13.8958 14.3862 13.8901 14.3808 13.8831C14.3755 13.876 14.3719 13.8678 14.3702 13.8592C14.3686 13.8505 14.369 13.8416 14.3713 13.8331V13.8316Z" fill="#5C5AA0"/>
<path d="M10.4107 15.5404C10.4402 15.5914 10.4827 15.6338 10.5338 15.6632C10.585 15.6925 10.643 15.7078 10.702 15.7075H10.7038C10.7631 15.7075 10.8213 15.6918 10.8725 15.6619C10.9237 15.632 10.966 15.5891 10.9951 15.5375L12.2431 13.3526C12.301 13.2511 12.3306 13.1359 12.3288 13.019C12.3269 12.9021 12.2937 12.7879 12.2325 12.6883L10.9729 10.6382C10.9427 10.5891 10.9003 10.5485 10.85 10.5204C10.7996 10.4923 10.7429 10.4775 10.6852 10.4775C10.6276 10.4775 10.5709 10.4923 10.5205 10.5204C10.4701 10.5485 10.4278 10.5891 10.3976 10.6382L9.14051 12.6847C9.07863 12.7852 9.04527 12.9006 9.04398 13.0185C9.0427 13.1365 9.07355 13.2526 9.13323 13.3544L10.4107 15.5404ZM10.7748 11.5201L11.6852 13.0001C11.6947 13.016 11.6997 13.0342 11.6997 13.0527C11.6997 13.0712 11.6947 13.0894 11.6852 13.1053L10.7868 14.6777C10.7778 14.6934 10.7648 14.7064 10.7491 14.7154C10.7335 14.7244 10.7157 14.7292 10.6976 14.7292C10.6795 14.7292 10.6618 14.7244 10.6461 14.7154C10.6305 14.7064 10.6175 14.6934 10.6084 14.6777L9.68856 13.1049C9.679 13.0889 9.67396 13.0706 9.67396 13.0519C9.67396 13.0333 9.679 13.015 9.68856 12.999L10.5989 11.5194C10.6083 11.5048 10.6213 11.4928 10.6366 11.4845C10.6518 11.4762 10.669 11.4719 10.6864 11.4719C10.7037 11.472 10.7208 11.4765 10.736 11.4849C10.7512 11.4933 10.7641 11.5054 10.7734 11.5201H10.7748Z" fill="#5C5AA0"/>
<path d="M10.5978 11.5203L9.68746 12.9999C9.6779 13.0159 9.67285 13.0342 9.67285 13.0529C9.67285 13.0715 9.6779 13.0898 9.68746 13.1058L10.6073 14.6786C10.6164 14.6943 10.6294 14.7073 10.645 14.7163C10.6607 14.7253 10.6784 14.7301 10.6965 14.7301C10.7146 14.7301 10.7324 14.7253 10.748 14.7163C10.7637 14.7073 10.7767 14.6943 10.7857 14.6786L11.6841 13.1062C11.6936 13.0903 11.6986 13.0721 11.6986 13.0536C11.6986 13.0351 11.6936 13.0169 11.6841 13.001L10.7737 11.521C10.7645 11.506 10.7516 11.4936 10.7363 11.485C10.7209 11.4763 10.7036 11.4718 10.686 11.4717C10.6684 11.4716 10.651 11.476 10.6356 11.4845C10.6202 11.4931 10.6072 11.5054 10.5978 11.5203Z" fill="white"/>
<path d="M20.5689 10.7488C20.3555 10.6315 20.1006 10.5718 19.8111 10.5718H18.6575C18.5304 10.572 18.4085 10.6226 18.3186 10.7125C18.2287 10.8024 18.1781 10.9242 18.1779 11.0514V15.5421C18.1761 15.587 18.1888 15.6314 18.2143 15.6685C18.2266 15.6852 18.2428 15.6987 18.2616 15.7077C18.2803 15.7168 18.301 15.721 18.3218 15.7202H18.6324C18.6533 15.7208 18.6741 15.7164 18.6931 15.7075C18.7121 15.6986 18.7287 15.6853 18.7416 15.6688C18.7691 15.6324 18.7833 15.5877 18.7817 15.5421V13.8532C18.7818 13.8177 18.7959 13.7838 18.8209 13.7588C18.846 13.7337 18.8799 13.7196 18.9153 13.7195H19.81C20.1014 13.7195 20.3563 13.6602 20.5678 13.5425C20.7838 13.4227 20.958 13.2397 21.0671 13.0182C21.1844 12.7887 21.2437 12.4963 21.2437 12.1493C21.2437 11.8022 21.1844 11.5091 21.0671 11.2753C20.9588 11.053 20.7849 10.8692 20.5689 10.7488ZM18.7769 11.346C18.777 11.3089 18.7918 11.2734 18.818 11.2472C18.8442 11.221 18.8797 11.2062 18.9168 11.2061H19.7816C20.073 11.2061 20.2915 11.2888 20.4313 11.4523C20.5711 11.6158 20.6385 11.85 20.6385 12.1493C20.6385 12.4486 20.5657 12.6879 20.424 12.8466C20.2823 13.0054 20.0653 13.0855 19.7802 13.0855H18.9168C18.8797 13.0854 18.8441 13.0706 18.8179 13.0443C18.7917 13.0181 18.7769 12.9824 18.7769 12.9453V11.346Z" fill="#5C5AA0"/>
</svg>
