<svg width="33" height="32" viewBox="0 0 33 32" fill="none" xmlns="http://www.w3.org/2000/svg">
<path d="M0.0644531 6.9954C0.0644531 3.13196 3.20631 0 7.082 0H25.0469C28.9226 0 32.0645 3.13196 32.0645 6.9954V24.9037C32.0645 28.7672 28.9226 31.8991 25.0469 31.8991H7.082C3.20631 31.8991 0.0644531 28.7672 0.0644531 24.9037V6.9954Z" fill="#FEDA03"/>
<path fill-rule="evenodd" clip-rule="evenodd" d="M24.0944 13.3538C24.0944 14.884 23.2004 15.6452 22.1956 15.9096C23.3982 16.27 24.2684 17.2555 24.2684 18.8177V21.6858H19.6798V18.9619C19.6798 18.1287 19.1892 17.7922 18.3506 17.7922H12.9075V21.6858H8.31885V10.2134H19.2209C21.9582 10.2134 24.0944 10.8062 24.0944 13.3538ZM12.9096 13.4186H19.1129C19.1222 13.4183 19.1315 13.4186 19.1408 13.4186C19.5674 13.4186 19.9132 13.7688 19.9132 14.2008C19.9132 14.6327 19.5674 14.9828 19.1408 14.9828C19.1315 14.9828 19.1222 14.9827 19.1129 14.9824L12.9096 14.9828V13.4186Z" fill="black"/>
</svg>
