<svg width="284" height="120" viewBox="0 0 284 120" fill="none" xmlns="http://www.w3.org/2000/svg">
<path d="M2 10.7692L8.15385 16.9231C11.999 13.0779 14.1548 10.9221 18 7.0769" stroke="#20C580" stroke-width="3" stroke-linecap="round" stroke-linejoin="round"/>
<path d="M42.252 6.786V5.4H34.476V18H35.988V12.564H41.532V11.214H35.988V6.786H42.252ZM47.6083 18.18C48.8143 18.18 49.9483 17.514 50.5603 16.47V18H52.0003V9H50.5603V13.644C50.5603 15.282 49.6423 16.866 47.8603 16.866C46.5103 16.866 45.7363 15.858 45.7363 14.544V9H44.2963V14.886C44.2963 16.722 45.8083 18.18 47.6083 18.18ZM56.0396 18V5.04H54.5996V18H56.0396ZM60.1353 18V5.04H58.6953V18H60.1353ZM68.623 9L66.121 15.984L63.439 9H61.927L65.419 17.622L63.709 21.96H65.257L70.135 9H68.623ZM80.6754 8.82C77.9394 8.82 76.0674 10.818 76.0674 13.5C76.0674 16.182 77.9394 18.18 80.6754 18.18C83.3934 18.18 85.2474 16.182 85.2474 13.5C85.2474 10.818 83.3754 8.82 80.6754 8.82ZM80.6574 16.866C78.7134 16.866 77.5434 15.444 77.5434 13.5C77.5434 11.556 78.7134 10.134 80.6574 10.134C82.6014 10.134 83.7714 11.556 83.7714 13.5C83.7714 15.444 82.6014 16.866 80.6574 16.866ZM97.5775 9L95.5615 16.326L93.2935 9H92.0335L89.7655 16.326L87.7495 9H86.2735L88.9915 18H90.5035L92.6635 10.962L94.8235 18H96.3355L99.0535 9H97.5775ZM105.221 8.82C104.015 8.82 102.863 9.486 102.251 10.53V9H100.811V18H102.251V13.356C102.251 11.718 103.169 10.134 104.969 10.134C106.355 10.134 107.111 11.142 107.111 12.456V18H108.551V12.114C108.551 10.296 107.021 8.82 105.221 8.82ZM119.321 13.662C119.321 10.944 117.737 8.802 115.001 8.802C112.301 8.802 110.573 10.854 110.573 13.518C110.573 16.2 112.355 18.18 115.073 18.18C116.945 18.18 118.331 17.262 119.123 15.516L117.719 15.264C117.197 16.362 116.279 16.884 115.055 16.884C113.309 16.884 112.067 15.696 111.995 13.968H119.303C119.321 13.878 119.321 13.752 119.321 13.662ZM112.049 12.744C112.265 11.142 113.363 10.062 115.001 10.062C116.549 10.062 117.737 11.16 117.845 12.744H112.049ZM129.927 5.04H128.487V10.512C127.821 9.468 126.615 8.82 125.193 8.82C122.709 8.82 120.927 10.818 120.927 13.482C120.927 16.164 122.709 18.18 125.193 18.18C126.597 18.18 127.821 17.532 128.487 16.488V18H129.927V5.04ZM128.487 13.5C128.487 15.408 127.353 16.866 125.409 16.866C123.591 16.866 122.367 15.588 122.367 13.5C122.367 11.43 123.573 10.134 125.409 10.134C127.353 10.134 128.487 11.592 128.487 13.5ZM137.27 18H138.71V16.488C139.376 17.532 140.6 18.18 142.004 18.18C144.488 18.18 146.27 16.164 146.27 13.482C146.27 10.818 144.488 8.82 142.004 8.82C140.582 8.82 139.376 9.468 138.71 10.512V5.04H137.27V18ZM138.71 13.5C138.71 11.592 139.844 10.134 141.788 10.134C143.624 10.134 144.83 11.43 144.83 13.5C144.83 15.588 143.606 16.866 141.788 16.866C139.844 16.866 138.71 15.408 138.71 13.5ZM153.965 9L151.463 15.984L148.781 9H147.269L150.761 17.622L149.051 21.96H150.599L155.477 9H153.965ZM165.693 10.206V9H163.731V6.462L162.327 6.696V9H160.869V10.206H162.309V15.57C162.309 17.19 163.029 18.18 164.721 18.18C165.063 18.18 165.423 18.144 165.765 18.072V16.758C165.513 16.848 165.243 16.884 164.991 16.884C163.875 16.884 163.749 16.362 163.749 15.354V10.206H165.693ZM172.179 8.82C170.649 8.82 169.623 9.828 169.155 10.638V5.04H167.715V18H169.155V13.464C169.155 11.592 170.271 10.134 171.891 10.134C173.277 10.134 174.015 11.178 174.015 12.456V18H175.455V12.114C175.455 10.512 174.141 8.82 172.179 8.82ZM186.224 13.662C186.224 10.944 184.64 8.802 181.904 8.802C179.204 8.802 177.476 10.854 177.476 13.518C177.476 16.2 179.258 18.18 181.976 18.18C183.848 18.18 185.234 17.262 186.026 15.516L184.622 15.264C184.1 16.362 183.182 16.884 181.958 16.884C180.212 16.884 178.97 15.696 178.898 13.968H186.206C186.224 13.878 186.224 13.752 186.224 13.662ZM178.952 12.744C179.168 11.142 180.266 10.062 181.904 10.062C183.452 10.062 184.64 11.16 184.748 12.744H178.952ZM196.969 16.866C194.989 16.866 193.927 15.408 193.927 13.5C193.927 11.592 194.989 10.134 196.969 10.134C198.229 10.134 199.255 10.89 199.579 12.114L200.983 11.862C200.569 10.008 198.787 8.82 196.987 8.82C194.269 8.82 192.487 10.836 192.487 13.5C192.487 16.164 194.269 18.18 196.987 18.18C198.805 18.18 200.569 17.01 200.983 15.138L199.579 14.886C199.255 16.11 198.229 16.866 196.969 16.866ZM207.132 8.82C204.396 8.82 202.524 10.818 202.524 13.5C202.524 16.182 204.396 18.18 207.132 18.18C209.85 18.18 211.704 16.182 211.704 13.5C211.704 10.818 209.832 8.82 207.132 8.82ZM207.114 16.866C205.17 16.866 204 15.444 204 13.5C204 11.556 205.17 10.134 207.114 10.134C209.058 10.134 210.228 11.556 210.228 13.5C210.228 15.444 209.058 16.866 207.114 16.866ZM223.632 8.82C222.336 8.82 221.184 9.486 220.59 10.782C220.194 9.63 219.168 8.82 217.872 8.82C216.81 8.82 215.766 9.396 215.19 10.512V9H213.75V18H215.19V13.158C215.19 11.628 216.018 10.134 217.566 10.134C218.826 10.134 219.546 11.106 219.546 12.474V18H220.986V13.158C220.986 11.628 221.76 10.134 223.308 10.134C224.55 10.134 225.27 11.106 225.27 12.474V18H226.71V12.438C226.71 10.44 225.594 8.82 223.632 8.82ZM239.083 8.82C237.787 8.82 236.635 9.486 236.041 10.782C235.645 9.63 234.619 8.82 233.323 8.82C232.261 8.82 231.217 9.396 230.641 10.512V9H229.201V18H230.641V13.158C230.641 11.628 231.469 10.134 233.017 10.134C234.277 10.134 234.997 11.106 234.997 12.474V18H236.437V13.158C236.437 11.628 237.211 10.134 238.759 10.134C240.001 10.134 240.721 11.106 240.721 12.474V18H242.161V12.438C242.161 10.44 241.045 8.82 239.083 8.82ZM247.929 18.18C249.135 18.18 250.269 17.514 250.881 16.47V18H252.321V9H250.881V13.644C250.881 15.282 249.963 16.866 248.181 16.866C246.831 16.866 246.057 15.858 246.057 14.544V9H244.617V14.886C244.617 16.722 246.129 18.18 247.929 18.18ZM259.258 8.82C258.052 8.82 256.9 9.486 256.288 10.53V9H254.848V18H256.288V13.356C256.288 11.718 257.206 10.134 259.006 10.134C260.392 10.134 261.148 11.142 261.148 12.456V18H262.588V12.114C262.588 10.296 261.058 8.82 259.258 8.82ZM265.96 6.822C266.518 6.822 266.95 6.39 266.95 5.832C266.95 5.274 266.518 4.842 265.96 4.842C265.402 4.842 264.97 5.274 264.97 5.832C264.97 6.39 265.402 6.822 265.96 6.822ZM266.68 18V9H265.24V18H266.68ZM273.254 10.206V9H271.292V6.462L269.888 6.696V9H268.43V10.206H269.87V15.57C269.87 17.19 270.59 18.18 272.282 18.18C272.624 18.18 272.984 18.144 273.326 18.072V16.758C273.074 16.848 272.804 16.884 272.552 16.884C271.436 16.884 271.31 16.362 271.31 15.354V10.206H273.254ZM281.107 9L278.605 15.984L275.923 9H274.411L277.903 17.622L276.193 21.96H277.741L282.619 9H281.107Z" fill="#B4CAC9"/>
<path d="M2 58.7692L8.15385 64.9231C11.999 61.0779 14.1548 58.9221 18 55.0769" stroke="#20C580" stroke-width="3" stroke-linecap="round" stroke-linejoin="round"/>
<path d="M39.732 53.4H38.04L33.468 66H35.124L36.132 63.048H41.64L42.648 66H44.304L39.732 53.4ZM36.6 61.662L38.886 55.038L41.172 61.662H36.6ZM49.8756 64.866C47.8956 64.866 46.8336 63.408 46.8336 61.5C46.8336 59.592 47.8956 58.134 49.8756 58.134C51.1356 58.134 52.1616 58.89 52.4856 60.114L53.8896 59.862C53.4756 58.008 51.6936 56.82 49.8936 56.82C47.1756 56.82 45.3936 58.836 45.3936 61.5C45.3936 64.164 47.1756 66.18 49.8936 66.18C51.7116 66.18 53.4756 65.01 53.8896 63.138L52.4856 62.886C52.1616 64.11 51.1356 64.866 49.8756 64.866ZM59.9127 64.866C57.9327 64.866 56.8707 63.408 56.8707 61.5C56.8707 59.592 57.9327 58.134 59.9127 58.134C61.1727 58.134 62.1987 58.89 62.5227 60.114L63.9267 59.862C63.5127 58.008 61.7307 56.82 59.9307 56.82C57.2127 56.82 55.4307 58.836 55.4307 61.5C55.4307 64.164 57.2127 66.18 59.9307 66.18C61.7487 66.18 63.5127 65.01 63.9267 63.138L62.5227 62.886C62.1987 64.11 61.1727 64.866 59.9127 64.866ZM74.2158 61.662C74.2158 58.944 72.6318 56.802 69.8958 56.802C67.1958 56.802 65.4678 58.854 65.4678 61.518C65.4678 64.2 67.2498 66.18 69.9678 66.18C71.8398 66.18 73.2258 65.262 74.0178 63.516L72.6138 63.264C72.0918 64.362 71.1738 64.884 69.9498 64.884C68.2038 64.884 66.9618 63.696 66.8898 61.968H74.1978C74.2158 61.878 74.2158 61.752 74.2158 61.662ZM66.9438 60.744C67.1598 59.142 68.2578 58.062 69.8958 58.062C71.4438 58.062 72.6318 59.16 72.7398 60.744H66.9438ZM77.3157 59.358C77.3157 58.458 78.3057 58.062 79.1337 58.062C80.0517 58.062 80.8617 58.566 81.0777 59.484L82.4817 59.25C82.1937 57.648 80.6277 56.784 79.1157 56.784C77.4957 56.784 75.9117 57.792 75.9117 59.484C75.9117 61.302 77.7297 61.842 79.2957 62.166C80.4297 62.4 81.3117 62.67 81.3117 63.552C81.3117 64.596 80.1057 64.884 79.2957 64.884C78.2157 64.884 77.3877 64.38 77.1357 63.282L75.7317 63.516C75.9837 65.352 77.6757 66.18 79.3497 66.18C81.0417 66.18 82.7517 65.316 82.7517 63.498C82.7517 61.536 80.7537 61.05 79.5837 60.816C78.3057 60.564 77.3157 60.258 77.3157 59.358ZM85.7356 59.358C85.7356 58.458 86.7256 58.062 87.5536 58.062C88.4716 58.062 89.2816 58.566 89.4976 59.484L90.9016 59.25C90.6136 57.648 89.0476 56.784 87.5356 56.784C85.9156 56.784 84.3316 57.792 84.3316 59.484C84.3316 61.302 86.1496 61.842 87.7156 62.166C88.8496 62.4 89.7316 62.67 89.7316 63.552C89.7316 64.596 88.5256 64.884 87.7156 64.884C86.6356 64.884 85.8076 64.38 85.5556 63.282L84.1516 63.516C84.4036 65.352 86.0956 66.18 87.7696 66.18C89.4616 66.18 91.1716 65.316 91.1716 63.498C91.1716 61.536 89.1736 61.05 88.0036 60.816C86.7256 60.564 85.7356 60.258 85.7356 59.358ZM93.9936 54.822C94.5516 54.822 94.9836 54.39 94.9836 53.832C94.9836 53.274 94.5516 52.842 93.9936 52.842C93.4356 52.842 93.0036 53.274 93.0036 53.832C93.0036 54.39 93.4356 54.822 93.9936 54.822ZM94.7136 66V57H93.2736V66H94.7136ZM97.4726 66H98.9126V64.488C99.5786 65.532 100.803 66.18 102.207 66.18C104.691 66.18 106.473 64.164 106.473 61.482C106.473 58.818 104.691 56.82 102.207 56.82C100.785 56.82 99.5786 57.468 98.9126 58.512V53.04H97.4726V66ZM98.9126 61.5C98.9126 59.592 100.047 58.134 101.991 58.134C103.827 58.134 105.033 59.43 105.033 61.5C105.033 63.588 103.809 64.866 101.991 64.866C100.047 64.866 98.9126 63.408 98.9126 61.5ZM110.04 66V53.04H108.6V66H110.04ZM120.903 61.662C120.903 58.944 119.319 56.802 116.583 56.802C113.883 56.802 112.155 58.854 112.155 61.518C112.155 64.2 113.937 66.18 116.655 66.18C118.527 66.18 119.913 65.262 120.705 63.516L119.301 63.264C118.779 64.362 117.861 64.884 116.637 64.884C114.891 64.884 113.649 63.696 113.577 61.968H120.885C120.903 61.878 120.903 61.752 120.903 61.662ZM113.631 60.744C113.847 59.142 114.945 58.062 116.583 58.062C118.131 58.062 119.319 59.16 119.427 60.744H113.631ZM131.451 58.206V57H129.489V54.462L128.085 54.696V57H126.627V58.206H128.067V63.57C128.067 65.19 128.787 66.18 130.479 66.18C130.821 66.18 131.181 66.144 131.523 66.072V64.758C131.271 64.848 131.001 64.884 130.749 64.884C129.633 64.884 129.507 64.362 129.507 63.354V58.206H131.451ZM137.277 56.82C134.541 56.82 132.669 58.818 132.669 61.5C132.669 64.182 134.541 66.18 137.277 66.18C139.995 66.18 141.849 64.182 141.849 61.5C141.849 58.818 139.977 56.82 137.277 56.82ZM137.259 64.866C135.315 64.866 134.145 63.444 134.145 61.5C134.145 59.556 135.315 58.134 137.259 58.134C139.203 58.134 140.373 59.556 140.373 61.5C140.373 63.444 139.203 64.866 137.259 64.866ZM156.851 61.662C156.851 58.944 155.267 56.802 152.531 56.802C149.831 56.802 148.103 58.854 148.103 61.518C148.103 64.2 149.885 66.18 152.603 66.18C154.475 66.18 155.861 65.262 156.653 63.516L155.249 63.264C154.727 64.362 153.809 64.884 152.585 64.884C150.839 64.884 149.597 63.696 149.525 61.968H156.833C156.851 61.878 156.851 61.752 156.851 61.662ZM149.579 60.744C149.795 59.142 150.893 58.062 152.531 58.062C154.079 58.062 155.267 59.16 155.375 60.744H149.579ZM164.547 57L161.955 64.254L159.363 57H157.851L161.253 66H162.675L166.059 57H164.547ZM175.8 61.662C175.8 58.944 174.216 56.802 171.48 56.802C168.78 56.802 167.052 58.854 167.052 61.518C167.052 64.2 168.834 66.18 171.552 66.18C173.424 66.18 174.81 65.262 175.602 63.516L174.198 63.264C173.676 64.362 172.758 64.884 171.534 64.884C169.788 64.884 168.546 63.696 168.474 61.968H175.782C175.8 61.878 175.8 61.752 175.8 61.662ZM168.528 60.744C168.744 59.142 169.842 58.062 171.48 58.062C173.028 58.062 174.216 59.16 174.324 60.744H168.528ZM182.608 56.856C182.41 56.82 182.248 56.82 182.086 56.82C180.79 56.82 179.926 57.396 179.296 58.512V57H177.856V66H179.296V61.41C179.296 59.304 180.448 57.954 182.608 58.152V56.856ZM190.123 57L187.621 63.984L184.939 57H183.427L186.919 65.622L185.209 69.96H186.757L191.635 57H190.123ZM197.236 56.82C194.5 56.82 192.628 58.818 192.628 61.5C192.628 64.182 194.5 66.18 197.236 66.18C199.954 66.18 201.808 64.182 201.808 61.5C201.808 58.818 199.936 56.82 197.236 56.82ZM197.218 64.866C195.274 64.866 194.104 63.444 194.104 61.5C194.104 59.556 195.274 58.134 197.218 58.134C199.162 58.134 200.332 59.556 200.332 61.5C200.332 63.444 199.162 64.866 197.218 64.866ZM208.264 56.82C207.058 56.82 205.906 57.486 205.294 58.53V57H203.854V66H205.294V61.356C205.294 59.718 206.212 58.134 208.012 58.134C209.398 58.134 210.154 59.142 210.154 60.456V66H211.594V60.114C211.594 58.296 210.064 56.82 208.264 56.82ZM222.364 61.662C222.364 58.944 220.78 56.802 218.044 56.802C215.344 56.802 213.616 58.854 213.616 61.518C213.616 64.2 215.398 66.18 218.116 66.18C219.988 66.18 221.374 65.262 222.166 63.516L220.762 63.264C220.24 64.362 219.322 64.884 218.098 64.884C216.352 64.884 215.11 63.696 215.038 61.968H222.346C222.364 61.878 222.364 61.752 222.364 61.662ZM215.092 60.744C215.308 59.142 216.406 58.062 218.044 58.062C219.592 58.062 220.78 59.16 220.888 60.744H215.092Z" fill="#B4CAC9"/>
<path d="M2 106.769L8.15385 112.923C11.999 109.078 14.1548 106.922 18 103.077" stroke="#20C580" stroke-width="3" stroke-linecap="round" stroke-linejoin="round"/>
<path d="M34.116 102.786H36.204V114H37.68V101.4H34.116V102.786ZM45.754 101.22C42.118 101.22 41.128 104.712 41.128 107.7C41.128 110.688 42.118 114.18 45.754 114.18C49.39 114.18 50.38 110.688 50.38 107.7C50.38 104.712 49.39 101.22 45.754 101.22ZM45.754 112.794C42.982 112.794 42.64 109.842 42.64 107.7C42.64 105.558 42.982 102.606 45.754 102.606C48.508 102.606 48.868 105.558 48.868 107.7C48.868 109.842 48.508 112.794 45.754 112.794ZM57.0919 101.22C53.4559 101.22 52.4659 104.712 52.4659 107.7C52.4659 110.688 53.4559 114.18 57.0919 114.18C60.7279 114.18 61.7179 110.688 61.7179 107.7C61.7179 104.712 60.7279 101.22 57.0919 101.22ZM57.0919 112.794C54.3199 112.794 53.9779 109.842 53.9779 107.7C53.9779 105.558 54.3199 102.606 57.0919 102.606C59.8459 102.606 60.2059 105.558 60.2059 107.7C60.2059 109.842 59.8459 112.794 57.0919 112.794ZM73.4698 101.148L64.2898 114L65.7478 114.252L74.9278 101.4L73.4698 101.148ZM68.8798 104.118C68.8798 102.408 67.8898 101.22 66.1618 101.22C64.4338 101.22 63.4438 102.408 63.4438 104.118C63.4438 105.846 64.4338 107.034 66.1618 107.034C67.8898 107.034 68.8798 105.846 68.8798 104.118ZM64.7398 104.118C64.7398 103.182 65.2798 102.516 66.1618 102.516C67.0438 102.516 67.5838 103.182 67.5838 104.118C67.5838 105.072 67.0438 105.738 66.1618 105.738C65.2798 105.738 64.7398 105.072 64.7398 104.118ZM73.0558 108.384C71.3278 108.384 70.3378 109.572 70.3378 111.282C70.3378 112.992 71.3278 114.18 73.0558 114.18C74.7838 114.18 75.7738 112.992 75.7738 111.282C75.7738 109.572 74.7838 108.384 73.0558 108.384ZM73.0558 112.884C72.1738 112.884 71.6338 112.218 71.6338 111.282C71.6338 110.346 72.1738 109.68 73.0558 109.68C73.9378 109.68 74.4778 110.346 74.4778 111.282C74.4778 112.218 73.9378 112.884 73.0558 112.884ZM86.5289 104.82C83.7929 104.82 81.9209 106.818 81.9209 109.5C81.9209 112.182 83.7929 114.18 86.5289 114.18C89.2469 114.18 91.1009 112.182 91.1009 109.5C91.1009 106.818 89.2289 104.82 86.5289 104.82ZM86.5109 112.866C84.5669 112.866 83.3969 111.444 83.3969 109.5C83.3969 107.556 84.5669 106.134 86.5109 106.134C88.4549 106.134 89.6249 107.556 89.6249 109.5C89.6249 111.444 88.4549 112.866 86.5109 112.866ZM93.2187 117.96H94.6587V112.488C95.3247 113.532 96.5307 114.18 97.9527 114.18C100.437 114.18 102.219 112.182 102.219 109.5C102.219 106.836 100.437 104.82 97.9527 104.82C96.5487 104.82 95.3247 105.468 94.6587 106.512V105H93.2187V117.96ZM94.6587 109.5C94.6587 107.592 95.7927 106.134 97.7367 106.134C99.5547 106.134 100.779 107.412 100.779 109.5C100.779 111.57 99.5727 112.866 97.7367 112.866C95.7927 112.866 94.6587 111.408 94.6587 109.5ZM112.554 109.662C112.554 106.944 110.97 104.802 108.234 104.802C105.534 104.802 103.806 106.854 103.806 109.518C103.806 112.2 105.588 114.18 108.306 114.18C110.178 114.18 111.564 113.262 112.356 111.516L110.952 111.264C110.43 112.362 109.512 112.884 108.288 112.884C106.542 112.884 105.3 111.696 105.228 109.968H112.536C112.554 109.878 112.554 109.752 112.554 109.662ZM105.282 108.744C105.498 107.142 106.596 106.062 108.234 106.062C109.782 106.062 110.97 107.16 111.078 108.744H105.282ZM119.02 104.82C117.814 104.82 116.662 105.486 116.05 106.53V105H114.61V114H116.05V109.356C116.05 107.718 116.968 106.134 118.768 106.134C120.154 106.134 120.91 107.142 120.91 108.456V114H122.35V108.114C122.35 106.296 120.82 104.82 119.02 104.82ZM130.56 107.358C130.56 106.458 131.55 106.062 132.378 106.062C133.296 106.062 134.106 106.566 134.322 107.484L135.726 107.25C135.438 105.648 133.872 104.784 132.36 104.784C130.74 104.784 129.156 105.792 129.156 107.484C129.156 109.302 130.974 109.842 132.54 110.166C133.674 110.4 134.556 110.67 134.556 111.552C134.556 112.596 133.35 112.884 132.54 112.884C131.46 112.884 130.632 112.38 130.38 111.282L128.976 111.516C129.228 113.352 130.92 114.18 132.594 114.18C134.286 114.18 135.996 113.316 135.996 111.498C135.996 109.536 133.998 109.05 132.828 108.816C131.55 108.564 130.56 108.258 130.56 107.358ZM142.076 104.82C139.34 104.82 137.468 106.818 137.468 109.5C137.468 112.182 139.34 114.18 142.076 114.18C144.794 114.18 146.648 112.182 146.648 109.5C146.648 106.818 144.776 104.82 142.076 104.82ZM142.058 112.866C140.114 112.866 138.944 111.444 138.944 109.5C138.944 107.556 140.114 106.134 142.058 106.134C144.002 106.134 145.172 107.556 145.172 109.5C145.172 111.444 144.002 112.866 142.058 112.866ZM151.97 114.18C153.176 114.18 154.31 113.514 154.922 112.47V114H156.362V105H154.922V109.644C154.922 111.282 154.004 112.866 152.222 112.866C150.872 112.866 150.098 111.858 150.098 110.544V105H148.658V110.886C148.658 112.722 150.17 114.18 151.97 114.18ZM163.641 104.856C163.443 104.82 163.281 104.82 163.119 104.82C161.823 104.82 160.959 105.396 160.329 106.512V105H158.889V114H160.329V109.41C160.329 107.304 161.481 105.954 163.641 106.152V104.856ZM168.721 112.866C166.741 112.866 165.679 111.408 165.679 109.5C165.679 107.592 166.741 106.134 168.721 106.134C169.981 106.134 171.007 106.89 171.331 108.114L172.735 107.862C172.321 106.008 170.539 104.82 168.739 104.82C166.021 104.82 164.239 106.836 164.239 109.5C164.239 112.164 166.021 114.18 168.739 114.18C170.557 114.18 172.321 113.01 172.735 111.138L171.331 110.886C171.007 112.11 169.981 112.866 168.721 112.866ZM183.024 109.662C183.024 106.944 181.44 104.802 178.704 104.802C176.004 104.802 174.276 106.854 174.276 109.518C174.276 112.2 176.058 114.18 178.776 114.18C180.648 114.18 182.034 113.262 182.826 111.516L181.422 111.264C180.9 112.362 179.982 112.884 178.758 112.884C177.012 112.884 175.77 111.696 175.698 109.968H183.006C183.024 109.878 183.024 109.752 183.024 109.662ZM175.752 108.744C175.968 107.142 177.066 106.062 178.704 106.062C180.252 106.062 181.44 107.16 181.548 108.744H175.752Z" fill="#B4CAC9"/>
</svg>
