<?xml version="1.0" encoding="utf-8"?>
<!-- Generator: Adobe Illustrator 26.5.0, SVG Export Plug-In . SVG Version: 6.00 Build 0)  -->
<svg version="1.1" id="Layer_1" xmlns="http://www.w3.org/2000/svg" xmlns:xlink="http://www.w3.org/1999/xlink" x="0px" y="0px"
	 viewBox="0 0 2470 2500" style="enable-background:new 0 0 2470 2500;" xml:space="preserve">
<style type="text/css">
	.st0{opacity:0.8;fill:#FFFFFF;}
</style>
<path class="st0" d="M1911.6,1664c88,118.3,178.8,239.3,269.6,360.3c-181.5,214.5-407.1,352.1-679.4,409.8
	c-302.6,63.3-588.6,16.5-866.4-137.5c247.6-184.3,489.6-365.8,734.4-547.4c55,52.3,107.3,104.5,159.5,154
	c57.8,55,35.8,57.8,110,16.5c101.8-57.8,187-137.5,253.1-233.8c2.8-5.5,8.3-11,11-16.5C1900.6,1669.5,1903.4,1669.5,1911.6,1664
	L1911.6,1664z M830.7,1906c-68.8,52.3-132,99-195.3,148.5c-46.8,35.8-93.5,68.8-140.3,104.5c-19.3,16.5-33,16.5-55-2.8
	c-209-187-341.1-418.1-390.6-693.1C0,1185.4,44,921.3,176,671c2.8-5.5,8.3-13.8,11-19.3c0-2.8,2.8-2.8,8.3-5.5
	c181.5,239.3,365.8,478.6,547.4,717.9c-5.5,8.3-8.3,13.8-13.8,19.3c-55,57.8-110,115.5-167.8,170.5c-16.5,16.5-19.3,30.3-8.3,49.5
	c57.8,110,137.5,200.8,236.5,275.1C803.2,1886.8,814.2,1895,830.7,1906L830.7,1906z M1856.6,197.9c-88,63.3-176,126.5-264.1,187
	c-151.3,107.3-302.6,217.3-451.1,324.6c-19.3,13.8-33,16.5-49.5-2.8c-49.5-52.3-101.8-99-151.3-151.3c-13.8-13.8-27.5-16.5-46.8-8.3
	C775.7,607.7,682.1,693,605.1,800.3c-5.5,5.5-11,13.8-16.5,22c-44-57.8-85.3-110-126.5-165c-44-57.8-85.3-115.5-126.5-170.5
	c-13.8-19.3-16.5-33,2.8-52.3C550.1,200.7,811.4,63.1,1125,30.1c247.6-27.5,484.1,22,704.1,140.3c8.3,5.5,16.5,8.3,24.8,13.8
	C1853.9,192.4,1853.9,195.2,1856.6,197.9z M2305,1848.2c-57.8-74.3-110-143-162.3-211.8c-121-159.5-242-321.8-365.8-481.3
	c-16.5-22-16.5-35.8,2.8-55c52.3-52.3,101.8-104.5,154-156.8c13.8-13.8,19.3-27.5,8.3-46.8c-60.5-115.5-143-211.8-250.3-288.8
	c-8.3-5.5-16.5-13.8-27.5-19.3c8.3-8.3,16.5-13.8,22-19.3c104.5-79.8,209-156.8,313.6-236.5c16.5-13.8,30.3-19.3,49.5,0
	c261.3,236.5,401.6,530.9,415.3,885.7c5.5,206.3-41.3,401.6-134.8,585.9C2321.5,1815.2,2313.2,1829,2305,1848.2z"/>
</svg>
