<svg width="24" height="25" viewBox="0 0 24 25" fill="none" xmlns="http://www.w3.org/2000/svg">
<path fill-rule="evenodd" clip-rule="evenodd" d="M0.75 3.24707C0.75 2.41864 1.42157 1.74707 2.25 1.74707H8.25C9.07843 1.74707 9.75 2.41864 9.75 3.24707V9.24707C9.75 10.0755 9.07843 10.7471 8.25 10.7471H2.25C1.42157 10.7471 0.75 10.0755 0.75 9.24707V3.24707Z" stroke="#33514E" stroke-width="1.5" stroke-linecap="round" stroke-linejoin="round"/>
<path fill-rule="evenodd" clip-rule="evenodd" d="M0.75 16.7471C0.75 15.9186 1.42157 15.2471 2.25 15.2471H8.25C9.07843 15.2471 9.75 15.9186 9.75 16.7471V22.7471C9.75 23.5755 9.07843 24.2471 8.25 24.2471H2.25C1.42157 24.2471 0.75 23.5755 0.75 22.7471V16.7471Z" stroke="#33514E" stroke-width="1.5" stroke-linecap="round" stroke-linejoin="round"/>
<path fill-rule="evenodd" clip-rule="evenodd" d="M14.25 3.24707C14.25 2.41864 14.9216 1.74707 15.75 1.74707H21.75C22.5784 1.74707 23.25 2.41864 23.25 3.24707V9.24707C23.25 10.0755 22.5784 10.7471 21.75 10.7471H15.75C14.9216 10.7471 14.25 10.0755 14.25 9.24707V3.24707Z" stroke="#33514E" stroke-width="1.5" stroke-linecap="round" stroke-linejoin="round"/>
<path fill-rule="evenodd" clip-rule="evenodd" d="M14.25 16.7471C14.25 15.9186 14.9216 15.2471 15.75 15.2471H21.75C22.5784 15.2471 23.25 15.9186 23.25 16.7471V22.7471C23.25 23.5755 22.5784 24.2471 21.75 24.2471H15.75C14.9216 24.2471 14.25 23.5755 14.25 22.7471V16.7471Z" stroke="#33514E" stroke-width="1.5" stroke-linecap="round" stroke-linejoin="round"/>
</svg>
