<svg width="134" height="38" viewBox="0 0 134 38" fill="none" xmlns="http://www.w3.org/2000/svg">
<g filter="url(#filter0_d_15016_307030)">
<path d="M23.8262 8.95333L18.1918 3.23972C17.8743 2.91819 17.4409 2.73267 16.9892 2.73267H7.67372C6.0499 2.73267 4.73743 4.06215 4.73743 5.70697V26.1808C4.73743 27.8257 6.0499 29.1551 7.67372 29.1551H9.12046V26.3663C9.12046 24.5174 10.5978 23.0148 12.4291 23.0148H12.5817V25.4759H12.4291C11.9407 25.4759 11.5562 25.8716 11.5562 26.3601V29.1488H17.5081V26.3601C17.5081 25.8654 17.1113 25.4759 16.6229 25.4759H16.4764V23.0148H16.6229C18.4482 23.0148 19.9377 24.5112 19.9377 26.3663V29.1551H21.3844C23.0082 29.1551 24.3207 27.8257 24.3207 26.1808V10.1715C24.3207 9.71393 24.1437 9.27489 23.8262 8.95333ZM15.7439 25.7541C15.7439 26.4343 15.2006 26.9847 14.5291 26.9847C13.8576 26.9847 13.3143 26.4343 13.3143 25.7541V18.9398C13.3143 18.2596 13.8576 17.7093 14.5291 17.7093C15.2006 17.7093 15.7439 18.2596 15.7439 18.9398V25.7541ZM19.9377 18.5812C19.9377 20.4301 18.4482 21.9389 16.6229 21.9389H16.4764V19.4778H16.6229C17.1113 19.4778 17.5081 19.0759 17.5081 18.5812V16.8869C17.5081 16.2067 18.0514 15.6564 18.7229 15.6564C19.3944 15.6564 19.9377 16.2067 19.9377 16.8869V18.5812ZM19.9377 11.7854C19.9377 12.4718 19.3944 13.016 18.7229 13.016C18.0514 13.016 17.5081 12.4718 17.5081 11.7854V10.0911C17.5081 9.59643 17.1113 9.20687 16.6229 9.20687H12.4291C11.9407 9.20687 11.5562 9.60262 11.5562 10.0911V18.5812C11.5562 19.0759 11.9469 19.4778 12.4291 19.4778H12.5817V21.9389H12.4291C10.6039 21.9389 9.12046 20.4301 9.12046 18.5812V10.0973C9.12046 8.24841 10.5978 6.74581 12.4291 6.74581H16.6229C18.4482 6.74581 19.9377 8.24225 19.9377 10.0973V11.7916V11.7854Z" fill="url(#paint0_linear_15016_307030)"/>
<path d="M40.4526 24.6528C40.4697 24.8117 40.3791 24.965 40.2264 25.0218C39.6729 25.2148 39.0964 25.3568 38.4973 25.4476C37.8079 25.5498 37.0111 25.6009 36.1014 25.6009C34.8979 25.6009 33.9089 25.4703 33.1403 25.2148C32.3832 24.9366 31.7896 24.4881 31.3603 23.8693C30.9307 23.2334 30.6314 22.3705 30.4561 21.2804C30.2866 20.1733 30.1963 18.7937 30.1963 17.1359C30.1963 15.4781 30.281 14.0531 30.4561 12.9687C30.6425 11.8616 30.9647 10.9987 31.4111 10.3799C31.8575 9.74398 32.4735 9.28979 33.2645 9.03432C34.0726 8.77316 35.1011 8.64825 36.3556 8.64825C36.7173 8.64825 37.1298 8.67663 37.5933 8.72773C38.0735 8.76179 38.537 8.82426 38.9835 8.90941C39.3112 8.96051 39.605 9.02295 39.8537 9.09676C40.0174 9.14785 40.1248 9.30682 40.0967 9.47713L39.865 10.9589C39.8366 11.152 39.6502 11.2769 39.4581 11.2371C39.1246 11.169 38.7687 11.1065 38.3901 11.0554C37.8758 10.9873 37.3841 10.9362 36.9208 10.9022C36.4575 10.8681 36.0787 10.8511 35.7849 10.8511C34.7905 10.8511 34.0671 10.9703 33.6207 11.2144C33.1742 11.4415 32.9481 11.9752 32.9481 12.8211V22.7963C32.9481 22.9552 33.05 23.0915 33.2024 23.1312C33.5754 23.2221 33.971 23.2959 34.389 23.3527C34.9202 23.4208 35.4628 23.4548 36.0111 23.4548C36.7344 23.4548 37.4462 23.3924 38.1469 23.2732C38.7347 23.1767 39.2941 23.0517 39.8366 22.9098C40.0345 22.8587 40.2322 22.9893 40.2604 23.1937L40.4357 24.6528H40.4526Z" fill="#D9DEF4"/>
<path d="M42.8938 24.8682V8.51741C42.8938 8.34141 43.0294 8.19378 43.2047 8.17675L45.0526 8.02347C45.2502 8.00644 45.4198 8.16541 45.4198 8.36412V12.5029C45.4198 12.7641 45.6967 12.923 45.9228 12.7981C46.3295 12.5654 46.7646 12.3894 47.2224 12.2702C47.8949 12.0998 48.6746 12.009 49.5675 12.009C50.7713 12.009 51.681 12.1963 52.2969 12.5767C52.9129 12.9401 53.2238 13.4851 53.2238 14.2061V24.8682C53.2238 25.0556 53.0711 25.2089 52.8847 25.2089H50.9861C50.7994 25.2089 50.6467 25.0556 50.6467 24.8682V14.473C50.6467 14.2856 50.4943 14.1323 50.3077 14.1323H47.6575C46.8154 14.1323 46.2392 14.2345 45.9341 14.4446C45.6232 14.649 45.4706 15.0464 45.4706 15.6368V24.8739C45.4706 25.0613 45.3182 25.2146 45.1315 25.2146H43.2328C43.0465 25.2146 42.8938 25.0613 42.8938 24.8739V24.8682Z" fill="#D9DEF4"/>
<path d="M66.2434 13.5079C65.9496 12.9742 65.4523 12.5938 64.7516 12.3667C64.0622 12.1226 63.1354 12.0034 61.9714 12.0034C61.3891 12.0034 60.7789 12.0374 60.1403 12.1055C59.5075 12.1566 58.9029 12.2418 58.3377 12.3667C57.8858 12.4632 57.4788 12.5711 57.1171 12.6846C56.9589 12.7357 56.8629 12.9004 56.891 13.065L57.1113 14.3084C57.1453 14.5014 57.3375 14.6206 57.5296 14.5752C58.1624 14.4162 58.7955 14.2913 59.417 14.2005C60.1575 14.0983 60.8579 14.0472 61.5305 14.0472C62.4913 14.0472 63.2767 14.121 63.8814 14.263C64.0338 14.297 64.1299 14.439 64.1299 14.5922V17.4593H63.7456C62.1125 17.4593 60.8016 17.5104 59.8013 17.6126C58.8068 17.6978 58.0495 17.8908 57.5354 18.1803C57.0379 18.4585 56.7047 18.873 56.5293 19.4237C56.3598 19.9574 56.2695 20.6727 56.2695 21.5697C56.2695 22.9664 56.5691 23.9713 57.1737 24.5731C57.7897 25.1578 58.8068 25.4531 60.2138 25.4531C61.1746 25.4531 62.0277 25.3338 62.7624 25.0897C63.3897 24.874 63.9717 24.5617 64.5087 24.1529C64.6782 24.0223 64.9154 24.0678 65.0172 24.2551L65.4239 25.0102C65.4805 25.1181 65.5992 25.1862 65.7235 25.1862H66.3676C66.5542 25.1862 66.7066 25.0329 66.7066 24.8456V15.6312C66.7066 14.7342 66.5542 14.0245 66.2434 13.5079ZM63.6948 23.1651C63.4178 23.3695 62.8811 23.4773 62.073 23.4773H58.9592C58.7729 23.4773 58.6202 23.324 58.6202 23.1367V20.6557C58.6202 20.0709 58.7671 19.6735 59.0611 19.4634C59.3549 19.2591 59.9029 19.1512 60.711 19.1512H63.7966C63.983 19.1512 64.1357 19.3045 64.1357 19.4918V21.9728C64.1357 22.5576 63.9888 22.955 63.6948 23.1651Z" fill="#D9DEF4"/>
<path d="M70.9395 12.407L72.8382 12.1231C73.0414 12.0947 73.228 12.2537 73.228 12.4581V24.8745C73.228 25.0618 73.0753 25.2151 72.889 25.2151H70.9903C70.8037 25.2151 70.6512 25.0618 70.6512 24.8745V12.7419C70.6512 12.5716 70.7755 12.4297 70.9395 12.407Z" fill="#D9DEF4"/>
<path d="M71.9622 10.0163C71.3294 10.0163 70.9 9.91415 70.6739 9.70409C70.4704 9.477 70.363 9.06824 70.363 8.46075C70.363 7.85328 70.476 7.41612 70.6966 7.19471C70.9224 6.96762 71.3407 6.85974 71.9566 6.85974C72.5726 6.85974 72.9624 6.97328 73.1659 7.19471C73.392 7.4218 73.4994 7.84193 73.4994 8.46075C73.4994 9.07959 73.3976 9.477 73.1886 9.70409C72.9851 9.90849 72.5726 10.0163 71.9511 10.0163H71.9622Z" fill="#D9DEF4"/>
<path d="M77.3081 24.8686V12.6055C77.3081 12.4181 77.4608 12.2648 77.6471 12.2648H78.2913C78.4158 12.2648 78.5287 12.3329 78.5908 12.4408L79.0033 13.2072C79.0994 13.3889 79.3368 13.4343 79.5063 13.3151C80.0715 12.9063 80.6817 12.5941 81.3316 12.3954C82.1057 12.1342 82.9873 12.0093 83.9876 12.0093C85.1911 12.0093 86.1008 12.1967 86.7168 12.5771C87.3327 12.9404 87.6436 13.4854 87.6436 14.2065V24.8686C87.6436 25.0559 87.4909 25.2092 87.3046 25.2092H85.4059C85.2193 25.2092 85.0668 25.0559 85.0668 24.8686V14.4733C85.0668 14.286 84.9142 14.1327 84.7278 14.1327H82.0776C81.2355 14.1327 80.659 14.2348 80.3539 14.4449C80.0489 14.655 79.8907 15.0467 79.8907 15.6372V24.8743C79.8907 25.0616 79.738 25.2149 79.5516 25.2149H77.6527C77.4663 25.2149 77.3136 25.0616 77.3136 24.8743L77.3081 24.8686Z" fill="#D9DEF4"/>
<path d="M91.0737 24.869V9.36983C91.0737 9.18246 91.2261 9.02917 91.4128 9.02917H94.5715C94.7579 9.02917 94.9106 9.18246 94.9106 9.36983V21.684C94.9106 21.8714 95.0633 22.0247 95.2496 22.0247H100.008C100.194 22.0247 100.347 22.178 100.347 22.3653V24.869C100.347 25.0564 100.194 25.2097 100.008 25.2097H91.4128C91.2261 25.2097 91.0737 25.0564 91.0737 24.869Z" fill="#D9DEF4"/>
<path d="M102.613 12.6393L105.772 12.2135C105.975 12.1851 106.156 12.3441 106.156 12.5485V24.8627C106.156 25.05 106.003 25.2033 105.817 25.2033H102.658C102.472 25.2033 102.319 25.05 102.319 24.8627V12.9799C102.319 12.8096 102.443 12.6677 102.613 12.645V12.6393Z" fill="#D9DEF4"/>
<path d="M104.252 10.5844C103.427 10.5844 102.862 10.4368 102.551 10.1416C102.257 9.8464 102.11 9.29 102.11 8.46112C102.11 7.63222 102.257 7.04744 102.551 6.75222C102.862 6.43996 103.438 6.28668 104.274 6.28668C105.111 6.28668 105.63 6.43996 105.924 6.75222C106.235 7.04744 106.388 7.61518 106.388 8.46112C106.388 9.30703 106.241 9.85206 105.947 10.1416C105.653 10.4368 105.088 10.5844 104.246 10.5844H104.252Z" fill="#D9DEF4"/>
<path d="M109.123 15.9952C109.123 14.5816 109.552 13.5426 110.411 12.8897C111.27 12.2141 112.609 11.8792 114.429 11.8792C115.305 11.8792 116.147 11.9302 116.955 12.0324C117.667 12.1062 118.351 12.2198 119.012 12.3731C119.187 12.4128 119.3 12.5888 119.272 12.7648L118.921 14.803C118.888 14.996 118.701 15.1209 118.509 15.0755C118.175 14.996 117.808 14.9336 117.418 14.8825C116.887 14.8143 116.333 14.7803 115.768 14.7803C115.305 14.7803 114.841 14.8087 114.378 14.8598C114.045 14.8882 113.745 14.9279 113.48 14.979C113.321 15.0131 113.22 15.155 113.22 15.3139V16.7617C113.22 16.932 113.35 17.0796 113.525 17.0967C114.728 17.2443 115.734 17.4203 116.548 17.6303C117.424 17.8347 118.113 18.1072 118.611 18.4308C119.108 18.7601 119.458 19.1632 119.667 19.6458C119.871 20.1113 119.978 20.6904 119.978 21.3774C119.978 22.3596 119.78 23.1714 119.385 23.813C118.989 24.4318 118.356 24.8917 117.481 25.1869C116.605 25.4651 115.463 25.6014 114.056 25.6014C113.18 25.6014 112.293 25.5332 111.4 25.397C110.632 25.2777 109.891 25.1074 109.191 24.8917C109.027 24.8406 108.925 24.6703 108.959 24.5L109.371 22.3028C109.411 22.0927 109.626 21.9792 109.823 22.053C110.993 22.4902 112.259 22.7059 113.621 22.7059C113.982 22.7059 114.333 22.6889 114.678 22.6548C114.966 22.615 115.288 22.5583 115.644 22.4788C115.802 22.4447 115.915 22.3028 115.915 22.1438V20.6507C115.915 20.4804 115.785 20.3328 115.616 20.31C114.327 20.1511 113.27 19.9808 112.44 19.8048C111.564 19.6004 110.886 19.3392 110.405 19.0269C109.925 18.6977 109.592 18.2946 109.4 17.812C109.23 17.3294 109.14 16.7219 109.14 16.0009L109.123 15.9952Z" fill="#D9DEF4"/>
<path d="M129.246 14.4621V12.6056C129.246 12.4182 129.093 12.2649 128.907 12.2649H127.522C127.336 12.2649 127.183 12.1116 127.183 11.9243V9.31268C127.183 9.09128 126.974 8.92662 126.759 8.9834L123.623 9.77256C123.47 9.81228 123.369 9.94856 123.369 10.1018V11.9299C123.369 12.1173 123.216 12.2706 123.03 12.2706H122.137C121.95 12.2706 121.798 12.4239 121.798 12.6112V14.4677C121.798 14.6551 121.95 14.8084 122.137 14.8084H123.03C123.216 14.8084 123.369 14.9617 123.369 15.149V23.1711C123.369 23.983 123.572 24.5791 123.985 24.9595C124.414 25.3399 125.07 25.5273 125.946 25.5273C126.307 25.5273 126.708 25.4989 127.155 25.4478C127.545 25.4024 127.969 25.3342 128.421 25.2434C128.568 25.215 128.681 25.0844 128.692 24.9311L128.85 22.9214C128.867 22.7283 128.72 22.5637 128.528 22.5523C128.336 22.541 128.149 22.5296 127.986 22.5183H127.963C127.805 22.4955 127.641 22.4728 127.471 22.4501C127.302 22.4274 127.172 22.2855 127.172 22.1095V15.1433C127.172 14.956 127.324 14.8027 127.511 14.8027H128.895C129.082 14.8027 129.234 14.6494 129.234 14.4621H129.246Z" fill="#D9DEF4"/>
</g>
<defs>
<filter id="filter0_d_15016_307030" x="-3" y="0" width="139.879" height="40" filterUnits="userSpaceOnUse" color-interpolation-filters="sRGB">
<feFlood flood-opacity="0" result="BackgroundImageFix"/>
<feColorMatrix in="SourceAlpha" type="matrix" values="0 0 0 0 0 0 0 0 0 0 0 0 0 0 0 0 0 0 127 0" result="hardAlpha"/>
<feOffset dy="4"/>
<feGaussianBlur stdDeviation="2"/>
<feComposite in2="hardAlpha" operator="out"/>
<feColorMatrix type="matrix" values="0 0 0 0 0 0 0 0 0 0 0 0 0 0 0 0 0 0 0.25 0"/>
<feBlend mode="normal" in2="BackgroundImageFix" result="effect1_dropShadow_15016_307030"/>
<feBlend mode="normal" in="SourceGraphic" in2="effect1_dropShadow_15016_307030" result="shape"/>
</filter>
<linearGradient id="paint0_linear_15016_307030" x1="14.5291" y1="2.73267" x2="14.5291" y2="29.1551" gradientUnits="userSpaceOnUse">
<stop stop-color="#2F80ED"/>
<stop offset="1" stop-color="#2F80ED"/>
</linearGradient>
</defs>
</svg>
