<svg width="88" height="80" viewBox="0 0 88 80" fill="none" xmlns="http://www.w3.org/2000/svg">
<path d="M18.4927 8.70731L19.3223 0.119278C19.3454 -0.0397594 19.5528 -0.0397594 19.5758 0.119278L20.4055 8.70731C20.4746 9.45705 21.0968 10.0478 21.8573 10.0932L32.6428 10.7294C32.8041 10.7294 32.8041 10.9793 32.6428 10.9793L21.8343 11.6381C21.0738 11.6836 20.4516 12.2743 20.3824 13.024L19.5528 21.6121C19.5297 21.7711 19.3223 21.7711 19.2993 21.6121L18.4696 13.024C18.4005 12.2743 17.7782 11.6836 17.0177 11.6381L6.23232 11.002C6.071 11.002 6.071 10.7521 6.23232 10.7521L17.0408 10.0932C17.8013 10.0478 18.4005 9.45705 18.4927 8.70731Z" fill="#F6E8D7"/>
<path d="M75.7997 72.4866L76.2923 67.5319C76.3059 67.4402 76.4291 67.4402 76.4428 67.5319L76.9354 72.4866C76.9764 72.9191 77.3459 73.2599 77.7974 73.2861L84.2013 73.6531C84.2971 73.6531 84.2971 73.7973 84.2013 73.7973L77.7838 74.1774C77.3322 74.2037 76.9628 74.5445 76.9217 74.977L76.4291 79.9316C76.4154 80.0234 76.2923 80.0234 76.2786 79.9316L75.786 74.977C75.7449 74.5445 75.3755 74.2037 74.9239 74.1774L68.5201 73.8104C68.4243 73.8104 68.4243 73.6663 68.5201 73.6663L74.9376 73.2861C75.3892 73.2599 75.7449 72.9191 75.7997 72.4866Z" fill="#F6E8D7"/>
<path d="M79.9155 15.393L80.3562 11.0989C80.3685 11.0194 80.4787 11.0194 80.4909 11.0989L80.9316 15.393C80.9684 15.7678 81.2989 16.0632 81.703 16.0859L87.4327 16.404C87.5184 16.404 87.5184 16.5289 87.4327 16.5289L81.6907 16.8584C81.2867 16.8811 80.9561 17.1765 80.9194 17.5513L80.4787 21.8453C80.4664 21.9249 80.3562 21.9249 80.344 21.8453L79.9032 17.5513C79.8665 17.1765 79.5359 16.8811 79.1319 16.8584L73.4022 16.5403C73.3165 16.5403 73.3165 16.4153 73.4022 16.4153L79.1442 16.0859C79.5482 16.0632 79.8665 15.7678 79.9155 15.393Z" fill="#22C480"/>
<path d="M5.02992 58.8804L5.36696 55.247C5.37633 55.1797 5.46059 55.1797 5.46995 55.247L5.80699 58.8804C5.83508 59.1976 6.08786 59.4475 6.39682 59.4667L10.7784 59.7359C10.8439 59.7359 10.8439 59.8416 10.7784 59.8416L6.38746 60.1204C6.0785 60.1396 5.82572 60.3895 5.79763 60.7067L5.46059 64.3401C5.45122 64.4074 5.36696 64.4074 5.3576 64.3401L5.02056 60.7067C4.99247 60.3895 4.73969 60.1396 4.43073 60.1204L0.0491523 59.8512C-0.0163841 59.8512 -0.0163841 59.7455 0.0491523 59.7455L4.44009 59.4667C4.74905 59.4475 4.99247 59.1976 5.02992 58.8804Z" fill="#22C480"/>
<path d="M17.5363 46.4808C17.6816 45.9836 17.8385 45.4864 18.0088 44.995C18.1771 44.5055 18.3569 44.014 18.5482 43.5303C18.7376 43.0484 18.9404 42.5685 19.1527 42.0905C19.367 41.6144 19.5889 41.1403 19.8242 40.6719C20.0575 40.2034 20.2986 39.7389 20.5549 39.2782C20.8074 38.8174 21.0714 38.3625 21.343 37.9133C21.6166 37.4602 21.8978 37.0148 22.1886 36.5752C22.4813 36.1318 22.7816 35.6979 23.0915 35.266C23.4014 34.836 23.717 34.4098 24.0422 33.9932C24.3674 33.5709 24.7022 33.1601 25.0427 32.7512C25.387 32.3423 25.7352 31.9411 26.091 31.5475C26.4487 31.154 26.816 30.7624 27.1871 30.3804C27.5582 30.0003 27.937 29.624 28.3215 29.2535C28.7079 28.8869 29.0982 28.526 29.4999 28.1727C29.8959 27.8176 30.3033 27.472 30.7127 27.1303C31.1221 26.7925 31.541 26.4604 31.9638 26.1379C32.3846 25.8134 32.8131 25.4967 33.2436 25.1895C33.6778 24.8862 34.1159 24.5829 34.5597 24.295C35.0016 24.0051 35.4492 23.721 35.9007 23.4464C36.3521 23.1758 36.8093 22.9109 37.2684 22.6555C37.7294 22.4002 38.1924 22.1545 38.6572 21.9165C39.1259 21.6803 39.5927 21.4557 40.0709 21.235C40.5472 21.018 41.0255 20.8088 41.5056 20.6111C41.9858 20.4133 42.4697 20.2252 42.9537 20.0467C43.4415 19.8681 43.9293 19.6992 44.4171 19.5418C44.9049 19.3844 45.3985 19.2385 45.892 19.1041C46.3837 18.9659 46.881 18.8392 47.3784 18.7259C47.8739 18.6107 48.3712 18.5071 48.8686 18.4149C49.3698 18.3228 49.8672 18.2441 50.3664 18.173C50.8676 18.1039 51.3669 18.0463 51.8662 18.0022C52.3655 17.9561 52.8686 17.9235 53.3679 17.9024C53.8671 17.8813 54.3664 17.8736 54.8657 17.8774C55.3631 17.8813 55.8566 17.8947 56.3425 17.9216C56.8265 17.9504 57.3047 17.9888 57.7772 18.0406C58.2478 18.0924 58.7108 18.1558 59.166 18.2326C59.6251 18.3055 60.0747 18.3938 60.5147 18.4917C60.9566 18.5915 61.3927 18.6952 61.8174 18.82C62.2459 18.939 62.6629 19.0715 63.0742 19.2135C63.4874 19.3556 63.891 19.5053 64.2851 19.6666C64.6811 19.8297 65.0675 20.0044 65.4444 20.1868C65.8231 20.3711 66.1942 20.5631 66.5558 20.7646C66.9154 20.9681 67.2693 21.1793 67.6137 21.402C67.958 21.6247 68.2947 21.8531 68.6199 22.095C68.947 22.333 69.2645 22.5845 69.5706 22.8417C69.8805 23.099 70.1789 23.3658 70.4678 23.6403C70.7566 23.9168 71.0359 24.199 71.3076 24.4908C71.5773 24.7826 71.8375 25.082 72.09 25.3873C72.3406 25.6944 72.5816 26.0092 72.8093 26.3337C73.0426 26.6543 73.2626 26.9844 73.473 27.3204C73.6816 27.6602 73.8824 28.0038 74.0737 28.357C74.2612 28.7064 74.441 29.0654 74.6093 29.4263C74.7777 29.793 74.9365 30.1635 75.0818 30.5416C75.2272 30.9198 75.363 31.3037 75.4912 31.6934C75.6136 32.0831 75.7284 32.4748 75.8279 32.8817C75.9312 33.283 76.0249 33.6899 76.0995 34.1027C76.1799 34.5154 76.2487 34.9339 76.3023 35.3581C76.3597 35.7824 76.4056 36.2105 76.4343 36.6443C76.4687 37.0763 76.486 37.5178 76.4955 37.9612C76.5032 38.4028 76.4993 38.852 76.4821 39.305C76.4668 39.7562 76.4362 40.213 76.3941 40.6738C76.354 41.1345 76.2985 41.601 76.2315 42.0675C76.1608 42.5397 76.0785 43.01 75.9905 43.4861C75.8987 43.9603 75.7896 44.444 75.6691 44.924C75.5505 45.4077 75.4185 45.8953 75.2712 46.3849C75.1278 46.8705 74.9671 47.3581 74.7987 47.84C74.6285 48.3218 74.4487 48.8018 74.2554 49.2817C74.0603 49.7558 73.8595 50.2281 73.6471 50.6965C73.4348 51.1668 73.211 51.6314 72.9757 52.0921C72.7404 52.5528 72.4955 53.0116 72.243 53.4647C71.9886 53.9177 71.7246 54.365 71.4511 54.8104C71.1794 55.2538 70.8963 55.6915 70.6055 56.1254C70.3148 56.5612 70.0087 56.9912 69.7007 57.4135C69.3927 57.8397 69.0771 58.2582 68.7461 58.6728C68.4248 59.0836 68.09 59.4944 67.7457 59.8957C67.4032 60.2988 67.0551 60.6962 66.6974 61.0859C66.3358 61.4775 65.9723 61.8614 65.6012 62.2396C65.2301 62.6178 64.8513 62.9902 64.4649 63.353C64.0785 63.7216 63.6864 64.0806 63.2885 64.4319C62.8906 64.7832 62.4831 65.1307 62.0718 65.4666C61.6624 65.8045 61.2473 66.1347 60.8246 66.4591C60.4018 66.7835 59.9752 67.0983 59.541 67.4074C59.1106 67.7126 58.6706 68.014 58.2287 68.3097C57.7887 68.5995 57.3372 68.8856 56.8858 69.1601C56.4362 69.4365 55.979 69.7053 55.5199 69.9625C55.0589 70.2236 54.596 70.4712 54.1292 70.7131C53.6625 70.9569 53.19 71.1873 52.7194 71.4081C52.243 71.6327 51.7648 71.8496 51.2866 72.0512C50.8064 72.2546 50.3224 72.4505 49.8385 72.6328C49.3526 72.819 48.8667 72.9937 48.377 73.155C47.8853 73.322 47.3975 73.4736 46.9021 73.6157C46.4104 73.7597 45.915 73.896 45.4195 74.0169C44.9222 74.1379 44.4248 74.2492 43.9274 74.349C43.43 74.4489 42.9327 74.5372 42.4296 74.6139C41.9341 74.6888 41.4348 74.7522 40.9356 74.8098C40.4344 74.8635 39.9332 74.9038 39.4377 74.9345C38.9365 74.9633 38.4372 74.9825 37.9399 74.9883C37.4425 74.9921 36.9509 74.9844 36.465 74.9633C35.981 74.9441 35.5008 74.9134 35.0303 74.8673C34.5597 74.8213 34.0986 74.7675 33.6415 74.7003C33.1862 74.6312 32.7385 74.5525 32.2947 74.4623C31.8528 74.374 31.4205 74.2703 30.9939 74.1571C30.5673 74.0457 30.1484 73.919 29.739 73.7846C29.3277 73.6522 28.9241 73.5063 28.5319 73.3489C28.1379 73.1934 27.7515 73.0264 27.3708 72.8497C26.9939 72.6731 26.6228 72.4869 26.2632 72.2854C25.9016 72.0934 25.5496 71.8861 25.2053 71.6691C24.8591 71.4522 24.5262 71.2276 24.201 70.9915C23.8758 70.7534 23.5563 70.5116 23.2503 70.2562C22.9423 70.0028 22.6458 69.7379 22.3531 69.4672C22.0661 69.1966 21.7869 68.9144 21.5171 68.6264C21.2436 68.3365 20.9853 68.0371 20.7328 67.7318C20.4841 67.4247 20.2412 67.1118 20.0135 66.7893C19.7821 66.4648 19.5602 66.1366 19.3517 65.7987C19.1393 65.4608 18.9385 65.1153 18.7491 64.7621C18.5597 64.4089 18.3799 64.0499 18.2134 63.6813C18.0432 63.3127 17.8863 62.9384 17.739 62.5564C17.5937 62.1763 17.4559 61.7885 17.3316 61.3949C17.2072 60.9995 17.0944 60.5983 16.9892 60.1932C16.8878 59.7862 16.7959 59.3716 16.7175 58.9531C16.6391 58.5346 16.5702 58.1123 16.5147 57.6803C16.4574 57.2503 16.4114 56.8165 16.3808 56.3749C16.3483 55.9353 16.3292 55.49 16.3196 55.0388C16.312 54.5877 16.3139 54.1327 16.333 53.6739C16.3464 53.2132 16.377 52.7506 16.4191 52.2802C16.4593 51.8118 16.5147 51.3396 16.5798 50.8635C16.6467 50.3874 16.7271 49.9075 16.8208 49.4237C16.9126 48.9381 17.0198 48.4504 17.1384 47.9609C17.257 47.4695 17.3909 46.9761 17.5363 46.4808Z" fill="#9A5F15"/>
<path d="M14.882 44.6473C15.0273 44.1501 15.1842 43.6529 15.3545 43.1615C15.5228 42.672 15.7026 42.1805 15.8939 41.6968C16.0833 41.2149 16.2861 40.735 16.4984 40.257C16.7127 39.7809 16.9346 39.3068 17.1699 38.8384C17.4032 38.3699 17.6443 37.9054 17.9006 37.4447C18.1531 36.9839 18.4171 36.529 18.6887 36.0798C18.9623 35.6267 19.2435 35.1813 19.5343 34.7417C19.827 34.2983 20.1273 33.8644 20.4372 33.4325C20.7471 33.0025 21.0627 32.5763 21.3879 32.1597C21.7131 31.7374 22.0479 31.3266 22.3884 30.9177C22.7327 30.5088 23.0809 30.1076 23.4367 29.7141C23.7944 29.3205 24.1617 28.9289 24.5328 28.5469C24.9039 28.1668 25.2827 27.7905 25.6672 27.42C26.0536 27.0534 26.4439 26.6925 26.8456 26.3392C27.2416 25.9841 27.649 25.6385 28.0584 25.2968C28.4678 24.959 28.8867 24.6269 29.3095 24.3044C29.7303 23.9799 30.1588 23.6632 30.5893 23.356C31.0235 23.0527 31.4616 22.7494 31.9054 22.4615C32.3473 22.1716 32.7949 21.8875 33.2464 21.6129C33.6978 21.3423 34.155 21.0774 34.6141 20.822C35.0751 20.5667 35.5381 20.321 36.0029 20.083C36.4716 19.8468 36.9384 19.6222 37.4166 19.4015C37.8929 19.1845 38.3712 18.9753 38.8513 18.7776C39.3315 18.5798 39.8154 18.3917 40.2994 18.2132C40.7872 18.0346 41.275 17.8657 41.7628 17.7083C42.2506 17.5509 42.7442 17.405 43.2377 17.2706C43.7294 17.1324 44.2267 17.0057 44.7241 16.8924C45.2196 16.7772 45.7169 16.6736 46.2143 16.5814C46.7155 16.4893 47.2129 16.4106 47.7121 16.3396C48.2133 16.2704 48.7126 16.2129 49.2119 16.1687C49.7112 16.1226 50.2143 16.09 50.7136 16.0689C51.2128 16.0478 51.7121 16.0401 52.2114 16.0439C52.7088 16.0478 53.2023 16.0612 53.6882 16.0881C54.1722 16.1169 54.6504 16.1553 55.1229 16.2071C55.5935 16.2589 56.0565 16.3223 56.5117 16.3991C56.9709 16.472 57.4204 16.5603 57.8604 16.6582C58.3023 16.758 58.7384 16.8617 59.1631 16.9865C59.5916 17.1055 60.0086 17.238 60.4199 17.38C60.8331 17.5221 61.2367 17.6718 61.6308 17.8331C62.0268 17.9962 62.4132 18.1709 62.7901 18.3533C63.1688 18.5376 63.54 18.7296 63.9015 18.9311C64.2611 19.1346 64.615 19.3458 64.9594 19.5685C65.3037 19.7912 65.6404 20.0196 65.9656 20.2615C66.2927 20.4995 66.6102 20.751 66.9163 21.0082C67.2262 21.2655 67.5246 21.5323 67.8135 21.8068C68.1023 22.0833 68.3816 22.3655 68.6533 22.6573C68.923 22.9491 69.1832 23.2485 69.4357 23.5538C69.6863 23.8609 69.9273 24.1757 70.155 24.5002C70.3883 24.8208 70.6083 25.1509 70.8188 25.4869C71.0273 25.8267 71.2281 26.1703 71.4194 26.5235C71.6069 26.8729 71.7867 27.2319 71.9551 27.5928C72.1234 27.9595 72.2822 28.33 72.4276 28.7081C72.5729 29.0863 72.7088 29.4703 72.8369 29.86C72.9594 30.2496 73.0741 30.6413 73.1736 31.0482C73.2769 31.4495 73.3706 31.8564 73.4452 32.2692C73.5256 32.6819 73.5944 33.1004 73.648 33.5246C73.7054 33.9489 73.7513 34.377 73.78 34.8108C73.8144 35.2428 73.8317 35.6843 73.8412 36.1277C73.8489 36.5693 73.845 37.0185 73.8278 37.4715C73.8125 37.9227 73.7819 38.3795 73.7398 38.8403C73.6997 39.301 73.6442 39.7675 73.5772 40.234C73.5065 40.7062 73.4242 41.1765 73.3362 41.6526C73.2444 42.1268 73.1353 42.6106 73.0148 43.0905C72.8962 43.5742 72.7642 44.0618 72.6169 44.5514C72.4735 45.037 72.3128 45.5246 72.1444 46.0065C71.9742 46.4883 71.7944 46.9683 71.6012 47.4482C71.406 47.9223 71.2052 48.3946 70.9928 48.863C70.7805 49.3333 70.5567 49.7979 70.3214 50.2586C70.0861 50.7193 69.8412 51.1781 69.5887 51.6312C69.3343 52.0842 69.0703 52.5315 68.7968 52.9769C68.5251 53.4203 68.242 53.858 67.9512 54.2919C67.6605 54.7277 67.3544 55.1577 67.0464 55.58C66.7384 56.0062 66.4228 56.4247 66.0918 56.8393C65.7705 57.2501 65.4357 57.6609 65.0914 58.0622C64.7489 58.4653 64.4008 58.8627 64.0431 59.2524C63.6815 59.644 63.318 60.0279 62.9469 60.4061C62.5758 60.7843 62.1971 61.1567 61.8106 61.5195C61.4242 61.8881 61.0321 62.2471 60.6342 62.5984C60.2363 62.9497 59.8288 63.2972 59.4175 63.6331C59.0082 63.971 58.593 64.3012 58.1703 64.6256C57.7475 64.95 57.3209 65.2649 56.8867 65.5739C56.4563 65.8792 56.0163 66.1805 55.5744 66.4762C55.1344 66.766 54.683 67.0521 54.2315 67.3266C53.782 67.603 53.3248 67.8718 52.8656 68.129C52.4046 68.3901 51.9417 68.6377 51.4749 68.8796C51.0082 69.1234 50.5357 69.3538 50.0651 69.5746C49.5887 69.7992 49.1105 70.0161 48.6323 70.2177C48.1521 70.4211 47.6681 70.617 47.1842 70.7993C46.6983 70.9855 46.2124 71.1602 45.7227 71.3215C45.231 71.4885 44.7432 71.6401 44.2478 71.7822C43.7561 71.9262 43.2607 72.0625 42.7652 72.1834C42.2679 72.3044 41.7705 72.4157 41.2731 72.5155C40.7758 72.6154 40.2784 72.7037 39.7753 72.7804C39.2798 72.8553 38.7805 72.9187 38.2813 72.9763C37.7801 73.03 37.2789 73.0703 36.7834 73.101C36.2822 73.1298 35.7829 73.149 35.2856 73.1548C34.7882 73.1586 34.2966 73.1509 33.8107 73.1298C33.3267 73.1106 32.8465 73.0799 32.376 73.0338C31.9054 72.9878 31.4443 72.934 30.9872 72.8668C30.5319 72.7977 30.0842 72.719 29.6404 72.6288C29.1985 72.5405 28.7662 72.4368 28.3396 72.3236C27.913 72.2122 27.4941 72.0855 27.0847 71.9511C26.6734 71.8187 26.2698 71.6728 25.8776 71.5154C25.4836 71.3599 25.0972 71.1929 24.7165 71.0162C24.3396 70.8396 23.9685 70.6534 23.6089 70.4519C23.2473 70.2599 22.8953 70.0526 22.551 69.8356C22.2048 69.6187 21.8719 69.3941 21.5467 69.158C21.2215 68.9199 20.902 68.6781 20.596 68.4227C20.288 68.1693 19.9915 67.9044 19.6988 67.6337C19.4118 67.3631 19.1326 67.0809 18.8628 66.7929C18.5893 66.503 18.331 66.2036 18.0785 65.8983C17.8298 65.5912 17.5869 65.2783 17.3592 64.9558C17.1278 64.6314 16.9059 64.3031 16.6974 63.9652C16.485 63.6274 16.2842 63.2818 16.0948 62.9286C15.9054 62.5754 15.7256 62.2164 15.5592 61.8478C15.3889 61.4792 15.232 61.1049 15.0847 60.7229C14.9394 60.3428 14.8016 59.955 14.6773 59.5614C14.5529 59.166 14.4401 58.7648 14.3349 58.3597C14.2335 57.9527 14.1417 57.5381 14.0632 57.1196C13.9848 56.7011 13.9159 56.2788 13.8604 55.8468C13.8031 55.4168 13.7571 54.983 13.7265 54.5414C13.694 54.1018 13.6749 53.6565 13.6653 53.2053C13.6577 52.7542 13.6596 52.2992 13.6787 51.8404C13.6921 51.3797 13.7227 50.9171 13.7648 50.4467C13.805 49.9783 13.8604 49.5061 13.9255 49.03C13.9924 48.5539 14.0728 48.074 14.1665 47.5902C14.2583 47.1046 14.3655 46.617 14.4841 46.1274C14.6027 45.636 14.7366 45.1426 14.882 44.6473Z" fill="#D08E39"/>
<path d="M66.5257 33.5265C66.5257 33.5265 65.9059 33.4881 65.2881 33.4517C64.6721 33.4133 64.0561 33.3768 64.0561 33.3768C63.8801 33.3672 63.7328 33.2923 63.6391 33.1676C63.5473 33.0466 63.5167 32.8815 63.553 32.7049C63.553 32.7049 63.6678 32.1348 63.7826 31.5627C63.8973 30.9925 64.014 30.4186 64.014 30.4186C64.0198 30.3802 64.0064 30.3437 63.9853 30.3226C63.9624 30.2957 63.9279 30.2842 63.8897 30.2842C63.8495 30.2842 63.8055 30.2957 63.7711 30.3187C63.7328 30.3456 63.6984 30.3802 63.6812 30.4205C63.6812 30.4205 63.4574 30.9887 63.2297 31.5627C63.004 32.1328 62.7763 32.7011 62.7763 32.7011C62.7094 32.8834 62.5793 33.0466 62.4148 33.1695C62.2484 33.2923 62.0552 33.3634 61.8753 33.373C61.8753 33.373 61.2345 33.4094 60.5956 33.4478C59.9547 33.4862 59.3158 33.5246 59.3158 33.5246C59.2756 33.5304 59.2355 33.5515 59.201 33.5803C59.1647 33.6091 59.1398 33.6456 59.1283 33.6859C59.1168 33.7243 59.1188 33.7627 59.136 33.7934C59.1551 33.8222 59.1838 33.8414 59.2202 33.849C59.2202 33.849 59.8361 33.8874 60.4521 33.9239C61.0681 33.9604 61.6898 33.9988 61.6898 33.9988C61.86 34.0103 62.0092 34.0852 62.1011 34.2061C62.191 34.3309 62.2235 34.496 62.191 34.6707C62.191 34.6707 62.0743 35.2389 61.9595 35.8129C61.8447 36.383 61.728 36.957 61.728 36.957C61.7242 36.9954 61.7338 37.0281 61.7548 37.053C61.7797 37.078 61.8122 37.0933 61.8524 37.0914C61.8906 37.0933 61.9327 37.0761 61.9729 37.053C62.0092 37.0281 62.0399 36.9935 62.0609 36.9532C62.0609 36.9532 62.2847 36.383 62.5104 35.8129C62.7362 35.2408 62.9619 34.6726 62.9619 34.6726C63.0308 34.4941 63.1608 34.3328 63.3234 34.208C63.488 34.0871 63.6812 34.0141 63.8648 34.0007C63.8648 34.0007 64.5056 33.9642 65.1465 33.9258C65.7873 33.8874 66.4282 33.851 66.4282 33.851C66.4683 33.8452 66.5066 33.8241 66.543 33.7934C66.5736 33.7646 66.6003 33.7243 66.6118 33.6897C66.6233 33.6513 66.6214 33.6129 66.6061 33.5841C66.5889 33.5534 66.5621 33.5323 66.5257 33.5265Z" fill="#002522"/>
<path fill-rule="evenodd" clip-rule="evenodd" d="M58.693 42.0827L59.0182 42.3725C59.3128 42.6144 59.4946 42.9561 59.55 43.3554C59.5634 43.58 59.5252 43.82 59.4314 44.0542C59.3607 44.2442 59.2727 44.4285 59.1789 44.6071C58.9876 44.966 58.7504 45.3173 58.4788 45.6437C58.3353 45.8069 58.1784 45.9662 58.0178 46.1159L57.9336 46.1966L57.8724 46.6534C57.8418 46.8358 57.7978 47.0163 57.7461 47.2063C57.6333 47.5711 57.4821 47.9339 57.2947 48.289C57.1072 48.6442 56.8796 48.9878 56.6251 49.318C56.3669 49.652 56.078 49.9649 55.7681 50.251C55.4544 50.5408 55.1177 50.8057 54.7638 51.0419L54.6777 51.0956L54.5859 51.1244C54.1823 51.253 53.7767 51.3721 53.3712 51.4738C52.9637 51.5775 52.5601 51.6658 52.1545 51.7406C51.7433 51.8232 51.3301 51.8827 50.9245 51.9172C50.5209 51.9518 50.1172 51.9652 49.7232 51.9518H49.6696L49.6084 51.9537C49.2526 51.8289 48.8872 51.7195 48.518 51.6197C48.1488 51.516 47.7758 51.4258 47.3951 51.3471C47.0163 51.2645 46.6299 51.1954 46.2397 51.1359C45.8514 51.0764 45.4535 51.0303 45.0575 50.99C44.9542 50.9804 44.8509 50.9747 44.7457 50.9632C44.4377 50.942 44.1125 50.9171 43.793 50.8653C43.3722 50.7981 42.9666 50.6886 42.5898 50.5389C42.255 50.4141 41.9107 50.3181 41.5453 50.2529C41.1837 50.1914 40.8069 50.155 40.4224 50.153L40.3956 50.1511C40.0627 50.5044 39.793 50.8979 39.6094 51.3068C39.4181 51.7195 39.3167 52.1399 39.3052 52.5411C39.2536 53.046 39.244 53.5413 39.2803 54.0212C39.311 54.5031 39.3856 54.9696 39.4984 55.4226C39.6419 55.8948 39.7662 56.3767 39.8734 56.8662C39.9824 57.3538 40.0723 57.8529 40.1469 58.3578C40.2273 58.8896 40.233 59.454 40.1699 60.0299C40.101 60.6538 39.86 61.3045 39.4774 61.9112L39.0087 62.633L38.5228 62.1799C38.4463 62.1166 38.3621 62.059 38.2722 62.0129C38.123 62.3623 37.9489 62.7117 37.7576 63.0495C37.4037 63.6466 36.9829 64.2186 36.5008 64.7562C36.5735 64.3338 36.6041 63.9499 36.5984 63.6024C36.5907 63.2511 36.5467 62.9344 36.474 62.6464C36.3248 62.0705 36.0494 61.6059 35.6974 61.222C35.3454 60.8342 34.9092 60.5232 34.4329 60.2506C33.9604 59.978 33.4458 59.7438 32.9351 59.5096C32.476 59.3042 32.0188 59.0988 31.596 58.8646C31.1751 58.6304 30.783 58.3732 30.4578 58.0622C30.1919 57.8088 29.97 57.5496 29.7844 57.2847C29.6008 57.0179 29.4592 56.7434 29.3559 56.4573C29.2507 56.1713 29.1876 55.8757 29.1646 55.5647C29.1398 55.2518 29.157 54.9254 29.2105 54.5837C29.266 54.2439 29.3597 53.883 29.4937 53.5048C29.6256 53.1267 29.7959 52.7274 30.0063 52.3069C30.2168 51.8865 30.4654 51.4431 30.7543 50.9747C31.0393 50.5082 31.3664 50.0148 31.7261 49.4927C31.9499 49.1721 32.1661 48.8477 32.3707 48.5213C32.5793 48.193 32.7782 47.8667 32.9676 47.5346C33.1589 47.2025 33.3425 46.8685 33.5166 46.5344C33.6907 46.1966 33.8571 45.8587 34.0121 45.5189C34.1498 45.2098 34.2971 44.9104 34.454 44.6071C34.4731 44.5648 34.4903 44.5245 34.5152 44.4842L34.628 44.2692C34.5936 44.4074 34.5553 44.5437 34.5209 44.6762C34.431 45.0083 34.3449 45.3365 34.2894 45.6571C34.1842 46.1025 34.1441 46.5383 34.1708 46.9529C34.1842 47.1295 34.2397 47.2908 34.3258 47.4309C34.3507 47.4751 34.3832 47.5096 34.4157 47.5557C34.4406 47.5864 34.4654 47.621 34.4941 47.6613C34.5419 47.74 34.5955 47.811 34.6548 47.8782C34.9131 48.1316 35.2268 48.3293 35.5826 48.4676C35.9575 48.6115 36.3497 48.7286 36.7572 48.8189C37.1589 48.9091 37.5778 48.9744 38.0082 49.0128C38.4195 49.0569 38.8365 49.0915 39.2612 49.1087C39.6859 49.1299 40.1144 49.1375 40.5544 49.1356H40.6845C41.1302 49.1395 41.5702 49.174 41.9948 49.2489C42.4138 49.3218 42.8212 49.4293 43.2057 49.5733C43.5482 49.6981 43.9078 49.796 44.2789 49.8651C44.6577 49.9323 45.046 49.9707 45.4439 49.9803C45.8552 50.0187 46.2607 50.0667 46.6644 50.1281C47.0661 50.1876 47.4621 50.2586 47.8542 50.3393C48.2445 50.4218 48.6328 50.514 49.0096 50.6176C49.3903 50.7213 49.7653 50.8345 50.1325 50.9593C50.4769 50.967 50.825 50.9555 51.177 50.9228C51.5309 50.8921 51.8886 50.8403 52.2464 50.7693C52.7571 50.6752 53.2698 50.5466 53.7844 50.4045C54.9704 49.9611 56.0206 48.7728 54.5477 48.9302C54.2052 48.9571 53.8571 49.0051 53.5051 49.0723C53.2354 49.1222 52.9542 49.2143 52.65 49.3161C52.3803 49.4044 52.0933 49.4984 51.7873 49.5675C51.1675 49.7077 50.563 49.6962 50.0388 49.5368C49.5969 49.3314 49.1072 49.2105 48.5754 49.1721C48.8681 49.03 49.1761 48.9436 49.4707 48.9264C49.6868 48.9052 49.8705 48.911 50.0465 48.9206C50.1326 48.9206 50.2186 48.9244 50.3028 48.9244C50.7791 48.984 51.2784 48.9609 51.7949 48.8573C52.0608 48.7862 52.3478 48.6557 52.6577 48.5098C52.9121 48.3946 53.1761 48.2737 53.4573 48.17C54.0694 47.9435 54.6892 47.8225 55.2861 47.811L55.6419 47.8091C56.2291 47.239 56.7648 46.6112 56.7839 46.0948C56.6844 45.8779 56.5103 45.7224 56.2808 45.636C56.2215 45.6111 56.0972 45.5784 55.9365 45.5362C55.6514 45.4536 55.244 45.3423 54.8633 45.1983C54.4864 45.0524 54.1383 44.8816 53.9757 44.68C53.7404 44.3421 54.1402 43.6683 55.5998 43.3842C56.2636 43.2748 56.9082 43.2594 57.5261 43.3266C57.7366 43.365 57.9661 43.3439 58.1957 43.2709L58.1383 43.2018L57.8207 42.9235L57.5089 42.6259C57.5089 42.6259 57.2009 42.3303 56.8949 42.0366C56.5907 41.741 56.2865 41.4434 56.2865 41.4434C56.0857 41.2553 55.8695 41.0575 55.6706 40.8982L55.5653 40.8272L55.3473 40.7216C55.2038 40.6563 55.068 40.5738 54.9302 40.4912C54.5017 40.2321 54.1364 39.9038 53.8341 39.5218C53.5453 39.2031 53.2775 38.775 53.0364 38.2913C52.7954 37.8075 52.5792 37.2719 52.3975 36.7459C52.2139 36.2199 52.0646 35.7016 51.9479 35.2524C51.8332 34.8013 51.7528 34.4231 51.7165 34.1716C51.6514 33.7838 51.5041 33.4364 51.2899 33.1426C51.0756 32.847 50.7906 32.609 50.4463 32.4381C50.8403 32.417 51.2095 32.4842 51.5194 32.6339C51.8332 32.7856 52.0838 33.0121 52.2521 33.2981C52.3535 33.4095 52.4951 33.7627 52.6672 34.187C52.8394 34.617 53.0441 35.1219 53.2602 35.5269C53.4821 35.93 53.7193 36.2295 53.9585 36.2545C54.232 36.2449 54.5075 36.2084 54.7868 36.1354C54.6108 35.9012 54.4597 35.644 54.3391 35.3714C54.1746 35.0182 54.0732 34.6592 53.9757 34.306C53.9412 34.187 53.9106 34.066 53.8743 33.9547C53.7729 33.5131 53.6141 33.1062 53.4037 32.728C53.3521 32.6493 53.2947 32.5783 53.2315 32.513C53.1646 32.4477 53.0881 32.392 53.0039 32.346C52.8203 32.2346 52.6309 32.1406 52.3841 32.0369C52.1431 31.9313 51.9307 31.8392 51.6897 31.701L51.0642 31.3343L49.8054 30.6221C49.3865 30.3936 48.958 30.1748 48.5199 29.9752C48.0838 29.7717 47.6323 29.5874 47.1713 29.4146C46.7179 29.2514 46.2473 29.1094 45.7634 28.9942C45.2775 28.8828 44.7801 28.7945 44.2693 28.7331C44.0283 28.7005 43.7815 28.6832 43.529 28.6774C43.3282 28.6698 43.1158 28.7139 42.9054 28.7984C42.7944 28.8406 42.6816 28.8924 42.5592 28.9481C42.408 29.0172 42.2416 29.0902 42.0599 29.1593L41.2335 29.4895C40.6883 29.7237 40.1488 29.9771 39.6151 30.2535C39.0833 30.5261 38.5553 30.8217 38.035 31.1366C37.6295 31.3554 37.2335 31.6031 36.8509 31.8776C36.4702 32.1521 36.1029 32.4516 35.7605 32.7741C36.1354 32.7568 36.5008 32.776 36.8509 32.8278C37.201 32.8816 37.5357 32.9718 37.8533 33.0927C37.3827 33.0831 36.9025 33.11 36.4166 33.1772C35.9308 33.2425 35.4391 33.3423 34.9475 33.4786C34.4673 33.6111 33.9891 33.7685 33.5109 33.9585C33.0365 34.1313 32.5716 34.3405 32.1163 34.5805C31.6687 34.7974 31.2383 35.0623 30.8346 35.3657C30.6663 35.4962 30.5228 35.6498 30.4061 35.8168C30.2627 36.0126 30.1154 36.2276 29.9738 36.4407C29.6926 36.8803 29.4267 37.3218 29.1742 37.7691C28.9217 38.2164 28.6826 38.6694 28.4607 39.1225C28.2311 39.5775 28.0188 40.0324 27.8179 40.4893C27.617 40.95 27.4315 41.4069 27.2612 41.8696C27.0929 42.3303 26.9379 42.7891 26.7964 43.2556C26.6548 43.7144 26.5305 44.179 26.4157 44.6416C26.3258 45.014 26.255 45.3864 26.2034 45.755C26.1517 46.1236 26.1249 46.4845 26.1135 46.8473C26.1058 47.2044 26.1154 47.5595 26.1479 47.907C26.1785 48.2526 26.2282 48.5962 26.3048 48.9264C26.7466 48.5059 27.1905 48.0798 27.6323 47.6498C28.0723 47.2217 28.5104 46.7859 28.9389 46.3521C29.2163 46.0679 29.4937 45.78 29.7691 45.494C30.0427 45.2079 30.3105 44.92 30.5802 44.6282C30.8461 44.3402 31.1101 44.0465 31.3722 43.7509C31.6323 43.4591 31.8887 43.1654 32.1412 42.8736C32.4052 42.5664 32.6596 42.2516 32.9121 41.9329C33.1627 41.6143 33.4114 41.2917 33.662 40.9673C33.8896 40.6698 34.1211 40.3722 34.3545 40.0727C34.5898 39.7752 34.827 39.4757 35.0757 39.182C35.332 38.8653 35.596 38.56 35.8734 38.2605C36.1527 37.9611 36.4396 37.6712 36.7399 37.389C37.0498 37.0972 37.3865 36.8342 37.7404 36.6096C38.0981 36.3754 38.4922 36.2334 38.8691 36.2084C38.4979 36.4695 38.1115 36.8419 37.7098 37.3007C37.3081 37.7595 36.8949 38.3066 36.4664 38.919C36.254 39.2262 36.0379 39.5487 35.8217 39.8846C35.6017 40.2244 35.3817 40.5738 35.1617 40.9328C34.9398 41.2956 34.7141 41.668 34.4884 42.0481C34.2607 42.4282 34.0312 42.816 33.8035 43.2095C33.618 43.5282 33.3865 43.9006 33.1264 44.3037C32.8643 44.7107 32.5716 45.1465 32.2579 45.6015C31.9422 46.0545 31.6056 46.5267 31.2574 46.9952C30.9092 47.4655 30.5496 47.9339 30.1881 48.385C29.8303 48.8323 29.4688 49.2623 29.1168 49.6597C28.7629 50.0532 28.4224 50.4103 28.101 50.7155C27.4544 51.326 26.8901 51.7176 26.4846 51.7541C25.8648 51.7925 25.727 51.5045 25.4841 50.9094L25.2832 50.441C25.1034 50.0225 24.9657 49.5829 24.8758 49.1241C24.7801 48.6634 24.7323 48.1854 24.7266 47.692C24.7361 47.2063 24.7667 46.7187 24.8299 46.2234C24.8911 45.7301 24.9829 45.2271 25.1034 44.728C25.2239 44.2308 25.3636 43.7432 25.5204 43.2498C25.6773 42.7546 25.8514 42.2574 26.0389 41.7717C26.2378 41.2841 26.4501 40.7965 26.6759 40.3146C26.9016 39.8309 27.1388 39.3509 27.3894 38.8749C27.6381 38.3968 27.9059 37.9208 28.1871 37.4504C28.4664 36.982 28.761 36.5175 29.0728 36.0587C29.2335 35.8302 29.3961 35.5999 29.5836 35.3618C29.6849 35.2313 29.7902 35.1065 29.9088 34.9856C30.0312 34.8627 30.1632 34.7494 30.3028 34.6419C30.7926 34.281 31.3167 33.9739 31.8542 33.7378C32.3038 33.5362 32.7572 33.3653 33.2124 33.2252C33.6696 33.0851 34.1268 32.9776 34.5821 32.9008C34.9838 32.3652 35.4621 31.8756 35.9977 31.4495C36.5199 31.0387 37.0651 30.6605 37.6295 30.3245C38.1632 29.9809 38.7084 29.6622 39.2631 29.3685C39.816 29.0748 40.3784 28.8041 40.9504 28.5623C41.2258 28.4432 41.5797 28.305 41.8188 28.2148C41.9336 28.1745 42.056 28.1169 42.1919 28.0555C42.3334 27.994 42.4865 27.9249 42.6586 27.8616C43.0163 27.7157 43.3798 27.6408 43.728 27.6485C44.0207 27.6542 44.3057 27.6715 44.585 27.7138C45.1302 27.779 45.6639 27.8731 46.1823 27.9921C46.6988 28.115 47.2019 28.2647 47.6859 28.4432C48.166 28.6198 48.6366 28.8118 49.0919 29.0211C49.5472 29.2322 49.991 29.4568 50.4233 29.6968L51.7012 30.4186L52.3325 30.7853C52.474 30.8678 52.6577 30.9523 52.8528 31.0367C52.891 31.0521 52.9274 31.0694 52.9637 31.0828C53.199 31.1903 53.419 31.2997 53.6505 31.4341C53.7767 31.5109 53.8973 31.5896 54.0044 31.6856C54.1 31.7912 54.1899 31.9064 54.2684 32.0254C54.5457 32.4554 54.7562 32.9276 54.8996 33.4344C54.9054 33.4575 54.9111 33.4786 54.9169 33.4959C55.0489 33.9624 55.177 34.4096 55.3511 34.8051C55.5252 35.2006 55.7452 35.5423 56.0589 35.7976L56.562 36.2065L56.5429 36.2717L56.277 36.5789L55.6553 36.721C55.5386 36.7574 55.4238 36.8323 55.3396 36.9283C55.2956 36.9782 55.2631 37.0339 55.244 37.0876C55.2038 37.2028 55.1732 37.3122 55.1445 37.4236C55.0909 37.6021 55.0144 37.7749 54.913 37.9438C54.8556 38.034 54.804 38.1127 54.7562 38.1799C54.7236 38.2279 54.693 38.274 54.6701 38.3085C54.6433 38.345 54.6261 38.3815 54.6146 38.4218C54.6031 38.4621 54.5993 38.5005 54.607 38.5351C54.8882 38.9574 55.2631 39.3049 55.7069 39.5698C55.814 39.6427 55.9346 39.7061 56.0589 39.7675L56.2464 39.8481C56.342 39.8961 56.4262 39.9518 56.5046 40.019C56.7342 40.1937 56.9159 40.3607 57.0995 40.5411C57.1225 40.5623 57.1455 40.5834 57.1703 40.6045C57.1703 40.6045 57.4745 40.904 57.7786 41.1977C58.0828 41.4972 58.3889 41.7947 58.3889 41.7947L58.693 42.0827ZM46.0216 38.8057C45.882 38.8192 45.7461 38.8192 45.618 38.8038C44.7265 38.7539 44.4702 38.1434 44.8011 37.5138C45.1359 36.886 45.1091 36.6806 44.9293 36.6806C44.6232 36.7766 44.3344 36.9552 44.101 37.197L44.0646 37.1951C44.0532 37.199 44.0417 37.199 44.034 37.1932C44.0245 37.1932 44.0207 37.1874 44.0149 37.1817C44.0073 37.174 44.0034 37.1663 44.0073 37.1567C44.0053 37.1471 44.0034 37.1394 44.0073 37.1318C44.585 35.8283 45.3674 35.7707 45.7098 35.7726C46.2186 35.811 46.7198 35.8744 47.2057 35.9627C47.6954 36.0491 48.1679 36.1604 48.6366 36.2948C48.6634 36.2986 48.6844 36.314 48.7017 36.3313C48.7189 36.3543 48.7265 36.3773 48.7208 36.41C48.7208 36.4388 48.7055 36.4656 48.6902 36.4944C48.6711 36.5175 48.6443 36.5424 48.6117 36.5578C48.4262 36.6883 48.2617 36.8553 48.1488 37.0435C48.0264 37.2297 47.9575 37.4293 47.9422 37.6213C47.8848 37.9265 47.6361 38.1991 47.2861 38.4064C46.936 38.6138 46.4845 38.7577 46.0216 38.8057Z" fill="#002522"/>
</svg>
