<svg width="318" height="84" viewBox="0 0 318 84" fill="none" xmlns="http://www.w3.org/2000/svg">
<g clip-path="url(#clip0_19917_392147)">
<g opacity="0.4">
<g filter="url(#filter0_ddd_19917_392147)">
<path fill-rule="evenodd" clip-rule="evenodd" d="M20 2C17.7909 2 16 3.79086 16 6V48C16 50.2091 17.7909 52 20 52H109H158H285C287.209 52 289 50.2092 289 48V6.00002C289 3.79087 287.209 2.00002 285 2.00001L158.015 2C158.01 2 158.005 2 158 2H109H20Z" fill="#CCD3D3"/>
</g>
<path d="M109 52L285 52C287.209 52 289 50.2091 289 48V6C289 3.79086 287.209 2 285 2L109 2C106.791 2 105 3.79086 105 6V48C105 50.2091 106.791 52 109 52Z" fill="#33514E"/>
<path d="M101 44L277 44C279.209 44 281 42.2091 281 40V14C281 11.7909 279.209 10 277 10L101 10C98.7909 10 97 11.7909 97 14V40C97 42.2091 98.7909 44 101 44Z" fill="#193330"/>
<path d="M16 6C16 3.79086 17.7909 2 20 2H158C171.807 2 183 13.1929 183 27C183 40.8071 171.807 52 158 52H20C17.7909 52 16 50.2091 16 48V6Z" fill="#CCD3D3"/>
<path d="M158 43.5C167.113 43.5 174.5 36.1127 174.5 27C174.5 17.8873 167.113 10.5 158 10.5C148.887 10.5 141.5 17.8873 141.5 27C141.5 36.1127 148.887 43.5 158 43.5Z" stroke="#99A8A7"/>
<path fill-rule="evenodd" clip-rule="evenodd" d="M288 19H293C294.105 19 295 19.8954 295 21V23H300C301.105 23 302 23.8954 302 25H316C316.552 25 317 25.4477 317 26V28C317 28.5523 316.552 29 316 29H302C302 30.1046 301.105 31 300 31H295V33C295 34.1046 294.105 35 293 35H288V19Z" fill="#33514E"/>
<path d="M291 19H289V35H291V19Z" fill="#193330"/>
<path d="M90.5218 37.4888V38.9996H100.919V32.1853H99.4042V37.4888H90.5218ZM90.5218 15V16.511H99.4042V21.8147H100.919V15H90.5218ZM85.16 26.689V23.178H87.5366C88.6953 23.178 89.1112 23.5631 89.1112 24.6151V25.2372C89.1112 26.3186 88.71 26.689 87.5366 26.689H85.16ZM88.9326 27.311C90.0167 27.0296 90.7741 26.022 90.7741 24.8223C90.7741 24.0668 90.4773 23.3852 89.9129 22.837C89.1999 22.1554 88.249 21.8147 87.0164 21.8147H83.6745V32.1849H85.16V28.0518H87.3881C88.5316 28.0518 88.9922 28.5258 88.9922 29.7112V32.1853H90.5072V29.9482C90.5072 28.3186 90.121 27.6965 88.9326 27.5187V27.311ZM76.4264 27.6517H81.0013V26.2888H76.4264V23.1776H81.4468V21.8147H74.9112V32.1849H81.6696V30.822H76.4264V27.6517ZM71.4503 28.1999V28.9109C71.4503 30.4072 70.9006 30.8962 69.5195 30.8962H69.1927C67.8112 30.8962 67.1429 30.4516 67.1429 28.3924V25.6072C67.1429 23.5333 67.8411 23.1034 69.2222 23.1034H69.5191C70.8709 23.1034 71.3016 23.6071 71.3163 24.9998H72.9503C72.8018 22.9553 71.4353 21.6667 69.3854 21.6667C68.3904 21.6667 67.5585 21.9779 66.9348 22.5702C65.999 23.4444 65.4792 24.9259 65.4792 26.9998C65.4792 28.9999 65.9249 30.4814 66.8457 31.3997C67.4694 32.0071 68.331 32.333 69.1777 32.333C70.0688 32.333 70.886 31.9773 71.3016 31.2071H71.5093V32.1849H72.8758V26.837H68.8506V28.1999H71.4503ZM58.3501 23.1776H59.9692C61.4993 23.1776 62.3311 23.5627 62.3311 25.637V28.3627C62.3311 30.4366 61.4993 30.822 59.9692 30.822H58.3501V23.1776ZM60.1027 32.1853C62.9398 32.1853 63.9941 30.0372 63.9941 27.0002C63.9941 23.9187 62.8654 21.8151 60.0728 21.8151H56.8644V32.1853H60.1027ZM49.6907 27.6517H54.2656V26.2888H49.6907V23.1776H54.711V21.8147H48.1753V32.1849H54.9339V30.822H49.6907V27.6517ZM40.9273 21.8147H39.4123V32.1849H46.2449V30.822H40.9273V21.8147ZM29 32.1853V39H39.3973V37.4888H30.5149V32.1853H29ZM29 15V21.8147H30.5149V16.511H39.3973V15H29Z" fill="#032724"/>
<path opacity="0.2" fill-rule="evenodd" clip-rule="evenodd" d="M16 6C16 3.79086 17.7909 2 20 2H109H158H158.015L285 2.00001C287.209 2.00002 289 3.79087 289 6.00002V19H293C294.105 19 295 19.8954 295 21V23H300C301.105 23 302 23.8954 302 25H316.5C317.052 25 317.5 25.4477 317.5 26V28C317.5 28.5523 317.052 29 316.5 29H302C302 30.1046 301.105 31 300 31H295V33C295 34.1046 294.105 35 293 35H289V48C289 50.2092 287.209 52 285 52H158H109H20C17.7909 52 16 50.2091 16 48V6Z" fill="url(#paint0_linear_19917_392147)"/>
</g>
<path d="M156 54C170.912 54 183 41.9117 183 27C183 12.0883 170.912 0 156 0C141.088 0 129 12.0883 129 27C129 41.9117 141.088 54 156 54Z" fill="#193330"/>
<path d="M192.491 21.2001C195.557 21.2001 197.517 23.0201 197.517 26.0301C197.517 29.0961 195.473 31.0001 192.491 31.0001H189.509V21.2001H192.491ZM192.477 29.7121C194.563 29.7121 196.075 28.3541 196.075 26.0161C196.075 23.7621 194.647 22.4881 192.477 22.4881H190.951V29.7121H192.477Z" fill="#F55252"/>
<path d="M200.321 22.4741C199.817 22.4741 199.439 22.0821 199.439 21.5781C199.439 21.0741 199.817 20.6821 200.321 20.6821C200.839 20.6821 201.231 21.0741 201.231 21.5781C201.231 22.0821 200.839 22.4741 200.321 22.4741ZM201.021 31.0001H199.635V23.9721H201.021V31.0001Z" fill="#F55252"/>
<path d="M204.383 25.8481C204.383 26.4921 205.139 26.7021 205.867 26.8561C207.127 27.1221 208.527 27.5561 208.527 29.0121C208.527 30.4261 207.211 31.1401 205.797 31.1401C204.411 31.1401 203.123 30.4681 202.927 29.0681L204.271 28.8441C204.425 29.6001 204.985 29.9921 205.769 29.9921C206.371 29.9921 207.169 29.7541 207.169 29.0681C207.169 28.4241 206.469 28.2421 205.797 28.0881C204.327 27.7661 203.053 27.3041 203.053 25.9741C203.053 24.6441 204.299 23.8041 205.629 23.8041C206.861 23.8041 208.065 24.5041 208.317 25.7361L206.987 25.9601C206.847 25.3301 206.301 24.9521 205.629 24.9521C205.041 24.9521 204.383 25.2461 204.383 25.8481Z" fill="#F55252"/>
<path d="M213.494 29.9221C214.418 29.9221 215.146 29.3481 215.37 28.4661L216.714 28.7041C216.406 30.2021 214.978 31.1401 213.522 31.1401C211.394 31.1401 209.966 29.5861 209.966 27.4861C209.966 25.4001 211.394 23.8321 213.522 23.8321C214.964 23.8321 216.406 24.7701 216.714 26.2681L215.37 26.5061C215.146 25.6241 214.418 25.0501 213.508 25.0501C212.08 25.0501 211.352 26.1421 211.352 27.4861C211.352 28.8301 212.08 29.9221 213.494 29.9221Z" fill="#F55252"/>
<path d="M221.846 23.8321C223.96 23.8321 225.444 25.3581 225.444 27.4861C225.444 29.6141 223.974 31.1401 221.846 31.1401C219.69 31.1401 218.22 29.6141 218.22 27.4861C218.22 25.3581 219.69 23.8321 221.846 23.8321ZM221.832 29.9221C223.232 29.9221 224.03 28.8721 224.03 27.4861C224.03 26.1001 223.232 25.0501 221.832 25.0501C220.432 25.0501 219.634 26.1001 219.634 27.4861C219.634 28.8721 220.432 29.9221 221.832 29.9221Z" fill="#F55252"/>
<path d="M230.956 23.8321C232.412 23.8321 233.532 25.0081 233.532 26.4501V31.0001H232.146V26.7721C232.146 25.8201 231.642 25.0501 230.606 25.0501C229.304 25.0501 228.702 26.2121 228.702 27.3741V31.0001H227.316V23.9721H228.702V25.0921C229.192 24.3081 230.032 23.8321 230.956 23.8321Z" fill="#F55252"/>
<path d="M242.259 27.5981C242.259 27.6961 242.259 27.8081 242.245 27.9061H236.715C236.785 29.1381 237.681 29.9501 238.899 29.9501C239.753 29.9501 240.411 29.5861 240.789 28.8161L242.105 29.0541C241.489 30.4401 240.355 31.1401 238.899 31.1401C236.785 31.1401 235.371 29.6001 235.371 27.5001C235.371 25.4141 236.743 23.8181 238.857 23.8181C240.985 23.8181 242.259 25.4701 242.259 27.5981ZM236.771 26.8281H240.873C240.775 25.7081 239.921 24.9661 238.857 24.9661C237.723 24.9661 236.925 25.7081 236.771 26.8281Z" fill="#F55252"/>
<path d="M247.33 29.9221C248.254 29.9221 248.982 29.3481 249.206 28.4661L250.55 28.7041C250.242 30.2021 248.814 31.1401 247.358 31.1401C245.23 31.1401 243.802 29.5861 243.802 27.4861C243.802 25.4001 245.23 23.8321 247.358 23.8321C248.8 23.8321 250.242 24.7701 250.55 26.2681L249.206 26.5061C248.982 25.6241 248.254 25.0501 247.344 25.0501C245.916 25.0501 245.188 26.1421 245.188 27.4861C245.188 28.8301 245.916 29.9221 247.33 29.9221Z" fill="#F55252"/>
<path d="M255.71 25.1201H254.198V28.7461C254.198 29.5301 254.31 29.8941 255.136 29.8941C255.346 29.8941 255.556 29.8661 255.752 29.7961V31.0561C255.486 31.1121 255.164 31.1401 254.898 31.1401C253.498 31.1401 252.812 30.4261 252.812 29.0261V25.1201H251.692V23.9721H252.826V22.1521L254.184 21.9141V23.9721H255.71V25.1201Z" fill="#F55252"/>
<path d="M263.917 27.5981C263.917 27.6961 263.917 27.8081 263.903 27.9061H258.373C258.443 29.1381 259.339 29.9501 260.557 29.9501C261.411 29.9501 262.069 29.5861 262.447 28.8161L263.763 29.0541C263.147 30.4401 262.013 31.1401 260.557 31.1401C258.443 31.1401 257.029 29.6001 257.029 27.5001C257.029 25.4141 258.401 23.8181 260.515 23.8181C262.643 23.8181 263.917 25.4701 263.917 27.5981ZM258.429 26.8281H262.531C262.433 25.7081 261.579 24.9661 260.515 24.9661C259.381 24.9661 258.583 25.7081 258.429 26.8281Z" fill="#F55252"/>
<path d="M272.601 20.9201V31.0001H271.215V29.9081C270.711 30.6921 269.759 31.1401 268.737 31.1401C266.791 31.1401 265.475 29.5161 265.475 27.4721C265.475 25.4141 266.805 23.8321 268.751 23.8321C269.787 23.8321 270.697 24.2941 271.215 25.0501V20.9201H272.601ZM271.229 27.4861C271.229 26.1281 270.431 25.0501 269.031 25.0501C267.715 25.0501 266.861 26.0161 266.861 27.4861C266.861 28.9561 267.715 29.9221 269.031 29.9221C270.431 29.9221 271.229 28.8441 271.229 27.4861Z" fill="#F55252"/>
<path fill-rule="evenodd" clip-rule="evenodd" d="M171.3 27C171.3 35.45 164.45 42.3 156 42.3C152.261 42.3 148.835 40.9589 146.178 38.7314L167.731 17.1778C169.959 19.8355 171.3 23.2611 171.3 27ZM144.269 36.8223L165.822 15.2687C163.165 13.0412 159.739 11.7 156 11.7C147.55 11.7 140.7 18.55 140.7 27C140.7 30.7389 142.041 34.1646 144.269 36.8223ZM174 27C174 36.9411 165.941 45 156 45C146.059 45 138 36.9411 138 27C138 17.0589 146.059 9 156 9C165.941 9 174 17.0589 174 27Z" fill="#F55252"/>
<path fill-rule="evenodd" clip-rule="evenodd" d="M156 42.0998C164.34 42.0998 171.1 35.3393 171.1 26.9998C171.1 23.3882 169.832 20.0731 167.717 17.4746L146.475 38.7171C149.073 40.8321 152.388 42.0998 156 42.0998ZM146.333 38.8593C146.281 38.8169 146.229 38.7742 146.178 38.7312L167.731 17.1777C167.774 17.229 167.817 17.2806 167.86 17.3325C170.01 19.9677 171.3 23.3331 171.3 26.9998C171.3 35.4498 164.45 42.2998 156 42.2998C152.333 42.2998 148.968 41.01 146.333 38.8593ZM165.822 15.2685C165.771 15.2254 165.719 15.1828 165.667 15.1404C163.032 12.9897 159.667 11.6998 156 11.6998C147.55 11.6998 140.7 18.5498 140.7 26.9998C140.7 30.6666 141.99 34.032 144.141 36.6673C144.183 36.7191 144.226 36.7707 144.269 36.8221L165.822 15.2685ZM165.525 15.2826L144.283 36.5251C142.168 33.9266 140.9 30.6115 140.9 26.9998C140.9 18.6603 147.661 11.8998 156 11.8998C159.612 11.8998 162.927 13.1676 165.525 15.2826ZM174.2 26.9998C174.2 37.0514 166.052 45.1998 156 45.1998C145.948 45.1998 137.8 37.0514 137.8 26.9998C137.8 16.9482 145.948 8.7998 156 8.7998C166.052 8.7998 174.2 16.9482 174.2 26.9998ZM156 44.9998C165.941 44.9998 174 36.9409 174 26.9998C174 17.0587 165.941 8.9998 156 8.9998C146.059 8.9998 138 17.0587 138 26.9998C138 36.9409 146.059 44.9998 156 44.9998Z" fill="#F55252"/>
</g>
<defs>
<filter id="filter0_ddd_19917_392147" x="0" y="0" width="305" height="84" filterUnits="userSpaceOnUse" color-interpolation-filters="sRGB">
<feFlood flood-opacity="0" result="BackgroundImageFix"/>
<feColorMatrix in="SourceAlpha" type="matrix" values="0 0 0 0 0 0 0 0 0 0 0 0 0 0 0 0 0 0 127 0" result="hardAlpha"/>
<feOffset dy="2"/>
<feGaussianBlur stdDeviation="2"/>
<feColorMatrix type="matrix" values="0 0 0 0 0 0 0 0 0 0.0784314 0 0 0 0 0.0745098 0 0 0 0.34 0"/>
<feBlend mode="normal" in2="BackgroundImageFix" result="effect1_dropShadow_19917_392147"/>
<feColorMatrix in="SourceAlpha" type="matrix" values="0 0 0 0 0 0 0 0 0 0 0 0 0 0 0 0 0 0 127 0" result="hardAlpha"/>
<feOffset dy="6"/>
<feGaussianBlur stdDeviation="4"/>
<feColorMatrix type="matrix" values="0 0 0 0 0 0 0 0 0 0.0784314 0 0 0 0 0.0745098 0 0 0 0.24 0"/>
<feBlend mode="normal" in2="effect1_dropShadow_19917_392147" result="effect2_dropShadow_19917_392147"/>
<feColorMatrix in="SourceAlpha" type="matrix" values="0 0 0 0 0 0 0 0 0 0 0 0 0 0 0 0 0 0 127 0" result="hardAlpha"/>
<feOffset dy="16"/>
<feGaussianBlur stdDeviation="8"/>
<feColorMatrix type="matrix" values="0 0 0 0 0 0 0 0 0 0.0784314 0 0 0 0 0.0745098 0 0 0 0.14 0"/>
<feBlend mode="normal" in2="effect2_dropShadow_19917_392147" result="effect3_dropShadow_19917_392147"/>
<feBlend mode="normal" in="SourceGraphic" in2="effect3_dropShadow_19917_392147" result="shape"/>
</filter>
<linearGradient id="paint0_linear_19917_392147" x1="317.922" y1="2.55031" x2="311.566" y2="76.117" gradientUnits="userSpaceOnUse">
<stop offset="0.109375" stop-color="#CCD3D3" stop-opacity="0"/>
<stop offset="0.951248" stop-color="#DEE8E8"/>
</linearGradient>
<clipPath id="clip0_19917_392147">
<rect width="318" height="84" fill="white"/>
</clipPath>
</defs>
</svg>
