<svg width="318" height="84" viewBox="0 0 318 84" fill="none" xmlns="http://www.w3.org/2000/svg">
<g clip-path="url(#clip0_19917_392147)">
<g opacity="0.4">
<g filter="url(#filter0_ddd_19917_392147)">
<path fill-rule="evenodd" clip-rule="evenodd" d="M20 2C17.7909 2 16 3.79086 16 6V48C16 50.2091 17.7909 52 20 52H109H158H285C287.209 52 289 50.2092 289 48V6.00002C289 3.79087 287.209 2.00002 285 2.00001L158.015 2C158.01 2 158.005 2 158 2H109H20Z" fill="#CCD3D3"/>
</g>
<path d="M109 52L285 52C287.209 52 289 50.2091 289 48V6C289 3.79086 287.209 2 285 2L109 2C106.791 2 105 3.79086 105 6V48C105 50.2091 106.791 52 109 52Z" fill="#33514E"/>
<path d="M101 44L277 44C279.209 44 281 42.2091 281 40V14C281 11.7909 279.209 10 277 10L101 10C98.7909 10 97 11.7909 97 14V40C97 42.2091 98.7909 44 101 44Z" fill="#193330"/>
<path d="M16 6C16 3.79086 17.7909 2 20 2H158C171.807 2 183 13.1929 183 27C183 40.8071 171.807 52 158 52H20C17.7909 52 16 50.2091 16 48V6Z" fill="#CCD3D3"/>
<path d="M158 43.5C167.113 43.5 174.5 36.1127 174.5 27C174.5 17.8873 167.113 10.5 158 10.5C148.887 10.5 141.5 17.8873 141.5 27C141.5 36.1127 148.887 43.5 158 43.5Z" stroke="#99A8A7"/>
<path fill-rule="evenodd" clip-rule="evenodd" d="M288 19H293C294.105 19 295 19.8954 295 21V23H300C301.105 23 302 23.8954 302 25H316C316.552 25 317 25.4477 317 26V28C317 28.5523 316.552 29 316 29H302C302 30.1046 301.105 31 300 31H295V33C295 34.1046 294.105 35 293 35H288V19Z" fill="#33514E"/>
<path d="M291 19H289V35H291V19Z" fill="#193330"/>
<path d="M90.5218 37.4888V38.9996H100.919V32.1853H99.4042V37.4888H90.5218ZM90.5218 15V16.511H99.4042V21.8147H100.919V15H90.5218ZM85.16 26.689V23.178H87.5366C88.6953 23.178 89.1112 23.5631 89.1112 24.6151V25.2372C89.1112 26.3186 88.71 26.689 87.5366 26.689H85.16ZM88.9326 27.311C90.0167 27.0296 90.7741 26.022 90.7741 24.8223C90.7741 24.0668 90.4773 23.3852 89.9129 22.837C89.1999 22.1554 88.249 21.8147 87.0164 21.8147H83.6745V32.1849H85.16V28.0518H87.3881C88.5316 28.0518 88.9922 28.5258 88.9922 29.7112V32.1853H90.5072V29.9482C90.5072 28.3186 90.121 27.6965 88.9326 27.5187V27.311ZM76.4264 27.6517H81.0013V26.2888H76.4264V23.1776H81.4468V21.8147H74.9112V32.1849H81.6696V30.822H76.4264V27.6517ZM71.4503 28.1999V28.9109C71.4503 30.4072 70.9006 30.8962 69.5195 30.8962H69.1927C67.8112 30.8962 67.1429 30.4516 67.1429 28.3924V25.6072C67.1429 23.5333 67.8411 23.1034 69.2222 23.1034H69.5191C70.8709 23.1034 71.3016 23.6071 71.3163 24.9998H72.9503C72.8018 22.9553 71.4353 21.6667 69.3854 21.6667C68.3904 21.6667 67.5585 21.9779 66.9348 22.5702C65.999 23.4444 65.4792 24.9259 65.4792 26.9998C65.4792 28.9999 65.9249 30.4814 66.8457 31.3997C67.4694 32.0071 68.331 32.333 69.1777 32.333C70.0688 32.333 70.886 31.9773 71.3016 31.2071H71.5093V32.1849H72.8758V26.837H68.8506V28.1999H71.4503ZM58.3501 23.1776H59.9692C61.4993 23.1776 62.3311 23.5627 62.3311 25.637V28.3627C62.3311 30.4366 61.4993 30.822 59.9692 30.822H58.3501V23.1776ZM60.1027 32.1853C62.9398 32.1853 63.9941 30.0372 63.9941 27.0002C63.9941 23.9187 62.8654 21.8151 60.0728 21.8151H56.8644V32.1853H60.1027ZM49.6907 27.6517H54.2656V26.2888H49.6907V23.1776H54.711V21.8147H48.1753V32.1849H54.9339V30.822H49.6907V27.6517ZM40.9273 21.8147H39.4123V32.1849H46.2449V30.822H40.9273V21.8147ZM29 32.1853V39H39.3973V37.4888H30.5149V32.1853H29ZM29 15V21.8147H30.5149V16.511H39.3973V15H29Z" fill="#032724"/>
<path opacity="0.2" fill-rule="evenodd" clip-rule="evenodd" d="M16 6C16 3.79086 17.7909 2 20 2H109H158H158.015L285 2.00001C287.209 2.00002 289 3.79087 289 6.00002V19H293C294.105 19 295 19.8954 295 21V23H300C301.105 23 302 23.8954 302 25H316.5C317.052 25 317.5 25.4477 317.5 26V28C317.5 28.5523 317.052 29 316.5 29H302C302 30.1046 301.105 31 300 31H295V33C295 34.1046 294.105 35 293 35H289V48C289 50.2092 287.209 52 285 52H158H109H20C17.7909 52 16 50.2091 16 48V6Z" fill="url(#paint0_linear_19917_392147)"/>
</g>
<path d="M156 54C170.912 54 183 41.9117 183 27C183 12.0883 170.912 0 156 0C141.088 0 129 12.0883 129 27C129 41.9117 141.088 54 156 54Z" fill="#193330"/>
<path d="M196.578 29.8519C197.964 29.8519 199.056 29.0959 199.49 27.9059L200.918 28.1579C200.302 30.0479 198.678 31.1399 196.592 31.1399C193.68 31.1399 191.846 28.9839 191.846 26.0999C191.846 23.2159 193.68 21.0599 196.55 21.0599C198.636 21.0599 200.274 22.2079 200.862 24.0419L199.434 24.2939C199 23.1179 197.992 22.3479 196.578 22.3479C194.548 22.3479 193.288 23.9719 193.288 26.0999C193.288 28.2139 194.548 29.8519 196.578 29.8519Z" fill="#F2B824"/>
<path d="M206.604 23.8319C208.158 23.8319 209.138 25.1339 209.138 26.4499V30.9999H207.752V26.7719C207.752 25.8479 207.276 25.0499 206.24 25.0499C205.036 25.0499 204.308 26.0999 204.308 27.4439V30.9999H202.922V20.9199H204.308V25.1619C204.714 24.5179 205.484 23.8319 206.604 23.8319Z" fill="#F2B824"/>
<path d="M217.864 27.5979C217.864 27.6959 217.864 27.8079 217.85 27.9059H212.32C212.39 29.1379 213.286 29.9499 214.504 29.9499C215.358 29.9499 216.016 29.5859 216.394 28.8159L217.71 29.0539C217.094 30.4399 215.96 31.1399 214.504 31.1399C212.39 31.1399 210.976 29.5999 210.976 27.4999C210.976 25.4139 212.348 23.8179 214.462 23.8179C216.59 23.8179 217.864 25.4699 217.864 27.5979ZM212.376 26.8279H216.478C216.38 25.7079 215.526 24.9659 214.462 24.9659C213.328 24.9659 212.53 25.7079 212.376 26.8279Z" fill="#F2B824"/>
<path d="M222.936 29.9219C223.86 29.9219 224.588 29.3479 224.812 28.4659L226.156 28.7039C225.848 30.2019 224.42 31.1399 222.964 31.1399C220.836 31.1399 219.408 29.5859 219.408 27.4859C219.408 25.3999 220.836 23.8319 222.964 23.8319C224.406 23.8319 225.848 24.7699 226.156 26.2679L224.812 26.5059C224.588 25.6239 223.86 25.0499 222.95 25.0499C221.522 25.0499 220.794 26.1419 220.794 27.4859C220.794 28.8299 221.522 29.9219 222.936 29.9219Z" fill="#F2B824"/>
<path d="M231.315 26.8839L234.451 30.9999H232.771L230.363 27.7519L229.425 28.6899V30.9999H228.039V20.9199H229.425V26.9959L232.435 23.9719H234.241L231.315 26.8839Z" fill="#F2B824"/>
<path d="M246.395 27.5979C246.395 27.6959 246.395 27.8079 246.381 27.9059H240.851C240.921 29.1379 241.817 29.9499 243.035 29.9499C243.889 29.9499 244.547 29.5859 244.925 28.8159L246.241 29.0539C245.625 30.4399 244.491 31.1399 243.035 31.1399C240.921 31.1399 239.507 29.5999 239.507 27.4999C239.507 25.4139 240.879 23.8179 242.993 23.8179C245.121 23.8179 246.395 25.4699 246.395 27.5979ZM240.907 26.8279H245.009C244.911 25.7079 244.057 24.9659 242.993 24.9659C241.859 24.9659 241.061 25.7079 240.907 26.8279Z" fill="#F2B824"/>
<path d="M252.209 23.8599V25.0919C250.669 24.9239 249.647 25.7919 249.647 27.4859V30.9999H248.261V23.9719H249.647V25.1479C250.137 24.2799 250.781 23.8599 251.747 23.8459C251.887 23.8319 252.041 23.8319 252.209 23.8599Z" fill="#F2B824"/>
<path d="M257.715 23.8599V25.0919C256.175 24.9239 255.153 25.7919 255.153 27.4859V30.9999H253.767V23.9719H255.153V25.1479C255.643 24.2799 256.287 23.8599 257.253 23.8459C257.393 23.8319 257.547 23.8319 257.715 23.8599Z" fill="#F2B824"/>
<path d="M262.208 23.8319C264.322 23.8319 265.806 25.3579 265.806 27.4859C265.806 29.6139 264.336 31.1399 262.208 31.1399C260.052 31.1399 258.582 29.6139 258.582 27.4859C258.582 25.3579 260.052 23.8319 262.208 23.8319ZM262.194 29.9219C263.594 29.9219 264.392 28.8719 264.392 27.4859C264.392 26.0999 263.594 25.0499 262.194 25.0499C260.794 25.0499 259.996 26.0999 259.996 27.4859C259.996 28.8719 260.794 29.9219 262.194 29.9219Z" fill="#F2B824"/>
<path d="M271.612 23.8599V25.0919C270.072 24.9239 269.05 25.7919 269.05 27.4859V30.9999H267.664V23.9719H269.05V25.1479C269.54 24.2799 270.184 23.8599 271.15 23.8459C271.29 23.8319 271.444 23.8319 271.612 23.8599Z" fill="#F2B824"/>
<path fill-rule="evenodd" clip-rule="evenodd" d="M154.436 22.1769V31.4964H157.563V22.1769H154.436Z" fill="#F2B824"/>
<path fill-rule="evenodd" clip-rule="evenodd" d="M156 32.8803C154.889 32.8803 153.982 33.765 153.982 34.8642C153.982 35.9634 154.889 36.8481 156 36.8481C157.111 36.8481 158.018 35.9634 158.018 34.8642C158.018 33.765 157.111 32.8803 156 32.8803Z" fill="#F2B824"/>
<path fill-rule="evenodd" clip-rule="evenodd" d="M159.447 11.9144C158.045 9.09494 153.955 9.09495 152.553 11.9144L140.193 36.7788C138.947 39.2873 140.811 42.1998 143.64 42.1998H168.36C171.189 42.1998 173.053 39.2873 171.806 36.7788L159.447 11.9144ZM156.638 13.2656L168.998 38.13C169.223 38.584 168.889 39.124 168.36 39.124H143.64C143.111 39.124 142.777 38.584 143.002 38.13L155.362 13.2656C155.621 12.7457 156.379 12.7457 156.638 13.2656Z" fill="#F2B824"/>
</g>
<defs>
<filter id="filter0_ddd_19917_392147" x="0" y="0" width="305" height="84" filterUnits="userSpaceOnUse" color-interpolation-filters="sRGB">
<feFlood flood-opacity="0" result="BackgroundImageFix"/>
<feColorMatrix in="SourceAlpha" type="matrix" values="0 0 0 0 0 0 0 0 0 0 0 0 0 0 0 0 0 0 127 0" result="hardAlpha"/>
<feOffset dy="2"/>
<feGaussianBlur stdDeviation="2"/>
<feColorMatrix type="matrix" values="0 0 0 0 0 0 0 0 0 0.0784314 0 0 0 0 0.0745098 0 0 0 0.34 0"/>
<feBlend mode="normal" in2="BackgroundImageFix" result="effect1_dropShadow_19917_392147"/>
<feColorMatrix in="SourceAlpha" type="matrix" values="0 0 0 0 0 0 0 0 0 0 0 0 0 0 0 0 0 0 127 0" result="hardAlpha"/>
<feOffset dy="6"/>
<feGaussianBlur stdDeviation="4"/>
<feColorMatrix type="matrix" values="0 0 0 0 0 0 0 0 0 0.0784314 0 0 0 0 0.0745098 0 0 0 0.24 0"/>
<feBlend mode="normal" in2="effect1_dropShadow_19917_392147" result="effect2_dropShadow_19917_392147"/>
<feColorMatrix in="SourceAlpha" type="matrix" values="0 0 0 0 0 0 0 0 0 0 0 0 0 0 0 0 0 0 127 0" result="hardAlpha"/>
<feOffset dy="16"/>
<feGaussianBlur stdDeviation="8"/>
<feColorMatrix type="matrix" values="0 0 0 0 0 0 0 0 0 0.0784314 0 0 0 0 0.0745098 0 0 0 0.14 0"/>
<feBlend mode="normal" in2="effect2_dropShadow_19917_392147" result="effect3_dropShadow_19917_392147"/>
<feBlend mode="normal" in="SourceGraphic" in2="effect3_dropShadow_19917_392147" result="shape"/>
</filter>
<linearGradient id="paint0_linear_19917_392147" x1="317.922" y1="2.55031" x2="311.566" y2="76.117" gradientUnits="userSpaceOnUse">
<stop offset="0.109375" stop-color="#CCD3D3" stop-opacity="0"/>
<stop offset="0.951248" stop-color="#DEE8E8"/>
</linearGradient>
<clipPath id="clip0_19917_392147">
<rect width="318" height="84" fill="white"/>
</clipPath>
</defs>
</svg>
