<svg width="318" height="84" viewBox="0 0 318 84" fill="none" xmlns="http://www.w3.org/2000/svg">
  <g opacity="0.4">
    <g filter="url(#filter0_ddd_5808_140128)">
      <path fill-rule="evenodd" clip-rule="evenodd"
        d="M20 2C17.7909 2 16 3.79086 16 6V48C16 50.2091 17.7909 52 20 52H109H158L285 52C287.209 52 289 50.2092 289 48V6.00002C289 3.79087 287.209 2.00002 285 2.00001L158.015 2C158.01 2 158.005 2 158 2H109H20Z"
        fill="#CCD3D3" />
    </g>
    <rect x="289" y="52" width="184" height="50" rx="4" transform="rotate(-180 289 52)" fill="#33514E" />
    <rect x="281" y="44" width="184" height="34" rx="4" transform="rotate(-180 281 44)" fill="#193330" />
    <path
      d="M16 6C16 3.79086 17.7909 2 20 2H158C171.807 2 183 13.1929 183 27V27C183 40.8071 171.807 52 158 52H20C17.7909 52 16 50.2091 16 48V6Z"
      fill="#CCD3D3" />
    <circle cx="158" cy="27" r="16.5" stroke="#99A8A7" />
    <path fill-rule="evenodd" clip-rule="evenodd"
      d="M288 19H293C294.105 19 295 19.8954 295 21V23H300C301.105 23 302 23.8954 302 25H316C316.552 25 317 25.4477 317 26V28C317 28.5523 316.552 29 316 29H302C302 30.1046 301.105 31 300 31H295V33C295 34.1046 294.105 35 293 35H288V19Z"
      fill="#33514E" />
    <rect x="289" y="19" width="2" height="16" fill="#193330" />
    <path
      d="M90.5218 37.4888V38.9996H100.919V32.1853H99.4042V37.4888H90.5218ZM90.5218 15V16.511H99.4042V21.8147H100.919V15H90.5218ZM85.16 26.689V23.178H87.5366C88.6953 23.178 89.1112 23.5631 89.1112 24.6151V25.2372C89.1112 26.3186 88.71 26.689 87.5366 26.689H85.16ZM88.9326 27.311C90.0167 27.0296 90.7741 26.022 90.7741 24.8223C90.7741 24.0668 90.4773 23.3852 89.9129 22.837C89.1999 22.1554 88.249 21.8147 87.0164 21.8147H83.6745V32.1849H85.16V28.0518H87.3881C88.5316 28.0518 88.9922 28.5258 88.9922 29.7112V32.1853H90.5072V29.9482C90.5072 28.3186 90.121 27.6965 88.9326 27.5187V27.311ZM76.4264 27.6517H81.0013V26.2888H76.4264V23.1776H81.4468V21.8147H74.9112V32.1849H81.6696V30.822H76.4264V27.6517ZM71.4503 28.1999V28.9109C71.4503 30.4072 70.9006 30.8962 69.5195 30.8962H69.1927C67.8112 30.8962 67.1429 30.4516 67.1429 28.3924V25.6072C67.1429 23.5333 67.8411 23.1034 69.2222 23.1034H69.5191C70.8709 23.1034 71.3016 23.6071 71.3163 24.9998H72.9503C72.8018 22.9553 71.4353 21.6667 69.3854 21.6667C68.3904 21.6667 67.5585 21.9779 66.9348 22.5702C65.999 23.4444 65.4792 24.9259 65.4792 26.9998C65.4792 28.9999 65.9249 30.4814 66.8457 31.3997C67.4694 32.0071 68.331 32.333 69.1777 32.333C70.0688 32.333 70.886 31.9773 71.3016 31.2071H71.5093V32.1849H72.8758V26.837H68.8506V28.1999H71.4503ZM58.3501 23.1776H59.9692C61.4993 23.1776 62.3311 23.5627 62.3311 25.637V28.3627C62.3311 30.4366 61.4993 30.822 59.9692 30.822H58.3501V23.1776ZM60.1027 32.1853C62.9398 32.1853 63.9941 30.0372 63.9941 27.0002C63.9941 23.9187 62.8654 21.8151 60.0728 21.8151H56.8644V32.1853H60.1027ZM49.6907 27.6517H54.2656V26.2888H49.6907V23.1776H54.711V21.8147H48.1753V32.1849H54.9339V30.822H49.6907V27.6517ZM40.9273 21.8147H39.4123V32.1849H46.2449V30.822H40.9273V21.8147ZM29 32.1853V39H39.3973V37.4888H30.5149V32.1853H29ZM29 15V21.8147H30.5149V16.511H39.3973V15H29Z"
      fill="#032724" />
    <path opacity="0.2" fill-rule="evenodd" clip-rule="evenodd"
      d="M16 6C16 3.79086 17.7909 2 20 2H109H158L158.015 2L285 2.00001C287.209 2.00002 289 3.79087 289 6.00002V19H293C294.105 19 295 19.8954 295 21V23H300C301.105 23 302 23.8954 302 25H316.5C317.052 25 317.5 25.4477 317.5 26V28C317.5 28.5523 317.052 29 316.5 29H302C302 30.1046 301.105 31 300 31H295V33C295 34.1046 294.105 35 293 35H289V48C289 50.2092 287.209 52 285 52L158 52H109H20C17.7909 52 16 50.2091 16 48V6Z"
      fill="url(#paint0_linear_5808_140128)" />
  </g>
  <circle cx="156" cy="27" r="27" fill="#193330" />
  <path
    d="M196.365 30.928C193.869 30.928 192.349 28.928 192.349 26.4C192.349 23.872 193.869 21.872 196.381 21.872C198.077 21.872 199.309 22.784 199.853 24.144L201.181 23.904C200.461 21.872 198.621 20.64 196.349 20.64C193.085 20.64 191.005 23.152 191.005 26.4C191.005 29.648 193.085 32.16 196.413 32.16C198.669 32.16 200.493 30.992 201.245 28.896L199.917 28.656C199.357 30.032 198.029 30.928 196.365 30.928ZM206.847 23.84C204.415 23.84 202.751 25.616 202.751 28C202.751 30.384 204.415 32.16 206.847 32.16C209.263 32.16 210.911 30.384 210.911 28C210.911 25.616 209.247 23.84 206.847 23.84ZM206.831 30.992C205.103 30.992 204.063 29.728 204.063 28C204.063 26.272 205.103 25.008 206.831 25.008C208.559 25.008 209.599 26.272 209.599 28C209.599 29.728 208.559 30.992 206.831 30.992ZM216.649 23.84C215.577 23.84 214.553 24.432 214.009 25.36V24H212.729V32H214.009V27.872C214.009 26.416 214.825 25.008 216.425 25.008C217.657 25.008 218.329 25.904 218.329 27.072V32H219.609V26.768C219.609 25.152 218.249 23.84 216.649 23.84ZM225.743 23.84C224.671 23.84 223.647 24.432 223.103 25.36V24H221.823V32H223.103V27.872C223.103 26.416 223.919 25.008 225.519 25.008C226.751 25.008 227.423 25.904 227.423 27.072V32H228.703V26.768C228.703 25.152 227.343 23.84 225.743 23.84ZM238.277 28.144C238.277 25.728 236.869 23.824 234.437 23.824C232.037 23.824 230.501 25.648 230.501 28.016C230.501 30.4 232.085 32.16 234.501 32.16C236.165 32.16 237.397 31.344 238.101 29.792L236.853 29.568C236.389 30.544 235.573 31.008 234.485 31.008C232.933 31.008 231.829 29.952 231.765 28.416H238.261C238.277 28.336 238.277 28.224 238.277 28.144ZM231.813 27.328C232.005 25.904 232.981 24.944 234.437 24.944C235.813 24.944 236.869 25.92 236.965 27.328H231.813ZM243.672 30.992C241.912 30.992 240.968 29.696 240.968 28C240.968 26.304 241.912 25.008 243.672 25.008C244.792 25.008 245.704 25.68 245.992 26.768L247.24 26.544C246.872 24.896 245.288 23.84 243.688 23.84C241.272 23.84 239.688 25.632 239.688 28C239.688 30.368 241.272 32.16 243.688 32.16C245.304 32.16 246.872 31.12 247.24 29.456L245.992 29.232C245.704 30.32 244.792 30.992 243.672 30.992ZM252.418 25.072V24H250.674V21.744L249.426 21.952V24H248.13V25.072H249.41V29.84C249.41 31.28 250.05 32.16 251.554 32.16C251.858 32.16 252.178 32.128 252.482 32.064V30.896C252.258 30.976 252.018 31.008 251.794 31.008C250.802 31.008 250.69 30.544 250.69 29.648V25.072H252.418ZM261.277 28.144C261.277 25.728 259.869 23.824 257.437 23.824C255.037 23.824 253.501 25.648 253.501 28.016C253.501 30.4 255.085 32.16 257.501 32.16C259.165 32.16 260.397 31.344 261.101 29.792L259.853 29.568C259.389 30.544 258.573 31.008 257.485 31.008C255.933 31.008 254.829 29.952 254.765 28.416H261.261C261.277 28.336 261.277 28.224 261.277 28.144ZM254.813 27.328C255.005 25.904 255.981 24.944 257.437 24.944C258.813 24.944 259.869 25.92 259.965 27.328H254.813ZM270.704 20.48H269.424V25.344C268.832 24.416 267.76 23.84 266.496 23.84C264.288 23.84 262.704 25.616 262.704 27.984C262.704 30.368 264.288 32.16 266.496 32.16C267.744 32.16 268.832 31.584 269.424 30.656V32H270.704V20.48ZM269.424 28C269.424 29.696 268.416 30.992 266.688 30.992C265.072 30.992 263.984 29.856 263.984 28C263.984 26.16 265.056 25.008 266.688 25.008C268.416 25.008 269.424 26.304 269.424 28Z"
    fill="#28CF89" />
  <path fill-rule="evenodd" clip-rule="evenodd"
    d="M161.946 10.4704C160.06 9.75524 158.014 9.36377 155.876 9.36377C146.416 9.36377 138.746 17.033 138.746 26.4936C138.746 35.9541 146.416 43.6234 155.876 43.6234C165.337 43.6234 173.006 35.9541 173.006 26.4936C173.006 26.3006 173.003 26.1083 172.996 25.9169L168.636 31.3403C166.681 36.4841 161.706 40.1395 155.876 40.1395C148.34 40.1395 142.23 34.03 142.23 26.4936C142.23 18.9571 148.34 12.8476 155.876 12.8476C157.174 12.8476 158.429 13.0287 159.618 13.367L161.946 10.4704Z"
    fill="url(#paint1_linear_5808_140128)" />
  <path fill-rule="evenodd" clip-rule="evenodd"
    d="M171.955 12.2883C172.705 12.8911 172.824 13.9876 172.221 14.7374L158.744 31.5011C158.444 31.874 158.004 32.1072 157.527 32.1459C157.051 32.1845 156.579 32.0253 156.223 31.7055L148.287 24.5774C147.572 23.9345 147.513 22.8332 148.156 22.1175C148.799 21.4018 149.9 21.3428 150.616 21.9857L157.182 27.8842L169.506 12.5545C170.109 11.8047 171.205 11.6855 171.955 12.2883Z"
    fill="url(#paint2_linear_5808_140128)" />
  <defs>
    <filter id="filter0_ddd_5808_140128" x="0" y="0" width="305" height="84" filterUnits="userSpaceOnUse"
      color-interpolation-filters="sRGB">
      <feFlood flood-opacity="0" result="BackgroundImageFix" />
      <feColorMatrix in="SourceAlpha" type="matrix" values="0 0 0 0 0 0 0 0 0 0 0 0 0 0 0 0 0 0 127 0"
        result="hardAlpha" />
      <feOffset dy="2" />
      <feGaussianBlur stdDeviation="2" />
      <feColorMatrix type="matrix" values="0 0 0 0 0 0 0 0 0 0.0784314 0 0 0 0 0.0745098 0 0 0 0.34 0" />
      <feBlend mode="normal" in2="BackgroundImageFix" result="effect1_dropShadow_5808_140128" />
      <feColorMatrix in="SourceAlpha" type="matrix" values="0 0 0 0 0 0 0 0 0 0 0 0 0 0 0 0 0 0 127 0"
        result="hardAlpha" />
      <feOffset dy="6" />
      <feGaussianBlur stdDeviation="4" />
      <feColorMatrix type="matrix" values="0 0 0 0 0 0 0 0 0 0.0784314 0 0 0 0 0.0745098 0 0 0 0.24 0" />
      <feBlend mode="normal" in2="effect1_dropShadow_5808_140128" result="effect2_dropShadow_5808_140128" />
      <feColorMatrix in="SourceAlpha" type="matrix" values="0 0 0 0 0 0 0 0 0 0 0 0 0 0 0 0 0 0 127 0"
        result="hardAlpha" />
      <feOffset dy="16" />
      <feGaussianBlur stdDeviation="8" />
      <feColorMatrix type="matrix" values="0 0 0 0 0 0 0 0 0 0.0784314 0 0 0 0 0.0745098 0 0 0 0.14 0" />
      <feBlend mode="normal" in2="effect2_dropShadow_5808_140128" result="effect3_dropShadow_5808_140128" />
      <feBlend mode="normal" in="SourceGraphic" in2="effect3_dropShadow_5808_140128" result="shape" />
    </filter>
    <linearGradient id="paint0_linear_5808_140128" x1="317.922" y1="2.55031" x2="311.566" y2="76.117"
      gradientUnits="userSpaceOnUse">
      <stop offset="0.109375" stop-color="#CCD3D3" stop-opacity="0" />
      <stop offset="0.951248" stop-color="#DEE8E8" />
    </linearGradient>
    <linearGradient id="paint1_linear_5808_140128" x1="145.644" y1="43.6232" x2="172.167" y2="42.1391"
      gradientUnits="userSpaceOnUse">
      <stop stop-color="#22C480" />
      <stop offset="1" stop-color="#2BD78F" />
    </linearGradient>
    <linearGradient id="paint2_linear_5808_140128" x1="148.443" y1="25.0193" x2="153.989" y2="34.0257"
      gradientUnits="userSpaceOnUse">
      <stop stop-color="#22C480" />
      <stop offset="1" stop-color="#2BD78F" />
    </linearGradient>
  </defs>
</svg>