<svg width="24" height="24" viewBox="0 0 24 24" fill="none" xmlns="http://www.w3.org/2000/svg">
<path d="M9.85148 6.20761L9.42 6.95558C9.41165 6.97006 9.40383 6.9847 9.39655 6.99948L6.41718 12.1962C6.1429 12.6718 6.13181 13.2612 6.3862 13.7468C6.64287 14.2369 7.14594 14.5679 7.72015 14.5681H9.57801V21.0181C9.57801 21.3576 9.80608 21.6547 10.134 21.7426C10.462 21.8304 10.808 21.6869 10.9777 21.3928L15.8411 12.9229C15.8511 12.9081 15.8607 12.8929 15.8698 12.8771L16.489 11.8039C16.7632 11.3283 16.7743 10.7389 16.5199 10.2532C16.2633 9.76318 15.7602 9.43216 15.186 9.43196H14.9019C14.6292 9.48187 14.3476 9.48263 14.0725 9.43196H13.3281V9.15172C13.2165 9.08498 13.1091 9.00751 13.0072 8.91912L11.8281 7.906V10.182C11.8281 10.5962 12.1639 10.932 12.5781 10.932H15.1784C15.1812 10.9344 15.1861 10.9395 15.1912 10.9492C15.2079 10.9811 15.2065 11.0251 15.1896 11.0545L14.6132 12.0535C14.6027 12.0689 14.5927 12.0849 14.5832 12.1013L11.078 18.217V13.8181C11.078 13.4039 10.7422 13.0681 10.328 13.0681H7.72775C7.72493 13.0657 7.72001 13.0605 7.71495 13.0508C7.69825 13.019 7.69964 12.9749 7.71657 12.9456L10.8765 7.43391C10.8818 7.42473 10.8869 7.41549 10.8917 7.40618L11.0093 7.20243L9.85148 6.20761Z" fill="#20C580"/>
<path d="M13.3281 4.7202V6.55797L11.074 4.62118C10.9753 4.53737 10.9753 4.39994 11.074 4.31613L11.7915 3.69934C11.8239 3.67187 11.8628 3.6534 11.9038 3.64394L11.9159 3.64142C11.9966 3.62639 12.0838 3.6457 12.1446 3.69934L13.3281 4.7202Z" fill="#20C580"/>
<path d="M13.1694 2.52057C13.2538 2.62867 13.3085 2.75979 13.3238 2.90103L13.1999 2.79426C13.1299 2.73483 13.1096 2.64844 13.1389 2.57333C13.146 2.55487 13.1562 2.5371 13.1694 2.52057Z" fill="#20C580"/>
<path d="M13.4581 2.2646C15.4132 0.578467 18.5868 0.578467 20.5419 2.2646L20.7773 2.46908C20.876 2.55288 20.876 2.69032 20.7773 2.77413L19.9725 3.46802C19.9231 3.5116 19.8434 3.5116 19.7941 3.46802L19.4714 3.18979C18.1047 2.01319 15.8953 2.01319 14.5286 3.18979L14.1832 3.48814C14.1338 3.53171 14.0541 3.53171 14.0047 3.48814L13.1999 2.79424C13.1012 2.71044 13.1012 2.573 13.1999 2.48919L13.4581 2.2646ZM22.2085 3.69932L22.926 4.31612C23.0247 4.39992 23.0247 4.53736 22.926 4.62116L19.6953 7.4068C19.5966 7.4906 19.4372 7.4906 19.3423 7.4068L17.0494 5.42903C17.0266 5.40892 16.9848 5.40892 16.962 5.42903L14.6691 7.4068C14.5704 7.4906 14.4109 7.4906 14.316 7.4068L11.074 4.62116C10.9753 4.53736 10.9753 4.39992 11.074 4.31612L11.7915 3.69932C11.8902 3.61552 12.0497 3.61552 12.1446 3.69932L14.4375 5.67709C14.4603 5.6972 14.5021 5.6972 14.5248 5.67709L16.8178 3.69932C16.9165 3.61552 17.0759 3.61552 17.1708 3.69932L19.4638 5.67709C19.4866 5.6972 19.5283 5.6972 19.5511 5.67709L21.844 3.69932C21.9503 3.61552 22.1098 3.61552 22.2085 3.69932Z" fill="#468FF4"/>
</svg>
