<svg width="318" height="84" viewBox="0 0 318 84" fill="none" xmlns="http://www.w3.org/2000/svg">
  <g opacity="0.7">
    <g filter="url(#filter0_ddd_5443_134319)">
      <path fill-rule="evenodd" clip-rule="evenodd"
        d="M20 2C17.7909 2 16 3.79086 16 6V48C16 50.2091 17.7909 52 20 52H109H158L285 52C287.209 52 289 50.2092 289 48V6.00002C289 3.79087 287.209 2.00002 285 2.00001L158.015 2C158.01 2 158.005 2 158 2H109H20Z"
        fill="#CCD3D3" />
    </g>
    <rect x="289" y="52" width="184" height="50" rx="4" transform="rotate(-180 289 52)" fill="#33514E" />
    <rect x="281" y="44" width="184" height="34" rx="4" transform="rotate(-180 281 44)" fill="#193330" />
    <path
      d="M16 6C16 3.79086 17.7909 2 20 2H158C171.807 2 183 13.1929 183 27C183 40.8071 171.807 52 158 52H20C17.7909 52 16 50.2091 16 48V6Z"
      fill="#CCD3D3" />
    <circle cx="158" cy="27" r="16.5" stroke="#99A8A7" />
    <path fill-rule="evenodd" clip-rule="evenodd"
      d="M288 19H293C294.105 19 295 19.8954 295 21V23H300C301.105 23 302 23.8954 302 25H316C316.552 25 317 25.4477 317 26V28C317 28.5523 316.552 29 316 29H302C302 30.1046 301.105 31 300 31H295V33C295 34.1046 294.105 35 293 35H288V19Z"
      fill="#33514E" />
    <rect x="289" y="19" width="2" height="16" fill="#193330" />
    <path
      d="M90.5218 37.4888V38.9996H100.919V32.1853H99.4042V37.4888H90.5218ZM90.5218 15V16.511H99.4042V21.8147H100.919V15H90.5218ZM85.16 26.689V23.178H87.5366C88.6953 23.178 89.1112 23.5631 89.1112 24.6151V25.2372C89.1112 26.3186 88.71 26.689 87.5366 26.689H85.16ZM88.9326 27.311C90.0167 27.0296 90.7741 26.022 90.7741 24.8223C90.7741 24.0668 90.4773 23.3852 89.9129 22.837C89.1999 22.1554 88.249 21.8147 87.0164 21.8147H83.6745V32.1849H85.16V28.0518H87.3881C88.5316 28.0518 88.9922 28.5258 88.9922 29.7112V32.1853H90.5072V29.9482C90.5072 28.3186 90.121 27.6965 88.9326 27.5187V27.311ZM76.4264 27.6517H81.0013V26.2888H76.4264V23.1776H81.4468V21.8147H74.9112V32.1849H81.6696V30.822H76.4264V27.6517ZM71.4503 28.1999V28.9109C71.4503 30.4072 70.9006 30.8962 69.5195 30.8962H69.1927C67.8112 30.8962 67.1429 30.4516 67.1429 28.3925V25.6072C67.1429 23.5333 67.8411 23.1034 69.2222 23.1034H69.5191C70.8709 23.1034 71.3016 23.6072 71.3163 24.9998H72.9503C72.8018 22.9553 71.4353 21.6667 69.3854 21.6667C68.3904 21.6667 67.5585 21.9779 66.9348 22.5702C65.999 23.4444 65.4792 24.9259 65.4792 26.9998C65.4792 28.9999 65.9249 30.4814 66.8457 31.3997C67.4694 32.0071 68.331 32.333 69.1777 32.333C70.0688 32.333 70.886 31.9773 71.3016 31.2071H71.5093V32.1849H72.8758V26.837H68.8506V28.1999H71.4503ZM58.3501 23.1776H59.9692C61.4993 23.1776 62.3311 23.5627 62.3311 25.6369V28.3627C62.3311 30.4366 61.4993 30.822 59.9692 30.822H58.3501V23.1776ZM60.1027 32.1853C62.9398 32.1853 63.9941 30.0372 63.9941 27.0002C63.9941 23.9187 62.8654 21.8151 60.0728 21.8151H56.8644V32.1853H60.1027ZM49.6907 27.6517H54.2656V26.2888H49.6907V23.1776H54.711V21.8147H48.1753V32.1849H54.9339V30.822H49.6907V27.6517ZM40.9273 21.8147H39.4123V32.1849H46.2449V30.822H40.9273V21.8147ZM29 32.1853V39H39.3973V37.4888H30.5149V32.1853H29ZM29 15V21.8147H30.5149V16.511H39.3973V15H29Z"
      fill="#032724" />
    <path opacity="0.2" fill-rule="evenodd" clip-rule="evenodd"
      d="M16 6C16 3.79086 17.7909 2 20 2H109H158L158.015 2L285 2.00001C287.209 2.00002 289 3.79087 289 6.00002V19H293C294.105 19 295 19.8954 295 21V23H300C301.105 23 302 23.8954 302 25H316.5C317.052 25 317.5 25.4477 317.5 26V28C317.5 28.5523 317.052 29 316.5 29H302C302 30.1046 301.105 31 300 31H295V33C295 34.1046 294.105 35 293 35H289V48C289 50.2092 287.209 52 285 52L158 52H109H20C17.7909 52 16 50.2091 16 48V6Z"
      fill="url(#paint0_linear_5443_134319)" />
  </g>
  <defs>
    <filter id="filter0_ddd_5443_134319" x="0" y="0" width="305" height="84" filterUnits="userSpaceOnUse"
      color-interpolation-filters="sRGB">
      <feFlood flood-opacity="0" result="BackgroundImageFix" />
      <feColorMatrix in="SourceAlpha" type="matrix" values="0 0 0 0 0 0 0 0 0 0 0 0 0 0 0 0 0 0 127 0"
        result="hardAlpha" />
      <feOffset dy="2" />
      <feGaussianBlur stdDeviation="2" />
      <feColorMatrix type="matrix" values="0 0 0 0 0 0 0 0 0 0.0784314 0 0 0 0 0.0745098 0 0 0 0.34 0" />
      <feBlend mode="normal" in2="BackgroundImageFix" result="effect1_dropShadow_5443_134319" />
      <feColorMatrix in="SourceAlpha" type="matrix" values="0 0 0 0 0 0 0 0 0 0 0 0 0 0 0 0 0 0 127 0"
        result="hardAlpha" />
      <feOffset dy="6" />
      <feGaussianBlur stdDeviation="4" />
      <feColorMatrix type="matrix" values="0 0 0 0 0 0 0 0 0 0.0784314 0 0 0 0 0.0745098 0 0 0 0.24 0" />
      <feBlend mode="normal" in2="effect1_dropShadow_5443_134319" result="effect2_dropShadow_5443_134319" />
      <feColorMatrix in="SourceAlpha" type="matrix" values="0 0 0 0 0 0 0 0 0 0 0 0 0 0 0 0 0 0 127 0"
        result="hardAlpha" />
      <feOffset dy="16" />
      <feGaussianBlur stdDeviation="8" />
      <feColorMatrix type="matrix" values="0 0 0 0 0 0 0 0 0 0.0784314 0 0 0 0 0.0745098 0 0 0 0.14 0" />
      <feBlend mode="normal" in2="effect2_dropShadow_5443_134319" result="effect3_dropShadow_5443_134319" />
      <feBlend mode="normal" in="SourceGraphic" in2="effect3_dropShadow_5443_134319" result="shape" />
    </filter>
    <linearGradient id="paint0_linear_5443_134319" x1="317.922" y1="2.55031" x2="311.566" y2="76.117"
      gradientUnits="userSpaceOnUse">
      <stop offset="0.109375" stop-color="#CCD3D3" stop-opacity="0" />
      <stop offset="0.951248" stop-color="#DEE8E8" />
    </linearGradient>
  </defs>
</svg>