<svg width="36" height="30" viewBox="0 0 36 30" fill="none" xmlns="http://www.w3.org/2000/svg">
<g clip-path="url(#clip0_16101_329808)">
<path d="M27.2368 18.161V28.4215C28.8158 28.4215 28.8158 30 28.8158 30H25.6579C24.0789 30 24.0789 28.4215 24.0789 28.4215V20.5288L27.2368 18.161V18.161ZM5.92105 22.8966V28.4215C5.92105 28.4215 5.92105 30 7.5 30H10.6579C10.6579 30 10.6579 28.4215 9.07895 28.4215V25.2644L5.92105 22.8966V22.8966Z" fill="#B0BEC5"/>
<path d="M5.52632 19.3449L3.94737 15.3986C3.94737 15.3986 3 15.2407 2.21053 13.8201L0.868424 13.0308L0.157898 13.8201C0.947372 19.1081 5.52632 19.3449 5.52632 19.3449Z" fill="#ED9A26"/>
<path fill-rule="evenodd" clip-rule="evenodd" d="M1.98917 17.6918C3.02958 18.7159 4.23727 19.1082 4.93833 19.2567C5.14116 19.2377 5.31739 19.2027 5.45012 19.1545L3.94737 15.3986C3.94737 15.3986 3.80146 15.3743 3.57644 15.2589C2.80471 15.7195 2.02644 16.8342 1.98917 17.6918Z" fill="#B57017"/>
<path d="M2.21053 13.8201C1.97368 13.4254 1.73684 12.8729 1.57895 12.2415C1.57895 11.768 1.26316 11.4523 0.789474 11.4523C0.315789 11.4523 0 11.768 0 12.2415C0 12.794 0.0789474 13.3465 0.157895 13.8201H2.21053Z" fill="#CFD8DC"/>
<path d="M13.8158 14.2147C13.8158 14.2147 5.13159 11.6101 5.13159 18.9503C5.13159 20.4499 5.92107 24.4751 5.92107 24.4751V27.6322L9.07896 26.8429V26.0537C9.78949 24.9487 12.4737 25.4223 14.6053 23.6859C15.9474 22.6598 13.8158 14.2147 13.8158 14.2147V14.2147Z" fill="#B57017"/>
<path d="M6.71054 22.8966V28.4215C8.28949 28.4215 8.28949 30 8.28949 30H5.13159C3.55264 30 3.55264 28.4215 3.55264 28.4215V22.8966H6.71054V22.8966ZM31.2632 7.90055C31.2632 7.90055 31.0263 7.19021 30.5526 6.47987C30.3158 6.08524 30 5.69061 29.6842 5.53275C28.579 4.74349 27.2369 4.74349 27.2369 4.74349C27.2369 4.74349 25.8158 -0.228889 24.079 0.00789056C22.3421 0.24467 22.5 6.32202 22.5 6.32202C22.0263 7.03236 21.7105 7.90055 21.7105 7.90055C20.7632 10.4262 18.6316 13.4254 17.0526 13.4254H15.4737L12.3158 23.6859C12.3158 23.6859 15 25.1065 21.3158 25.2644L21.7895 28.4215C21.7895 28.4215 21.7895 30 23.3684 30H26.5263C26.5263 30 26.5263 28.4215 24.9474 28.4215V24.9487C29.7632 23.6069 29.6842 18.161 29.6842 18.161C29.6842 18.161 29.2105 15.5564 28.8947 14.2147C28.4211 12.2415 34.8158 13.1097 36 10.2683V8.68982L31.2632 7.90055V7.90055Z" fill="#D6EAE9"/>
<path d="M20.9211 22.8966L21.2368 25.2644C15.0789 25.2644 12.2368 23.6859 12.2368 23.6859C12.2368 23.6859 11.921 23.6069 11.4474 23.3702C9.39473 24.5541 7.02631 24.3962 6.71052 26.0537V26.8429L3.55263 27.6322V24.4751C3.55263 24.4751 2.76315 20.4499 2.76315 18.9503C2.76315 11.6101 11.4474 13.4254 11.4474 13.4254H17.0526C17.0526 13.4254 17.6842 15.1618 19.3421 16.5825C26.2895 22.2652 20.9211 22.8966 20.9211 22.8966ZM27.2368 4.74349C27.2368 4.74349 25.8158 -0.228889 24.0789 0.00789056C22.3421 0.24467 24.0789 6.32202 24.0789 6.32202C24.0789 6.32202 20.9211 12.6361 24.0789 12.6361C24.7105 11.2155 30.6316 11.0576 31.1842 10.2683C31.7368 9.47908 31.2632 7.90055 31.2632 7.90055C31.2632 7.90055 30.7895 6.32202 29.6842 5.53275C28.5789 4.74349 27.2368 4.74349 27.2368 4.74349Z" fill="#ED9A26"/>
<path d="M28.8158 7.11128C28.3421 7.11128 28.0263 7.42699 28.0263 7.90055V8.68981H28.8158C29.2895 8.68981 29.6053 8.37411 29.6053 7.90055C29.6053 7.42699 29.2895 7.11128 28.8158 7.11128Z" fill="#0D2321"/>
<path d="M34.3421 8.45303V8.68981C34.3421 10.1105 36 10.2683 36 10.2683V8.68981L34.3421 8.45303Z" fill="#0D2321"/>
<path d="M24.0789 6.32202C24.0789 6.32202 23.8421 5.61168 23.7632 5.05919C23.6053 4.5067 23.4474 3.71744 23.2895 2.92817C23.2105 2.13891 23.1316 1.27071 23.3684 0.718228C23.4474 0.402522 23.6842 0.244669 23.8421 0.165742C24 0.00788878 24.1579 0.00788879 24.0789 0.00788879C24.0789 0.00788879 24 0.00788878 23.8421 0.165742C23.7632 0.244669 23.6053 0.481448 23.6053 0.718228C23.5263 1.27071 23.7632 1.98105 24.0789 2.69139C24.3947 3.40173 24.7105 4.03315 24.9474 4.5067C25.2632 4.98026 25.4211 5.29597 25.4211 5.29597C25.4211 5.29597 24.6316 5.53275 24.0789 6.32202V6.32202Z" fill="#B57017"/>
</g>
<defs>
<clipPath id="clip0_16101_329808">
<rect width="36" height="30" fill="white"/>
</clipPath>
</defs>
</svg>
