<svg width="80" height="80" viewBox="0 0 80 80" fill="none" xmlns="http://www.w3.org/2000/svg">
<path fill-rule="evenodd" clip-rule="evenodd" d="M65.2374 40.0838C65.8107 40.5492 66.198 41.205 66.3287 41.9319C66.3541 42.1434 66.3568 42.357 66.3366 42.5691C66.2809 42.7364 66.2809 42.8718 66.2809 43.0232C66.2344 43.3168 66.1678 43.6069 66.0817 43.8914C65.9061 44.4851 65.6373 45.0471 65.2851 45.5563C65.2192 45.6523 65.1352 45.7617 65.0773 45.8372C65.0583 45.862 65.0421 45.8831 65.0303 45.8988C65.0322 45.9105 65.037 45.9272 65.0431 45.9487C65.062 46.0157 65.094 46.1285 65.094 46.2732C65.1876 46.8551 65.2144 47.4458 65.1737 48.0337C65.0948 49.1698 64.8255 50.2847 64.3771 51.3316C63.93 52.4262 63.2281 53.3984 62.3298 54.1674L62.2263 54.255L62.0829 54.3108C60.9722 54.7231 59.8326 55.0533 58.6735 55.2985C57.481 55.5769 56.257 55.6974 55.0331 55.657H54.9375H54.826C52.2953 54.8424 49.6828 54.3081 47.0354 54.0638C46.3148 54.0144 45.5987 53.9133 44.8926 53.7611C44.1766 53.572 43.474 53.3352 42.7896 53.0522C41.722 52.6698 40.6312 52.3558 39.5236 52.1122C39.0029 52.8397 38.7625 53.7308 38.8465 54.6215C38.9255 55.6019 39.8089 57.2889 40.4416 58.4972C40.5748 58.7517 40.697 58.9849 40.7981 59.1859C41.5101 60.765 41.7688 62.511 41.5451 64.2287C41.3214 65.9464 40.6243 67.5681 39.5316 68.9122C37.8075 65.3072 34.5748 63.5963 31.68 62.0642C27.5129 59.8587 24.0459 58.0237 26.7863 51.4431C27.5613 49.5185 28.0407 47.4031 28.4334 45.6704C28.7673 44.1974 29.0384 43.0011 29.3752 42.4337V42.4815C29.1513 43.7997 29.1513 45.1462 29.3752 46.4644C29.48 47.0822 29.7134 47.6711 30.0602 48.193C30.4211 48.6685 30.9062 49.0351 31.4622 49.2525C32.6638 49.7284 33.9324 50.0133 35.2221 50.0969C35.8832 50.1924 36.5443 50.1924 37.2134 50.1924H37.2135C37.5673 50.1897 37.9209 50.2057 38.273 50.2402C38.6235 50.2721 38.982 50.3119 39.3325 50.3677C40.7219 50.5921 42.0911 50.9277 43.4269 51.3714C44.6262 51.8474 45.8975 52.1167 47.1868 52.168C49.9269 52.3826 52.6324 52.9173 55.2482 53.7611C56.2947 53.7972 57.342 53.7171 58.3708 53.5222C58.6291 53.4727 58.8837 53.4156 59.1371 53.3589C59.2509 53.3333 59.3645 53.3079 59.4781 53.2832C61.2704 52.7575 63.3176 49.9774 60.9756 50.2402C60.3253 50.2708 59.6782 50.3507 59.04 50.4792C58.4619 50.5972 58.0081 50.7054 57.6251 50.7968C56.4564 51.0756 55.947 51.1971 54.579 50.9571C53.6134 50.6225 52.61 50.4085 51.5919 50.3199C52.445 49.771 53.4576 49.5242 54.4676 49.6189C55.2138 49.7132 55.9705 49.6809 56.706 49.5233C57.0773 49.4172 57.4559 49.213 57.8651 48.9924C58.1933 48.8154 58.5411 48.6278 58.9204 48.4718C60.0014 48.131 61.1338 47.9827 62.2661 48.0337C62.5487 47.7362 62.7572 47.3764 62.8748 46.9834C62.9925 46.5904 63.0159 46.1751 62.9432 45.7714C62.7142 45.4232 62.3657 45.1711 61.9634 45.0624C61.8048 45.0273 61.6032 44.9882 61.3727 44.9435C60.191 44.7142 58.2519 44.3379 57.4786 43.6047C56.9449 43.0949 56.6582 41.5415 58.5381 41.1114C59.532 40.9365 60.5456 40.9016 61.5492 41.0078C61.9793 41.0556 63.1503 41.1671 63.4212 40.9441C63.2387 40.3117 61.1746 39.1817 59.1196 38.0568C57.3177 37.0704 55.5228 36.0878 55.0092 35.4477C52.7219 33.1169 50.8015 30.4525 49.3136 27.5455C48.8313 26.33 47.9182 25.3347 46.7487 24.7495C48.1382 24.6478 49.5166 25.0619 50.62 25.9125C50.7793 26.0446 50.9822 26.4066 51.2422 26.8705C51.9701 28.1696 53.1456 30.2673 55.065 30.3495C55.2672 30.3689 55.471 30.3332 55.6545 30.246C54.7046 29.3499 54.0631 28.2689 53.4623 27.2565C52.5515 25.7217 51.7343 24.3447 50.0784 24.0087C50.0535 23.9989 50.0287 23.9892 50.004 23.9796C49.626 23.8315 49.2718 23.6928 48.8755 23.4909L47.7524 22.9333L45.5219 21.85C44.05 21.1386 42.5333 20.5239 40.9814 20.0098C39.4464 19.5057 37.8634 19.1613 36.2576 18.9822C35.9071 18.9424 35.4371 18.8946 35.1105 18.8946C34.803 18.8957 34.5 18.9693 34.2263 19.1097C34.0362 19.1893 33.8191 19.3008 33.6008 19.4129C33.4259 19.5027 33.2502 19.5929 33.0872 19.6673C33.0166 19.6996 32.9457 19.7318 32.8746 19.7641C32.5771 19.8994 32.2773 20.0357 31.9879 20.1771C30.5325 20.8813 29.1593 21.7442 27.8935 22.7501C26.9437 23.4203 26.1096 24.2409 25.4241 25.1797C26.6215 25.0928 27.8242 25.2472 28.9609 25.6337C27.2339 25.7163 25.5417 26.1495 23.9874 26.9068C22.4331 27.6641 21.0491 28.7297 19.9197 30.0388C17.8725 32.2295 16.2793 43.4056 18.5973 46.3609C19.729 45.8311 21.2591 43.2424 22.9979 40.3007C25.6775 35.7672 28.8527 30.3953 31.8286 30.4292C30.0363 32.0303 28.6502 36.3318 27.2642 41.1512C26.149 45.0624 22.3652 53.9842 19.9754 54.1992C19.0434 54.255 18.7009 53.8089 18.0716 52.9008L17.5458 52.1839C16.6269 50.9066 15.9269 49.4851 15.4747 47.9779C15.0573 46.5023 14.8062 44.9847 14.726 43.4533C14.6449 41.9473 14.6795 40.4374 14.8295 38.9367C14.9911 37.4495 15.2411 35.9731 15.5783 34.5156C15.9139 33.0568 16.3477 31.6224 16.8767 30.2221C17.0201 29.8636 17.1635 29.5131 17.3467 29.1546C17.4397 28.9538 17.5461 28.7596 17.6653 28.5731C17.8023 28.386 17.9542 28.2102 18.1194 28.0474C18.7006 27.4948 19.3578 27.0281 20.0711 26.6613C21.1146 26.117 22.2264 25.7151 23.3768 25.4665C23.7405 24.6509 24.2387 23.9023 24.8506 23.252C25.4557 22.6181 26.1139 22.0371 26.8181 21.5154C28.1685 20.4449 29.6323 19.526 31.1834 18.7751C31.5498 18.5839 32.0278 18.3689 32.3464 18.2335C32.5146 18.162 32.6918 18.0705 32.8872 17.9695C33.0618 17.8793 33.2511 17.7816 33.4616 17.6838C33.9372 17.4576 34.4565 17.338 34.9831 17.3333C35.4335 17.3345 35.8833 17.3665 36.3293 17.4289C38.0435 17.616 39.7335 17.9818 41.3717 18.5202C42.9848 19.058 44.5624 19.6965 46.0955 20.432L48.3577 21.5313L49.4809 22.0889C49.7553 22.2372 50.1056 22.3717 50.4868 22.5181C50.5151 22.529 50.5436 22.5399 50.5723 22.551C50.9865 22.7103 51.3689 22.8775 51.7831 23.0847C52.007 23.1995 52.2227 23.3299 52.4283 23.475C52.6243 23.6336 52.8104 23.8038 52.9859 23.9848C53.5959 24.6484 54.1303 25.3778 54.579 26.1595C54.6286 26.246 54.6779 26.3323 54.7269 26.4181C55.513 27.7948 56.2433 29.074 57.383 29.8238L58.1796 30.3495C58.1659 30.394 58.1472 30.4367 58.1239 30.477L57.9566 30.7876L57.16 31.1939C57.0021 31.2703 56.8795 31.4043 56.8174 31.5683C56.7878 31.6418 56.7716 31.72 56.7697 31.7993V32.3091C56.7738 32.5783 56.7389 32.8466 56.6661 33.1057C56.6336 33.21 56.5956 33.3023 56.5622 33.3836C56.5139 33.5012 56.4749 33.596 56.4749 33.6713C56.4521 33.752 56.4521 33.8375 56.4749 33.9182C56.6994 34.9281 59.6371 36.6254 62.0633 38.0271C63.5984 38.9139 64.9287 39.6825 65.2374 40.0838ZM45.5855 33.0818C45.6731 34.189 44.3268 35.0573 42.7337 35.2405C40.6864 35.4396 39.6509 34.3165 39.8819 32.8985C40.1129 31.4806 39.1172 31.4806 38.448 32.2772C38.4332 32.2964 38.4126 32.3102 38.3892 32.3166C38.3658 32.3229 38.3409 32.3215 38.3184 32.3125C38.2959 32.3035 38.277 32.2874 38.2644 32.2667C38.2519 32.2459 38.2464 32.2217 38.2489 32.1975C38.5835 29.8317 39.9695 29.7281 40.5909 29.7281C42.4598 29.8609 44.3114 30.1757 46.1192 30.6681C46.1694 30.6804 46.2153 30.7063 46.2516 30.7432C46.288 30.78 46.3134 30.8262 46.325 30.8766C46.3365 30.9271 46.3338 30.9797 46.3172 31.0287C46.3005 31.0777 46.2706 31.1211 46.2307 31.154C45.9613 31.3888 45.7595 31.6913 45.646 32.0302C45.5326 32.3691 45.5117 32.7321 45.5855 33.0818Z" fill="#002825"/>
</svg>
