<svg width="80" height="85" viewBox="0 0 80 85" fill="none" xmlns="http://www.w3.org/2000/svg">
<rect x="6" y="13" width="68" height="69" rx="25" fill="#497270"/>
<path fill-rule="evenodd" clip-rule="evenodd" d="M65.2374 45.0838C65.8108 45.5493 66.198 46.2051 66.3287 46.9319C66.3541 47.1435 66.3568 47.3571 66.3367 47.5692C66.2809 47.7365 66.2809 47.8719 66.2809 48.0232C66.2344 48.3169 66.1678 48.6069 66.0818 48.8915C65.9062 49.4852 65.6373 50.0472 65.2852 50.5564C65.2192 50.6523 65.1352 50.7618 65.0773 50.8373C65.0583 50.862 65.0421 50.8832 65.0303 50.8989C65.0322 50.9105 65.037 50.9273 65.0431 50.9488C65.0621 51.0158 65.094 51.1285 65.094 51.2733C65.1877 51.8551 65.2144 52.4458 65.1737 53.0337C65.0948 54.1699 64.8255 55.2847 64.3771 56.3316C63.93 57.4263 63.2282 58.3985 62.3299 59.1675L62.2263 59.2551L62.0829 59.3108C60.9722 59.7232 59.8327 60.0533 58.6735 60.2986C57.481 60.5769 56.2571 60.6974 55.0331 60.6571H54.9376H54.826C52.2953 59.8424 49.6828 59.3082 47.0354 59.0639C46.3148 59.0145 45.5987 58.9133 44.8926 58.7612C44.1766 58.5721 43.474 58.3352 42.7896 58.0522C41.7221 57.6698 40.6312 57.3559 39.5237 57.1123C39.003 57.8397 38.7625 58.7308 38.8465 59.6215C38.9255 60.6019 39.8089 62.2889 40.4416 63.4972C40.5749 63.7517 40.697 63.985 40.7982 64.1859C41.5102 65.765 41.7688 67.5111 41.5451 69.2288C41.3214 70.9465 40.6243 72.5681 39.5316 73.9122C37.8075 70.3073 34.5748 68.5963 31.68 67.0642C27.5129 64.8588 24.0459 63.0238 26.7863 56.4432C27.5613 54.5186 28.0407 52.4031 28.4334 50.6705C28.7673 49.1975 29.0384 48.0011 29.3752 47.4338V47.4816C29.1513 48.7998 29.1513 50.1463 29.3752 51.4645C29.48 52.0823 29.7134 52.6712 30.0602 53.1931C30.4211 53.6686 30.9063 54.0352 31.4622 54.2525C32.6638 54.7284 33.9324 55.0133 35.2221 55.0969C35.8832 55.1925 36.5444 55.1925 37.2135 55.1925H37.2135C37.5673 55.1898 37.921 55.2057 38.273 55.2403C38.6235 55.2722 38.982 55.312 39.3325 55.3677C40.722 55.5921 42.0912 55.9278 43.4269 56.3714C44.6262 56.8474 45.8975 57.1168 47.1868 57.168C49.9269 57.3827 52.6325 57.9174 55.2482 58.7612C56.2947 58.7973 57.342 58.7171 58.3708 58.5222C58.6292 58.4728 58.8837 58.4157 59.1371 58.3589C59.2509 58.3334 59.3645 58.308 59.4781 58.2833C61.2704 57.7575 63.3176 54.9774 60.9757 55.2403C60.3253 55.2708 59.6782 55.3507 59.04 55.4793C58.462 55.5972 58.0081 55.7055 57.6252 55.7969C56.4564 56.0757 55.947 56.1972 54.5791 55.9572C53.6134 55.6226 52.6101 55.4086 51.5919 55.3199C52.445 54.7711 53.4576 54.5242 54.4676 54.6189C55.2138 54.7133 55.9706 54.6809 56.706 54.5234C57.0773 54.4173 57.456 54.2131 57.8651 53.9924C58.1933 53.8154 58.5411 53.6279 58.9205 53.4719C60.0014 53.131 61.1339 52.9828 62.2661 53.0337C62.5487 52.7363 62.7572 52.3765 62.8749 51.9835C62.9925 51.5904 63.0159 51.1752 62.9432 50.7714C62.7142 50.4233 62.3657 50.1711 61.9634 50.0625C61.8048 50.0274 61.6032 49.9883 61.3727 49.9436C60.191 49.7143 58.2519 49.338 57.4787 48.6047C56.9449 48.0949 56.6582 46.5416 58.5381 46.1114C59.5321 45.9365 60.5456 45.9017 61.5492 46.0079C61.9793 46.0557 63.1504 46.1672 63.4212 45.9441C63.2387 45.3117 61.1746 44.1818 59.1196 43.0568C57.3178 42.0704 55.5228 41.0878 55.0093 40.4477C52.7219 38.117 50.8015 35.4526 49.3137 32.5456C48.8313 31.3301 47.9182 30.3347 46.7487 29.7496C48.1383 29.6479 49.5166 30.0619 50.6201 30.9126C50.7794 31.0447 50.9823 31.4067 51.2422 31.8706C51.9701 33.1696 53.1456 35.2674 55.065 35.3496C55.2673 35.369 55.471 35.3332 55.6545 35.246C54.7046 34.35 54.0631 33.269 53.4623 32.2565C52.5515 30.7218 51.7343 29.3447 50.0784 29.0088C50.0535 28.999 50.0287 28.9893 50.004 28.9796C49.6261 28.8316 49.2719 28.6929 48.8756 28.491L47.7524 27.9334L45.5219 26.85C44.05 26.1387 42.5333 25.524 40.9814 25.0099C39.4464 24.5057 37.8634 24.1614 36.2576 23.9823C35.9071 23.9425 35.4372 23.8947 35.1106 23.8947C34.803 23.8957 34.5 23.9694 34.2264 24.1098C34.0362 24.1894 33.8191 24.3009 33.6008 24.4129C33.4259 24.5028 33.2503 24.593 33.0872 24.6674C33.0166 24.6996 32.9457 24.7319 32.8747 24.7642C32.5771 24.8994 32.2773 25.0357 31.988 25.1772C30.5325 25.8814 29.1594 26.7443 27.8935 27.7502C26.9437 28.4204 26.1097 29.241 25.4241 30.1797C26.6216 30.0929 27.8243 30.2473 28.9609 30.6338C27.2339 30.7164 25.5418 31.1495 23.9874 31.9069C22.4331 32.6642 21.0492 33.7298 19.9197 35.0389C17.8725 37.2295 16.2793 48.4056 18.5974 51.3609C19.729 50.8312 21.2591 48.2424 22.9979 45.3007C25.6775 40.7673 28.8527 35.3954 31.8286 35.4292C30.0363 37.0304 28.6503 41.3319 27.2642 46.1512C26.149 50.0625 22.3652 58.9842 19.9754 59.1993C19.0434 59.2551 18.7009 58.809 18.0716 57.9009L17.5459 57.184C16.6269 55.9066 15.927 54.4852 15.4748 52.978C15.0573 51.5024 14.8062 49.9848 14.726 48.4534C14.6449 46.9474 14.6795 45.4374 14.8295 43.9368C14.9911 42.4495 15.2412 40.9732 15.5783 39.5157C15.9139 38.0569 16.3477 36.6224 16.8768 35.2221C17.0202 34.8637 17.1635 34.5131 17.3467 34.1547C17.4397 33.9539 17.5462 33.7596 17.6654 33.5732C17.8024 33.386 17.9542 33.2102 18.1194 33.0474C18.7007 32.4948 19.3578 32.0281 20.0711 31.6614C21.1146 31.1171 22.2265 30.7152 23.3769 30.4665C23.7405 29.651 24.2387 28.9024 24.8506 28.252C25.4557 27.6181 26.114 27.0371 26.8181 26.5154C28.1685 25.4449 29.6324 24.526 31.1834 23.7752C31.5498 23.584 32.0278 23.3689 32.3464 23.2335C32.5147 23.162 32.6918 23.0705 32.8872 22.9696C33.0619 22.8794 33.2511 22.7816 33.4617 22.6839C33.9373 22.4577 34.4565 22.338 34.9831 22.3334C35.4335 22.3346 35.8833 22.3665 36.3293 22.429C38.0436 22.6161 39.7336 22.9819 41.3717 23.5203C42.9848 24.0581 44.5625 24.6966 46.0955 25.4321L48.3578 26.5314L49.481 27.089C49.7553 27.2373 50.1056 27.3718 50.4869 27.5182C50.5152 27.5291 50.5437 27.54 50.5723 27.551C50.9865 27.7103 51.3689 27.8776 51.7831 28.0847C52.0071 28.1995 52.2227 28.33 52.4283 28.4751C52.6243 28.6336 52.8105 28.8039 52.9859 28.9849C53.596 29.6484 54.1303 30.3778 54.5791 31.1595C54.6287 31.2461 54.6779 31.3323 54.7269 31.4182C55.513 32.7949 56.2434 34.074 57.3831 34.8238L58.1797 35.3496C58.166 35.394 58.1473 35.4368 58.1239 35.477L57.9566 35.7877L57.1601 36.194C57.0022 36.2703 56.8795 36.4043 56.8175 36.5684C56.7878 36.6419 56.7716 36.7201 56.7697 36.7994V37.3092C56.7738 37.5783 56.739 37.8466 56.6662 38.1058C56.6336 38.21 56.5957 38.3023 56.5622 38.3837C56.5139 38.5012 56.475 38.596 56.475 38.6713C56.4521 38.7521 56.4521 38.8375 56.475 38.9183C56.6994 39.9282 59.6371 41.6254 62.0633 43.0271C63.5984 43.914 64.9287 44.6825 65.2374 45.0838ZM45.5855 38.0818C45.6731 39.1891 44.3269 40.0573 42.7337 40.2406C40.6865 40.4397 39.651 39.3165 39.882 37.8986C40.113 36.4807 39.1172 36.4807 38.4481 37.2773C38.4332 37.2964 38.4126 37.3103 38.3892 37.3166C38.3658 37.323 38.341 37.3216 38.3185 37.3126C38.2959 37.3036 38.277 37.2875 38.2644 37.2667C38.2519 37.246 38.2464 37.2217 38.2489 37.1976C38.5835 34.8317 39.9696 34.7282 40.5909 34.7282C42.4598 34.8609 44.3114 35.1757 46.1192 35.6682C46.1695 35.6804 46.2153 35.7064 46.2517 35.7432C46.288 35.78 46.3134 35.8263 46.325 35.8767C46.3366 35.9271 46.3339 35.9798 46.3172 36.0288C46.3006 36.0778 46.2706 36.1211 46.2307 36.1541C45.9613 36.3889 45.7595 36.6913 45.6461 37.0302C45.5326 37.3691 45.5117 37.7322 45.5855 38.0818Z" fill="#002825"/>
<path d="M70.75 14.5H72.5V20.5H70.75V19V16V14.5ZM65.25 20.5H63.5V14.5H65.25V16V19V20.5ZM61.25 9.00879C59.4337 9.13698 58 10.6511 58 12.5V22.5C58 24.433 59.567 26 61.5 26H74.5C76.433 26 78 24.433 78 22.5V12.5C78 10.6511 76.5663 9.13698 74.75 9.00879V8.75C74.75 5.02208 71.7279 2 68 2C64.2721 2 61.25 5.02208 61.25 8.75V9.00879ZM69.25 8.75V9H66.75V8.75C66.75 8.05964 67.3096 7.5 68 7.5C68.6904 7.5 69.25 8.05964 69.25 8.75Z" fill="#20C580" stroke="#092120" stroke-width="4"/>
</svg>
