<svg width="80" height="80" viewBox="0 0 80 80" fill="none" xmlns="http://www.w3.org/2000/svg">
<path fill-rule="evenodd" clip-rule="evenodd" d="M67.2837 17.9003C67.2837 17.9003 67.2837 17.9003 67.2837 17.9003C66.7436 17.8394 66.2055 17.725 65.6744 17.5664C66.2055 17.725 66.7436 17.8394 67.2837 17.9003ZM50.983 9.95388C50.3015 12.8244 51.0101 15.9549 53.1088 18.2848L53.1294 18.3077C55.9117 21.3721 61.4599 25.8126 68.2921 25.7552C69.301 25.7637 70.2819 25.6741 71.2301 25.5053C72.195 29.3069 72.195 34.3507 72.195 42.9266V43.9022C72.195 54.3132 72.195 59.5187 70.4686 63.6157C68.239 68.907 64.0291 73.117 58.7377 75.3466C54.6408 77.0729 49.4353 77.0729 39.0242 77.0729C28.6132 77.0729 23.4077 77.0729 19.3108 75.3466C14.0194 73.117 9.80947 68.907 7.57986 63.6157C5.85352 59.5187 5.85352 54.3132 5.85352 43.9022V42.9266C5.85352 32.5156 5.85352 27.31 7.57986 23.2131C9.80947 17.9218 14.0194 13.7118 19.3108 11.4822C23.4077 9.75586 28.6132 9.75586 39.0242 9.75586C44.0828 9.75586 47.9124 9.75586 50.983 9.95388Z" fill="#F2B824"/>
<path fill-rule="evenodd" clip-rule="evenodd" d="M63.6462 41.0574C64.2056 41.5115 64.5834 42.1513 64.7109 42.8604C64.7357 43.0668 64.7383 43.2752 64.7187 43.4821C64.6643 43.6453 64.6643 43.7774 64.6643 43.9251C64.6189 44.2116 64.554 44.4946 64.47 44.7722C64.2987 45.3514 64.0364 45.8997 63.6928 46.3965C63.6285 46.4901 63.5465 46.5969 63.4901 46.6705C63.4715 46.6947 63.4557 46.7153 63.4442 46.7306C63.4461 46.742 63.4507 46.7583 63.4567 46.7793C63.4752 46.8446 63.5063 46.9547 63.5063 47.0959C63.5977 47.6635 63.6238 48.2398 63.5841 48.8134C63.5071 49.9218 63.2444 51.0095 62.8069 52.0308C62.3707 53.0988 61.686 54.0473 60.8096 54.7975L60.7086 54.883L60.5687 54.9374C59.4851 55.3397 58.3733 55.6618 57.2425 55.9011C56.079 56.1726 54.8849 56.2902 53.6908 56.2508H53.5976H53.4888C51.0198 55.456 48.471 54.9348 45.8882 54.6965C45.1852 54.6483 44.4865 54.5496 43.7977 54.4011C43.0991 54.2167 42.4137 53.9856 41.746 53.7095C40.7044 53.3364 39.6402 53.0301 38.5596 52.7924C38.0517 53.5022 37.817 54.3715 37.899 55.2405C37.9761 56.197 38.8379 57.8429 39.4552 59.0217C39.5852 59.27 39.7044 59.4975 39.8031 59.6936C40.4977 61.2342 40.75 62.9377 40.5318 64.6135C40.3136 66.2893 39.6334 67.8713 38.5674 69.1827C36.8854 65.6656 33.7315 63.9964 30.9073 62.5017C26.8419 60.35 23.4594 58.5598 26.1329 52.1396C26.889 50.262 27.3568 48.1982 27.7399 46.5078C28.0656 45.0707 28.3302 43.9035 28.6587 43.35V43.3966C28.4403 44.6827 28.4403 45.9964 28.6587 47.2824C28.761 47.8851 28.9887 48.4597 29.327 48.9688C29.6791 49.4327 30.1524 49.7904 30.6948 50.0025C31.8671 50.4667 33.1048 50.7447 34.363 50.8263C35.008 50.9195 35.653 50.9195 36.3058 50.9195H36.3059C36.651 50.9168 36.996 50.9324 37.3395 50.9661C37.6815 50.9972 38.0312 51.0361 38.3731 51.0905C39.7287 51.3094 41.0645 51.6369 42.3677 52.0697C43.5377 52.534 44.778 52.7968 46.0359 52.8468C48.7092 53.0563 51.3487 53.5779 53.9007 54.4011C54.9217 54.4364 55.9434 54.3582 56.9471 54.168C57.1992 54.1198 57.4475 54.0641 57.6947 54.0087C57.8057 53.9838 57.9166 53.959 58.0274 53.9349C59.776 53.422 61.7733 50.7097 59.4884 50.9661C58.854 50.9959 58.2226 51.0739 57.6 51.1993C57.036 51.3144 56.5933 51.42 56.2196 51.5091C55.0794 51.7811 54.5824 51.8997 53.2479 51.6655C52.3057 51.3391 51.3269 51.1303 50.3335 51.0438C51.1658 50.5083 52.1537 50.2675 53.1391 50.3599C53.8671 50.4519 54.6054 50.4204 55.3229 50.2667C55.6852 50.1632 56.0546 49.964 56.4538 49.7487C56.7739 49.576 57.1133 49.393 57.4834 49.2408C58.538 48.9083 59.6428 48.7637 60.7474 48.8134C61.0231 48.5232 61.2265 48.1722 61.3413 47.7887C61.4561 47.4053 61.4789 47.0002 61.408 46.6063C61.1846 46.2666 60.8446 46.0206 60.4521 45.9146C60.2974 45.8804 60.1007 45.8422 59.8758 45.7986C58.7229 45.5749 56.8311 45.2078 56.0767 44.4924C55.556 43.995 55.2763 42.4796 57.1104 42.0599C58.0801 41.8893 59.0688 41.8553 60.048 41.9589C60.4676 42.0055 61.6101 42.1143 61.8743 41.8967C61.6963 41.2797 59.6826 40.1774 57.6777 39.0798C55.9198 38.1175 54.1686 37.1588 53.6676 36.5344C51.436 34.2604 49.5624 31.661 48.1109 28.825C47.6403 27.6391 46.7495 26.668 45.6085 26.0971C46.9642 25.9979 48.3089 26.4019 49.3854 27.2318C49.5408 27.3606 49.7388 27.7138 49.9924 28.1664C50.7026 29.4338 51.8494 31.4804 53.722 31.5605C53.9193 31.5795 54.118 31.5446 54.2971 31.4595C53.3704 30.5853 52.7445 29.5307 52.1583 28.543C51.2697 27.0457 50.4725 25.7022 48.857 25.3744C48.8327 25.3649 48.8085 25.3554 48.7844 25.3459C48.4156 25.2015 48.0701 25.0662 47.6834 24.8692L46.5877 24.3252L44.4116 23.2683C42.9756 22.5743 41.4959 21.9746 39.9819 21.4731C38.4843 20.9812 36.9399 20.6452 35.3733 20.4705C35.0313 20.4317 34.5728 20.3851 34.2542 20.3851C33.9541 20.3861 33.6585 20.4579 33.3915 20.5949C33.206 20.6725 32.9942 20.7813 32.7813 20.8907C32.6106 20.9783 32.4393 21.0663 32.2802 21.1389C32.2113 21.1704 32.1421 21.2018 32.0728 21.2333C31.7825 21.3653 31.49 21.4983 31.2077 21.6363C29.7878 22.3233 28.4481 23.1652 27.2131 24.1465C26.2866 24.8004 25.4728 25.601 24.804 26.5168C25.9722 26.432 27.1456 26.5827 28.2546 26.9598C26.5697 27.0404 24.9188 27.463 23.4024 28.2018C21.886 28.9406 20.5357 29.9803 19.4339 31.2575C17.4366 33.3946 15.8822 44.2981 18.1438 47.1814C19.2478 46.6645 20.7406 44.139 22.437 41.269C25.0512 36.8461 28.149 31.6053 31.0523 31.6383C29.3037 33.2003 27.9515 37.397 26.5992 42.0988C25.5112 45.9146 21.8197 54.6187 19.4882 54.8286C18.5789 54.883 18.2448 54.4478 17.6309 53.5618L17.1179 52.8624C16.2213 51.6162 15.5385 50.2294 15.0973 48.759C14.6901 47.3194 14.445 45.8388 14.3668 44.3448C14.2877 42.8755 14.3215 41.4024 14.4678 39.9383C14.6255 38.4873 14.8694 37.047 15.1984 35.6251C15.5257 34.2018 15.949 32.8024 16.4651 31.4362C16.605 31.0865 16.7449 30.7445 16.9236 30.3948C17.0143 30.1989 17.1182 30.0094 17.2345 29.8275C17.3681 29.6449 17.5163 29.4734 17.6775 29.3146C18.2445 28.7754 18.8857 28.3201 19.5815 27.9623C20.5996 27.4313 21.6843 27.0392 22.8067 26.7966C23.1615 26.0009 23.6475 25.2706 24.2445 24.6361C24.8348 24.0177 25.477 23.4508 26.164 22.9419C27.4814 21.8975 28.9096 21.001 30.4228 20.2685C30.7803 20.0819 31.2466 19.8721 31.5575 19.74C31.7216 19.6702 31.8944 19.581 32.0851 19.4825C32.2555 19.3945 32.4401 19.2991 32.6455 19.2038C33.1095 18.9831 33.6161 18.8664 34.1299 18.8618C34.5693 18.863 35.0081 18.8942 35.4432 18.9551C37.1157 19.1377 38.7644 19.4945 40.3627 20.0198C41.9364 20.5445 43.4756 21.1674 44.9712 21.885L47.1783 22.9574L48.2741 23.5014C48.5418 23.6461 48.8835 23.7773 49.2554 23.9202C49.283 23.9308 49.3108 23.9415 49.3388 23.9522C49.7429 24.1076 50.116 24.2708 50.5201 24.4729C50.7386 24.5849 50.9489 24.7121 51.1496 24.8537C51.3408 25.0084 51.5224 25.1745 51.6936 25.3511C52.2887 25.9985 52.81 26.7101 53.2479 27.4727C53.2962 27.5571 53.3443 27.6413 53.3921 27.7251C54.159 29.0681 54.8715 30.3161 55.9835 31.0476L56.7606 31.5605C56.7473 31.6039 56.729 31.6456 56.7062 31.6849L56.543 31.988L55.7659 32.3843C55.6118 32.4588 55.4922 32.5896 55.4317 32.7496C55.4027 32.8213 55.3869 32.8977 55.385 32.975V33.4724C55.3891 33.7349 55.3551 33.9967 55.2841 34.2495C55.2523 34.3512 55.2153 34.4413 55.1826 34.5207C55.1355 34.6353 55.0975 34.7278 55.0975 34.8013C55.0752 34.88 55.0752 34.9634 55.0975 35.0422C55.3165 36.0275 58.1826 37.6834 60.5496 39.0509C62.0472 39.9161 63.345 40.6659 63.6462 41.0574ZM44.4736 34.2262C44.5591 35.3064 43.2457 36.1535 41.6914 36.3322C39.6941 36.5265 38.6838 35.4307 38.9092 34.0474C39.1346 32.6641 38.1631 32.6641 37.5103 33.4412C37.4958 33.4599 37.4757 33.4734 37.4529 33.4796C37.43 33.4858 37.4058 33.4845 37.3838 33.4757C37.3619 33.4669 37.3434 33.4512 37.3311 33.431C37.3189 33.4107 37.3136 33.387 37.316 33.3635C37.6424 31.0554 38.9947 30.9543 39.6008 30.9543C41.4242 31.0838 43.2306 31.391 44.9943 31.8714C45.0434 31.8833 45.0881 31.9087 45.1236 31.9446C45.159 31.9805 45.1838 32.0256 45.1951 32.0748C45.2064 32.124 45.2037 32.1754 45.1875 32.2232C45.1713 32.271 45.142 32.3133 45.1031 32.3454C44.8403 32.5745 44.6434 32.8696 44.5327 33.2002C44.4221 33.5308 44.4016 33.885 44.4736 34.2262Z" fill="#002825"/>
<path fill-rule="evenodd" clip-rule="evenodd" d="M58.9067 11.1306C61.1797 8.62868 64.7952 6.18573 68.2909 6.2447C71.7867 6.18573 75.4021 8.62868 77.6777 11.1306C78.1719 11.6792 78.1719 12.5124 77.6777 13.061C75.4524 15.5101 71.8465 18.0094 68.2909 17.9496C64.7353 18.0094 61.1303 15.5101 58.9067 13.061C58.4126 12.5124 58.4126 11.6792 58.9067 11.1306ZM68.2663 16.4863C65.3441 16.5355 62.1228 14.4186 60.007 12.0958C62.1656 9.72772 65.3977 7.65952 68.2662 7.70791C68.2827 7.70818 68.2992 7.70818 68.3156 7.70791C71.1839 7.65952 74.4158 9.72733 76.5774 12.0958C74.4597 14.4187 71.2377 16.5355 68.3156 16.4863C68.2991 16.4861 68.2827 16.4861 68.2663 16.4863ZM68.2922 10.6339H68.2926C68.6807 10.6338 69.053 10.788 69.3274 11.0624C69.6018 11.3369 69.7559 11.7092 69.7556 12.0973L71.2186 12.0981L69.7556 12.0977C69.7554 12.9059 69.1001 13.5609 68.292 13.5607C67.4838 13.5606 66.8287 12.9054 66.8288 12.0972C66.8289 11.289 67.4841 10.6339 68.2922 10.6339ZM70.3623 10.0278C70.9113 10.5769 71.2195 11.3216 71.2191 12.0981C71.2186 13.7144 69.9081 15.0244 68.2917 15.0241C66.6754 15.0239 65.3653 13.7134 65.3654 12.0971C65.3655 10.4807 66.6759 9.17048 68.2922 9.17048C69.0687 9.17027 69.8134 9.47868 70.3623 10.0278Z" fill="#F2B824"/>
</svg>
