<svg width="83" height="84" viewBox="0 0 83 84" fill="none" xmlns="http://www.w3.org/2000/svg">
<rect x="6" y="12" width="68" height="69" rx="22" fill="#21C580"/>
<path fill-rule="evenodd" clip-rule="evenodd" d="M65.2374 44.0837C65.8108 44.5491 66.198 45.205 66.3287 45.9318C66.3541 46.1433 66.3568 46.357 66.3367 46.5691C66.2809 46.7363 66.2809 46.8718 66.2809 47.0231C66.2344 47.3168 66.1679 47.6068 66.0818 47.8914C65.9062 48.4851 65.6373 49.047 65.2852 49.5563C65.2192 49.6522 65.1352 49.7618 65.0773 49.8372C65.0583 49.862 65.0421 49.883 65.0303 49.8988C65.0322 49.9104 65.037 49.9272 65.0431 49.9486C65.0621 50.0156 65.094 50.1284 65.094 50.2732C65.1877 50.855 65.2144 51.4457 65.1737 52.0336C65.0948 53.1698 64.8255 54.2846 64.3771 55.3315C63.93 56.4262 63.2282 57.3984 62.3299 58.1673L62.2263 58.2549L62.0829 58.3107C60.9722 58.7231 59.8327 59.0532 58.6735 59.2985C57.481 59.5768 56.2571 59.6973 55.0331 59.6569H54.9376H54.826C52.2953 58.8423 49.6828 58.3081 47.0354 58.0638C46.3148 58.0144 45.5987 57.9132 44.8926 57.7611C44.1766 57.572 43.474 57.3351 42.7896 57.0521C41.7221 56.6697 40.6312 56.3557 39.5237 56.1121C39.003 56.8396 38.7625 57.7307 38.8465 58.6214C38.9255 59.6018 39.8089 61.2888 40.4416 62.4971C40.5749 62.7516 40.697 62.9849 40.7982 63.1858C41.5102 64.7649 41.7688 66.511 41.5451 68.2287C41.3214 69.9464 40.6243 71.568 39.5316 72.9121C37.8075 69.3071 34.5748 67.5962 31.68 66.0641C27.5129 63.8586 24.0459 62.0237 26.7863 55.443C27.5613 53.5184 28.0407 51.403 28.4334 49.6704C28.7673 48.1974 29.0384 47.001 29.3752 46.4337V46.4815C29.1513 47.7997 29.1513 49.1462 29.3752 50.4644C29.48 51.0822 29.7134 51.6711 30.0602 52.193C30.4211 52.6684 30.9063 53.0351 31.4622 53.2524C32.6638 53.7283 33.9324 54.0132 35.2221 54.0968C35.8832 54.1924 36.5444 54.1924 37.2135 54.1924H37.2135C37.5673 54.1897 37.921 54.2056 38.273 54.2402C38.6235 54.272 38.982 54.3119 39.3325 54.3676C40.722 54.592 42.0912 54.9277 43.4269 55.3713C44.6262 55.8473 45.8975 56.1166 47.1868 56.1679C49.9269 56.3826 52.6325 56.9173 55.2482 57.7611C56.2947 57.7972 57.342 57.717 58.3708 57.5221C58.6292 57.4726 58.8837 57.4156 59.1371 57.3588C59.2509 57.3333 59.3645 57.3078 59.4781 57.2831C61.2704 56.7574 63.3176 53.9773 60.9757 54.2402C60.3253 54.2707 59.6782 54.3506 59.04 54.4791C58.462 54.5971 58.0081 54.7054 57.6252 54.7967C56.4564 55.0756 55.947 55.1971 54.5791 54.9571C53.6134 54.6225 52.6101 54.4084 51.5919 54.3198C52.445 53.7709 53.4576 53.5241 54.4676 53.6188C55.2138 53.7131 55.9706 53.6808 56.706 53.5232C57.0773 53.4171 57.456 53.2129 57.8651 52.9923C58.1933 52.8153 58.5411 52.6277 58.9205 52.4717C60.0014 52.1309 61.1339 51.9826 62.2661 52.0336C62.5487 51.7362 62.7572 51.3764 62.8749 50.9833C62.9925 50.5903 63.0159 50.1751 62.9432 49.7713C62.7142 49.4232 62.3657 49.171 61.9634 49.0624C61.8048 49.0273 61.6032 48.9882 61.3728 48.9434C60.191 48.7141 58.2519 48.3379 57.4787 47.6046C56.9449 47.0948 56.6582 45.5415 58.5381 45.1113C59.5321 44.9364 60.5456 44.9015 61.5492 45.0077C61.9794 45.0555 63.1504 45.167 63.4212 44.944C63.2387 44.3116 61.1746 43.1817 59.1196 42.0567C57.3178 41.0703 55.5228 40.0877 55.0093 39.4476C52.7219 37.1168 50.8015 34.4525 49.3137 31.5455C48.8313 30.3299 47.9182 29.3346 46.7487 28.7495C48.1383 28.6477 49.5166 29.0618 50.6201 29.9125C50.7794 30.0445 50.9823 30.4066 51.2422 30.8705C51.9701 32.1695 53.1456 34.2673 55.065 34.3494C55.2673 34.3689 55.471 34.3331 55.6545 34.2459C54.7046 33.3499 54.0631 32.2688 53.4623 31.2564C52.5515 29.7217 51.7343 28.3446 50.0784 28.0086C50.0535 27.9989 50.0287 27.9892 50.004 27.9795C49.626 27.8315 49.2719 27.6927 48.8756 27.4909L47.7524 26.9332L45.5219 25.8499C44.05 25.1385 42.5333 24.5239 40.9814 24.0098C39.4464 23.5056 37.8634 23.1612 36.2576 22.9822C35.9071 22.9424 35.4372 22.8946 35.1106 22.8946C34.803 22.8956 34.5 22.9693 34.2264 23.1096C34.0362 23.1892 33.8191 23.3007 33.6008 23.4128C33.4259 23.5026 33.2503 23.5928 33.0872 23.6673C33.0166 23.6995 32.9457 23.7318 32.8746 23.7641C32.577 23.8993 32.2773 24.0356 31.988 24.1771C30.5325 24.8813 29.1594 25.7442 27.8935 26.75C26.9437 27.4203 26.1097 28.2409 25.4241 29.1796C26.6216 29.0927 27.8243 29.2471 28.9609 29.6337C27.2339 29.7163 25.5418 30.1494 23.9874 30.9067C22.4331 31.664 21.0492 32.7297 19.9197 34.0388C17.8725 36.2294 16.2793 47.4055 18.5974 50.3608C19.729 49.831 21.2592 47.2423 22.9979 44.3006C25.6775 39.7671 28.8527 34.3953 31.8286 34.4291C30.0363 36.0302 28.6503 40.3318 27.2642 45.1511C26.149 49.0624 22.3652 57.9841 19.9754 58.1992C19.0434 58.2549 18.7009 57.8088 18.0716 56.9007L17.5459 56.1838C16.6269 54.9065 15.927 53.4851 15.4748 51.9779C15.0573 50.5023 14.8062 48.9847 14.726 47.4533C14.6449 45.9473 14.6795 44.4373 14.8295 42.9366C14.9911 41.4494 15.2412 39.9731 15.5783 38.5156C15.9139 37.0568 16.3477 35.6223 16.8768 34.222C17.0202 33.8635 17.1635 33.513 17.3467 33.1546C17.4397 32.9538 17.5462 32.7595 17.6654 32.5731C17.8024 32.3859 17.9542 32.2101 18.1194 32.0473C18.7007 31.4947 19.3578 31.028 20.0711 30.6613C21.1146 30.1169 22.2265 29.7151 23.3769 29.4664C23.7405 28.6508 24.2387 27.9022 24.8506 27.2519C25.4557 26.618 26.114 26.037 26.8181 25.5153C28.1685 24.4448 29.6324 23.5259 31.1834 22.7751C31.5498 22.5839 32.0278 22.3688 32.3464 22.2334C32.5147 22.1619 32.6918 22.0704 32.8872 21.9695C33.0619 21.8793 33.2511 21.7815 33.4617 21.6838C33.9373 21.4575 34.4565 21.3379 34.9831 21.3333C35.4335 21.3345 35.8833 21.3664 36.3293 21.4289C38.0436 21.616 39.7336 21.9817 41.3717 22.5202C42.9848 23.058 44.5625 23.6965 46.0955 24.432L48.3578 25.5313L49.481 26.0889C49.7553 26.2372 50.1056 26.3717 50.4868 26.5181C50.5152 26.5289 50.5436 26.5399 50.5723 26.5509C50.9865 26.7102 51.3689 26.8775 51.7831 27.0846C52.0071 27.1994 52.2227 27.3298 52.4283 27.4749C52.6243 27.6335 52.8105 27.8037 52.9859 27.9847C53.596 28.6483 54.1303 29.3777 54.5791 30.1594C54.6287 30.2459 54.6779 30.3322 54.7269 30.4181C55.513 31.7947 56.2434 33.0739 57.3831 33.8237L58.1797 34.3494C58.166 34.3939 58.1473 34.4367 58.1239 34.4769L57.9566 34.7876L57.1601 35.1938C57.0022 35.2702 56.8795 35.4042 56.8175 35.5682C56.7878 35.6418 56.7716 35.72 56.7697 35.7992V36.3091C56.7738 36.5782 56.739 36.8465 56.6662 37.1056C56.6336 37.2099 56.5957 37.3022 56.5622 37.3836C56.5139 37.5011 56.475 37.5959 56.475 37.6712C56.4521 37.7519 56.4521 37.8374 56.475 37.9181C56.6994 38.9281 59.6371 40.6253 62.0633 42.027C63.5984 42.9139 64.9287 43.6824 65.2374 44.0837ZM45.5855 37.0817C45.6731 38.189 44.3269 39.0572 42.7337 39.2404C40.6865 39.4396 39.651 38.3164 39.882 36.8985C40.113 35.4806 39.1172 35.4806 38.4481 36.2771C38.4332 36.2963 38.4126 36.3101 38.3892 36.3165C38.3658 36.3229 38.341 36.3215 38.3185 36.3125C38.2959 36.3035 38.277 36.2874 38.2644 36.2666C38.2519 36.2459 38.2464 36.2216 38.2489 36.1975C38.5835 33.8316 39.9696 33.7281 40.5909 33.7281C42.4598 33.8608 44.3114 34.1756 46.1192 34.6681C46.1695 34.6803 46.2153 34.7063 46.2517 34.7431C46.288 34.7799 46.3134 34.8262 46.325 34.8766C46.3366 34.927 46.3339 34.9797 46.3172 35.0286C46.3006 35.0776 46.2706 35.121 46.2307 35.154C45.9613 35.3888 45.7595 35.6912 45.6461 36.0301C45.5326 36.369 45.5117 36.732 45.5855 37.0817Z" fill="#002825"/>
<circle cx="70" cy="15" r="13" fill="#0A2221"/>
<path fill-rule="evenodd" clip-rule="evenodd" d="M67.5002 10.7172V13.0113L66.5 13.5891C66.1909 13.7682 66.0007 14.0987 66.0007 14.4562C66.0007 14.8138 66.1909 15.1443 66.5 15.3234L67.5002 15.9012L67.5002 16.6079L66.5 17.1857C66.1906 17.3646 66 17.6951 66 18.0529C66 18.4106 66.1906 18.7411 66.5 18.92L67.4997 19.4983C67.4999 20.3278 68.1715 21.0001 69 21C69.8285 20.9999 70.4999 20.3273 70.4998 19.4978V10.7172C72.2745 9.99842 73.2916 8.12128 72.926 6.23977C72.5603 4.35825 70.9144 3 69 3C67.0856 3 65.4397 4.35825 65.074 6.23977C64.7084 8.12128 65.7255 9.99842 67.5002 10.7172Z" stroke="#20C580" stroke-width="1.5" stroke-linecap="round" stroke-linejoin="round"/>
<circle cx="69" cy="5.75" r="0.75" fill="#20C580"/>
</svg>
