<svg width="89" height="87" viewBox="0 0 89 87" fill="none" xmlns="http://www.w3.org/2000/svg">
<rect x="6" y="15" width="68" height="69" rx="22" fill="#21C580"/>
<path fill-rule="evenodd" clip-rule="evenodd" d="M65.2371 47.0838C65.8105 47.5493 66.1978 48.2051 66.3285 48.9319C66.3539 49.1435 66.3566 49.3571 66.3364 49.5692C66.2807 49.7365 66.2807 49.8719 66.2807 50.0232C66.2341 50.3169 66.1676 50.6069 66.0815 50.8915C65.9059 51.4852 65.637 52.0472 65.2849 52.5564C65.219 52.6523 65.135 52.7618 65.0771 52.8373C65.0581 52.862 65.0419 52.8832 65.0301 52.8989C65.032 52.9105 65.0368 52.9273 65.0428 52.9488C65.0618 53.0158 65.0938 53.1285 65.0938 53.2733C65.1874 53.8551 65.2142 54.4458 65.1734 55.0337C65.0946 56.1699 64.8253 57.2847 64.3769 58.3316C63.9298 59.4263 63.2279 60.3985 62.3296 61.1675L62.2261 61.2551L62.0827 61.3108C60.972 61.7232 59.8324 62.0533 58.6733 62.2986C57.4807 62.5769 56.2568 62.6974 55.0329 62.6571H54.9373H54.8258C52.2951 61.8424 49.6826 61.3082 47.0352 61.0639C46.3146 61.0145 45.5985 60.9133 44.8924 60.7612C44.1764 60.5721 43.4738 60.3352 42.7894 60.0522C41.7218 59.6698 40.6309 59.3559 39.5234 59.1123C39.0027 59.8397 38.7622 60.7308 38.8463 61.6215C38.9253 62.6019 39.8086 64.2889 40.4414 65.4972C40.5746 65.7517 40.6968 65.985 40.7979 66.1859C41.5099 67.765 41.7686 69.5111 41.5449 71.2288C41.3212 72.9465 40.624 74.5681 39.5314 75.9122C37.8073 72.3073 34.5746 70.5963 31.6798 69.0642C27.5127 66.8588 24.0457 65.0238 26.786 58.4432C27.561 56.5186 28.0405 54.4031 28.4332 52.6705C28.767 51.1975 29.0382 50.0011 29.3749 49.4338V49.4816C29.151 50.7998 29.151 52.1463 29.3749 53.4645C29.4798 54.0823 29.7132 54.6712 30.06 55.1931C30.4209 55.6686 30.906 56.0352 31.462 56.2525C32.6636 56.7284 33.9322 57.0133 35.2218 57.0969C35.883 57.1925 36.5441 57.1925 37.2132 57.1925H37.2133C37.5671 57.1898 37.9207 57.2057 38.2728 57.2403C38.6233 57.2722 38.9817 57.312 39.3322 57.3677C40.7217 57.5921 42.0909 57.9278 43.4267 58.3714C44.626 58.8474 45.8973 59.1168 47.1866 59.168C49.9267 59.3827 52.6322 59.9174 55.248 60.7612C56.2945 60.7973 57.3418 60.7171 58.3706 60.5222C58.6289 60.4728 58.8835 60.4157 59.1369 60.3589C59.2507 60.3334 59.3643 60.308 59.4778 60.2833C61.2702 59.7575 63.3174 56.9774 60.9754 57.2403C60.3251 57.2708 59.678 57.3507 59.0397 57.4793C58.4617 57.5972 58.0079 57.7055 57.6249 57.7969C56.4561 58.0757 55.9468 58.1972 54.5788 57.9572C53.6131 57.6226 52.6098 57.4086 51.5916 57.3199C52.4447 56.7711 53.4574 56.5242 54.4674 56.6189C55.2135 56.7133 55.9703 56.6809 56.7057 56.5234C57.0771 56.4173 57.4557 56.2131 57.8649 55.9924C58.1931 55.8154 58.5409 55.6279 58.9202 55.4719C60.0012 55.131 61.1336 54.9828 62.2659 55.0337C62.5484 54.7363 62.757 54.3765 62.8746 53.9835C62.9922 53.5904 63.0156 53.1752 62.943 52.7714C62.714 52.4233 62.3655 52.1711 61.9632 52.0625C61.8046 52.0274 61.603 51.9883 61.3725 51.9436C60.1908 51.7143 58.2517 51.338 57.4784 50.6047C56.9447 50.0949 56.6579 48.5416 58.5379 48.1114C59.5318 47.9365 60.5453 47.9017 61.549 48.0079C61.9791 48.0557 63.1501 48.1672 63.421 47.9441C63.2384 47.3117 61.1744 46.1818 59.1194 45.0568C57.3175 44.0704 55.5226 43.0878 55.009 42.4477C52.7217 40.117 50.8013 37.4526 49.3134 34.5456C48.831 33.3301 47.918 32.3347 46.7484 31.7496C48.138 31.6479 49.5163 32.0619 50.6198 32.9126C50.7791 33.0447 50.982 33.4067 51.242 33.8706C51.9699 35.1696 53.1454 37.2674 55.0648 37.3496C55.267 37.369 55.4707 37.3332 55.6543 37.246C54.7044 36.35 54.0629 35.269 53.462 34.2565C52.5513 32.7218 51.734 31.3447 50.0782 31.0088C50.0533 30.999 50.0285 30.9893 50.0038 30.9796C49.6258 30.8316 49.2716 30.6929 48.8753 30.491L47.7521 29.9334L45.5217 28.85C44.0497 28.1387 42.5331 27.524 40.9812 27.0099C39.4462 26.5057 37.8631 26.1614 36.2574 25.9823C35.9069 25.9425 35.4369 25.8947 35.1103 25.8947C34.8027 25.8957 34.4998 25.9694 34.2261 26.1098C34.036 26.1894 33.8188 26.3009 33.6006 26.4129C33.4257 26.5028 33.25 26.593 33.087 26.6674C33.0164 26.6996 32.9455 26.7319 32.8744 26.7642C32.5768 26.8994 32.2771 27.0357 31.9877 27.1772C30.5323 27.8814 29.1591 28.7443 27.8933 29.7502C26.9435 30.4204 26.1094 31.241 25.4239 32.1797C26.6213 32.0929 27.824 32.2473 28.9607 32.6338C27.2337 32.7164 25.5415 33.1495 23.9872 33.9069C22.4329 34.6642 21.0489 35.7298 19.9195 37.0389C17.8723 39.2295 16.2791 50.4056 18.5971 53.3609C19.7288 52.8312 21.2589 50.2424 22.9977 47.3007C25.6773 42.7673 28.8525 37.3954 31.8284 37.4292C30.0361 39.0304 28.65 43.3319 27.264 48.1512C26.1488 52.0625 22.365 60.9842 19.9752 61.1993C19.0432 61.2551 18.7007 60.809 18.0714 59.9009L17.5456 59.184C16.6267 57.9066 15.9267 56.4852 15.4745 54.978C15.0571 53.5024 14.8059 51.9848 14.7257 50.4534C14.6446 48.9474 14.6793 47.4374 14.8293 45.9368C14.9909 44.4495 15.2409 42.9732 15.5781 41.5157C15.9137 40.0569 16.3475 38.6224 16.8765 37.2221C17.0199 36.8637 17.1633 36.5131 17.3465 36.1547C17.4395 35.9539 17.5459 35.7596 17.6651 35.5732C17.8021 35.386 17.954 35.2102 18.1192 35.0474C18.7004 34.4948 19.3576 34.0281 20.0708 33.6614C21.1144 33.1171 22.2262 32.7152 23.3766 32.4665C23.7403 31.651 24.2385 30.9024 24.8503 30.252C25.4555 29.6181 26.1137 29.0371 26.8179 28.5154C28.1683 27.4449 29.6321 26.526 31.1832 25.7752C31.5496 25.584 32.0275 25.3689 32.3462 25.2335C32.5144 25.162 32.6916 25.0705 32.887 24.9696C33.0616 24.8794 33.2509 24.7816 33.4614 24.6839C33.937 24.4577 34.4562 24.338 34.9829 24.3334C35.4333 24.3346 35.8831 24.3665 36.3291 24.429C38.0433 24.6161 39.7333 24.9819 41.3715 25.5203C42.9845 26.0581 44.5622 26.6966 46.0952 27.4321L48.3575 28.5314L49.4807 29.089C49.7551 29.2373 50.1054 29.3718 50.4866 29.5182C50.5149 29.5291 50.5434 29.54 50.572 29.551C50.9863 29.7103 51.3686 29.8776 51.7829 30.0847C52.0068 30.1995 52.2224 30.33 52.4281 30.4751C52.6241 30.6336 52.8102 30.8039 52.9857 30.9849C53.5957 31.6484 54.1301 32.3778 54.5788 33.1595C54.6284 33.2461 54.6777 33.3323 54.7267 33.4182C55.5127 34.7949 56.2431 36.074 57.3828 36.8238L58.1794 37.3496C58.1657 37.394 58.147 37.4368 58.1236 37.477L57.9564 37.7877L57.1598 38.194C57.0019 38.2703 56.8793 38.4043 56.8172 38.5684C56.7876 38.6419 56.7714 38.7201 56.7694 38.7994V39.3092C56.7736 39.5783 56.7387 39.8466 56.6659 40.1058C56.6333 40.21 56.5954 40.3023 56.562 40.3837C56.5137 40.5012 56.4747 40.596 56.4747 40.6713C56.4519 40.7521 56.4519 40.8375 56.4747 40.9183C56.6991 41.9282 59.6369 43.6254 62.0631 45.0271C63.5982 45.914 64.9284 46.6826 65.2371 47.0838ZM45.5852 40.0818C45.6729 41.1891 44.3266 42.0574 42.7335 42.2406C40.6862 42.4397 39.6507 41.3165 39.8817 39.8986C40.1127 38.4807 39.117 38.4807 38.4478 39.2773C38.433 39.2964 38.4123 39.3103 38.389 39.3166C38.3656 39.323 38.3407 39.3216 38.3182 39.3126C38.2957 39.3036 38.2767 39.2875 38.2642 39.2667C38.2516 39.246 38.2462 39.2217 38.2487 39.1976C38.5833 36.8317 39.9693 36.7282 40.5906 36.7282C42.4596 36.8609 44.3111 37.1757 46.1189 37.6682C46.1692 37.6804 46.2151 37.7064 46.2514 37.7432C46.2878 37.78 46.3132 37.8263 46.3247 37.8767C46.3363 37.9271 46.3336 37.9798 46.317 38.0288C46.3003 38.0778 46.2704 38.1211 46.2305 38.1541C45.9611 38.3889 45.7593 38.6913 45.6458 39.0302C45.5324 39.3691 45.5115 39.7322 45.5852 40.0818Z" fill="#002825"/>
<path d="M81.0001 16.5352C81.1146 16.6014 81.2254 16.6731 81.3323 16.75C82.3423 17.476 83 18.6612 83 20V20.2149M81.0001 16.5352L81.5 10C81.5 7.51472 79.4853 5.5 77 5.5H68C65.5147 5.5 63.5 7.51472 63.5 10V22C63.5 24.4853 65.5147 26.5 68 26.5H77C79.4853 26.5 81.5 24.4853 81.5 22V20.719C82.041 20.6516 82.5484 20.4761 83 20.2149M81.0001 16.5352V15.4648V16.5352ZM83 20.2149V22C83 25.3137 80.3137 28 77 28H68C64.6863 28 62 25.3137 62 22V10C62 6.68629 64.6863 4 68 4H77C80.3137 4 83 6.68629 83 10V11.7858C83.3002 11.9591 83.5792 12.1722 83.8285 12.4215C84.5787 13.1717 85.0001 14.1891 85.0001 15.25L85.0001 16.75C85.0001 18.2306 84.1957 19.5233 83 20.2149Z" fill="#789594" stroke="#082020" stroke-width="8" stroke-linejoin="round"/>
<path fill-rule="evenodd" clip-rule="evenodd" d="M77 9.5H68C67.7239 9.5 67.5 9.72386 67.5 10V22C67.5 22.2761 67.7239 22.5 68 22.5H77C77.2761 22.5 77.5 22.2761 77.5 22V20H79V22C79 23.1046 78.1046 24 77 24H68C66.8954 24 66 23.1046 66 22V10C66 8.89543 66.8954 8 68 8H77C78.1046 8 79 8.89543 79 10V12H77.5V10C77.5 9.72386 77.2761 9.5 77 9.5ZM73.9417 19.2004L72.8811 20.261L70.0502 17.4302C69.2692 16.6492 69.2692 15.3828 70.0502 14.6018L72.8971 11.7549L73.9578 12.8156L71.5234 15.25L81.0001 15.25L81.0001 16.75H71.4913L73.9417 19.2004Z" fill="#20C580"/>
</svg>
