<svg width="88" height="84" viewBox="0 0 88 84" fill="none" xmlns="http://www.w3.org/2000/svg">
<rect x="6" y="12" width="68" height="69" rx="22" fill="#F2B824"/>
<path fill-rule="evenodd" clip-rule="evenodd" d="M65.2374 44.0838C65.8108 44.5492 66.198 45.205 66.3287 45.9319C66.3541 46.1434 66.3568 46.357 66.3367 46.5691C66.2809 46.7364 66.2809 46.8718 66.2809 47.0232C66.2344 47.3168 66.1678 47.6069 66.0818 47.8914C65.9062 48.4851 65.6373 49.0471 65.2852 49.5563C65.2192 49.6523 65.1352 49.7617 65.0773 49.8372C65.0583 49.862 65.0421 49.8831 65.0303 49.8988C65.0322 49.9105 65.037 49.9272 65.0431 49.9487C65.0621 50.0157 65.094 50.1285 65.094 50.2732C65.1877 50.8551 65.2144 51.4458 65.1737 52.0337C65.0948 53.1698 64.8255 54.2847 64.3771 55.3316C63.93 56.4262 63.2282 57.3984 62.3299 58.1674L62.2263 58.255L62.0829 58.3108C60.9722 58.7231 59.8327 59.0533 58.6735 59.2985C57.481 59.5769 56.2571 59.6974 55.0331 59.657H54.9376H54.826C52.2953 58.8424 49.6828 58.3081 47.0354 58.0638C46.3148 58.0144 45.5987 57.9133 44.8926 57.7611C44.1766 57.572 43.474 57.3352 42.7896 57.0522C41.7221 56.6698 40.6312 56.3558 39.5237 56.1122C39.003 56.8397 38.7625 57.7308 38.8465 58.6215C38.9255 59.6019 39.8089 61.2889 40.4416 62.4972C40.5749 62.7517 40.697 62.9849 40.7982 63.1859C41.5102 64.765 41.7688 66.511 41.5451 68.2287C41.3214 69.9464 40.6243 71.5681 39.5316 72.9122C37.8075 69.3072 34.5748 67.5963 31.68 66.0642C27.5129 63.8587 24.0459 62.0237 26.7863 55.4431C27.5613 53.5185 28.0407 51.4031 28.4334 49.6704C28.7673 48.1974 29.0384 47.0011 29.3752 46.4337V46.4815C29.1513 47.7997 29.1513 49.1462 29.3752 50.4644C29.48 51.0822 29.7134 51.6711 30.0602 52.193C30.4211 52.6685 30.9063 53.0351 31.4622 53.2525C32.6638 53.7284 33.9324 54.0133 35.2221 54.0969C35.8832 54.1924 36.5444 54.1924 37.2135 54.1924H37.2135C37.5673 54.1897 37.921 54.2057 38.273 54.2402C38.6235 54.2721 38.982 54.3119 39.3325 54.3677C40.722 54.5921 42.0912 54.9277 43.4269 55.3714C44.6262 55.8474 45.8975 56.1167 47.1868 56.168C49.9269 56.3826 52.6325 56.9173 55.2482 57.7611C56.2947 57.7972 57.342 57.7171 58.3708 57.5222C58.6292 57.4727 58.8837 57.4156 59.1371 57.3589C59.2509 57.3333 59.3645 57.3079 59.4781 57.2832C61.2704 56.7575 63.3176 53.9774 60.9757 54.2402C60.3253 54.2708 59.6782 54.3507 59.04 54.4792C58.462 54.5972 58.0081 54.7054 57.6252 54.7968C56.4564 55.0756 55.947 55.1971 54.5791 54.9571C53.6134 54.6225 52.6101 54.4085 51.5919 54.3199C52.445 53.771 53.4576 53.5242 54.4676 53.6189C55.2138 53.7132 55.9706 53.6809 56.706 53.5233C57.0773 53.4172 57.456 53.213 57.8651 52.9924C58.1933 52.8154 58.5411 52.6278 58.9205 52.4718C60.0014 52.131 61.1339 51.9827 62.2661 52.0337C62.5487 51.7362 62.7572 51.3764 62.8749 50.9834C62.9925 50.5904 63.0159 50.1751 62.9432 49.7714C62.7142 49.4232 62.3657 49.1711 61.9634 49.0624C61.8048 49.0273 61.6032 48.9882 61.3727 48.9435C60.191 48.7142 58.2519 48.3379 57.4787 47.6047C56.9449 47.0949 56.6582 45.5415 58.5381 45.1114C59.5321 44.9365 60.5456 44.9016 61.5492 45.0078C61.9793 45.0556 63.1504 45.1671 63.4212 44.9441C63.2387 44.3117 61.1746 43.1817 59.1196 42.0568C57.3178 41.0704 55.5228 40.0878 55.0093 39.4477C52.7219 37.1169 50.8015 34.4525 49.3137 31.5455C48.8313 30.33 47.9182 29.3347 46.7487 28.7495C48.1383 28.6478 49.5166 29.0619 50.6201 29.9125C50.7794 30.0446 50.9823 30.4066 51.2422 30.8705C51.9701 32.1696 53.1456 34.2673 55.065 34.3495C55.2673 34.3689 55.471 34.3332 55.6545 34.246C54.7046 33.3499 54.0631 32.2689 53.4623 31.2565C52.5515 29.7217 51.7343 28.3447 50.0784 28.0087C50.0535 27.9989 50.0287 27.9892 50.004 27.9796C49.6261 27.8315 49.2719 27.6928 48.8756 27.4909L47.7524 26.9333L45.5219 25.85C44.05 25.1386 42.5333 24.5239 40.9814 24.0098C39.4464 23.5057 37.8634 23.1613 36.2576 22.9822C35.9071 22.9424 35.4372 22.8946 35.1106 22.8946C34.803 22.8957 34.5 22.9693 34.2264 23.1097C34.0362 23.1893 33.8191 23.3008 33.6008 23.4129C33.4259 23.5027 33.2503 23.5929 33.0872 23.6673C33.0166 23.6996 32.9457 23.7318 32.8747 23.7641C32.5771 23.8994 32.2773 24.0357 31.988 24.1771C30.5325 24.8813 29.1594 25.7442 27.8935 26.7501C26.9437 27.4203 26.1097 28.2409 25.4241 29.1797C26.6216 29.0928 27.8243 29.2472 28.9609 29.6337C27.2339 29.7163 25.5418 30.1495 23.9874 30.9068C22.4331 31.6641 21.0492 32.7297 19.9197 34.0388C17.8725 36.2295 16.2793 47.4055 18.5974 50.3609C19.729 49.8311 21.2591 47.2424 22.9979 44.3007C25.6775 39.7672 28.8527 34.3953 31.8286 34.4292C30.0363 36.0303 28.6503 40.3318 27.2642 45.1512C26.149 49.0624 22.3652 57.9842 19.9754 58.1992C19.0434 58.255 18.7009 57.8089 18.0716 56.9008L17.5459 56.1839C16.6269 54.9066 15.927 53.4851 15.4748 51.9779C15.0573 50.5023 14.8062 48.9847 14.726 47.4533C14.6449 45.9473 14.6795 44.4374 14.8295 42.9367C14.9911 41.4495 15.2412 39.9731 15.5783 38.5156C15.9139 37.0568 16.3477 35.6224 16.8768 34.2221C17.0202 33.8636 17.1635 33.5131 17.3467 33.1546C17.4397 32.9538 17.5462 32.7596 17.6654 32.5731C17.8024 32.386 17.9542 32.2102 18.1194 32.0474C18.7007 31.4948 19.3578 31.0281 20.0711 30.6613C21.1146 30.117 22.2265 29.7151 23.3769 29.4665C23.7405 28.6509 24.2387 27.9023 24.8506 27.252C25.4557 26.6181 26.114 26.0371 26.8181 25.5154C28.1685 24.4449 29.6324 23.526 31.1834 22.7751C31.5498 22.5839 32.0278 22.3689 32.3464 22.2335C32.5147 22.162 32.6918 22.0705 32.8872 21.9695C33.0619 21.8793 33.2511 21.7816 33.4617 21.6838C33.9373 21.4576 34.4565 21.338 34.9831 21.3333C35.4335 21.3345 35.8833 21.3665 36.3293 21.4289C38.0436 21.616 39.7336 21.9818 41.3717 22.5202C42.9848 23.058 44.5625 23.6965 46.0955 24.432L48.3578 25.5313L49.481 26.0889C49.7553 26.2372 50.1056 26.3717 50.4869 26.5181C50.5152 26.529 50.5437 26.5399 50.5723 26.551C50.9865 26.7103 51.3689 26.8775 51.7831 27.0847C52.0071 27.1995 52.2227 27.3299 52.4283 27.475C52.6243 27.6336 52.8105 27.8038 52.9859 27.9848C53.596 28.6484 54.1303 29.3778 54.5791 30.1595C54.6287 30.246 54.6779 30.3323 54.7269 30.4181C55.513 31.7948 56.2434 33.074 57.3831 33.8238L58.1797 34.3495C58.166 34.394 58.1473 34.4367 58.1239 34.477L57.9566 34.7876L57.1601 35.1939C57.0022 35.2703 56.8795 35.4043 56.8175 35.5683C56.7878 35.6418 56.7716 35.72 56.7697 35.7993V36.3091C56.7738 36.5783 56.739 36.8466 56.6662 37.1057C56.6336 37.21 56.5957 37.3023 56.5622 37.3836C56.5139 37.5012 56.475 37.596 56.475 37.6713C56.4521 37.752 56.4521 37.8375 56.475 37.9182C56.6994 38.9281 59.6371 40.6254 62.0633 42.0271C63.5984 42.9139 64.9287 43.6825 65.2374 44.0838ZM45.5855 37.0818C45.6731 38.189 44.3269 39.0573 42.7337 39.2405C40.6865 39.4396 39.651 38.3165 39.882 36.8985C40.113 35.4806 39.1172 35.4806 38.4481 36.2772C38.4332 36.2964 38.4126 36.3102 38.3892 36.3166C38.3658 36.3229 38.341 36.3215 38.3185 36.3125C38.2959 36.3035 38.277 36.2874 38.2644 36.2667C38.2519 36.2459 38.2464 36.2217 38.2489 36.1975C38.5835 33.8317 39.9696 33.7281 40.5909 33.7281C42.4598 33.8609 44.3114 34.1757 46.1192 34.6681C46.1695 34.6804 46.2153 34.7063 46.2517 34.7432C46.288 34.78 46.3134 34.8262 46.325 34.8766C46.3366 34.9271 46.3339 34.9797 46.3172 35.0287C46.3006 35.0777 46.2706 35.1211 46.2307 35.154C45.9613 35.3888 45.7595 35.6913 45.6461 36.0302C45.5326 36.3691 45.5117 36.7321 45.5855 37.0818Z" fill="#002825"/>
<mask id="path-3-outside-1_14408_288142" maskUnits="userSpaceOnUse" x="52" y="0.399902" width="36" height="28" fill="black">
<rect fill="white" x="52" y="0.399902" width="36" height="28"/>
<path fill-rule="evenodd" clip-rule="evenodd" d="M60.3799 13.409C62.7097 10.8446 66.4155 8.34053 69.9987 8.40098C73.5818 8.34053 77.2876 10.8446 79.6201 13.409C80.1266 13.9714 80.1266 14.8254 79.6201 15.3877C77.3392 17.898 73.6432 20.4598 69.9987 20.3985C66.3542 20.4598 62.659 17.898 60.3799 15.3877C59.8734 14.8254 59.8734 13.9714 60.3799 13.409ZM69.9734 18.8987C66.9782 18.9491 63.6763 16.7792 61.5077 14.3984C63.7202 11.9711 67.0331 9.85116 69.9734 9.90076C69.9902 9.90105 70.0071 9.90105 70.024 9.90076C72.964 9.85117 76.2767 11.9707 78.4923 14.3984C76.3217 16.7794 73.0191 18.9491 70.0239 18.8987C70.0071 18.8984 69.9903 18.8984 69.9734 18.8987ZM70 12.8999H70.0004C70.3982 12.8998 70.7798 13.0578 71.061 13.3391C71.3423 13.6205 71.5002 14.0021 71.5 14.3999L72.9996 14.4007L71.5 14.4003C71.4998 15.2287 70.8281 15.9 69.9997 15.8999C69.1714 15.8998 68.4999 15.2281 68.5 14.3998C68.5001 13.5714 69.1716 12.8999 70 12.8999ZM72.1218 12.2786C72.6845 12.8415 73.0004 13.6048 73 14.4007C72.9996 16.0575 71.6562 17.4002 69.9995 17.3999C68.3427 17.3996 66.9999 16.0564 67 14.3996C67.0001 12.7429 68.3433 11.3999 70 11.3999C70.7959 11.3997 71.5592 11.7158 72.1218 12.2786Z"/>
</mask>
<path d="M60.3799 13.409L54.4586 8.0296C54.451 8.038 54.4433 8.04642 54.4357 8.05486L60.3799 13.409ZM69.9987 8.40098L69.8637 16.3998C69.9537 16.4014 70.0437 16.4014 70.1336 16.3998L69.9987 8.40098ZM79.6201 13.409L85.5643 8.05486C85.5556 8.04529 85.547 8.03575 85.5383 8.02623L79.6201 13.409ZM79.6201 15.3877L85.541 20.7676C85.5487 20.7591 85.5565 20.7505 85.5643 20.7419L79.6201 15.3877ZM69.9987 20.3985L70.1333 12.3996C70.0435 12.3981 69.9538 12.3981 69.8641 12.3996L69.9987 20.3985ZM60.3799 15.3877L54.4357 20.7419C54.4428 20.7497 54.4499 20.7575 54.4569 20.7653L60.3799 15.3877ZM69.9734 18.8987L70.108 26.8975L70.1081 26.8975L69.9734 18.8987ZM61.5077 14.3984L55.5953 9.0092C52.8125 12.0621 52.8117 16.7317 55.5934 19.7856L61.5077 14.3984ZM69.9734 9.90076L70.1083 1.9019L70.1083 1.9019L69.9734 9.90076ZM70.024 9.90076L69.889 1.9019L69.889 1.9019L70.024 9.90076ZM78.4923 14.3984L84.4043 19.7881C87.1894 16.733 87.1882 12.0591 84.4014 9.00556L78.4923 14.3984ZM70.0239 18.8987L69.8893 26.8975L69.8893 26.8975L70.0239 18.8987ZM70.0004 12.8999L70.0004 20.8999L70.0025 20.8999L70.0004 12.8999ZM71.5 14.3999L63.5 14.3956C63.4976 18.8139 67.0775 22.3975 71.4957 22.3999L71.5 14.3999ZM72.9996 14.4007L72.9974 22.4007C77.4153 22.4019 80.9978 18.8218 80.9996 14.4039C81.0013 9.98604 77.4217 6.40306 73.0038 6.4007L72.9996 14.4007ZM71.5 14.4003L71.5021 6.4003C69.3804 6.39974 67.3453 7.24205 65.8447 8.74194C64.344 10.2418 63.5006 12.2764 63.5 14.3982L71.5 14.4003ZM69.9997 15.8999L69.9983 23.8999L69.9983 23.8999L69.9997 15.8999ZM68.5 14.3998L76.5 14.4005L76.5 14.4005L68.5 14.3998ZM72.1218 12.2786L66.4642 17.9347L66.4642 17.9347L72.1218 12.2786ZM73 14.4007L65 14.3964L65 14.3986L73 14.4007ZM70 11.3999L70 19.3999L70.0021 19.3999L70 11.3999ZM66.3012 18.7885C66.9612 18.062 67.813 17.3603 68.6481 16.8895C69.5239 16.3957 69.9337 16.401 69.8637 16.3998L70.1336 0.402113C63.1631 0.284526 57.414 4.77653 54.4586 8.0296L66.3012 18.7885ZM70.1336 16.3998C70.0636 16.401 70.4735 16.3957 71.3502 16.8898C72.186 17.361 73.0394 18.0635 73.7019 18.7918L85.5383 8.02623C82.5828 4.77675 76.8342 0.284527 69.8637 0.402113L70.1336 16.3998ZM73.676 18.7632C71.4413 16.2823 71.4413 12.5144 73.676 10.0335L85.5643 20.7419C88.8119 17.1364 88.8119 11.6604 85.5643 8.05486L73.676 18.7632ZM73.6993 10.0078C73.0495 10.7229 72.2026 11.4276 71.3664 11.9031C70.4921 12.4002 70.0784 12.3987 70.1333 12.3996L69.8641 28.3973C76.9282 28.5162 82.6703 23.9269 85.541 20.7676L73.6993 10.0078ZM69.8641 12.3996C69.9191 12.3987 69.5058 12.4003 68.6324 11.9035C67.797 11.4284 66.9512 10.7243 66.3028 10.0101L54.4569 20.7653C57.327 23.9265 63.0685 28.5162 70.1333 28.3973L69.8641 12.3996ZM66.324 10.0335C68.5587 12.5144 68.5587 16.2823 66.324 18.7632L54.4357 8.05486C51.1881 11.6604 51.1881 17.1364 54.4357 20.7419L66.324 10.0335ZM69.8388 10.8998C70.2441 10.893 70.0947 11.0082 69.3755 10.6005C68.7185 10.2281 68.0012 9.64713 67.4219 9.0112L55.5934 19.7856C57.1828 21.5304 59.2007 23.2248 61.4856 24.5199C63.7084 25.7798 66.7075 26.9548 70.108 26.8975L69.8388 10.8998ZM67.4201 19.7876C68.0079 19.1427 68.7295 18.5643 69.3861 18.1953C70.1082 17.7897 70.2558 17.9067 69.8384 17.8996L70.1083 1.9019C66.7507 1.84526 63.7717 2.99743 61.5491 4.24612C59.2611 5.53158 57.22 7.22676 55.5953 9.0092L67.4201 19.7876ZM69.8384 17.8996C69.9452 17.9014 70.0521 17.9014 70.1589 17.8996L69.889 1.9019C69.9621 1.90067 70.0352 1.90067 70.1083 1.9019L69.8384 17.8996ZM70.1589 17.8996C69.7415 17.9067 69.8892 17.7896 70.612 18.1956C71.2694 18.5649 71.9927 19.1442 72.5832 19.7912L84.4014 9.00556C82.7763 7.22491 80.7354 5.53059 78.4475 4.24553C76.2251 2.99726 73.2464 1.84526 69.889 1.9019L70.1589 17.8996ZM72.5803 9.00871C71.9996 9.64574 71.2811 10.2273 70.6233 10.6001C69.9033 11.0081 69.7534 10.893 70.1585 10.8998L69.8893 26.8975C73.2895 26.9548 76.2886 25.78 78.5113 24.5205C80.7963 23.2258 82.8144 21.532 84.4043 19.7881L72.5803 9.00871ZM70.1586 10.8998C70.052 10.898 69.9454 10.898 69.8388 10.8998L70.1081 26.8975C70.0351 26.8988 69.9622 26.8988 69.8893 26.8975L70.1586 10.8998ZM70 20.8999H70.0004V4.8999H70V20.8999ZM70.0025 20.8999C68.2775 20.9004 66.623 20.2152 65.4034 18.9953L76.7186 7.68305C74.9365 5.90044 72.5189 4.89923 69.9983 4.8999L70.0025 20.8999ZM65.4034 18.9953C64.1838 17.7753 63.4991 16.1207 63.5 14.3956L79.5 14.4042C79.5013 11.8835 78.5008 9.46566 76.7186 7.68305L65.4034 18.9953ZM71.4957 22.3999L72.9953 22.4007L73.0038 6.4007L71.5043 6.3999L71.4957 22.3999ZM73.0017 6.4007L71.5021 6.4003L71.4979 22.4003L72.9974 22.4007L73.0017 6.4007ZM63.5 14.3982C63.501 10.8085 66.4115 7.89927 70.0012 7.8999L69.9983 23.8999C75.2447 23.9008 79.4986 19.6488 79.5 14.4024L63.5 14.3982ZM70.0012 7.8999C73.5908 7.90054 76.5003 10.8108 76.5 14.4005L60.5 14.3991C60.4995 19.6454 64.7519 23.899 69.9983 23.8999L70.0012 7.8999ZM76.5 14.4005C76.4997 17.9901 73.5896 20.8999 70 20.8999V4.8999C64.7536 4.8999 60.5005 9.15268 60.5 14.3991L76.5 14.4005ZM66.4642 17.9347C65.526 16.9963 64.9993 15.7234 65 14.3964L81 14.405C81.0016 11.4863 79.843 8.68663 77.7794 6.62253L66.4642 17.9347ZM65 14.3986C65.0007 11.6373 67.2396 9.39941 70.0009 9.3999L69.998 25.3999C76.0728 25.401 80.9984 20.4776 81 14.4028L65 14.3986ZM70.0009 9.3999C72.7621 9.40039 75.0002 11.6391 75 14.4003L59 14.3989C58.9995 20.4737 63.9233 25.3988 69.998 25.3999L70.0009 9.3999ZM75 14.4003C74.9998 17.1616 72.7613 19.3999 70 19.3999V3.3999C63.9253 3.3999 59.0005 8.32417 59 14.3989L75 14.4003ZM70.0021 19.3999C68.6751 19.4003 67.4024 18.8732 66.4642 17.9347L77.7794 6.62253C75.7159 4.55843 72.9166 3.39912 69.9979 3.3999L70.0021 19.3999Z" fill="#092221" mask="url(#path-3-outside-1_14408_288142)"/>
<path fill-rule="evenodd" clip-rule="evenodd" d="M60.3799 13.409C62.7097 10.8446 66.4155 8.34053 69.9987 8.40098C73.5818 8.34053 77.2876 10.8446 79.6201 13.409C80.1266 13.9714 80.1266 14.8254 79.6201 15.3877C77.3392 17.898 73.6432 20.4598 69.9987 20.3985C66.3542 20.4598 62.659 17.898 60.3799 15.3877C59.8734 14.8254 59.8734 13.9714 60.3799 13.409ZM69.9734 18.8987C66.9782 18.9491 63.6763 16.7792 61.5077 14.3984C63.7202 11.9711 67.0331 9.85116 69.9734 9.90076C69.9902 9.90105 70.0071 9.90105 70.024 9.90076C72.964 9.85117 76.2767 11.9707 78.4923 14.3984C76.3217 16.7794 73.0191 18.9491 70.0239 18.8987C70.0071 18.8984 69.9903 18.8984 69.9734 18.8987ZM70 12.8999H70.0004C70.3982 12.8998 70.7798 13.0578 71.061 13.3391C71.3423 13.6205 71.5002 14.0021 71.5 14.3999L72.9996 14.4007L71.5 14.4003C71.4998 15.2287 70.8281 15.9 69.9997 15.8999C69.1714 15.8998 68.4999 15.2281 68.5 14.3998C68.5001 13.5714 69.1716 12.8999 70 12.8999ZM72.1218 12.2786C72.6845 12.8415 73.0004 13.6048 73 14.4007C72.9996 16.0575 71.6562 17.4002 69.9995 17.3999C68.3427 17.3996 66.9999 16.0564 67 14.3996C67.0001 12.7429 68.3433 11.3999 70 11.3999C70.7959 11.3997 71.5592 11.7158 72.1218 12.2786Z" fill="#F2B824"/>
</svg>
