<svg fill="none" height="24" viewBox="0 0 24 24" width="24" xmlns="http://www.w3.org/2000/svg" xmlns:xlink="http://www.w3.org/1999/xlink"><mask id="a" fill="#fff"><path d="m3.4805 15.2122c.31516-.7354 1.03824-1.2122 1.83829-1.2122h13.36241c.8001 0 1.5231.4768 1.8383 1.2122l1.2857 3c.5656 1.3197-.4024 2.7878-1.8383 2.7878h-15.93382c-1.43583 0-2.40389-1.4681-1.83829-2.7878z" fill="#fff"/></mask><mask id="b" fill="#fff"><path clip-rule="evenodd" d="m8.82929 5c-.41183-1.16519-1.52307-2-2.82929-2-1.65685 0-3 1.34315-3 3 0 .54643.14609 1.05874.40135 1.5-.25526.44126-.40135.95357-.40135 1.5 0 1.6569 1.34315 3 3 3 1.30622 0 2.41746-.8348 2.82929-2h6.34141c.4118 1.1652 1.5231 2 2.8293 2 1.6569 0 3-1.3431 3-3 0-.54643-.1461-1.05874-.4013-1.5.2552-.44126.4013-.95357.4013-1.5 0-1.65685-1.3431-3-3-3-1.3062 0-2.4175.83481-2.8293 2z" fill="#fff" fill-rule="evenodd"/></mask><path d="m3.4805 15.2122c.31516-.7354 1.03824-1.2122 1.83829-1.2122h13.36241c.8001 0 1.5231.4768 1.8383 1.2122l1.2857 3c.5656 1.3197-.4024 2.7878-1.8383 2.7878h-15.93382c-1.43583 0-2.40389-1.4681-1.83829-2.7878z" mask="url(#a)" stroke="#99a8a7" stroke-width="3"/><path d="m8.82929 5-1.41426.49987c.21186.59939.77854 1.00013 1.41426 1.00013zm-5.42794 2.5 1.29841.75109c.26878-.46465.26878-1.03752 0-1.50218zm5.42794 2.5v-1.5c-.63572 0-1.2024.40074-1.41426 1.00013zm6.34141 0 1.4143-.49987c-.2119-.59939-.7786-1.00013-1.4143-1.00013zm5.428-2.5-1.2985-.75109c-.2687.46466-.2687 1.03753 0 1.50218zm-5.428-2.5v1.5c.6357 0 1.2024-.40074 1.4143-1.00013zm-4.9271-.49987c-.61709-1.74576-2.28193-3.00013-4.2436-3.00013v3c.65077 0 1.2084.41525 1.41503.99987zm-4.2436-3.00013c-2.48528 0-4.5 2.01472-4.5 4.5h3c0-.82843.67157-1.5 1.5-1.5zm-4.5 4.5c0 .81715.21917 1.58767.60294 2.25109l2.59682-1.50218c-.12675-.2191-.19976-.4732-.19976-.74891zm.60294.74891c-.38377.66342-.60294 1.43393-.60294 2.25109h3c0-.27571.07301-.5298.19976-.74891zm-.60294 2.25109c0 2.4853 2.01472 4.5 4.5 4.5v-3c-.82843 0-1.5-.67157-1.5-1.5zm4.5 4.5c1.96167 0 3.62651-1.2544 4.2436-3.0001l-2.82857-.99977c-.20663.58467-.76426.99987-1.41503.99987zm9.1707-5h-6.34141v3h6.34141zm2.8293 2c-.6508 0-1.2084-.4152-1.415-.99987l-2.8286.99977c.6171 1.7457 2.2819 3.0001 4.2436 3.0001zm1.5-1.5c0 .82843-.6716 1.5-1.5 1.5v3c2.4853 0 4.5-2.0147 4.5-4.5zm-.1998-.74891c.1268.21911.1998.4732.1998.74891h3c0-.81716-.2192-1.58767-.6029-2.25109zm.1998-2.25109c0 .27571-.073.52981-.1998.74891l2.5969 1.50218c.3837-.66342.6029-1.43394.6029-2.25109zm-1.5-1.5c.8284 0 1.5.67157 1.5 1.5h3c0-2.48528-2.0147-4.5-4.5-4.5zm-1.415.99987c.2066-.58462.7642-.99987 1.415-.99987v-3c-1.9617 0-3.6265 1.25437-4.2436 3.00013zm-7.75571 1.00013h6.34141v-3h-6.34141z" fill="#99a8a7" mask="url(#b)"/></svg>