<svg width="12" height="12" viewBox="0 0 12 12" fill="none" xmlns="http://www.w3.org/2000/svg">
<path fill-rule="evenodd" clip-rule="evenodd" d="M0 12L11.531 2.39794C11.6723 2.27479 11.7867 2.12394 11.8672 1.95474C11.9478 1.78553 11.9927 1.60159 11.9992 1.41431C12.0057 1.22703 11.9736 1.04041 11.905 0.866022C11.8364 0.691636 11.7327 0.533209 11.6003 0.400559C11.4677 0.267917 11.3091 0.163975 11.1346 0.0952089C10.96 0.0264417 10.7731 -0.00568191 10.5856 0.000822664C10.3982 0.00732725 10.214 0.0523222 10.0446 0.13302C9.87521 0.213718 9.72423 0.32839 9.60105 0.469906L0 12ZM5.56215 1.7719L0.707465 5.41265L4.34849 0.558324C4.42296 0.459073 4.51787 0.376968 4.62681 0.317551C4.73574 0.258134 4.85619 0.22279 4.97996 0.213915C5.10371 0.20504 5.22794 0.222837 5.34426 0.266103C5.46053 0.30937 5.5662 0.377099 5.65407 0.464709C5.74209 0.552468 5.8102 0.658124 5.85376 0.774518C5.89737 0.890907 5.91542 1.01532 5.90667 1.1393C5.89797 1.26327 5.86271 1.38393 5.80325 1.49308C5.74384 1.60223 5.66157 1.69732 5.56215 1.7719ZM11.4404 7.65131L6.58565 11.2921L10.2267 6.43771C10.3012 6.33844 10.3961 6.25633 10.505 6.19692C10.614 6.1375 10.7344 6.10215 10.8582 6.09329C10.9819 6.08439 11.1061 6.1022 11.2224 6.1455C11.3387 6.18876 11.4444 6.25648 11.5323 6.3441C11.6203 6.43186 11.6884 6.53754 11.732 6.65391C11.7756 6.77028 11.7936 6.89471 11.7849 7.01868C11.7762 7.14266 11.7409 7.26328 11.6814 7.37246C11.622 7.48163 11.5398 7.5767 11.4404 7.65131Z" fill="#D6EAE9"/>
</svg>
