<svg width="46" height="62" viewBox="0 0 46 62" fill="none" xmlns="http://www.w3.org/2000/svg">
<path fill-rule="evenodd" clip-rule="evenodd" d="M29.4996 0H4C1.79086 0 0 1.79086 0 4V58C0 60.2091 1.79086 62 4 62H42C44.2091 62 46 60.2091 46 58V16.1829L34.9996 16.1829C31.962 16.1829 29.4996 13.7204 29.4996 10.6829L29.4996 0ZM32.4996 1.62136L44.0611 13.1829H34.9996C33.6189 13.1829 32.4996 12.0636 32.4996 10.6829V1.62136ZM35 29C35 35.6274 29.6274 41 23 41C16.3726 41 11 35.6274 11 29C11 22.3726 16.3726 17 23 17C29.6274 17 35 22.3726 35 29ZM10.271 53.204V47.6H12.203V53.192C12.203 54.908 10.979 56.12 9.19095 56.12C7.55895 56.12 6.39495 55.112 6.22695 53.624L8.05095 53.3C8.08695 53.9 8.45895 54.5 9.20295 54.5C9.94695 54.5 10.271 53.912 10.271 53.204ZM17.0673 49.124C16.3953 49.124 15.9753 49.472 15.9753 49.94C15.9753 50.516 16.6353 50.72 17.4393 50.924C17.4786 50.9339 17.5183 50.9439 17.5583 50.9539C18.8211 51.2708 20.3433 51.6527 20.3433 53.444C20.3433 55.148 18.9513 56.12 17.1873 56.12C15.5073 56.12 14.3193 55.232 13.9713 53.84L15.7593 53.528C15.8793 54.032 16.3713 54.464 17.2593 54.464C18.0273 54.464 18.4713 54.14 18.4713 53.612C18.4713 52.976 17.8233 52.724 17.0193 52.508C16.9315 52.4832 16.842 52.4585 16.7514 52.4335C15.5283 52.0966 14.1033 51.704 14.1033 50.084C14.1033 48.392 15.6633 47.48 17.0913 47.48C18.3393 47.48 19.7553 48.188 20.1273 49.7L18.3753 50.012C18.1593 49.4 17.6553 49.124 17.0673 49.124ZM21.864 51.8C21.864 49.292 23.64 47.48 26.148 47.48C28.668 47.48 30.432 49.292 30.432 51.8C30.432 54.308 28.668 56.12 26.148 56.12C23.64 56.12 21.864 54.308 21.864 51.8ZM23.796 51.8C23.796 53.288 24.648 54.5 26.148 54.5C27.648 54.5 28.5 53.288 28.5 51.8C28.5 50.312 27.648 49.1 26.148 49.1C24.648 49.1 23.796 50.312 23.796 51.8ZM37.3581 52.784V47.6H39.2901V56H37.2501L34.1661 50.828V56H32.2341V47.6H34.2741L37.3581 52.784Z" fill="#315A5A"/>
<path fill-rule="evenodd" clip-rule="evenodd" d="M24 28L24 23H22L22 28L17 28V30L22 30L22 35L24 35L24 30L29 30V28L24 28Z" fill="#315A5A"/>
</svg>
