<svg width="32" height="32" viewBox="0 0 32 32" fill="none" xmlns="http://www.w3.org/2000/svg">
<path fill-rule="evenodd" clip-rule="evenodd" d="M14.5002 14.7172V17.0113L13.5 17.5891C13.1909 17.7682 13.0007 18.0987 13.0007 18.4562C13.0007 18.8138 13.1909 19.1443 13.5 19.3234L14.5002 19.9012L14.5002 20.6079L13.5 21.1857C13.1906 21.3646 13 21.6951 13 22.0529C13 22.4106 13.1906 22.7411 13.5 22.92L14.4997 23.4983C14.4999 24.3278 15.1715 25.0001 16 25C16.8285 24.9999 17.4999 24.3273 17.4998 23.4978V14.7172C19.2745 13.9984 20.2916 12.1213 19.926 10.2398C19.5603 8.35825 17.9144 7 16 7C14.0856 7 12.4397 8.35825 12.074 10.2398C11.7084 12.1213 12.7255 13.9984 14.5002 14.7172Z" stroke="#81ABA8" stroke-width="1.5" stroke-linecap="round" stroke-linejoin="round"/>
<circle cx="16" cy="9.75" r="0.75" fill="#81ABA8"/>
</svg>
