<svg width="24" height="24" viewBox="0 0 24 24" fill="none" xmlns="http://www.w3.org/2000/svg">
<path d="M14.8004 18.8841H14.7004V18.9841V19.9908V20.0908H14.8004H20H20.1V19.9908V15.4504V15.3504H20H18.9906H18.8906V15.4504V18.8841H14.8004ZM14.8004 3.9H14.7004V4V5.00674V5.10674H14.8004H18.8906V8.5406V8.6406H18.9906H20H20.1V8.5406V4V3.9H20H14.8004ZM11.183 8.5406V8.4406H11.083H10.0736H9.97364V8.5406V15.4502V15.5502H10.0736H14.6261H14.7261V15.4502V14.5421V14.4421H14.6261H11.183V8.5406ZM4 15.3504H3.9V15.4504V19.991V20.091H4H9.19955H9.29955V19.991V18.9841V18.8841H9.19955H5.10937V15.4504V15.3504H5.00937H4ZM4 3.9H3.9V4V8.5406V8.6406H4H5.00937H5.10937V8.5406V5.10674H9.19955H9.29955V5.00674V4V3.9H9.19955H4Z" fill="#B4CAC9" stroke="#B4CAC9" stroke-width="0.2"/>
</svg>
