<svg fill="none" height="247" viewBox="0 0 286 247" width="286" xmlns="http://www.w3.org/2000/svg"><path clip-rule="evenodd" d="m85.7267 185.323v-42.493c0-3.973-1.0688-5.39-5.7678-4.949v-2.028l10.4668-2.21c2.0427-.441 3.2823.529 3.2823 2.651v48.84c0 3.092 1.8657 3.621 4.4271 3.092v1.259c-1.0625 1.587-3.7251 2.563-6.2106 2.563-3.5163.013-6.1978-1.952-6.1978-6.725zm-65.6658-.617c0 3.268-1.8594 4.055-9.0502 4.685v2.116h27.258v-2.116c-7.1908-.624-9.1387-1.417-9.1387-4.685v-39.577c0-4.245.7083-5.302 7.0959-5.302 6.2232 0 8.266 1.857 10.7514 8.746h2.3021l-1.5052-11.221c-.0163-.134-.0594-.264-.1267-.381-.0674-.118-.1576-.221-.2655-.303-.1078-.082-.231-.142-.3624-.176-.1315-.034-.2684-.041-.4027-.022-1.3408.088-3.548.176-5.7679.176h-32.47553c-2.2325 0-4.42706-.088-5.69193-.176-.73362 0-1.17633.252-1.26487.882l-1.41667 11.221h2.30208c2.49812-6.889 4.54089-8.746 10.75142-8.746 6.3749 0 7.0074 1.057 7.0074 5.302zm46.8508-16.612c-19.2514 2.299-24.7536 7.336-24.7536 14.225 0 6.896 5.6793 9.729 11.5357 9.729 5.8563 0 11.1814-2.676 14.2867-6.454.6198-.794 1.3281-.794 1.3281.088.1771 4.156 2.574 6.366 6.2105 6.366 2.4855 0 5.0595-.976 6.122-2.563v-1.259c-2.574.529-4.3448 0-4.3448-3.092v-19.326c0-10.522-4.1741-14.93-14.6409-14.93-8.6075 0-17.8347 2.733-17.8347 9.446 0 2.562 1.3281 4.326 3.9907 4.326 2.4854 0 4.3511-1.587 4.3511-4.855 0-3.98 2.0365-6.367 7.0959-6.367 6.2991 0 9.0502 3.867 9.0502 10.164v1.946c0 1.851-.7968 2.38-2.3969 2.556zm2.3969 5.39v3.628c0 6.007-5.0595 10.421-11.0992 10.421-5.2303 0-7.6272-3.268-7.6272-6.889 0-4.068 2.7574-8.658 15.1785-9.987 2.9155-.353 3.5479.8 3.5479 2.827zm34.1644-30.654v42.493c0 4.773 2.643 6.738 6.198 6.725 2.485 0 5.141-.976 6.21-2.563v-1.259c-2.561.529-4.427 0-4.427-3.092v-48.84c0-2.122-1.239-3.092-3.282-2.651l-10.467 2.21v2.028c4.699-.441 5.768.976 5.768 4.949zm15.438 60.427c-.014-.602.097-1.201.325-1.759.228-.559.569-1.064 1.001-1.486s.946-.751 1.511-.968c.565-.216 1.168-.314 1.773-.289 3.019 0 3.447 2.1 3.833 3.995.318 1.56.608 2.982 2.289 2.982 2.043 0 3.795-2.916 5.06-6.008 1.777-4.59.708-8.305-.532-11.221l-10.751-26.769c-2.22-5.39-3.282-6.624-7.096-8.035v-2.034h18.454v2.034c-4.793 1.411-5.148 2.557-2.839 8.035l7.633 18.822c1.151 2.739 2.125 2.739 3.283-.088l3.725-9.635c5.767-14.483 4.167-15.742-1.063-17.134v-2.034h16.058v2.034c-5.148 1.411-6.565 2.733-8.608 8.035l-14.596 36.139c-2.751 6.889-5.237 11.127-11.802 11.127-4.73 0-7.658-2.38-7.658-5.743zm101.24-18.551v-41.259c0-3.268 1.866-4.149 5.496-4.678v-2.123h-20.137v2.123c3.637.529 5.591 1.41 5.591 4.678v16.499c0 2.116-1.24 3.003-3.371 3.003h-20.674c-2.132 0-3.283-.887-3.283-3.003v-16.499c0-3.268 1.86-4.149 5.502-4.678v-2.123h-20.143v2.123c3.605.529 5.503 1.41 5.503 4.678v41.259c0 3.268-1.866 4.055-5.503 4.685v2.116h20.124v-2.116c-3.642-.624-5.502-1.417-5.502-4.685v-16.077c0-2.122 1.151-3.003 3.194-3.003h20.87c2.018 0 3.283.881 3.283 3.003v16.077c0 3.268-1.954 4.055-5.591 4.685v2.116h20.143v-2.116c-3.605-.624-5.502-1.417-5.502-4.685zm8.139-13.161c0-12.991 9.759-20.673 20.675-20.673s20.586 7.594 20.586 20.497c0 12.902-9.753 20.692-20.675 20.692s-20.586-7.62-20.586-20.516zm32.653 3.18c0-11.398-5.692-21.202-14.021-21.202-5.856 0-10.03 4.678-10.03 14.659 0 11.398 5.692 21.121 14.021 21.121 5.768 0 10.03-4.597 10.03-14.578zm18.632-39.495c-3.371 0-5.502 2.563-5.502 6.63 0 3.735.723 7.66 1.554 12.175 1.056 5.732 2.288 12.415 2.436 20.866h2.928c.163-8.436 1.418-15.111 2.495-20.837.851-4.527 1.591-8.461 1.591-12.204 0-4.067-2.131-6.63-5.502-6.63zm-3.613 48.027c-.964.943-1.515 2.226-1.535 3.571-.018 1.017.269 2.017.824 2.871.555.855 1.353 1.525 2.292 1.927s1.976.516 2.981.328c1.004-.188 1.93-.669 2.658-1.382.729-.713 1.228-1.626 1.434-2.623s.11-2.032-.277-2.974c-.387-.941-1.047-1.747-1.895-2.314-.849-.568-1.847-.871-2.869-.871-1.351-.003-2.649.524-3.613 1.467z" fill="#d6eae9" fill-rule="evenodd"/><path d="m187.565 15.8026.677-6.88982c.02-.11497.082-.21902.172-.29399.091-.07496.205-.11604.323-.11604.119 0 .233.04108.324.11604.09.07497.151.17902.172.29399l.661 6.87422c.045.532.284 1.0299.671 1.4016.388.3717.899.592 1.439.6202l7.539.4511c.117.0205.222.0809.298.1705.076.0895.117.2026.117.3194s-.041.2299-.117.3194c-.076.0896-.181.1499-.298.1705l-7.555.451c-.536.0376-1.042.261-1.428.6309s-.627.8625-.681 1.391l-.661 6.8897c-.021.115-.082.2191-.173.2941-.091.0749-.205.116-.323.116s-.233-.0411-.324-.116c-.09-.075-.151-.1791-.172-.2941l-.661-6.8742c-.051-.5296-.292-1.0239-.678-1.3944-.387-.3705-.894-.5929-1.431-.6274l-7.54-.451c-.116-.0206-.222-.081-.298-.1705-.076-.0896-.117-.2026-.117-.3194s.041-.23.117-.3195c.076-.0896.182-.1499.298-.1705l7.54-.4666c.537-.0277 1.046-.2459 1.433-.6144s.627-.8626.676-1.3918z" fill="#b8d1d0"/><path d="m175.571 47.9497c1.897-.3259 3.832-.3835 5.745-.171.654.1205 1.33.0613 1.952-.1711l-.236-.2022c-4.517-3.8466-9.38-7.2772-14.529-10.2491-6.847-3.9504-11.459-13.8729-12.812-16.8746-1.071-2.3271-2.978-4.1783-5.352-5.1945 1.161-.0707 2.324.1241 3.396.5691 1.073.445 2.028 1.1284 2.79 1.997 1.196.9798 5.525 8.6473 7.76 8.865.798-.029 1.591-.149 2.361-.3577h.173l1.055-.2488h.11l.834-.2022 1.574-.451-.141-.0933c-2.393-1.5553-3.92-4.2148-5.588-7.0764-.878-1.5318-1.935-2.9568-3.148-4.2459-.339-.3613-.708-.6943-1.102-.9954-.404-.2914-.83-.5514-1.275-.7776-.819-.4044-1.574-.731-2.377-1.042-.803-.3111-1.574-.591-2.156-.9021l-2.22-1.08865-4.47-2.14626c-3.029-1.42523-6.14-2.67162-9.318-3.7326-3.233-1.05052-6.567-1.76973-9.948-2.14626-.873-.105917-1.75-.168199-2.629-.186628-1.044-.00754-2.077.215608-3.022.653178-.882.38882-1.574.80874-2.204 1.07313-.63.2644-1.574.6843-2.298 1.05757-3.064 1.455-5.957 3.23875-8.626 5.31899-1.389 1.02135-2.695 2.14983-3.903 3.37493-1.018 1.0702-1.881 2.2738-2.566 3.5771.721-.1303 1.454-.1877 2.188-.1711 2.503.145 4.973.6426 7.335 1.4775-2.204 0-13.6314-.6066-19.723 3.4371-1.1709.7788-2.1411 1.8174-2.8333 3.0328-.2518.4821-.5824 1.182-.9445 2.0529-.0457.1271-.0982.2517-.1573.3732-1.0548 2.7309-1.9121 5.5322-2.5657 8.3829-1.1762 4.9499-1.773 10.017-1.7787 15.1015v2.3485c0 .7932.1101 1.3219.1731 1.9907v.4199c.063.5806.1417 1.1561.2361 1.7263l.0945.5444c.2321 1.4012.5474 2.7878.9444 4.1525.7483 2.3657 1.8066 4.6244 3.1481 6.7187.6296.7621 1.2593 1.0731 1.8102.3577l.3935-.5443c.4565-.6377 1.1333-1.5553 1.9518-2.8617l1.0074-1.5553v-.0933l.9601-1.5552.2204-.3422c.7084-1.1353 1.574-2.3795 2.2981-3.717l.3306-.5444.9759-1.6485.2833-.4666 1.244-2.1307.299-.5132c.33-.591.661-1.1821 1.007-1.7731.11-.2177.236-.4354.362-.6531l1.275-2.3329c1.417-2.6284 2.802-5.3346 4.061-8.0252.614-1.2753 1.244-2.535 1.92-3.7792.977-1.8892 2.12-3.6899 3.416-5.3812.669-.8708 1.446-1.6546 2.314-2.3329.856-.6986 1.914-1.1122 3.022-1.182-3.526 3.1105-6.516 11.6022-9.003 20.9337-1.574 6.0189-.819 8.9428-5.462 23.1267-4.6124 13.904-.378 18.9741 5.257 23.0022 11.695 7.9315 24.177 8.0095 25.531 18.6635l.724 5.583 2.928-4.821c1.05-1.766 1.88-3.652 2.471-5.615v-.264l2.377 1.742c1.488-2.715 2.105-5.812 1.771-8.8812-.335-3.0692-1.606-5.9654-3.644-8.3047.189.4044.377.8088.551 1.2287.721 1.6079 1.25 3.2939 1.574 5.0234.341 1.8862.2 3.8268-.41 5.6458l-.771 2.162-1.873-1.369c-.282-.199-.582-.371-.897-.513-.142 1.049-.352 2.088-.63 3.11-.535 1.786-1.291 3.499-2.251 5.102-1.857-14.6821-15.992-14.1844-24.161-20.2188-8.17-6.0344-8.815-13.2197-3.778-25.6462 1.538-3.8212 2.656-7.7942 3.337-11.851.142-.9176.315-1.8197.519-2.7217-.009-.1295-.009-.2594 0-.3888l.142-.6533c0 1.3998 0 2.784.22 4.1526.076 1.3211.341 2.625.787 3.8726.199.5363.504 1.028.898 1.4464.189.2021.409.3732.708.6687.213.235.439.4582.677.6688 1.002.7525 2.117 1.3455 3.305 1.7574 2.513.8672 5.125 1.421 7.776 1.6486 2.55.2955 5.147.3577 7.76.4199h.394c2.712.0156 5.403.4727 7.964 1.3531 2.291.7595 4.684 1.1737 7.099 1.2286 5.082.4836 10.099 1.4896 14.97 3.0017 2.076.062 4.153-.1207 6.186-.5444 1.432-.2799 2.849-.6531 4.25-1.0731 3.148-1.3219 5.32-4.9146 1.023-4.4324-1.011.0638-2.016.1989-3.007.4043-1.432.2799-2.865 1.0265-4.722 1.5552-1.747.3927-3.566.3446-5.289-.1399-1.507-.6017-3.1-.969-4.722-1.0887.758-.4261 1.602-.6811 2.471-.7465h2.503c1.475.1841 2.97.121 4.423-.1866 1.322-.3733 2.692-1.3687 4.376-2.0374 1.642-.6812 3.399-1.0506 5.179-1.0887h-.126 1.196c1.243-1.7108 2.298-3.546 1.889-5.1635-.481-.6416-1.152-1.1198-1.921-1.3686-.944-.3266-6.06-1.3531-7.775-2.9083-.63-1.0265-.016-3.0639 4.108-3.9193zm-27.089-20.5138c-.449.3899-.784.8907-.973 1.4509-.188.5603-.222 1.1599-.098 1.7374.142 1.8197-2.062 3.266-4.722 3.546-3.416.3733-5.241-1.5553-4.722-3.8571.897-3.7948-1.07-2.5506-2.393-1.0264-.026.0298-.061.0506-.1.0594s-.08.0052-.117-.0104c-.036-.0156-.067-.0423-.087-.0762-.021-.034-.03-.0735-.026-.1128.567-3.9037 2.88-4.0592 3.919-4.0592 3.124.2195 6.219.7404 9.24 1.5553.077.0311.143.0822.193.148.049.0657.08.1436.088.2251.008.0816-.007.1638-.042.2378-.036.0739-.091.137-.16.1822z" fill="#ef9c32"/><path d="m12.902 223.6v1.254h4.994v14.146h1.386v-14.146h4.994v-1.254zm18.7022 4.224c-1.958 0-3.3 1.32-3.872 2.684v-7.348h-1.298v15.84h1.298v-5.5c0-2.42 1.408-4.488 3.652-4.488 1.826 0 2.882 1.408 2.882 3.058v6.93h1.298v-7.172c0-2.068-1.606-4.004-3.96-4.004zm17.1265 5.852c0-3.256-1.892-5.874-5.214-5.874-3.256 0-5.346 2.552-5.346 5.742 0 3.256 2.156 5.676 5.456 5.676 2.266 0 3.938-1.166 4.884-3.234l-1.298-.242c-.682 1.496-1.98 2.288-3.63 2.288-2.398 0-4.048-1.694-4.136-4.07h9.284c0-.066 0-.22 0-.286zm-9.218-.836c.22-2.266 1.76-3.872 4.004-3.872 2.2 0 3.762 1.562 3.894 3.872zm30.4461-4.796-2.662 9.438-2.97-9.438h-1.144l-2.97 9.438-2.662-9.438h-1.32l3.256 10.956h1.408l2.86-9.13 2.882 9.13h1.386l3.278-10.956zm7.6627-.242c-2.222 0-4.158 1.298-4.51 3.432l1.298.22c.22-1.518 1.606-2.464 3.146-2.464 1.562 0 2.97.902 2.97 2.816v.396c-2.376.022-7.7-.022-7.7 3.696 0 2.046 1.65 3.322 3.652 3.322 2.09 0 3.366-1.1 4.048-2.596v2.376h1.32v-7.15c0-2.552-1.782-4.048-4.224-4.048zm2.904 6.27c0 2.046-1.54 3.96-3.74 3.96-1.364 0-2.662-.704-2.662-2.112 0-2.838 5.28-2.64 6.402-2.662zm5.8806 4.928v-15.84h-1.298v15.84zm4.6836 0v-15.84h-1.298v15.84zm13.2853-5.324c0-3.256-1.892-5.874-5.2137-5.874-3.256 0-5.346 2.552-5.346 5.742 0 3.256 2.156 5.676 5.456 5.676 2.2657 0 3.9377-1.166 4.8837-3.234l-1.298-.242c-.682 1.496-1.98 2.288-3.6297 2.288-2.398 0-4.048-1.694-4.136-4.07h9.2837c0-.066 0-.22 0-.286zm-9.2177-.836c.22-2.266 1.76-3.872 4.004-3.872 2.1997 0 3.7617 1.562 3.8937 3.872zm16.0867-3.696v-1.1h-2.376v-2.97l-1.276.22v2.75h-1.76v1.1h1.738v7.15c0 1.936.792 2.926 2.596 2.926.418 0 .792-.044 1.188-.132v-1.188c-.308.11-.66.132-.968.132-1.298 0-1.496-.616-1.496-1.914v-6.974zm21.148-1.1-2.662 9.438-2.97-9.438h-1.144l-2.97 9.438-2.662-9.438h-1.32l3.256 10.956h1.408l2.86-9.13 2.882 9.13h1.386l3.278-10.956zm13.298 5.632c0-3.256-1.892-5.874-5.214-5.874-3.256 0-5.346 2.552-5.346 5.742 0 3.256 2.156 5.676 5.456 5.676 2.266 0 3.938-1.166 4.884-3.234l-1.298-.242c-.682 1.496-1.98 2.288-3.63 2.288-2.398 0-4.048-1.694-4.136-4.07h9.284c0-.066 0-.22 0-.286zm-9.218-.836c.22-2.266 1.76-3.872 4.004-3.872 2.2 0 3.762 1.562 3.894 3.872zm11.951 6.16h1.298v-2.31c.814 1.672 2.464 2.53 4.268 2.53 3.036 0 5.192-2.486 5.192-5.698 0-3.19-2.156-5.698-5.214-5.698-1.76 0-3.432.836-4.246 2.508v-7.128h-1.298zm1.298-5.478c0-2.508 1.474-4.51 4.048-4.51 2.508 0 4.114 1.892 4.114 4.532s-1.628 4.488-4.092 4.488c-2.596 0-4.07-2.002-4.07-4.51zm11.842 1.122c0 2.926 2.464 4.576 5.082 4.576 2.596 0 5.148-1.65 5.148-4.576 0-1.848-1.254-3.344-2.948-3.872 1.452-.616 2.288-1.936 2.288-3.344 0-2.552-2.156-4.048-4.466-4.048-2.332 0-4.378 1.54-4.378 4.07l1.298.22c-.022-1.804 1.254-3.036 3.036-3.036 1.65 0 3.168 1.1 3.168 2.86 0 1.65-1.496 2.75-3.08 2.75h-1.166v1.232h1.144c1.826 0 3.762 1.144 3.762 3.146 0 2.09-1.892 3.344-3.828 3.344-2.046 0-3.784-1.342-3.784-3.564zm29.292-11.44h-1.298v7.128c-.814-1.672-2.486-2.508-4.246-2.508-3.058 0-5.214 2.508-5.214 5.698 0 3.212 2.156 5.698 5.192 5.698 1.804 0 3.454-.858 4.268-2.53v2.31h1.298zm-1.298 10.318c0 2.508-1.474 4.51-4.07 4.51-2.464 0-4.092-1.848-4.092-4.488s1.606-4.532 4.114-4.532c2.574 0 4.048 2.002 4.048 4.51zm14.592.154c0-3.256-1.892-5.874-5.214-5.874-3.256 0-5.346 2.552-5.346 5.742 0 3.256 2.156 5.676 5.456 5.676 2.266 0 3.938-1.166 4.884-3.234l-1.298-.242c-.682 1.496-1.98 2.288-3.63 2.288-2.398 0-4.048-1.694-4.136-4.07h9.284c0-.066 0-.22 0-.286zm-9.218-.836c.22-2.266 1.76-3.872 4.004-3.872 2.2 0 3.762 1.562 3.894 3.872zm12.677-2.002c0-1.232 1.298-1.892 2.508-1.892 1.276 0 2.398.726 2.662 2.046l1.276-.22c-.33-1.892-2.112-2.992-3.96-2.992-1.958 0-3.762 1.232-3.762 3.19 0 2.178 2.222 2.728 3.52 3.014 2.046.462 3.212.858 3.212 2.112 0 1.43-1.54 1.936-2.706 1.936-1.474 0-2.684-.814-2.926-2.266l-1.276.198c.264 2.2 2.265 3.256 4.268 3.256 2.024 0 3.96-1.078 3.96-3.19 0-2.354-2.42-2.86-3.454-3.08-2.09-.462-3.322-.88-3.322-2.112zm19.271 2.838c0-3.256-1.892-5.874-5.214-5.874-3.256 0-5.346 2.552-5.346 5.742 0 3.256 2.156 5.676 5.456 5.676 2.266 0 3.938-1.166 4.884-3.234l-1.298-.242c-.682 1.496-1.98 2.288-3.63 2.288-2.398 0-4.048-1.694-4.136-4.07h9.284c0-.066 0-.22 0-.286zm-9.218-.836c.22-2.266 1.76-3.872 4.004-3.872 2.2 0 3.762 1.562 3.894 3.872zm17.143-4.972c-.154-.044-.352-.044-.528-.044-1.672 0-2.816.726-3.454 2.2v-1.98h-1.298v10.956h1.298v-5.94c0-2.464 1.21-4.246 3.982-4.026zm9.414.176-3.454 9.35-3.432-9.35h-1.364l4.18 10.956h1.276l4.158-10.956zm13.276 5.632c0-3.256-1.892-5.874-5.214-5.874-3.256 0-5.346 2.552-5.346 5.742 0 3.256 2.156 5.676 5.456 5.676 2.266 0 3.938-1.166 4.884-3.234l-1.298-.242c-.682 1.496-1.98 2.288-3.63 2.288-2.398 0-4.048-1.694-4.136-4.07h9.284c0-.066 0-.22 0-.286zm-9.218-.836c.22-2.266 1.76-3.872 4.004-3.872 2.2 0 3.762 1.562 3.894 3.872zm12.677-2.002c0-1.232 1.298-1.892 2.508-1.892 1.276 0 2.398.726 2.662 2.046l1.276-.22c-.33-1.892-2.112-2.992-3.96-2.992-1.958 0-3.762 1.232-3.762 3.19 0 2.178 2.222 2.728 3.52 3.014 2.046.462 3.212.858 3.212 2.112 0 1.43-1.54 1.936-2.706 1.936-1.474 0-2.684-.814-2.926-2.266l-1.276.198c.264 2.2 2.266 3.256 4.268 3.256 2.024 0 3.96-1.078 3.96-3.19 0-2.354-2.42-2.86-3.454-3.08-2.09-.462-3.322-.88-3.322-2.112zm10.692 8.228c.572 0 1.034-.484 1.034-1.056 0-.594-.462-1.056-1.034-1.056s-1.056.462-1.056 1.056c0 .572.484 1.056 1.056 1.056z" fill="#b4cac9"/></svg>