<svg width="142" height="50" viewBox="0 0 142 50" fill="none" xmlns="http://www.w3.org/2000/svg">
  <path
    d="M6.0498 39.2397C10.0011 38.8981 11.0253 38.4637 11.0253 36.6696V14.9503C11.0253 12.6223 10.6839 12.0408 7.1719 12.0408C3.7578 12.0408 2.63569 13.0589 1.26777 16.8417H0L0.780695 10.6834C0.830768 10.344 1.07431 10.1992 1.46352 10.1992C2.14634 10.2467 3.36631 10.2965 4.58629 10.2965H22.4398C23.6598 10.2965 24.8775 10.2467 25.6104 10.1992C25.9518 10.1992 26.1953 10.344 26.2431 10.6834L27.0739 16.8417H25.8061C24.4405 13.0589 23.3184 12.0408 19.902 12.0408C16.39 12.0408 16.0008 12.6223 16.0008 14.9503V36.6696C16.0008 38.4637 17.0728 38.8981 21.0241 39.2397V40.4026H6.0498V39.2397Z"
    fill="#CCD3D3" />
  <path
    d="M23.1704 35.3575C23.1704 31.5747 26.1953 28.8123 36.7813 27.5499C37.6599 27.4549 38.0992 27.163 38.0992 26.1449V25.0771C38.0992 21.6359 36.5856 19.5024 33.1237 19.5024C30.3423 19.5024 29.2202 20.8101 29.2202 22.9934C29.2202 24.7875 28.196 25.6608 26.8303 25.6608C25.3668 25.6608 24.6339 24.6902 24.6339 23.283C24.6339 19.5997 29.7073 18.0952 34.4392 18.0952C40.1954 18.0952 42.4874 20.5205 42.4874 26.2897V36.9095C42.4874 38.6064 43.4639 38.8959 44.8796 38.6064L45.0207 38.5769C45.0482 38.6982 45.0498 38.8239 45.0255 38.9458C45.0012 39.0678 44.9515 39.1834 44.8796 39.2851C44.2924 40.1584 42.8789 40.6901 41.5133 40.6901C39.5126 40.6901 38.1948 39.4797 38.0992 37.1991C38.0992 36.715 37.7077 36.715 37.3663 37.1516C35.6592 39.2376 32.7322 40.6901 29.5138 40.6901C26.2454 40.6901 23.1704 39.1403 23.1704 35.3575ZM38.0992 32.4955V30.5091C38.0992 29.3938 37.7578 28.7625 36.1463 28.9571C29.3181 29.6834 27.8045 32.206 27.8045 34.4367C27.8045 36.4231 29.1223 38.2172 32.0016 38.2172C35.3178 38.2172 38.0992 35.7942 38.0992 32.4955Z"
    fill="#CCD3D3" />
  <path
    d="M47.1216 37.0068V13.6744C47.1216 11.4934 46.5366 10.7174 43.951 10.9595V9.84409L49.7072 8.63143C50.8293 8.38935 51.5121 8.92329 51.5121 10.0862V36.9095C51.5121 38.6063 52.5363 38.8959 53.9521 38.6063L54.1797 38.5543C54.1915 38.8167 54.111 39.0751 53.9521 39.285C53.3671 40.1583 51.9036 40.69 50.5379 40.69C48.5851 40.69 47.1216 39.6244 47.1216 37.0068Z"
    fill="#CCD3D3" />
  <path
    d="M56.8791 37.0066V13.6742C56.8791 11.4932 56.2941 10.7172 53.7085 10.9593V9.84392L59.4602 8.64031C60.5982 8.39823 61.281 8.92311 61.281 10.095V36.9093C61.281 38.6061 62.3053 38.8957 63.7187 38.6061L63.9463 38.5541C63.9599 38.8168 63.8792 39.0757 63.7187 39.2848C63.1337 40.1581 61.6702 40.6898 60.3046 40.6898C58.3426 40.6898 56.8791 39.6242 56.8791 37.0066Z"
    fill="#CCD3D3" />
  <path
    d="M65.3779 46.8483C65.3779 45.3935 66.4499 44.3754 67.9135 44.3754C70.9384 44.3754 69.2313 48.2057 71.2798 48.2057C72.4019 48.2057 73.3783 46.6062 74.0611 44.9094C75.0353 42.389 74.4503 40.3506 73.7675 38.751L67.8543 24.0588C66.6343 21.1019 66.0493 20.4231 63.9508 19.6471V18.5317H74.0975V19.6471C71.4641 20.4231 71.2684 21.0543 72.5362 24.0588L76.731 34.3868C77.366 35.8913 77.9031 35.8913 78.5359 34.3393L80.5843 29.0543C83.7572 21.1019 82.8786 20.4231 79.9994 19.6471V18.5317H88.8215V19.6471C85.9923 20.4231 85.2116 21.1494 84.0918 24.0588L76.0413 43.8913C74.53 47.6741 73.1643 49.9998 69.5545 49.9998C66.9712 49.9998 65.3779 48.6922 65.3779 46.8483Z"
    fill="#CCD3D3" />
  <path
    d="M137.186 2.91889L137.459 0.0908615C137.463 0.0656118 137.475 0.0425389 137.495 0.0258569C137.514 0.00917487 137.539 0 137.565 0C137.59 0 137.615 0.00917487 137.635 0.0258569C137.654 0.0425389 137.667 0.0656118 137.671 0.0908615L137.939 2.91664C137.956 3.07445 138.028 3.2213 138.143 3.33166C138.258 3.44203 138.408 3.50892 138.567 3.5207L141.909 3.71979C141.934 3.72351 141.957 3.73617 141.974 3.75549C141.991 3.7748 142 3.79947 142 3.825C142 3.85052 141.991 3.87519 141.974 3.8945C141.957 3.91382 141.934 3.92648 141.909 3.9302L138.565 4.13608C138.406 4.14786 138.256 4.21475 138.141 4.32511C138.026 4.43548 137.954 4.58234 137.937 4.74015L137.664 7.56818C137.66 7.59343 137.647 7.6165 137.628 7.63318C137.608 7.64987 137.584 7.65904 137.558 7.65904C137.532 7.65904 137.507 7.64987 137.488 7.63318C137.469 7.6165 137.456 7.59343 137.452 7.56818L137.183 4.74241C137.166 4.58459 137.094 4.43774 136.979 4.32738C136.865 4.21702 136.715 4.15013 136.555 4.13834L133.205 3.94604C133.177 3.94604 133.149 3.93483 133.129 3.91489C133.109 3.89495 133.098 3.8679 133.098 3.8397C133.098 3.8115 133.109 3.78445 133.129 3.76451C133.149 3.74457 133.177 3.73337 133.205 3.73337L136.551 3.52975C136.712 3.51926 136.865 3.45209 136.981 3.3402C137.097 3.22832 137.17 3.079 137.186 2.91889V2.91889Z"
    fill="#CCD3D3" />
  <path fill-rule="evenodd" clip-rule="evenodd"
    d="M130.556 10.429C130.832 10.3817 131.112 10.3733 131.389 10.4041C131.484 10.4205 131.581 10.4119 131.672 10.3792L131.635 10.3498L131.465 10.2276L131.287 10.0964L130.604 9.57826L130.557 9.54371C130.459 9.47124 130.361 9.39894 130.265 9.33842L130.213 9.30675L130.106 9.26376C130.033 9.23208 129.962 9.19814 129.894 9.16194C129.676 9.04739 129.473 8.90517 129.291 8.73884C128.626 8.18224 127.878 6.83826 127.684 6.39932C127.528 6.06187 127.253 5.79352 126.91 5.64587C127.078 5.63593 127.246 5.66442 127.401 5.72914C127.556 5.79386 127.694 5.8931 127.805 6.0192C127.862 6.06634 127.968 6.21991 128.097 6.40549C128.358 6.78103 128.709 7.28768 128.927 7.30888C129.042 7.30466 129.157 7.2872 129.268 7.25684C129.443 7.21845 129.614 7.16391 129.778 7.09393C129.443 6.87043 129.226 6.49237 128.992 6.08626L128.984 6.07124C128.855 5.85 128.703 5.64359 128.529 5.45581C128.478 5.40416 128.425 5.35507 128.369 5.30874C128.31 5.26753 128.249 5.23049 128.185 5.19788C128.066 5.13905 127.957 5.09153 127.839 5.04628L127.814 5.03691L127.814 5.03688L127.814 5.03685C127.705 4.99531 127.605 4.95714 127.527 4.91505L127.208 4.75667L126.562 4.44443C126.124 4.23516 125.673 4.05379 125.212 3.90141C124.746 3.74857 124.264 3.64394 123.776 3.58917C123.746 3.5864 123.716 3.58336 123.687 3.58035C123.598 3.57106 123.511 3.56202 123.394 3.56202C123.243 3.56145 123.094 3.59389 122.957 3.65705C122.892 3.6859 122.834 3.71594 122.781 3.74354L122.78 3.74362L122.78 3.74365C122.729 3.77012 122.683 3.79435 122.638 3.81317L122.306 3.96476C121.863 4.17725 121.446 4.4375 121.061 4.74083C120.859 4.88808 120.67 5.05235 120.496 5.23182C120.318 5.4174 120.173 5.63159 120.066 5.86534C120.227 5.83581 120.39 5.81617 120.553 5.80652C120.875 5.79211 121.197 5.83817 121.502 5.94227C121.092 5.93517 120.683 5.99399 120.292 6.11649C120.099 6.17123 119.91 6.24005 119.727 6.32239C119.545 6.39774 119.369 6.48937 119.204 6.59616C119.038 6.69015 118.885 6.80415 118.748 6.93555C118.694 6.99245 118.65 7.05928 118.621 7.13239C118.582 7.21603 118.548 7.3087 118.514 7.40138L118.514 7.40143L118.514 7.40164C118.382 7.78236 118.276 8.17169 118.198 8.56688C118.035 9.3547 117.974 10.1598 118.015 10.963C118.05 11.6098 118.22 12.2423 118.514 12.8206C118.794 12.4563 119.067 12.0829 119.331 11.7051C119.673 11.2195 119.989 10.7165 120.278 10.1982C120.425 9.93453 120.556 9.65821 120.688 9.37887C120.812 9.11651 120.938 8.85149 121.079 8.59177C121.22 8.31748 121.385 8.05624 121.573 7.81117C121.668 7.68344 121.781 7.56925 121.907 7.47178C122.031 7.36974 122.184 7.30881 122.344 7.29757C121.832 7.75008 121.434 8.97415 121.04 10.3453C120.722 11.454 119.631 13.9881 118.958 14.0514C118.691 14.065 118.594 13.9383 118.414 13.6803L118.264 13.4767C118.001 13.1139 117.801 12.7102 117.672 12.2821C117.553 11.8629 117.481 11.4319 117.458 10.9969V10.6281C116.986 10.7036 116.523 10.8271 116.076 10.9969C115.635 11.1767 115.208 11.3877 114.797 11.6282C114.417 11.8564 114.001 12.0193 113.566 12.1101C113.125 12.1849 112.675 12.1994 112.23 12.1531C111.303 12.1011 110.382 12.0128 109.458 11.8997L106.679 11.5671L95.5737 10.1846L90.0224 9.47645L88.634 9.2977L88.5475 9.28639H88.5043C88.4637 9.27874 88.422 9.27874 88.3814 9.28639C88.3066 9.30382 88.2399 9.346 88.1923 9.40602C88.1448 9.46603 88.1192 9.54033 88.1196 9.61673C88.1538 9.72986 88.4519 10.1032 89.6059 10.3249C90.7963 10.5512 91.9161 10.7299 93.5207 10.9539C94.4669 11.0858 95.3311 11.2224 96.3182 11.3784L96.3182 11.3784L96.3183 11.3784C97.2782 11.53 98.3541 11.7 99.7343 11.9019C100.007 11.9417 100.279 11.98 100.546 12.0174L100.546 12.0174C102.279 12.261 103.749 12.4677 103.351 12.807C103.033 12.9454 102.724 13.1018 102.425 13.2753L102.281 13.3636C102.067 13.4948 101.856 13.6328 101.655 13.7822C100.572 14.5946 99.6822 15.6344 99.0492 16.8276C98.886 17.1277 98.7453 17.4392 98.6281 17.7598C98.5143 18.0834 98.4278 18.4046 98.3459 18.7282C98.2259 19.1858 98.1279 19.6458 98.0305 20.1031C97.9911 20.2879 97.9518 20.4723 97.9112 20.6559C97.8484 20.9703 97.7648 21.2802 97.6608 21.5836C97.5607 21.8868 97.4469 22.1945 97.3262 22.4886C96.8505 23.6991 96.2906 24.887 95.7034 26.0567C95.4075 26.6428 95.1048 27.2242 94.793 27.7967L94.731 27.9077C94.5922 28.1566 94.4528 28.4066 94.3082 28.6429C94.2725 28.7027 94.2399 28.7501 94.2053 28.8005L94.183 28.8329L94.0373 29.0207C93.9372 29.1452 93.8348 29.2651 93.7255 29.3805C93.511 29.6095 93.2739 29.8164 93.0177 29.9982L92.9244 30.057L92.8766 30.0864C92.843 30.1045 92.8116 30.1266 92.7832 30.152C92.7232 30.2088 92.68 30.2808 92.6581 30.3602L92.6239 30.4778C92.5807 30.6272 92.5283 30.7788 92.4737 30.9304C92.2461 31.539 91.9957 32.1409 91.7249 32.7404C91.5456 33.132 91.3527 33.5199 91.1587 33.9098L91.1587 33.9098L91.1587 33.9098C90.7665 34.6981 90.3702 35.4947 90.0748 36.347C89.8478 36.9863 89.7077 37.6529 89.6582 38.3291C89.6157 39.0087 89.6779 39.6908 89.8426 40.3518L89.8836 40.5781H91.4495C91.4495 39.707 91.2446 39.044 90.8896 39.1753C90.7234 39.225 90.555 39.2703 90.3797 39.3088C90.5391 39.1662 90.7075 39.035 90.8805 38.9083L90.9214 38.8834C90.8714 37.2407 91.8842 34.7112 93.0587 32.892C93.8401 31.7388 94.7042 30.6431 95.6442 29.6135C96.1489 29.0688 96.638 28.6482 97.1458 28.2114C98.5363 27.0153 100.067 25.6987 102.443 21.3845C102.901 20.4614 103.318 19.9625 103.652 19.5643C104.246 18.8545 104.572 18.4644 104.384 16.5629C104.521 17.2419 104.745 17.9005 105.051 18.5223C105.34 18.9837 105.762 19.2881 106.195 19.6007L106.195 19.6007L106.195 19.6007C106.443 19.7802 106.696 19.9623 106.929 20.1785L106.961 20.2079C107.653 20.6652 108.294 21.1963 108.87 21.7917C109.467 22.3416 110.505 22.776 111.283 22.7466C111.174 22.0134 111.166 21.2691 111.258 20.5337C111.347 21.3719 111.491 22.2033 111.69 23.0226C111.792 23.459 111.868 23.9009 111.918 24.3462C111.92 24.412 111.916 24.4779 111.907 24.5431C111.898 24.5949 111.887 24.6463 111.872 24.6969C111.872 24.7218 111.872 24.7422 111.859 24.7671C111.838 24.8417 111.813 24.9187 111.784 24.9933C111.755 25.0793 111.721 25.1653 111.681 25.2513C111.527 25.611 111.34 25.9562 111.124 26.283L111.112 26.3007C111.102 26.3159 111.092 26.3317 111.08 26.3464C111.03 26.421 110.98 26.4866 110.937 26.5409C110.894 26.5952 110.873 26.6179 110.839 26.6541C110.834 26.662 110.829 26.6695 110.823 26.6767C110.77 26.7528 110.737 26.8405 110.725 26.9324C110.722 26.973 110.722 27.0139 110.725 27.0545V27.1337V27.2921C110.732 27.3781 110.738 27.4636 110.744 27.5488L110.744 27.549L110.744 27.5491L110.744 27.5492L110.744 27.5494C110.75 27.6411 110.757 27.7325 110.764 27.8238V27.9302C110.764 27.9664 110.764 28.0478 110.782 28.1089C110.792 28.1432 110.791 28.1597 110.79 28.1735C110.789 28.1843 110.789 28.1936 110.794 28.2085C110.862 28.9627 110.948 29.7169 111.053 30.4711C111.287 32.1529 111.573 33.8242 111.911 35.485L112.039 36.1072L112.102 36.4172L112.136 36.5733L112.155 36.6593C112.168 36.7165 112.192 36.7709 112.225 36.8199L112.312 36.9376L112.371 37.053C112.41 37.1394 112.445 37.2277 112.476 37.3177C112.539 37.5055 112.592 37.7046 112.639 37.9059C112.709 38.1981 112.773 38.4947 112.839 38.794C112.954 39.3222 113.071 39.859 113.218 40.3948L113.274 40.5962H115.022C115.022 39.7635 114.856 38.9219 114.34 39.0508C114.146 39.1119 113.937 39.173 113.732 39.2228C113.916 39.0825 114.094 38.9535 114.294 38.8268L114.333 38.8087C113.65 35.3017 112.913 30.9123 112.74 29.6497C112.608 28.6881 113.247 28.0343 113.668 27.6134C114.627 26.6788 115.657 25.8195 116.75 25.0431L116.9 24.93C117.355 24.5754 117.853 24.279 118.382 24.0476C118.906 23.8289 119.441 23.6393 119.987 23.4796C120.526 23.3145 121.043 23.1493 121.58 22.957C121.762 22.8918 121.944 22.8326 122.123 22.7741L122.123 22.774C122.474 22.6599 122.816 22.5484 123.137 22.4004C123.616 22.1871 124.039 21.8647 124.37 21.4591C124.696 21.0449 124.934 20.5692 125.069 20.0609C125.203 19.5442 125.253 19.0093 125.215 18.477L125.196 18.201L125.47 18.2327C125.508 18.2327 125.537 18.2402 125.566 18.2478C125.576 18.2504 125.586 18.253 125.597 18.2553C125.579 17.913 125.502 17.5764 125.369 17.2598C125.207 16.8633 125.003 16.4745 124.797 16.0793L124.741 15.9724C124.495 15.5256 124.327 15.0405 124.245 14.5379C124.2 14.2742 124.208 14.0044 124.268 13.7437C124.283 13.6884 124.301 13.634 124.322 13.5808C123.583 14.0469 123.503 14.6352 123.728 15.2913C123.866 15.6085 124.033 15.9005 124.194 16.1827C124.505 16.7277 124.796 17.2365 124.814 17.8209C124.726 17.728 124.613 17.6615 124.489 17.6286C124.704 20.7246 123.16 21.5329 122.603 21.8247L122.562 21.8462C122.547 21.8541 122.533 21.8616 122.52 21.8687C123.157 20.5216 122.195 19.0433 121.819 18.4651C121.779 18.4033 121.745 18.3518 121.721 18.3119C121.875 18.3301 122.027 18.3604 122.176 18.4024C122.176 18.4024 122.076 18.0653 120.797 16.805C119.833 15.855 120.172 15.0202 120.737 13.6256C120.806 13.4557 120.878 13.2775 120.952 13.0898C121.17 12.5462 121.33 11.9812 121.43 11.4042C121.457 11.2055 121.495 11.0083 121.543 10.8136C121.543 11.0173 121.543 11.2186 121.573 11.4177C121.585 11.6098 121.623 11.7994 121.687 11.9811C121.717 12.0587 121.762 12.1301 121.819 12.1916C121.833 12.2071 121.849 12.2213 121.867 12.2377C121.883 12.2523 121.901 12.2685 121.921 12.2888C121.951 12.3236 121.984 12.3561 122.019 12.3861C122.164 12.4952 122.325 12.5815 122.497 12.6418C122.86 12.768 123.238 12.8485 123.621 12.8816C123.99 12.9246 124.363 12.9337 124.741 12.9405H124.8C125.192 12.9433 125.581 13.009 125.952 13.1351C126.282 13.2461 126.628 13.3072 126.976 13.3161C127.711 13.3862 128.437 13.5325 129.141 13.7527C129.441 13.7618 129.741 13.7352 130.035 13.6736C130.245 13.6328 130.454 13.5763 130.659 13.5152C131.114 13.3206 131.419 12.8025 130.8 12.8703C130.654 12.8815 130.509 12.9019 130.365 12.9314C130.259 12.9523 130.152 12.9911 130.037 13.0328C129.928 13.0723 129.812 13.1144 129.682 13.1464C129.43 13.2052 129.167 13.199 128.918 13.1283C128.701 13.0382 128.47 12.9847 128.235 12.9699C128.344 12.9062 128.466 12.869 128.592 12.8613H128.956C129.169 12.888 129.384 12.8789 129.594 12.8341C129.703 12.8036 129.813 12.7444 129.931 12.6807L129.931 12.6807L129.932 12.6806L129.932 12.6806L129.932 12.6805L129.932 12.6805C130.024 12.6311 130.121 12.579 130.226 12.5355C130.464 12.4377 130.718 12.3848 130.975 12.3794H131.13C131.31 12.1305 131.465 11.8635 131.405 11.6282C131.334 11.5348 131.237 11.4646 131.125 11.4268C131.096 11.4164 131.038 11.4013 130.962 11.3815C130.69 11.3112 130.195 11.1827 130.001 11.006C129.874 10.8476 129.958 10.5534 130.556 10.429ZM126.642 7.44237C126.576 7.4988 126.528 7.57162 126.5 7.65322C126.473 7.73482 126.469 7.8222 126.487 7.9062C126.507 8.17319 126.186 8.38134 125.804 8.42433C125.31 8.47864 125.048 8.19808 125.121 7.86321C125.251 7.31114 124.964 7.49215 124.775 7.71388C124.772 7.71822 124.766 7.72125 124.761 7.72253C124.755 7.72381 124.749 7.72328 124.744 7.72101C124.739 7.71875 124.734 7.71487 124.731 7.70993C124.728 7.70498 124.727 7.69924 124.728 7.69352C124.809 7.12561 125.144 7.10298 125.292 7.10072C125.744 7.13393 126.191 7.20969 126.628 7.32698C126.639 7.33151 126.649 7.33895 126.656 7.34852C126.663 7.35808 126.667 7.36941 126.669 7.38127C126.67 7.39314 126.668 7.40509 126.663 7.41585C126.657 7.42662 126.649 7.43578 126.639 7.44237H126.642ZM122.16 27.8849C122.311 27.3006 122.177 26.3754 122.051 25.5016L122.051 25.5015C121.987 25.0591 121.925 24.6298 121.903 24.2648C121.159 24.3734 120.18 25.1811 119.907 25.4164C120.025 25.8418 120.134 26.2038 120.232 26.4482C120.4 26.8895 120.505 27.3516 120.546 27.8216C120.379 27.8796 120.233 27.986 120.128 28.127C120.073 28.2005 120.043 28.2891 120.041 28.3804C120.039 28.5214 120.015 28.6612 119.968 28.7945C119.677 29.4733 118.578 30.0208 118.163 30.2244L118.125 30.2425C118.007 30.3105 117.878 30.3579 117.745 30.3828C117.641 30.3869 117.538 30.377 117.437 30.3534L117.365 30.3421C116.889 30.2538 116.518 30.2425 116.263 30.462C116.174 30.5388 116.102 30.6335 116.052 30.74C116.002 30.8465 115.975 30.9623 115.974 31.0797V31.1747C116.012 31.2316 116.055 31.2853 116.101 31.3354C116.14 31.3761 116.179 31.4146 116.22 31.4508L116.304 31.5254C116.473 31.6477 116.657 31.7495 116.85 31.8286C117.068 31.9134 117.299 31.9609 117.533 31.9689C118.032 31.9689 118.53 31.9004 119.01 31.7653L118.81 31.8444C118.184 32.1438 117.499 32.2985 116.805 32.297C116.504 32.3089 116.206 32.23 115.951 32.0707C116.093 32.2982 116.276 32.4977 116.491 32.659C116.553 32.7029 116.621 32.7379 116.693 32.7631C116.786 32.7859 116.883 32.7859 116.975 32.7631C117.222 32.7143 117.473 32.6848 117.724 32.6748C117.961 32.6741 118.197 32.6383 118.423 32.5685C118.643 32.4687 118.85 32.3425 119.04 32.1929C118.872 32.3776 118.682 32.5404 118.473 32.6771C118.246 32.7893 118.002 32.8656 117.751 32.9033C117.519 32.9486 117.291 33.0114 117.069 33.0911C116.928 33.1435 116.777 33.1628 116.627 33.1477H116.6C116.737 33.2194 116.887 33.2632 117.041 33.2767C117.198 33.2624 117.351 33.2251 117.497 33.1658L117.665 33.107C117.99 33.0213 118.328 32.9945 118.662 33.0278C118.978 33.0278 119.263 32.8128 119.572 32.5753L119.629 32.53C119.823 32.3784 120.153 32.0775 120.442 31.7924C120.489 31.7485 120.535 31.7051 120.579 31.6631L120.58 31.663C120.722 31.5294 120.85 31.4089 120.945 31.3263C121.074 31.2136 121.194 31.1154 121.303 31.0258C121.336 30.9986 121.369 30.9721 121.4 30.9462C121.767 30.6942 122.077 30.369 122.31 29.9914C122.483 29.6893 122.591 29.355 122.627 29.0094C122.627 28.9023 122.605 28.7962 122.562 28.698C122.519 28.5998 122.456 28.5116 122.376 28.4392C122.291 28.3766 122.226 28.2913 122.188 28.1932C122.149 28.0951 122.14 27.9882 122.16 27.8849ZM115.819 39.0373C115.774 38.9705 115.707 38.9209 115.63 38.8962C115.553 38.8716 115.469 38.8735 115.393 38.9015L115.166 38.9875C115.307 39.1605 115.415 39.3576 115.484 39.569C115.578 39.8992 115.63 40.2397 115.639 40.5826H116.16C116.168 40.17 116.105 39.7591 115.974 39.3676C115.934 39.2524 115.882 39.1417 115.819 39.0373ZM116.347 39.0689C116.557 39.5473 116.668 40.0629 116.673 40.5849H116.946C116.921 39.397 116.613 38.9875 116.347 39.0689ZM108.916 39.2816C108.793 39.2175 108.658 39.1794 108.52 39.1697C108.382 39.1599 108.243 39.1788 108.112 39.225C107.916 39.288 107.713 39.3304 107.507 39.3517H107.484L107.307 39.363C106.665 39.3214 106.096 36.0755 105.933 35.1458L105.918 35.0641C105.818 34.4939 105.463 31.9576 105.857 31.1702C105.987 30.8927 106.339 30.5677 106.749 30.1897C107.445 29.5474 108.307 28.7519 108.527 27.7763C108.744 26.3399 108.649 24.8739 108.247 23.4774C108.055 22.8778 107.423 22.1198 106.455 21.4704C106.018 21.4791 105.585 21.5625 105.176 21.7171C105.098 21.7454 105.022 21.7786 104.949 21.8166L104.876 21.8573L104.819 21.8981L104.771 21.9365C104.853 22.0451 104.954 22.1636 105.074 22.3034L105.074 22.3035L105.074 22.3036L105.074 22.3037L105.097 22.3302C105.541 22.7982 105.909 23.3326 106.187 23.914C106.462 24.8462 106.248 27.3894 106.246 27.4052C106.005 28.4938 105.375 29.4586 104.473 30.1203C104.411 30.1601 104.359 30.2137 104.321 30.277C104.284 30.3402 104.262 30.4113 104.257 30.4846C104.104 34.6636 104.776 37.9105 106.305 40.4129L106.371 40.569H109.36C109.371 39.6662 109.162 39.4354 108.916 39.2816ZM109.89 40.5849C109.903 40.045 109.726 39.5175 109.389 39.0938C109.804 39.2273 110.152 39.5938 110.179 40.5849H109.89ZM93.1725 39.4173C93.1268 39.3091 93.0469 39.2185 92.9449 39.1594C92.8997 39.1404 92.8501 39.1341 92.8015 39.1413C92.9878 39.5993 93.0836 40.0886 93.0837 40.5826H93.3751L93.35 40.0825C93.3333 39.8517 93.2731 39.6261 93.1725 39.4173ZM91.989 39.6346C91.9375 39.439 91.8494 39.2548 91.7295 39.0915C92.1369 39.001 92.533 39.6481 92.4783 40.5826H92.0595C92.0719 40.2649 92.0482 39.9469 91.989 39.6346Z"
    fill="#D08E39" />
  <path fill-rule="evenodd" clip-rule="evenodd"
    d="M132.257 10.4201C132.184 10.2474 132.064 10.0985 131.911 9.99025L131.731 9.86355L131.562 9.73684L130.88 9.21644L130.843 9.18933C130.739 9.11094 130.638 9.03564 130.513 8.95851C130.472 8.92983 130.427 8.90485 130.381 8.88385L130.286 8.84764C130.226 8.82275 130.167 8.79334 130.108 8.76166C129.882 8.64402 129.676 8.49126 129.498 8.30914C129.498 8.30507 129.497 8.30009 129.496 8.29397C129.493 8.27635 129.488 8.24932 129.498 8.20732C129.506 8.17535 129.516 8.1506 129.527 8.12245L129.527 8.12242C129.536 8.10079 129.545 8.07715 129.555 8.04668C129.577 7.97338 129.588 7.89703 129.587 7.82042V7.67336C129.59 7.64898 129.597 7.62525 129.607 7.60322C129.632 7.56063 129.672 7.52847 129.719 7.51271L129.972 7.44935L130.044 7.31586C130.046 7.30614 130.046 7.29617 130.044 7.28645L129.774 7.10771C129.609 7.17769 129.438 7.23223 129.264 7.27061C129.152 7.30097 129.038 7.31843 128.922 7.32265C128.704 7.30145 128.353 6.79483 128.093 6.41929L128.093 6.41926L128.093 6.41925L128.093 6.41915L128.092 6.41908C127.964 6.23358 127.857 6.0801 127.8 6.03297C127.69 5.90687 127.552 5.80764 127.397 5.74292C127.242 5.6782 127.074 5.64971 126.906 5.65965C127.248 5.8073 127.524 6.07564 127.68 6.41309C127.873 6.85203 128.622 8.19602 129.286 8.75488C129.468 8.92121 129.671 9.06343 129.89 9.17798C129.958 9.21418 130.028 9.24812 130.101 9.2798L130.208 9.32278L130.261 9.35446C130.37 9.4246 130.488 9.51058 130.6 9.5943L131.283 10.1124L131.46 10.2437L131.631 10.3658L131.667 10.3953C131.577 10.428 131.48 10.4366 131.385 10.4201C131.107 10.3893 130.827 10.3977 130.552 10.445C129.956 10.5695 129.869 10.8636 130.015 11.0107C130.209 11.1875 130.704 11.3159 130.975 11.3863C131.051 11.406 131.11 11.4211 131.139 11.4315C131.251 11.4693 131.348 11.5395 131.419 11.6329C131.478 11.8592 131.324 12.1352 131.144 12.3841H130.989C130.732 12.3895 130.478 12.4424 130.24 12.5402C130.135 12.5837 130.037 12.6359 129.945 12.6854C129.826 12.7491 129.716 12.8083 129.607 12.8389C129.398 12.8836 129.183 12.8928 128.97 12.866C128.933 12.866 128.896 12.8646 128.858 12.8631C128.78 12.86 128.698 12.8569 128.606 12.866C128.48 12.8737 128.357 12.9109 128.249 12.9746C128.483 12.9894 128.714 13.043 128.931 13.133C129.181 13.2037 129.444 13.21 129.696 13.1511C129.823 13.1196 129.937 13.0781 130.045 13.039C130.161 12.9968 130.27 12.9573 130.379 12.9361C130.522 12.9066 130.668 12.8862 130.814 12.8751C131.433 12.8072 131.128 13.3276 130.673 13.5199C130.468 13.581 130.258 13.6376 130.049 13.6783C129.755 13.7399 129.455 13.7665 129.154 13.7575C128.45 13.5373 127.725 13.3909 126.99 13.3208C126.641 13.3119 126.296 13.2509 125.966 13.1398C125.595 13.0137 125.206 12.948 124.814 12.9452H124.755C124.377 12.9452 124.004 12.9294 123.635 12.8864C123.252 12.8533 122.874 12.7727 122.511 12.6465C122.339 12.5862 122.178 12.5 122.033 12.3909C121.998 12.3608 121.965 12.3283 121.935 12.2936C121.914 12.2733 121.897 12.257 121.88 12.2424C121.862 12.2261 121.847 12.2118 121.832 12.1963C121.776 12.1348 121.731 12.0635 121.7 11.9859C121.637 11.8041 121.599 11.6145 121.587 11.4225C121.569 11.2689 121.565 11.114 121.561 10.9578C121.56 10.9114 121.559 10.8649 121.557 10.8184C121.509 11.0131 121.471 11.2102 121.443 11.4089C121.344 11.9859 121.184 12.5509 120.965 13.0945C120.894 13.2758 120.823 13.4481 120.756 13.6127L120.756 13.6137L120.756 13.6145C120.184 15.0186 119.843 15.8562 120.81 16.8097C122.09 18.07 122.19 18.4071 122.19 18.4071C122.041 18.3651 121.888 18.3349 121.735 18.3166C121.759 18.3566 121.792 18.4081 121.832 18.4698C122.209 19.048 123.171 20.5263 122.533 21.8734C122.559 21.8592 122.589 21.8435 122.622 21.8259C123.178 21.5311 124.713 20.7169 124.502 17.6333C124.627 17.6662 124.739 17.7328 124.828 17.8256C124.81 17.2412 124.519 16.7325 124.207 16.1874C124.046 15.9052 123.879 15.6132 123.742 15.296C123.514 14.6399 123.596 14.0516 124.336 13.5855C124.315 13.6388 124.297 13.6931 124.281 13.7484C124.221 14.0091 124.214 14.279 124.259 14.5426C124.341 15.0452 124.509 15.5303 124.755 15.9771L124.806 16.0734C125.016 16.4723 125.223 16.8645 125.383 17.2645C125.515 17.5811 125.592 17.9177 125.611 18.26C125.587 18.26 125.566 18.255 125.543 18.2493C125.525 18.245 125.506 18.2404 125.483 18.2374L125.21 18.2057L125.228 18.4818C125.266 19.0141 125.217 19.549 125.083 20.0656C124.947 20.5739 124.71 21.0496 124.384 21.4639C124.053 21.8694 123.63 22.1918 123.15 22.4051C122.806 22.5656 122.437 22.6852 122.06 22.8073L122.06 22.8074C121.905 22.8574 121.749 22.9078 121.593 22.9617C121.056 23.1472 120.546 23.3192 120 23.4844C119.455 23.644 118.919 23.8336 118.396 24.0523C117.866 24.2837 117.369 24.5801 116.914 24.9347L116.764 25.0478C115.671 25.8242 114.641 26.6835 113.682 27.6181C113.261 28.0344 112.621 28.6883 112.753 29.6545C112.929 30.917 113.664 35.311 114.346 38.8135L114.308 38.8316C114.107 38.9583 113.93 39.0872 113.746 39.2275C113.95 39.1777 114.16 39.1166 114.353 39.0555C114.879 38.9266 115.036 39.7683 115.036 40.6009H115.644C115.635 40.258 115.583 39.9175 115.489 39.5873C115.419 39.3758 115.311 39.1788 115.17 39.0058L115.398 38.9198C115.474 38.8918 115.557 38.8899 115.634 38.9145C115.712 38.9392 115.778 38.9888 115.824 39.0555C115.887 39.1599 115.94 39.2706 115.981 39.3859C116.112 39.7774 116.175 40.1883 116.167 40.6009H116.673C116.669 40.08 116.56 39.5653 116.352 39.0872C116.618 39.0058 116.925 39.4153 116.946 40.6009H117.494L117.474 40.3113C117.456 39.9631 117.379 39.6204 117.246 39.2976C117.172 39.1211 117.066 38.9594 116.934 38.8202C116.854 38.7394 116.757 38.6762 116.65 38.6347C116.527 38.5899 116.393 38.5843 116.267 38.6189H116.254L116.117 38.6732C116.062 38.6085 115.998 38.5521 115.926 38.5057C115.845 38.4532 115.752 38.4202 115.656 38.4096C115.559 38.399 115.462 38.411 115.371 38.4447L115.307 38.4673C115.201 37.7481 115.061 37.0347 114.92 36.3212C114.864 36.0359 114.808 35.7505 114.754 35.4648C114.551 34.372 114.36 33.2769 114.192 32.1818C114.107 31.6342 114.028 31.0844 113.964 30.5391C113.925 30.2778 113.913 30.0133 113.928 29.7495C113.956 29.492 114.019 29.2394 114.114 28.9983C114.305 28.4965 114.563 28.0224 114.881 27.5887C115.2 27.1479 115.556 26.7347 115.944 26.3533C116.334 25.967 116.752 25.6108 117.196 25.2877C117.622 24.953 118.089 24.6739 118.587 24.4573C118.912 24.3147 119.254 24.1948 119.602 24.0794C119.688 24.5568 119.802 25.0161 119.916 25.4189C120.263 25.1193 120.635 24.8506 121.029 24.6157L121.222 24.5116L121.275 24.4867C121.341 24.4528 121.407 24.4211 121.475 24.3939C121.538 24.3677 121.603 24.345 121.669 24.3261L121.719 24.3102C121.781 24.2918 121.845 24.2775 121.91 24.2672C121.932 24.6374 121.994 25.0715 122.058 25.5176L122.058 25.5176C122.183 26.3911 122.315 27.3108 122.167 27.8874C122.141 27.9898 122.145 28.0973 122.179 28.1975C122.212 28.2976 122.274 28.3862 122.356 28.453C122.435 28.5254 122.499 28.6135 122.542 28.7117C122.585 28.81 122.607 28.916 122.606 29.0232C122.57 29.3687 122.462 29.7031 122.29 30.0052C122.056 30.3828 121.746 30.708 121.379 30.96L121.349 30.9833C121.215 31.0872 121.072 31.197 120.924 31.3401C120.799 31.4487 120.617 31.6207 120.421 31.8062C120.132 32.0822 119.802 32.3922 119.609 32.5438L119.552 32.5891L119.512 32.6194C119.226 32.8351 118.952 33.0416 118.641 33.0416C118.307 33.0083 117.969 33.0351 117.644 33.1208L117.476 33.1796C117.331 33.2388 117.177 33.2762 117.021 33.2905C116.867 33.277 116.716 33.2332 116.579 33.1615H116.607C116.756 33.1766 116.907 33.1572 117.048 33.1049C117.271 33.0252 117.499 32.9624 117.731 32.9171C117.982 32.8794 118.225 32.8031 118.452 32.6909C118.661 32.5541 118.852 32.3914 119.019 32.2067C118.83 32.3563 118.623 32.4825 118.402 32.5823C118.176 32.652 117.941 32.6879 117.704 32.6886C117.452 32.6986 117.202 32.7281 116.955 32.7768C116.862 32.7997 116.765 32.7997 116.673 32.7768C116.601 32.7517 116.532 32.7167 116.47 32.6728C116.255 32.5115 116.072 32.312 115.931 32.0845C116.186 32.2438 116.483 32.3226 116.784 32.3108C117.478 32.3123 118.164 32.1576 118.789 31.8582L118.99 31.779C118.509 31.9142 118.012 31.9827 117.512 31.9827C117.279 31.9747 117.048 31.9272 116.83 31.8424C116.636 31.7633 116.453 31.6615 116.283 31.5392L116.199 31.4645C116.158 31.4283 116.12 31.3899 116.081 31.3491C116.034 31.2991 115.991 31.2454 115.953 31.1885L115.635 31.0437V31.4035C115.636 31.49 115.657 31.5751 115.696 31.6523L115.421 31.5799V31.8741C115.421 32.2542 115.632 32.5325 115.926 32.8108H115.785L115.86 33.0755C115.962 33.4262 116.543 33.7249 116.998 33.7543H117.037C117.238 33.7415 117.436 33.6948 117.622 33.6163L117.774 33.5642C118.05 33.4947 118.336 33.4748 118.619 33.5054C119.113 33.5054 119.486 33.2181 119.818 32.9579L119.877 32.9126C120.087 32.7497 120.41 32.4442 120.722 32.1478C120.911 31.9668 121.088 31.7994 121.211 31.6953C121.373 31.5528 121.521 31.4374 121.666 31.3288C122.074 31.0429 122.418 30.6762 122.677 30.2518C123.116 29.5119 123.102 28.7019 123.089 27.9168V27.1905C123.134 26.4398 123.266 25.6966 123.48 24.9754C123.722 24.18 123.854 23.3557 123.874 22.525C124.204 22.3171 124.499 22.0573 124.746 21.7557C125.112 21.29 125.378 20.7549 125.529 20.1832C125.645 19.7272 125.701 19.2577 125.693 18.7872L126.027 19.0271L126.061 18.6198C126.094 18.0983 126.002 17.5765 125.793 17.0971C125.598 16.6429 125.376 16.2009 125.128 15.7734C124.898 15.3702 124.731 14.9346 124.632 14.4815C124.582 14.2997 124.572 14.1094 124.601 13.9233C124.631 13.7372 124.701 13.5596 124.805 13.4022H124.821C125.159 13.4066 125.494 13.4647 125.813 13.5742C125.998 13.6405 126.188 13.689 126.382 13.719C126.527 13.7425 126.669 13.7536 126.805 13.7642C126.852 13.7679 126.899 13.7715 126.944 13.7756C127.659 13.8453 128.365 13.9894 129.05 14.2055H129.075H129.1C129.446 14.2177 129.792 14.188 130.131 14.1172C130.462 14.0523 130.789 13.9639 131.107 13.8525L131.144 13.8389L131.173 13.814C131.422 13.6092 131.621 13.3526 131.759 13.0626C131.897 12.7725 131.969 12.4559 131.97 12.1352C131.971 12.0543 131.967 11.9734 131.956 11.8931L131.924 11.6917C131.929 11.6782 131.937 11.6659 131.947 11.6555C132 11.5906 132.046 11.5209 132.086 11.4474C132.164 11.305 132.222 11.1528 132.259 10.9948C132.276 10.915 132.288 10.8341 132.295 10.7527C132.311 10.6404 132.297 10.5261 132.257 10.4201ZM115.912 31.4306C115.911 31.4231 115.911 31.4155 115.912 31.408V31.4306ZM124.759 7.71412C124.948 7.48786 125.235 7.31138 125.105 7.86345C125.037 8.19605 125.299 8.47887 125.788 8.42457C126.18 8.38158 126.501 8.17343 126.471 7.90644C126.453 7.82244 126.457 7.73506 126.485 7.65346C126.512 7.57186 126.561 7.49904 126.626 7.44261C126.636 7.43485 126.643 7.42451 126.647 7.41278C126.651 7.40105 126.652 7.38841 126.649 7.37633C126.646 7.36425 126.64 7.35322 126.631 7.34453C126.622 7.33583 126.611 7.32983 126.598 7.32722C126.161 7.20992 125.714 7.13416 125.262 7.10096C125.114 7.10096 124.78 7.12585 124.698 7.69376C124.695 7.70186 124.696 7.7107 124.7 7.71834C124.704 7.72598 124.71 7.73178 124.718 7.73448C124.727 7.73718 124.735 7.73655 124.743 7.73274C124.751 7.72892 124.757 7.72222 124.759 7.71412ZM118.277 13.4792C118.015 13.1169 117.815 12.714 117.686 12.2868C117.564 11.8641 117.491 11.4293 117.467 10.9903V10.6215C117.465 10.3194 117.479 10.0173 117.508 9.71651C117.554 9.29407 117.626 8.87475 117.722 8.46076C117.818 8.0464 117.942 7.63897 118.093 7.24123C118.134 7.13941 118.175 7.03986 118.227 6.93804C118.254 6.88101 118.284 6.82582 118.318 6.77287C118.358 6.72017 118.401 6.67027 118.448 6.62354C118.614 6.46657 118.802 6.33401 119.006 6.22985C119.343 6.05567 119.705 5.9336 120.08 5.86783C120.241 5.8383 120.404 5.81865 120.567 5.809C120.889 5.7946 121.211 5.84065 121.516 5.94476C121.106 5.93765 120.697 5.99648 120.305 6.11898C120.112 6.17372 119.924 6.24253 119.741 6.32487C119.558 6.40022 119.383 6.49186 119.217 6.59865C119.052 6.69264 118.899 6.80664 118.762 6.93804C118.707 6.99494 118.664 7.06177 118.635 7.13488C118.596 7.21851 118.562 7.31116 118.528 7.40382L118.528 7.40383L118.528 7.40386L118.528 7.40413C118.395 7.78485 118.29 8.17418 118.211 8.56937C118.049 9.35719 117.988 10.1623 118.029 10.9655C118.064 11.6123 118.234 12.2448 118.528 12.823C118.808 12.4588 119.081 12.0854 119.345 11.7076C119.686 11.222 120.002 10.719 120.292 10.2007C120.438 9.93701 120.569 9.66068 120.702 9.38134C120.826 9.11898 120.952 8.85397 121.093 8.59425C121.234 8.31996 121.399 8.05873 121.587 7.81366C121.682 7.68593 121.795 7.57175 121.921 7.47427C122.045 7.37223 122.198 7.3113 122.358 7.30006C121.846 7.7571 121.45 8.97663 121.054 10.3478C120.735 11.4564 119.654 13.9905 118.971 14.0539C118.705 14.0675 118.607 13.9408 118.427 13.6828L118.277 13.4792ZM97.2579 12.1081L100.023 12.5606L100.706 12.6692C100.782 12.682 100.858 12.6938 100.934 12.7056L100.934 12.7056C101.085 12.7293 101.237 12.7529 101.389 12.7846C101.589 12.8235 101.78 12.9003 101.951 13.0108C102.086 13.1114 102.2 13.2384 102.283 13.3842L102.427 13.2959C102.726 13.1224 103.036 12.966 103.353 12.8276C103.753 12.4755 102.235 12.2669 100.473 12.0248L100.473 12.0248C100.231 11.9915 99.9837 11.9576 99.7365 11.9225C98.256 11.706 97.1256 11.5286 96.113 11.3698C95.2109 11.2282 94.4023 11.1014 93.5229 10.9745C91.9297 10.7482 90.7917 10.5718 89.6081 10.3455C88.4542 10.1192 88.156 9.75044 88.1219 9.63731C88.1197 9.65308 88.1197 9.66906 88.1219 9.68482C88.197 10.0446 88.9481 10.6872 90.3569 10.9406L91.7362 11.1668L97.2579 12.1081ZM111.283 22.74C111.175 22.0068 111.166 21.2625 111.258 20.5271C111.355 21.3704 111.507 22.2064 111.715 23.0296C111.817 23.4659 111.893 23.9079 111.943 24.3532C111.945 24.419 111.941 24.4848 111.932 24.55C111.923 24.6019 111.912 24.6533 111.897 24.7039C111.884 24.7288 111.884 24.7491 111.884 24.774C111.863 24.8419 111.838 24.9188 111.809 25.0003C111.78 25.0863 111.746 25.1723 111.706 25.2582C111.552 25.6179 111.365 25.9632 111.149 26.29C111.145 26.2957 111.141 26.3016 111.137 26.3076C111.127 26.3229 111.117 26.3387 111.105 26.3533C111.055 26.428 110.994 26.5094 110.962 26.5479C110.93 26.5864 110.898 26.6248 110.864 26.661C110.859 26.6689 110.854 26.6765 110.848 26.6837C110.795 26.7598 110.762 26.8475 110.75 26.9393C110.747 26.98 110.747 27.0209 110.75 27.0615V27.1407V27.2991C110.757 27.3852 110.763 27.4708 110.769 27.5562C110.776 27.6479 110.782 27.7394 110.789 27.8308C110.789 27.843 110.789 27.8523 110.788 27.8616C110.787 27.8799 110.786 27.8981 110.789 27.9371C110.791 27.9603 110.794 27.9836 110.797 28.0069C110.802 28.0427 110.807 28.0789 110.807 28.1159C109.939 29.3553 108.9 30.4674 107.721 31.4193L107.659 31.4645C107.347 31.6652 107.085 31.9336 106.892 32.2496C106.771 32.5643 106.723 32.9026 106.754 33.2384C106.783 35.1476 107.082 37.0432 107.641 38.87C107.763 38.8493 107.883 38.8221 108.001 38.7885L108.115 38.7569C108.505 38.6045 108.928 38.5532 109.344 38.6075C109.792 38.7139 110.559 39.0533 110.627 40.2977L110.639 40.5828H110.184C110.156 39.594 109.808 39.2343 109.387 39.094C109.726 39.5162 109.905 40.0429 109.895 40.5828H109.376C109.376 39.6664 109.159 39.4356 108.92 39.2818C108.798 39.2177 108.663 39.1796 108.525 39.1699C108.386 39.1601 108.248 39.179 108.117 39.2252C107.92 39.2882 107.717 39.3306 107.512 39.3519H107.489L107.311 39.3632C106.667 39.3258 106.096 36.0538 105.935 35.1352C105.931 35.1097 105.927 35.0861 105.923 35.0643C105.823 34.4941 105.465 31.9578 105.861 31.1704C105.991 30.8958 106.341 30.5735 106.748 30.198C107.445 29.5556 108.311 28.7575 108.531 27.7765C108.749 26.3401 108.653 24.8741 108.251 23.4776C108.053 22.878 107.427 22.1132 106.46 21.4706C106.023 21.4793 105.59 21.5627 105.181 21.7173C105.103 21.7456 105.027 21.7788 104.953 21.8168L104.88 21.8575C104.86 21.8695 104.841 21.8831 104.824 21.8983L104.776 21.9367C103.895 22.6472 103.217 23.559 102.561 24.4437C101.947 25.3387 101.233 26.1622 100.433 26.8986C99.9778 27.3036 99.5386 27.6453 99.0674 28.005C97.9243 28.851 96.858 29.7951 95.8809 30.8265C94.4789 32.2542 92.1459 35.1209 91.9593 38.5397C92.1344 38.5194 92.3105 38.5672 92.4509 38.6731C92.4691 38.6867 92.4862 38.7032 92.5031 38.7194C92.5115 38.7276 92.5199 38.7357 92.5283 38.7433C92.6015 38.7144 92.6779 38.6947 92.7559 38.6845C92.8799 38.6734 93.0048 38.692 93.1201 38.7388C93.3218 38.8378 93.4827 39.0033 93.5753 39.2071C93.7341 39.551 93.8119 39.9263 93.8029 40.3045V40.5783H93.3591L93.3341 40.0782C93.3202 39.848 93.2631 39.6223 93.1656 39.413C93.1199 39.3048 93.04 39.2142 92.938 39.1551C92.8928 39.136 92.8432 39.1298 92.7946 39.137C92.9809 39.5949 93.0768 40.0843 93.0769 40.5783H92.4805C92.5352 39.6438 92.1391 39.0035 91.7317 39.0872C91.8512 39.2507 91.9392 39.4348 91.9912 39.6302C92.0504 39.9426 92.0741 40.2606 92.0617 40.5783H91.4495C91.4518 39.7072 91.2446 39.0442 90.8896 39.1754C90.7234 39.2252 90.555 39.2705 90.3797 39.3089C90.5391 39.1664 90.7075 39.0352 90.8805 38.9085L90.9214 38.8836C90.8714 37.2409 91.8842 34.7023 93.0586 32.8922C93.8398 31.7366 94.7039 30.6387 95.6442 29.6069C96.1495 29.061 96.6391 28.6393 97.1475 28.2013C98.5375 27.0038 100.068 25.6853 102.443 21.3779C102.9 20.4608 103.316 19.9631 103.649 19.5652C104.245 18.8529 104.573 18.461 104.384 16.5563C104.521 17.2353 104.745 17.8939 105.051 18.5157C105.34 18.9771 105.762 19.2815 106.195 19.5941C106.443 19.7736 106.696 19.9557 106.929 20.1719L106.961 20.2013C107.653 20.6586 108.294 21.1897 108.87 21.7851C109.462 22.335 110.505 22.7694 111.283 22.74Z"
    fill="#002522" />
</svg>