<svg width="374" height="82" viewBox="0 0 374 82" fill="none" xmlns="http://www.w3.org/2000/svg">
<path fill-rule="evenodd" clip-rule="evenodd" d="M87.2775 56.9208V13.472C87.2775 9.40916 86.1894 7.96042 81.4053 8.41114V6.33785L92.0615 4.07786C94.1412 3.62714 95.4032 4.61871 95.4032 6.78857V56.7277C95.4032 59.8891 97.3027 60.43 99.9104 59.8891V61.1769C98.8287 62.7994 96.1179 63.7975 93.5875 63.7975C90.0075 63.8103 87.2775 61.8014 87.2775 56.9208ZM20.4238 56.2899C20.4238 59.6316 18.5308 60.4364 11.2099 61.0803V63.2437H38.961V61.0803C31.6401 60.4429 29.657 59.6316 29.657 56.2899V15.8222C29.657 11.4824 30.3781 10.4007 36.8813 10.4007C43.217 10.4007 45.2968 12.3002 47.8272 19.3442H50.1709L48.6385 7.87029C48.6219 7.73306 48.578 7.60053 48.5095 7.48051C48.4409 7.36048 48.349 7.25539 48.2392 7.1714C48.1294 7.08741 48.004 7.02621 47.8702 6.99143C47.7364 6.95665 47.597 6.94898 47.4602 6.96887C46.0952 7.05901 43.848 7.14916 41.588 7.14916H8.52495C6.25206 7.14916 4.01781 7.05901 2.73005 6.96887C1.98316 6.96887 1.53244 7.22642 1.4423 7.87029L0 19.3442H2.34372C4.88704 12.3002 6.96676 10.4007 13.2896 10.4007C19.7799 10.4007 20.4238 11.4824 20.4238 15.8222V56.2899ZM68.1222 39.3044C48.5225 41.6545 42.9208 46.8055 42.9208 53.8496C42.9208 60.9 48.7028 63.7975 54.6651 63.7975C60.6274 63.7975 66.0489 61.061 69.2103 57.1977C69.8413 56.3864 70.5624 56.3864 70.5624 57.2879C70.7427 61.5374 73.183 63.7975 76.8853 63.7975C79.4157 63.7975 82.0363 62.7994 83.118 61.1769V59.8891C80.4975 60.43 78.6946 59.8891 78.6946 56.7277V36.9671C78.6946 26.2079 74.445 21.7008 63.7889 21.7008C55.0257 21.7008 45.6315 24.4952 45.6315 31.3589C45.6315 33.9795 46.9837 35.7824 49.6944 35.7824C52.2248 35.7824 54.1243 34.1598 54.1243 30.8181C54.1243 26.7488 56.1975 24.3085 61.3486 24.3085C67.7616 24.3085 70.5624 28.2619 70.5624 34.7006V36.6902C70.5624 38.5832 69.7512 39.1241 68.1222 39.3044ZM70.5624 44.816V48.5247C70.5624 54.6673 65.4114 59.1809 59.2624 59.1809C53.9375 59.1809 51.4972 55.8391 51.4972 52.1368C51.4972 47.9774 54.3046 43.2835 66.9503 41.9249C69.9186 41.5644 70.5624 42.7427 70.5624 44.816ZM105.345 13.472V56.9208C105.345 61.8014 108.036 63.8103 111.655 63.7975C114.185 63.7975 116.889 62.7994 117.978 61.1769V59.8891C115.37 60.43 113.47 59.8891 113.47 56.7277V6.78857C113.47 4.61871 112.208 3.62714 110.129 4.07786L99.4726 6.33785V8.41114C104.257 7.96042 105.345 9.40916 105.345 13.472ZM121.062 75.2585C121.048 74.6424 121.161 74.0302 121.393 73.4594C121.625 72.8887 121.972 72.3716 122.412 71.9402C122.852 71.5087 123.375 71.1721 123.95 70.951C124.526 70.7299 125.14 70.6291 125.756 70.6547C128.829 70.6547 129.264 72.8019 129.658 74.7403C129.981 76.3353 130.276 77.7889 131.988 77.7889C134.068 77.7889 135.852 74.8078 137.139 71.6463C138.949 66.9525 137.86 63.1536 136.598 60.1724L125.653 32.8012C123.393 27.2896 122.311 26.0276 118.428 24.5853V22.5056H137.217V24.5853C132.336 26.0276 131.975 27.1995 134.326 32.8012L142.097 52.0467C143.269 54.8476 144.261 54.8476 145.439 51.9565L149.231 42.1052C155.104 27.2961 153.475 26.0083 148.15 24.5853V22.5056H164.498V24.5853C159.257 26.0276 157.814 27.3798 155.735 32.8012L140.874 69.7533C138.073 76.7973 135.543 81.1306 128.859 81.1306C124.043 81.1306 121.062 78.6968 121.062 75.2585ZM224.134 56.2899V14.103C224.134 10.7613 226.033 9.85988 229.729 9.31902V7.14916H209.228V9.31902C212.93 9.85988 214.92 10.7613 214.92 14.103V30.9726C214.92 33.136 213.658 34.0439 211.488 34.0439H190.439C188.27 34.0439 187.098 33.136 187.098 30.9726V14.103C187.098 10.7613 188.991 9.85988 192.7 9.31902V7.14916H172.192V9.31902C175.862 9.85988 177.794 10.7613 177.794 14.103V56.2899C177.794 59.6316 175.894 60.4364 172.192 61.0803V63.2437H192.68V61.0803C188.971 60.4429 187.078 59.6316 187.078 56.2899V39.8517C187.078 37.6818 188.25 36.7804 190.33 36.7804H211.578C213.632 36.7804 214.92 37.6818 214.92 39.8517V56.2899C214.92 59.6316 212.93 60.4364 209.228 61.0803V63.2437H229.735V61.0803C226.065 60.4429 224.134 59.6316 224.134 56.2899ZM232.42 42.8328C232.42 29.5496 242.355 21.6943 253.469 21.6943C264.582 21.6943 274.427 29.4595 274.427 42.6525C274.427 55.8456 264.498 63.8103 253.379 63.8103C242.259 63.8103 232.42 56.0194 232.42 42.8328ZM265.664 46.0844C265.664 34.4302 259.869 24.405 251.389 24.405C245.427 24.405 241.177 29.189 241.177 39.3945C241.177 51.0487 246.972 60.9901 255.452 60.9901C261.324 60.9901 265.664 56.2898 265.664 46.0844ZM284.632 5.70043C281.201 5.70043 279.031 8.32101 279.031 12.4805C279.031 16.2988 279.767 20.3121 280.614 24.9285C281.689 30.7899 282.942 37.6236 283.094 46.2647H286.075C286.24 37.6383 287.518 30.8132 288.614 24.9584C289.481 20.3295 290.234 16.3071 290.234 12.4805C290.234 8.32101 288.064 5.70043 284.632 5.70043ZM280.954 54.8081C279.973 55.7723 279.412 57.0843 279.391 58.4597C279.373 59.5 279.665 60.522 280.23 61.3957C280.795 62.2694 281.607 62.9552 282.563 63.3657C283.519 63.7763 284.576 63.893 285.599 63.7011C286.621 63.5091 287.563 63.0172 288.305 62.2879C289.047 61.5587 289.556 60.625 289.765 59.606C289.975 58.5869 289.877 57.5285 289.483 56.5655C289.089 55.6026 288.417 54.7786 287.553 54.1987C286.69 53.6187 285.673 53.3089 284.632 53.3087C283.257 53.3052 281.935 53.8439 280.954 54.8081Z" fill="#CCD3D3"/>
<path fill-rule="evenodd" clip-rule="evenodd" d="M373.043 34.0115C373.043 52.6275 357.952 67.7188 339.336 67.7188C320.72 67.7188 305.629 52.6275 305.629 34.0115C305.629 15.3955 320.72 0.304199 339.336 0.304199C357.952 0.304199 373.043 15.3955 373.043 34.0115ZM339.336 66.8492C357.472 66.8492 372.174 52.1473 372.174 34.0115C372.174 15.8757 357.472 1.17376 339.336 1.17376C321.2 1.17376 306.498 15.8757 306.498 34.0115C306.498 52.1473 321.2 66.8492 339.336 66.8492Z" fill="#CCD3D3"/>
<path d="M356.955 20.2031L357.212 17.5615C357.219 17.5174 357.243 17.4775 357.277 17.4488C357.311 17.42 357.355 17.4043 357.399 17.4043C357.444 17.4043 357.487 17.42 357.522 17.4488C357.556 17.4775 357.579 17.5174 357.587 17.5615L357.838 20.1971C357.855 20.4011 357.945 20.592 358.092 20.7345C358.239 20.877 358.432 20.9614 358.637 20.9723L361.493 21.1452C361.537 21.1531 361.577 21.1762 361.606 21.2106C361.634 21.2449 361.65 21.2882 361.65 21.333C361.65 21.3778 361.634 21.4212 361.606 21.4555C361.577 21.4898 361.537 21.513 361.493 21.5209L358.631 21.6938C358.428 21.7082 358.236 21.7939 358.09 21.9357C357.944 22.0775 357.852 22.2663 357.832 22.469L357.581 25.1105C357.573 25.1546 357.55 25.1945 357.516 25.2232C357.481 25.252 357.438 25.2677 357.393 25.2677C357.349 25.2677 357.305 25.252 357.271 25.2232C357.237 25.1945 357.213 25.1546 357.206 25.1105L356.955 22.4749C356.936 22.2719 356.845 22.0823 356.698 21.9403C356.552 21.7983 356.36 21.713 356.156 21.6997L353.3 21.5268C353.256 21.5189 353.216 21.4958 353.187 21.4615C353.158 21.4271 353.143 21.3838 353.143 21.339C353.143 21.2942 353.158 21.2508 353.187 21.2165C353.216 21.1822 353.256 21.159 353.3 21.1512L356.156 20.9723C356.36 20.9616 356.552 20.878 356.699 20.7367C356.846 20.5954 356.937 20.406 356.955 20.2031V20.2031Z" fill="#CCD3D3"/>
<path d="M352.412 32.5285C353.13 32.4035 353.863 32.3815 354.588 32.4629C354.836 32.5091 355.092 32.4864 355.327 32.3973L355.238 32.3198C353.527 30.845 351.685 29.5297 349.734 28.3903C347.14 26.8757 345.393 23.0714 344.88 21.9205C344.475 21.0283 343.752 20.3186 342.853 19.929C343.293 19.9019 343.733 19.9765 344.14 20.1472C344.546 20.3178 344.908 20.5798 345.196 20.9128C345.65 21.2885 347.289 24.2282 348.136 24.3117C348.439 24.3005 348.739 24.2545 349.031 24.1745H349.096L349.496 24.0791H349.537L349.853 24.0016L350.45 23.8287L350.396 23.7929C349.49 23.1966 348.911 22.177 348.279 21.0798C347.947 20.4925 347.546 19.9462 347.087 19.4519C346.958 19.3134 346.819 19.1857 346.669 19.0703C346.516 18.9586 346.355 18.8589 346.186 18.7722C345.876 18.6171 345.59 18.4919 345.286 18.3727C344.982 18.2534 344.69 18.1461 344.469 18.0268L343.628 17.6094L341.935 16.7865C340.787 16.2401 339.609 15.7622 338.405 15.3554C337.18 14.9527 335.917 14.6769 334.636 14.5326C334.306 14.492 333.973 14.4681 333.64 14.461C333.245 14.4581 332.854 14.5437 332.496 14.7114C332.162 14.8605 331.899 15.0215 331.661 15.1229C331.422 15.2242 331.064 15.3852 330.79 15.5283C329.629 16.0862 328.534 16.7701 327.523 17.5677C326.996 17.9592 326.502 18.3919 326.044 18.8616C325.658 19.2719 325.331 19.7334 325.072 20.2331C325.345 20.1831 325.623 20.1611 325.901 20.1675C326.849 20.2231 327.785 20.4138 328.679 20.7339C327.845 20.7339 323.515 20.5014 321.208 22.0517C320.764 22.3503 320.397 22.7485 320.135 23.2145C320.039 23.3993 319.914 23.6677 319.777 24.0016C319.759 24.0503 319.74 24.0981 319.717 24.1447C319.318 25.1917 318.993 26.2657 318.745 27.3587C318.3 29.2565 318.074 31.1992 318.071 33.1486C318.071 33.4468 318.071 33.7449 318.071 34.049C318.071 34.3531 318.113 34.5559 318.137 34.8123V34.9733C318.161 35.1959 318.191 35.4165 318.226 35.6351L318.262 35.8439C318.35 36.3811 318.47 36.9127 318.62 37.4359C318.903 38.3429 319.304 39.2089 319.813 40.0119C320.051 40.3041 320.29 40.4233 320.498 40.149L320.647 39.9403C320.82 39.6959 321.077 39.3441 321.387 38.8432L321.768 38.2469V38.2111L322.132 37.6148L322.216 37.4836C322.484 37.0484 322.812 36.5713 323.086 36.0585L323.211 35.8498L323.581 35.2178L323.688 35.0389L324.159 34.222L324.273 34.0252C324.398 33.7986 324.523 33.572 324.654 33.3454C324.696 33.2619 324.744 33.1785 324.792 33.095L325.275 32.2005C325.811 31.1928 326.336 30.1553 326.813 29.1237C327.045 28.6347 327.284 28.1518 327.54 27.6747C327.91 26.9504 328.343 26.26 328.834 25.6116C329.088 25.2777 329.382 24.9772 329.711 24.7171C330.035 24.4493 330.436 24.2907 330.856 24.264C329.52 25.4565 328.387 28.7123 327.445 32.29C326.849 34.5976 327.135 35.7186 325.376 41.1568C323.629 46.4876 325.233 48.4315 327.368 49.9759C331.798 53.0169 336.526 53.0467 337.039 57.1313L337.314 59.272L338.423 57.4235C338.82 56.7464 339.135 56.0236 339.359 55.2709V55.1695L340.259 55.8374C340.823 54.7966 341.057 53.6092 340.93 52.4324C340.803 51.2557 340.322 50.1453 339.55 49.2484C339.621 49.4034 339.693 49.5585 339.758 49.7195C340.032 50.3359 340.232 50.9823 340.355 51.6455C340.484 52.3686 340.431 53.1126 340.2 53.81L339.907 54.6388L339.198 54.1141C339.091 54.0378 338.977 53.9719 338.858 53.9173C338.804 54.3196 338.725 54.7179 338.619 55.1099C338.417 55.7944 338.13 56.4513 337.767 57.0657C337.063 51.4368 331.708 51.6276 328.614 49.314C325.519 47.0004 325.275 44.2455 327.183 39.4812C327.765 38.0162 328.189 36.4929 328.447 34.9375C328.5 34.5857 328.566 34.2398 328.644 33.894C328.64 33.8444 328.64 33.7946 328.644 33.7449L328.697 33.4945C328.697 34.0311 328.697 34.5618 328.781 35.0866C328.809 35.5931 328.91 36.093 329.079 36.5713C329.154 36.7769 329.27 36.9655 329.419 37.1259C329.49 37.2034 329.574 37.269 329.687 37.3823C329.768 37.4723 329.853 37.5579 329.943 37.6387C330.323 37.9272 330.746 38.1545 331.196 38.3125C332.147 38.645 333.137 38.8573 334.141 38.9446C335.107 39.0578 336.091 39.0817 337.081 39.1055H337.23C338.257 39.1115 339.277 39.2868 340.247 39.6243C341.115 39.9155 342.022 40.0743 342.937 40.0954C344.862 40.2808 346.762 40.6665 348.607 41.2462C349.394 41.27 350.181 41.1999 350.951 41.0375C351.493 40.9302 352.03 40.7871 352.561 40.6261C353.753 40.1192 354.576 38.7418 352.948 38.9267C352.565 38.9511 352.185 39.0029 351.809 39.0817C351.267 39.189 350.724 39.4752 350.02 39.678C349.359 39.8285 348.67 39.8101 348.017 39.6243C347.446 39.3936 346.842 39.2528 346.228 39.2069C346.515 39.0435 346.835 38.9458 347.164 38.9207C347.498 38.9207 347.814 38.9207 348.112 38.9207C348.671 38.9913 349.237 38.9671 349.788 38.8491C350.289 38.706 350.808 38.3244 351.446 38.068C352.067 37.8068 352.733 37.6652 353.407 37.6506H353.36C353.509 37.6506 353.658 37.6506 353.813 37.6506C354.284 36.9947 354.683 36.2911 354.528 35.6709C354.346 35.4249 354.092 35.2416 353.801 35.1462C353.443 35.021 351.505 34.6274 350.855 34.0311C350.617 33.6376 350.849 32.8565 352.412 32.5285ZM342.149 24.6635C341.98 24.813 341.852 25.005 341.781 25.2198C341.71 25.4346 341.697 25.6645 341.744 25.8859C341.798 26.5835 340.963 27.1381 339.955 27.2454C338.661 27.3885 337.969 26.6491 338.166 25.7666C338.506 24.3117 337.761 24.7887 337.26 25.3731C337.25 25.3845 337.237 25.3925 337.222 25.3958C337.207 25.3992 337.192 25.3978 337.178 25.3919C337.164 25.3859 337.152 25.3756 337.144 25.3626C337.137 25.3496 337.133 25.3345 337.135 25.3194C337.349 23.8227 338.226 23.7631 338.619 23.7631C339.803 23.8473 340.975 24.047 342.12 24.3594C342.149 24.3713 342.174 24.3909 342.193 24.4161C342.211 24.4413 342.223 24.4712 342.226 24.5024C342.229 24.5337 342.224 24.5652 342.21 24.5936C342.197 24.622 342.176 24.6461 342.149 24.6635Z" fill="#D08E39"/>
</svg>
