<svg width="895" height="278" viewBox="0 0 895 278" fill="none" xmlns="http://www.w3.org/2000/svg">
<path d="M362.191 212.365H446.23V205.169C425.413 203.627 419.502 200.286 419.502 190.52V78.9818C419.502 65.8748 421.815 63.0478 439.034 63.0478C457.281 63.0478 462.935 69.2158 470.388 89.5188H477.841L473.472 55.5948C473.215 53.2818 471.673 51.9968 469.36 52.2538C465.762 52.5108 459.594 52.7678 453.426 52.7678H355.252C349.084 52.7678 342.659 52.5108 339.061 52.2538C336.748 51.9968 335.206 53.2818 334.949 55.5948L330.58 89.5188H338.033C345.486 69.2158 351.14 63.0478 369.387 63.0478C386.606 63.0478 388.919 65.8748 388.919 78.9818V190.52C388.919 200.286 383.008 203.627 362.191 205.169V212.365Z" fill="#B8D1D0"/>
<path d="M512.855 213.907C530.331 213.907 544.723 205.169 552.947 195.403C555.003 192.576 557.059 193.09 557.059 195.917C557.83 206.454 564.769 213.907 577.362 213.907C585.072 213.907 593.039 211.337 596.123 205.426V201.571C588.67 203.37 583.787 200.8 583.787 191.805V139.12C583.787 106.224 571.194 94.1448 541.125 94.1448C514.397 94.1448 486.641 102.883 486.641 122.672C486.641 130.125 491.267 135.779 499.748 135.779C507.715 135.779 514.397 131.153 514.397 121.13C514.397 109.822 519.537 102.626 533.672 102.626C549.863 102.626 556.802 112.906 556.802 131.41V136.036C556.802 142.204 554.746 144.003 548.835 144.774C495.893 151.713 479.188 165.077 479.188 185.637C479.188 205.683 495.379 213.907 512.855 213.907ZM527.247 198.744C513.369 198.744 507.201 190.006 507.201 179.983C507.201 169.189 514.397 156.082 546.522 152.741C555.003 151.97 556.802 155.054 556.802 160.965V169.446C556.802 186.408 543.952 198.744 527.247 198.744Z" fill="#B8D1D0"/>
<path d="M720.04 213.907C727.493 213.907 735.46 211.337 738.801 205.426V201.571C731.347 203.37 726.465 200.8 726.465 191.805V137.321C726.465 104.168 707.96 93.8878 689.199 93.8878C668.125 93.8878 657.331 105.71 652.448 110.85C649.107 114.705 645.509 111.878 645.509 102.626V52.5108C645.509 46.0858 641.911 43.0018 635.229 44.2868L602.077 50.7118V57.6508C614.67 56.3658 618.525 60.2208 618.525 71.7858V190.006C618.525 200.8 614.156 204.141 602.077 205.426V212.365H661.957V205.426C649.878 204.141 645.509 200.8 645.509 190.006V143.232C645.509 124.214 656.046 110.079 673.008 110.079C690.227 110.079 699.479 124.214 699.479 143.232V192.062C699.479 207.225 708.218 213.907 720.04 213.907Z" fill="#B8D1D0"/>
<path d="M810.644 213.907C842.255 213.907 871.296 192.576 871.296 154.026C871.296 115.476 842.255 94.1448 810.644 94.1448C779.033 94.1448 749.992 115.476 749.992 154.026C749.992 192.576 779.033 213.907 810.644 213.907ZM816.041 205.169C794.196 205.169 779.033 176.642 779.033 143.746C779.033 115.733 789.827 102.883 805.247 102.883C827.092 102.883 842.255 131.41 842.255 164.306C842.255 192.319 831.204 205.169 816.041 205.169Z" fill="#B8D1D0"/>
<path d="M241.385 36.0113L242.974 19.7154C243.022 19.4435 243.166 19.1974 243.379 19.0201C243.592 18.8428 243.86 18.7456 244.138 18.7456C244.415 18.7456 244.684 18.8428 244.897 19.0201C245.11 19.1974 245.253 19.4435 245.302 19.7154L246.854 35.9745C246.959 37.2327 247.519 38.4104 248.429 39.2895C249.34 40.1687 250.539 40.6898 251.806 40.7565L269.508 41.8233C269.781 41.872 270.028 42.0147 270.207 42.2266C270.385 42.4384 270.482 42.7058 270.482 42.9821C270.482 43.2583 270.385 43.5258 270.207 43.7376C270.028 43.9494 269.781 44.0922 269.508 44.1408L251.769 45.2076C250.51 45.2965 249.323 45.8249 248.417 46.6998C247.511 47.5746 246.944 48.7397 246.817 49.9897L245.265 66.2855C245.216 66.5574 245.073 66.8036 244.86 66.9809C244.647 67.1582 244.378 67.2554 244.101 67.2554C243.823 67.2554 243.555 67.1582 243.342 66.9809C243.129 66.8036 242.985 66.5574 242.937 66.2855L241.385 50.0265C241.264 48.7738 240.7 47.6046 239.793 46.7284C238.885 45.8522 237.694 45.326 236.432 45.2443L218.731 44.1776C218.457 44.129 218.21 43.9862 218.032 43.7744C217.854 43.5626 217.756 43.2952 217.756 43.0189C217.756 42.7427 217.854 42.4751 218.032 42.2633C218.21 42.0515 218.457 41.9088 218.731 41.8602L236.432 40.7565C237.693 40.6909 238.888 40.1749 239.798 39.3033C240.707 38.4317 241.271 37.263 241.385 36.0113V36.0113Z" fill="#EF9C32"/>
<path d="M213.225 112.046C217.679 111.275 222.221 111.139 226.714 111.642C228.25 111.927 229.835 111.787 231.296 111.237L230.742 110.759C220.138 101.661 208.72 93.5465 196.632 86.5174C180.556 77.1739 169.728 53.705 166.55 46.6054C164.036 41.1013 159.558 36.7227 153.985 34.3192C156.711 34.152 159.44 34.6127 161.959 35.6653C164.478 36.7179 166.719 38.3342 168.508 40.3887C171.317 42.7062 181.48 60.8413 186.727 61.3563C188.602 61.2877 190.462 61.0038 192.271 60.5102H192.678L195.154 59.9217H195.412L197.371 59.4435L201.066 58.3767L200.734 58.156C195.117 54.4775 191.532 48.1873 187.614 41.4188C185.553 37.7959 183.072 34.4254 180.223 31.3764C179.428 30.5219 178.563 29.7343 177.636 29.0221C176.688 28.333 175.687 27.718 174.643 27.1828C172.721 26.2264 170.947 25.454 169.063 24.7183C167.178 23.9826 165.367 23.3204 164 22.5847L158.789 20.0098L148.293 14.9334C141.183 11.5624 133.877 8.61446 126.415 6.10501C118.825 3.6203 110.999 1.91921 103.059 1.02863C101.011 0.778128 98.951 0.630818 96.8876 0.587229C94.4363 0.569395 92.0121 1.0972 89.7921 2.13214C87.7226 3.05177 86.0965 4.04498 84.6182 4.67033C83.14 5.29568 80.9228 6.28885 79.2228 7.1717C72.029 10.6131 65.2374 14.8321 58.9708 19.7523C55.7088 22.168 52.6443 24.8372 49.8058 27.7347C47.4167 30.2659 45.3897 33.1129 43.782 36.1953C45.476 35.8871 47.1972 35.7514 48.9189 35.7906C54.7972 36.1337 60.5961 37.3105 66.1403 39.2852C60.9664 39.2852 34.1365 37.8505 19.8346 47.4147C17.0857 49.2567 14.8077 51.7132 13.1826 54.5879C12.5913 55.7282 11.8151 57.3836 10.9651 59.4435C10.8578 59.7441 10.7345 60.0388 10.5956 60.3263C8.11932 66.7853 6.10631 73.4111 4.57179 80.1536C1.81034 91.8613 0.409135 103.846 0.395752 115.872C0.395752 117.711 0.395752 119.551 0.395752 121.427C0.395752 123.303 0.654389 124.553 0.802213 126.135V127.128C0.950037 128.502 1.13491 129.863 1.35664 131.211L1.57837 132.499C2.12336 135.813 2.86367 139.093 3.79563 142.321C5.55254 147.916 8.03735 153.258 11.1868 158.212C12.6651 160.014 14.1434 160.75 15.4368 159.058L16.3607 157.77C17.4325 156.262 19.0215 154.092 20.9432 151.002L23.3085 147.323V147.103L25.5627 143.424L26.0802 142.615C27.7432 139.929 29.7756 136.987 31.4756 133.823L32.2517 132.536L34.543 128.636L35.2082 127.533L38.1278 122.493L38.83 121.279C39.6061 119.882 40.382 118.484 41.195 117.086C41.4537 116.571 41.7495 116.056 42.0452 115.541L45.0386 110.023C48.3646 103.806 51.6166 97.4058 54.573 91.042C56.0143 88.0256 57.4927 85.046 59.0818 82.1032C61.3748 77.6348 64.0583 73.3758 67.1012 69.3755C68.6715 67.3159 70.4969 65.462 72.5338 63.8577C74.5442 62.2053 77.0274 61.227 79.6293 61.0621C71.3511 68.4191 64.3296 88.5038 58.4906 110.575C54.795 124.811 56.5688 131.726 45.6668 165.274C34.8387 198.16 44.7799 210.152 58.0101 219.68C85.4684 238.44 114.774 238.624 117.953 263.822L119.653 277.028L126.526 265.624C128.992 261.447 130.94 256.988 132.328 252.345V251.72L137.909 255.84C141.402 249.419 142.852 242.094 142.066 234.834C141.281 227.575 138.297 220.725 133.511 215.192C133.955 216.148 134.398 217.105 134.804 218.098C136.499 221.901 137.74 225.889 138.5 229.98C139.301 234.441 138.971 239.031 137.539 243.333L135.728 248.446L131.331 245.209C130.669 244.738 129.963 244.332 129.224 243.995C128.891 246.476 128.397 248.934 127.746 251.352C126.489 255.575 124.715 259.627 122.461 263.417C118.1 228.692 84.9139 229.869 65.7338 215.597C46.5537 201.324 45.0386 184.329 56.8645 154.938C60.4748 145.9 63.1013 136.503 64.6992 126.908C65.0318 124.737 65.4381 122.604 65.9185 120.47C65.8976 120.164 65.8976 119.857 65.9185 119.55L66.2512 118.005C66.2512 121.316 66.2513 124.59 66.7687 127.827C66.9466 130.952 67.5687 134.036 68.6165 136.987C69.083 138.255 69.7992 139.418 70.723 140.408C71.1665 140.886 71.6837 141.291 72.3858 141.989C72.8863 142.545 73.4167 143.073 73.9749 143.571C76.3283 145.351 78.947 146.754 81.7358 147.728C87.6344 149.779 93.7673 151.089 99.992 151.627C105.979 152.326 112.077 152.473 118.211 152.62H119.135C125.503 152.657 131.821 153.738 137.835 155.821C143.212 157.617 148.831 158.597 154.502 158.727C166.433 159.87 178.212 162.25 189.647 165.826C194.523 165.973 199.398 165.541 204.171 164.539C207.534 163.877 210.86 162.994 214.149 162.001C221.54 158.874 226.64 150.376 216.551 151.517C214.178 151.668 211.819 151.987 209.492 152.473C206.129 153.135 202.766 154.901 198.406 156.152C194.304 157.081 190.034 156.967 185.989 155.821C182.449 154.397 178.709 153.529 174.902 153.246C176.681 152.238 178.662 151.635 180.704 151.48C182.773 151.48 184.732 151.48 186.58 151.48C190.042 151.916 193.552 151.766 196.964 151.039C200.069 150.156 203.284 147.802 207.238 146.22C211.092 144.609 215.217 143.735 219.397 143.645H219.101C220.025 143.645 220.949 143.645 221.91 143.645C224.829 139.598 227.305 135.258 226.344 131.432C225.214 129.914 223.639 128.783 221.836 128.195C219.618 127.423 207.608 124.995 203.579 121.316C202.101 118.888 203.543 114.069 213.225 112.046ZM149.624 63.5266C148.571 64.4488 147.783 65.6333 147.341 66.9584C146.9 68.2835 146.82 69.7018 147.111 71.0677C147.443 75.3715 142.27 78.7925 136.024 79.4547C128.005 80.3375 123.718 75.7761 124.937 70.3319C127.044 61.3563 122.424 64.2991 119.32 67.9041C119.258 67.9746 119.176 68.0238 119.084 68.0446C118.993 68.0655 118.897 68.0568 118.811 68.02C118.724 67.9832 118.652 67.9201 118.604 67.8397C118.556 67.7594 118.535 67.666 118.544 67.573C119.874 58.3399 125.307 57.9721 127.746 57.9721C135.08 58.4913 142.346 59.7234 149.439 61.6507C149.619 61.7243 149.776 61.8453 149.892 62.0008C150.008 62.1563 150.079 62.3404 150.098 62.5332C150.117 62.7261 150.083 62.9205 150 63.0955C149.916 63.2706 149.786 63.4196 149.624 63.5266Z" fill="#EF9C32"/>
</svg>
