<svg width="263" height="247" viewBox="0 0 263 247" fill="none" xmlns="http://www.w3.org/2000/svg">
<path d="M0.902 223.6V224.854H5.896V239H7.282V224.854H12.276V223.6H0.902ZM19.6042 227.824C17.6462 227.824 16.3042 229.144 15.7322 230.508V223.16H14.4342V239H15.7322V233.5C15.7322 231.08 17.1402 229.012 19.3842 229.012C21.2102 229.012 22.2662 230.42 22.2662 232.07V239H23.5642V231.828C23.5642 229.76 21.9582 227.824 19.6042 227.824ZM36.7307 233.676C36.7307 230.42 34.8387 227.802 31.5167 227.802C28.2607 227.802 26.1707 230.354 26.1707 233.544C26.1707 236.8 28.3267 239.22 31.6267 239.22C33.8927 239.22 35.5647 238.054 36.5107 235.986L35.2127 235.744C34.5307 237.24 33.2327 238.032 31.5827 238.032C29.1847 238.032 27.5347 236.338 27.4467 233.962H36.7307C36.7307 233.896 36.7307 233.742 36.7307 233.676ZM27.5127 232.84C27.7327 230.574 29.2727 228.968 31.5167 228.968C33.7167 228.968 35.2787 230.53 35.4107 232.84H27.5127ZM57.9588 228.044L55.2968 237.482L52.3268 228.044H51.1828L48.2128 237.482L45.5508 228.044H44.2308L47.4868 239H48.8948L51.7548 229.87L54.6368 239H56.0228L59.3008 228.044H57.9588ZM65.6215 227.802C63.3995 227.802 61.4635 229.1 61.1115 231.234L62.4095 231.454C62.6295 229.936 64.0155 228.99 65.5555 228.99C67.1175 228.99 68.5255 229.892 68.5255 231.806V232.202C66.1495 232.224 60.8255 232.18 60.8255 235.898C60.8255 237.944 62.4755 239.22 64.4775 239.22C66.5675 239.22 67.8435 238.12 68.5255 236.624V239H69.8455V231.85C69.8455 229.298 68.0635 227.802 65.6215 227.802ZM68.5255 234.072C68.5255 236.118 66.9855 238.032 64.7855 238.032C63.4215 238.032 62.1235 237.328 62.1235 235.92C62.1235 233.082 67.4035 233.28 68.5255 233.258V234.072ZM74.4061 239V223.16H73.1081V239H74.4061ZM79.0897 239V223.16H77.7917V239H79.0897ZM92.3753 233.676C92.3753 230.42 90.4833 227.802 87.1613 227.802C83.9053 227.802 81.8153 230.354 81.8153 233.544C81.8153 236.8 83.9713 239.22 87.2713 239.22C89.5373 239.22 91.2093 238.054 92.1553 235.986L90.8573 235.744C90.1753 237.24 88.8773 238.032 87.2273 238.032C84.8293 238.032 83.1793 236.338 83.0913 233.962H92.3753C92.3753 233.896 92.3753 233.742 92.3753 233.676ZM83.1573 232.84C83.3773 230.574 84.9173 228.968 87.1613 228.968C89.3613 228.968 90.9233 230.53 91.0553 232.84H83.1573ZM99.2441 229.144V228.044H96.8681V225.074L95.5921 225.294V228.044H93.8321V229.144H95.5701V236.294C95.5701 238.23 96.3621 239.22 98.1661 239.22C98.5841 239.22 98.9581 239.176 99.3541 239.088V237.9C99.0461 238.01 98.6941 238.032 98.3861 238.032C97.0881 238.032 96.8901 237.416 96.8901 236.118V229.144H99.2441ZM120.392 228.044L117.73 237.482L114.76 228.044H113.616L110.646 237.482L107.984 228.044H106.664L109.92 239H111.328L114.188 229.87L117.07 239H118.456L121.734 228.044H120.392ZM133.69 233.676C133.69 230.42 131.798 227.802 128.476 227.802C125.22 227.802 123.13 230.354 123.13 233.544C123.13 236.8 125.286 239.22 128.586 239.22C130.852 239.22 132.524 238.054 133.47 235.986L132.172 235.744C131.49 237.24 130.192 238.032 128.542 238.032C126.144 238.032 124.494 236.338 124.406 233.962H133.69C133.69 233.896 133.69 233.742 133.69 233.676ZM124.472 232.84C124.692 230.574 126.232 228.968 128.476 228.968C130.676 228.968 132.238 230.53 132.37 232.84H124.472ZM136.423 239H137.721V236.69C138.535 238.362 140.185 239.22 141.989 239.22C145.025 239.22 147.181 236.734 147.181 233.522C147.181 230.332 145.025 227.824 141.967 227.824C140.207 227.824 138.535 228.66 137.721 230.332V223.204H136.423V239ZM137.721 233.522C137.721 231.014 139.195 229.012 141.769 229.012C144.277 229.012 145.883 230.904 145.883 233.544C145.883 236.184 144.255 238.032 141.791 238.032C139.195 238.032 137.721 236.03 137.721 233.522ZM149.563 234.644C149.563 237.57 152.027 239.22 154.645 239.22C157.241 239.22 159.793 237.57 159.793 234.644C159.793 232.796 158.539 231.3 156.845 230.772C158.297 230.156 159.133 228.836 159.133 227.428C159.133 224.876 156.977 223.38 154.667 223.38C152.335 223.38 150.289 224.92 150.289 227.45L151.587 227.67C151.565 225.866 152.841 224.634 154.623 224.634C156.273 224.634 157.791 225.734 157.791 227.494C157.791 229.144 156.295 230.244 154.711 230.244H153.545V231.476H154.689C156.515 231.476 158.451 232.62 158.451 234.622C158.451 236.712 156.559 237.966 154.623 237.966C152.577 237.966 150.839 236.624 150.839 234.402L149.563 234.644ZM178.855 223.204H177.557V230.332C176.743 228.66 175.071 227.824 173.311 227.824C170.253 227.824 168.097 230.332 168.097 233.522C168.097 236.734 170.253 239.22 173.289 239.22C175.093 239.22 176.743 238.362 177.557 236.69V239H178.855V223.204ZM177.557 233.522C177.557 236.03 176.083 238.032 173.487 238.032C171.023 238.032 169.395 236.184 169.395 233.544C169.395 230.904 171.001 229.012 173.509 229.012C176.083 229.012 177.557 231.014 177.557 233.522ZM192.149 233.676C192.149 230.42 190.257 227.802 186.935 227.802C183.679 227.802 181.589 230.354 181.589 233.544C181.589 236.8 183.745 239.22 187.045 239.22C189.311 239.22 190.983 238.054 191.929 235.986L190.631 235.744C189.949 237.24 188.651 238.032 187.001 238.032C184.603 238.032 182.953 236.338 182.865 233.962H192.149C192.149 233.896 192.149 233.742 192.149 233.676ZM182.931 232.84C183.151 230.574 184.691 228.968 186.935 228.968C189.135 228.968 190.697 230.53 190.829 232.84H182.931ZM195.608 230.838C195.608 229.606 196.906 228.946 198.116 228.946C199.392 228.946 200.514 229.672 200.778 230.992L202.054 230.772C201.724 228.88 199.942 227.78 198.094 227.78C196.136 227.78 194.332 229.012 194.332 230.97C194.332 233.148 196.554 233.698 197.852 233.984C199.898 234.446 201.064 234.842 201.064 236.096C201.064 237.526 199.524 238.032 198.358 238.032C196.884 238.032 195.674 237.218 195.432 235.766L194.156 235.964C194.42 238.164 196.421 239.22 198.424 239.22C200.448 239.22 202.384 238.142 202.384 236.03C202.384 233.676 199.964 233.17 198.93 232.95C196.84 232.488 195.608 232.07 195.608 230.838ZM214.879 233.676C214.879 230.42 212.987 227.802 209.665 227.802C206.409 227.802 204.319 230.354 204.319 233.544C204.319 236.8 206.475 239.22 209.775 239.22C212.041 239.22 213.713 238.054 214.659 235.986L213.361 235.744C212.679 237.24 211.381 238.032 209.731 238.032C207.333 238.032 205.683 236.338 205.595 233.962H214.879C214.879 233.896 214.879 233.742 214.879 233.676ZM205.661 232.84C205.881 230.574 207.421 228.968 209.665 228.968C211.865 228.968 213.427 230.53 213.559 232.84H205.661ZM222.804 227.868C222.65 227.824 222.452 227.824 222.276 227.824C220.604 227.824 219.46 228.55 218.822 230.024V228.044H217.524V239H218.822V233.06C218.822 230.596 220.032 228.814 222.804 229.034V227.868ZM232.218 228.044L228.764 237.394L225.332 228.044H223.968L228.148 239H229.424L233.582 228.044H232.218ZM245.494 233.676C245.494 230.42 243.602 227.802 240.28 227.802C237.024 227.802 234.934 230.354 234.934 233.544C234.934 236.8 237.09 239.22 240.39 239.22C242.656 239.22 244.328 238.054 245.274 235.986L243.976 235.744C243.294 237.24 241.996 238.032 240.346 238.032C237.948 238.032 236.298 236.338 236.21 233.962H245.494C245.494 233.896 245.494 233.742 245.494 233.676ZM236.276 232.84C236.496 230.574 238.036 228.968 240.28 228.968C242.48 228.968 244.042 230.53 244.174 232.84H236.276ZM248.953 230.838C248.953 229.606 250.251 228.946 251.461 228.946C252.737 228.946 253.859 229.672 254.123 230.992L255.399 230.772C255.069 228.88 253.287 227.78 251.439 227.78C249.481 227.78 247.677 229.012 247.677 230.97C247.677 233.148 249.899 233.698 251.197 233.984C253.243 234.446 254.409 234.842 254.409 236.096C254.409 237.526 252.869 238.032 251.703 238.032C250.229 238.032 249.019 237.218 248.777 235.766L247.501 235.964C247.765 238.164 249.767 239.22 251.769 239.22C253.793 239.22 255.729 238.142 255.729 236.03C255.729 233.676 253.309 233.17 252.275 232.95C250.185 232.488 248.953 232.07 248.953 230.838ZM259.645 239.066C260.217 239.066 260.679 238.582 260.679 238.01C260.679 237.416 260.217 236.954 259.645 236.954C259.073 236.954 258.589 237.416 258.589 238.01C258.589 238.582 259.073 239.066 259.645 239.066Z" fill="#81ABA8"/>
<path d="M42.283 191.978H72.2794V189.41C64.8491 188.859 62.7393 187.667 62.7393 184.181V144.369C62.7393 139.691 63.5649 138.682 69.7109 138.682C76.2239 138.682 78.242 140.883 80.9022 148.13H83.5625L82.003 136.022C81.9113 135.196 81.3609 134.737 80.5353 134.829C79.2511 134.921 77.0495 135.013 74.8479 135.013H39.8063C37.6047 135.013 35.3114 134.921 34.0272 134.829C33.2016 134.737 32.6512 135.196 32.5594 136.022L31 148.13H33.6602C36.3205 140.883 38.3386 138.682 44.8515 138.682C50.9976 138.682 51.8232 139.691 51.8232 144.369V184.181C51.8232 187.667 49.7133 188.859 42.283 189.41V191.978Z" fill="#D6EAE9"/>
<path d="M96.0603 192.529C102.298 192.529 107.435 189.41 110.37 185.924C111.104 184.915 111.838 185.098 111.838 186.107C112.113 189.868 114.59 192.529 119.085 192.529C121.837 192.529 124.681 191.611 125.781 189.501V188.125C123.121 188.768 121.378 187.85 121.378 184.64V165.835C121.378 154.093 116.883 149.781 106.151 149.781C96.6106 149.781 86.7036 152.9 86.7036 159.964C86.7036 162.624 88.3548 164.642 91.3819 164.642C94.2256 164.642 96.6106 162.991 96.6106 159.413C96.6106 155.377 98.4453 152.809 103.491 152.809C109.27 152.809 111.746 156.478 111.746 163.083V164.734C111.746 166.935 111.013 167.577 108.903 167.853C90.0059 170.329 84.0434 175.1 84.0434 182.438C84.0434 189.593 89.8225 192.529 96.0603 192.529ZM101.197 187.116C96.2437 187.116 94.0422 183.998 94.0422 180.42C94.0422 176.567 96.6106 171.889 108.077 170.696C111.104 170.421 111.746 171.522 111.746 173.632V176.659C111.746 182.713 107.16 187.116 101.197 187.116Z" fill="#D6EAE9"/>
<path d="M170.011 192.529C172.672 192.529 175.515 191.611 176.708 189.501V188.125C174.048 188.768 172.305 187.85 172.305 184.64V165.192C172.305 153.359 165.7 149.69 159.004 149.69C151.481 149.69 147.629 153.909 145.886 155.744C144.693 157.12 143.409 156.111 143.409 152.809V134.921C143.409 132.628 142.125 131.527 139.74 131.985L127.906 134.279V136.755C132.401 136.297 133.777 137.673 133.777 141.801V183.998C133.777 187.85 132.218 189.043 127.906 189.501V191.978H149.28V189.501C144.969 189.043 143.409 187.85 143.409 183.998V167.302C143.409 160.514 147.17 155.469 153.224 155.469C159.37 155.469 162.673 160.514 162.673 167.302V184.731C162.673 190.144 165.792 192.529 170.011 192.529Z" fill="#D6EAE9"/>
<path d="M202.351 192.529C213.634 192.529 224 184.915 224 171.155C224 157.395 213.634 149.781 202.351 149.781C191.068 149.781 180.702 157.395 180.702 171.155C180.702 184.915 191.068 192.529 202.351 192.529ZM204.278 189.41C196.48 189.41 191.068 179.227 191.068 167.486C191.068 157.487 194.921 152.9 200.425 152.9C208.222 152.9 213.634 163.083 213.634 174.824C213.634 184.823 209.69 189.41 204.278 189.41Z" fill="#D6EAE9"/>
<path d="M173.539 14.8553L174.174 8.35441C174.193 8.24593 174.25 8.14776 174.335 8.07702C174.42 8.00629 174.528 7.96753 174.638 7.96753C174.749 7.96753 174.857 8.00629 174.942 8.07702C175.026 8.14776 175.084 8.24593 175.103 8.35441L175.723 14.8406C175.765 15.3425 175.988 15.8123 176.352 16.163C176.715 16.5138 177.194 16.7216 177.7 16.7483L184.767 17.1738C184.876 17.1933 184.975 17.2502 185.046 17.3347C185.117 17.4192 185.156 17.5259 185.156 17.6361C185.156 17.7463 185.117 17.853 185.046 17.9375C184.975 18.022 184.876 18.0789 184.767 18.0984L177.685 18.5239C177.183 18.5594 176.709 18.7702 176.347 19.1192C175.985 19.4682 175.759 19.933 175.708 20.4316L175.088 26.9324C175.069 27.0409 175.012 27.1391 174.927 27.2099C174.842 27.2806 174.735 27.3194 174.624 27.3194C174.513 27.3194 174.406 27.2806 174.321 27.2099C174.236 27.1391 174.178 27.0409 174.159 26.9324L173.539 20.4463C173.491 19.9466 173.266 19.4802 172.904 19.1306C172.541 18.7811 172.066 18.5712 171.562 18.5386L164.495 18.113C164.386 18.0936 164.287 18.0367 164.216 17.9522C164.145 17.8677 164.106 17.761 164.106 17.6508C164.106 17.5406 164.145 17.4339 164.216 17.3494C164.287 17.2648 164.386 17.2079 164.495 17.1885L171.562 16.7483C172.066 16.7221 172.543 16.5163 172.906 16.1686C173.269 15.8208 173.494 15.3546 173.539 14.8553V14.8553Z" fill="#D6EAE9"/>
<path d="M162.297 45.1876C164.075 44.8801 165.889 44.8258 167.682 45.0262C168.295 45.14 168.928 45.0841 169.512 44.8648L169.291 44.674C165.057 41.0446 160.498 37.8076 155.672 35.0035C149.254 31.2761 144.931 21.9138 143.663 19.0816C142.659 16.8858 140.871 15.1391 138.646 14.1803C139.735 14.1136 140.824 14.2973 141.83 14.7172C142.835 15.1372 143.73 15.7819 144.444 16.6015C145.566 17.526 149.623 24.7606 151.718 24.9661C152.467 24.9387 153.209 24.8254 153.931 24.6285H154.094L155.082 24.3938H155.186L155.967 24.203L157.443 23.7774L157.31 23.6894C155.067 22.2219 153.636 19.7126 152.072 17.0125C151.249 15.5672 150.259 14.2226 149.121 13.0063C148.804 12.6654 148.459 12.3512 148.089 12.0671C147.71 11.7922 147.311 11.5469 146.894 11.3334C146.126 10.9518 145.418 10.6437 144.666 10.3502C143.913 10.0567 143.19 9.79255 142.644 9.49906L140.564 8.47186L136.374 6.44676C133.535 5.10199 130.618 3.92596 127.639 2.92487C124.609 1.93366 121.485 1.25505 118.315 0.899773C117.497 0.79984 116.675 0.741074 115.851 0.723685C114.872 0.71657 113.904 0.927125 113.018 1.33999C112.192 1.70686 111.543 2.10307 110.952 2.35254C110.362 2.60201 109.477 2.99821 108.798 3.3504C105.926 4.72327 103.215 6.40632 100.713 8.36913C99.4107 9.33282 98.1872 10.3976 97.054 11.5535C96.1002 12.5633 95.2909 13.699 94.649 14.9287C95.3254 14.8057 96.0125 14.7516 96.6999 14.7672C99.0467 14.9041 101.362 15.3736 103.575 16.1613C101.51 16.1613 90.7982 15.589 85.0884 19.4044C83.9909 20.1392 83.0814 21.1192 82.4326 22.266C82.1966 22.7209 81.8867 23.3812 81.5473 24.203C81.5045 24.3229 81.4552 24.4405 81.3998 24.5552C80.4112 27.1319 79.6075 29.775 78.9949 32.4648C77.8924 37.1353 77.333 41.9163 77.3276 46.7138C77.3276 47.4475 77.3276 48.1813 77.3276 48.9297C77.3276 49.6781 77.4309 50.177 77.4899 50.808V51.2042C77.5489 51.7521 77.6227 52.295 77.7113 52.8331L77.7998 53.3467C78.0174 54.6689 78.3129 55.9772 78.685 57.2648C79.3864 59.4969 80.3784 61.6282 81.6358 63.6043C82.226 64.3233 82.8162 64.6168 83.3326 63.9418L83.7015 63.4281C84.1293 62.8265 84.7637 61.9607 85.531 60.728L86.4753 59.2606V59.1725L87.3752 57.7051L87.5818 57.3822C88.2458 56.311 89.0572 55.137 89.7359 53.875L90.0457 53.3614L90.9605 51.8059L91.2261 51.3656L92.3917 49.3552L92.672 48.871C92.9819 48.3133 93.2916 47.7557 93.6162 47.1981C93.7195 46.9926 93.8376 46.7872 93.9556 46.5818L95.1507 44.3806C96.4786 41.9006 97.7769 39.3472 98.9572 36.8085C99.5327 35.6052 100.123 34.4165 100.757 33.2426C101.673 31.46 102.744 29.7609 103.959 28.1651C104.586 27.3435 105.315 26.604 106.128 25.9639C106.93 25.3048 107.922 24.9145 108.961 24.8487C105.656 27.7836 102.852 35.7959 100.521 44.6007C99.0459 50.2797 99.754 53.0385 95.4015 66.4218C91.0785 79.5408 95.0475 84.3248 100.329 88.1255C111.292 95.6095 122.992 95.6829 124.261 105.735L124.939 111.003L127.684 106.454C128.668 104.788 129.446 103.009 130 101.157V100.907L132.228 102.551C133.623 99.9893 134.201 97.067 133.888 94.171C133.574 91.2751 132.383 88.5424 130.472 86.3352C130.649 86.7167 130.826 87.0983 130.989 87.4945C131.665 89.0116 132.16 90.6024 132.464 92.2343C132.784 94.014 132.652 95.8451 132.08 97.5612L131.357 99.601L129.602 98.3097C129.338 98.122 129.056 97.9598 128.761 97.8254C128.628 98.8153 128.431 99.7956 128.171 100.76C127.669 102.445 126.96 104.062 126.061 105.574C124.32 91.7207 111.07 92.1903 103.413 86.4966C95.7556 80.8028 95.1507 74.0232 99.8721 62.2982C101.313 58.6927 102.362 54.944 103 51.1162C103.133 50.2504 103.295 49.3993 103.487 48.5481C103.478 48.426 103.478 48.3034 103.487 48.1813L103.62 47.5649C103.62 48.8856 103.62 50.1917 103.826 51.4831C103.897 52.7296 104.146 53.9598 104.564 55.137C104.75 55.643 105.036 56.107 105.405 56.5017C105.582 56.6925 105.788 56.854 106.069 57.1328C106.269 57.3544 106.48 57.5651 106.703 57.7638C107.643 58.4738 108.688 59.0333 109.802 59.422C112.157 60.2402 114.605 60.7628 117.09 60.9775C119.48 61.2563 121.915 61.315 124.364 61.3737H124.733C127.275 61.3884 129.797 61.8197 132.198 62.6504C134.345 63.367 136.589 63.7579 138.853 63.8097C143.616 64.2659 148.319 65.2151 152.884 66.6419C154.83 66.7004 156.777 66.528 158.682 66.1283C160.025 65.8641 161.353 65.512 162.666 65.1158C165.617 63.8684 167.653 60.4786 163.625 60.9335C162.678 60.9937 161.736 61.1212 160.807 61.315C159.464 61.5791 158.122 62.2835 156.381 62.7825C154.743 63.153 153.038 63.1076 151.423 62.6504C150.01 62.0826 148.517 61.7362 146.997 61.6232C147.707 61.2211 148.498 60.9805 149.313 60.9188C150.14 60.9188 150.922 60.9188 151.659 60.9188C153.041 61.0925 154.443 61.033 155.805 60.7427C157.045 60.3905 158.328 59.4513 159.907 58.8203C161.446 58.1776 163.092 57.8291 164.761 57.7931H164.643C165.012 57.7931 165.381 57.7931 165.764 57.7931C166.93 56.1789 167.918 54.4473 167.535 52.9211C167.084 52.3157 166.455 51.8645 165.735 51.6298C164.849 51.3216 160.054 50.3531 158.446 48.8856C157.856 47.9171 158.431 45.9947 162.297 45.1876ZM136.905 25.8319C136.485 26.1998 136.17 26.6723 135.994 27.2009C135.818 27.7295 135.786 28.2953 135.902 28.8402C136.035 30.5571 133.969 31.9218 131.476 32.186C128.274 32.5382 126.562 30.7185 127.049 28.5467C127.89 24.9661 126.046 26.14 124.807 27.5781C124.782 27.6063 124.749 27.6259 124.713 27.6342C124.676 27.6425 124.638 27.6391 124.603 27.6244C124.569 27.6097 124.54 27.5845 124.521 27.5525C124.502 27.5204 124.493 27.4832 124.497 27.4461C125.028 23.7628 127.197 23.616 128.171 23.616C131.099 23.8232 133.999 24.3146 136.831 25.0835C136.903 25.1129 136.966 25.1611 137.012 25.2232C137.058 25.2852 137.087 25.3586 137.095 25.4356C137.102 25.5125 137.088 25.5901 137.055 25.6599C137.022 25.7297 136.97 25.7892 136.905 25.8319Z" fill="#EF9C32"/>
</svg>
