<svg width="143" height="52" viewBox="0 0 143 52" fill="none" xmlns="http://www.w3.org/2000/svg">
<path d="M75.5334 25.0925H72.0156V20.8008H70.3845V25.0925H66.8667V26.9091H70.3845V31.2008H72.0156V26.9091H75.5334V25.0925Z" fill="#476565"/>
<path fill-rule="evenodd" clip-rule="evenodd" d="M96 0C93.2386 0 91 2.23858 91 5V47C91 49.7614 93.2386 52 96 52H138C140.761 52 143 49.7614 143 47V5C143 2.23858 140.761 0 138 0H96ZM116.536 13.8672C116.569 13.8672 116.602 13.8702 116.634 13.876L126.818 13.876C127.14 13.876 127.4 14.1562 127.4 14.5019C127.4 14.8476 127.14 15.1278 126.818 15.1278L117.12 15.1278L117.12 35.7702C117.12 36.1183 116.859 36.4005 116.536 36.4005C116.213 36.4005 115.952 36.1183 115.952 35.7702L115.952 15.1278L107.182 15.1278C106.861 15.1278 106.6 14.8476 106.6 14.5019C106.6 14.1562 106.861 13.876 107.182 13.876L116.438 13.876C116.47 13.8702 116.503 13.8672 116.536 13.8672Z" fill="#D9D9D9"/>
<path fill-rule="evenodd" clip-rule="evenodd" d="M138.048 1.2381H95.9524C93.901 1.2381 92.2381 2.90104 92.2381 4.95238V47.0476C92.2381 49.099 93.901 50.7619 95.9524 50.7619H138.048C140.099 50.7619 141.762 49.099 141.762 47.0476V4.95238C141.762 2.90104 140.099 1.2381 138.048 1.2381ZM95.9524 0C93.2173 0 91 2.21726 91 4.95238V47.0476C91 49.7827 93.2173 52 95.9524 52H138.048C140.783 52 143 49.7827 143 47.0476V4.95238C143 2.21726 140.783 0 138.048 0H95.9524Z" fill="#476565"/>
<path fill-rule="evenodd" clip-rule="evenodd" d="M47.0476 1.2381H4.95238C2.90104 1.2381 1.2381 2.90104 1.2381 4.95238V47.0476C1.2381 49.099 2.90104 50.7619 4.95238 50.7619H47.0476C49.099 50.7619 50.7619 49.099 50.7619 47.0476V4.95238C50.7619 2.90104 49.099 1.2381 47.0476 1.2381ZM4.95238 0C2.21726 0 0 2.21726 0 4.95238V47.0476C0 49.7827 2.21726 52 4.95238 52H47.0476C49.7827 52 52 49.7827 52 47.0476V4.95238C52 2.21726 49.7827 0 47.0476 0H4.95238Z" fill="#476565"/>
<path fill-rule="evenodd" clip-rule="evenodd" d="M14.5175 17.334C14.1581 17.334 13.8667 17.6162 13.8667 17.9643C13.8667 18.3124 14.1581 18.5946 14.5175 18.5946H20.2423C20.4754 18.5946 20.6906 18.7153 20.8067 18.911L28.559 31.9848C28.9071 32.5719 29.5528 32.934 30.2519 32.934H39.2159C39.5753 32.934 39.8667 32.6518 39.8667 32.3037C39.8667 31.9556 39.5753 31.6734 39.2159 31.6734H30.2519C30.0189 31.6734 29.8037 31.5527 29.6876 31.357L21.9353 18.2832C21.5871 17.696 20.9414 17.334 20.2423 17.334H14.5175ZM29.4984 17.334C29.139 17.334 28.8477 17.6162 28.8477 17.9643C28.8477 18.3124 29.139 18.5946 29.4984 18.5946L39.2159 18.5946C39.5753 18.5946 39.8666 18.3124 39.8666 17.9643C39.8666 17.6162 39.5753 17.334 39.2159 17.334H29.4984Z" fill="#FFFBFC"/>
</svg>
