<svg width="236" height="52" viewBox="0 0 236 52" fill="none" xmlns="http://www.w3.org/2000/svg">
<path fill-rule="evenodd" clip-rule="evenodd" d="M46.9347 1.23512H4.9405C2.89408 1.23512 1.23512 2.89408 1.23512 4.9405V46.9347C1.23512 48.9811 2.89408 50.6401 4.9405 50.6401H46.9347C48.9811 50.6401 50.6401 48.9811 50.6401 46.9347V4.9405C50.6401 2.89408 48.9811 1.23512 46.9347 1.23512ZM4.9405 0C2.21194 0 0 2.21194 0 4.9405V46.9347C0 49.6633 2.21194 51.8752 4.9405 51.8752H46.9347C49.6633 51.8752 51.8752 49.6633 51.8752 46.9347V4.9405C51.8752 2.21194 49.6633 0 46.9347 0H4.9405Z" fill="#476565"/>
<path fill-rule="evenodd" clip-rule="evenodd" d="M14.4826 17.293C14.124 17.293 13.8334 17.5745 13.8334 17.9218C13.8334 18.269 14.124 18.5506 14.4826 18.5506H20.1937C20.4262 18.5506 20.6409 18.671 20.7567 18.8662L28.4904 31.9086C28.8377 32.4944 29.4819 32.8555 30.1793 32.8555H39.1218C39.4803 32.8555 39.771 32.574 39.771 32.2267C39.771 31.8795 39.4803 31.5979 39.1218 31.5979H30.1793C29.9468 31.5979 29.7321 31.4776 29.6163 31.2823L21.8826 18.2399C21.5353 17.6541 20.8911 17.293 20.1937 17.293H14.4826ZM29.4276 17.293C29.069 17.293 28.7784 17.5745 28.7784 17.9218C28.7784 18.269 29.069 18.5506 29.4276 18.5506L39.1217 18.5506C39.4802 18.5506 39.7709 18.269 39.7709 17.9218C39.7709 17.5745 39.4802 17.293 39.1217 17.293H29.4276Z" fill="#FFFBFC"/>
<path d="M77.8128 25.0314H73.6016V20.75H71.649V25.0314H67.4378V26.8436H71.649V31.125H73.6016V26.8436H77.8128V25.0314Z" fill="#476565"/>
<path d="M167.73 25.0314H164.221V20.75H162.593V25.0314H159.084V26.8436H162.593V31.125H164.221V26.8436H167.73V25.0314Z" fill="#476565"/>
<path fill-rule="evenodd" clip-rule="evenodd" d="M230.227 1.23512H188.233C186.186 1.23512 184.528 2.89408 184.528 4.9405V46.9347C184.528 48.9811 186.186 50.6401 188.233 50.6401H230.227C232.274 50.6401 233.933 48.9811 233.933 46.9347V4.9405C233.933 2.89408 232.274 1.23512 230.227 1.23512ZM188.233 0C185.504 0 183.292 2.21194 183.292 4.9405V46.9347C183.292 49.6633 185.504 51.8752 188.233 51.8752H230.227C232.956 51.8752 235.168 49.6633 235.168 46.9347V4.9405C235.168 2.21194 232.956 0 230.227 0H188.233Z" fill="#476565"/>
<path fill-rule="evenodd" clip-rule="evenodd" d="M208.865 13.8428C208.833 13.837 208.8 13.834 208.767 13.834C208.734 13.834 208.701 13.837 208.669 13.8428L199.435 13.8428C199.115 13.8428 198.855 14.1223 198.855 14.4672C198.855 14.812 199.115 15.0916 199.435 15.0916L208.184 15.0916L208.184 35.6845C208.184 36.0317 208.445 36.3132 208.767 36.3132C209.089 36.3132 209.35 36.0317 209.35 35.6845L209.35 15.0916L219.025 15.0916C219.345 15.0916 219.605 14.8121 219.605 14.4672C219.605 14.1223 219.345 13.8428 219.025 13.8428L208.865 13.8428Z" fill="#FFFBFC"/>
<path fill-rule="evenodd" clip-rule="evenodd" d="M138.581 1.23512H96.5867C94.5403 1.23512 92.8813 2.89408 92.8813 4.9405V46.9347C92.8813 48.9811 94.5403 50.6401 96.5867 50.6401H138.581C140.627 50.6401 142.286 48.9811 142.286 46.9347V4.9405C142.286 2.89408 140.627 1.23512 138.581 1.23512ZM96.5867 0C93.8581 0 91.6462 2.21194 91.6462 4.9405V46.9347C91.6462 49.6633 93.8581 51.8752 96.5867 51.8752H138.581C141.309 51.8752 143.521 49.6633 143.521 46.9347V4.9405C143.521 2.21194 141.309 0 138.581 0H96.5867Z" fill="#476565"/>
<path fill-rule="evenodd" clip-rule="evenodd" d="M117.128 14.0129C117.383 13.7743 117.784 13.7743 118.04 14.0129L129.483 24.7122C129.679 24.8951 129.741 25.1764 129.641 25.4226C129.54 25.6687 129.297 25.8301 129.027 25.8301H124.851V33.9356C124.851 34.2938 124.556 34.5841 124.191 34.5841H110.977C110.612 34.5841 110.316 34.2938 110.316 33.9356V25.8301H106.14C105.87 25.8301 105.627 25.6687 105.527 25.4226C105.427 25.1764 105.489 24.8951 105.685 24.7122L117.128 14.0129ZM117.584 15.378L107.792 24.5332H110.977C111.342 24.5332 111.638 24.8236 111.638 25.1817V33.2872H123.53V25.1817C123.53 24.8236 123.826 24.5332 124.191 24.5332H127.376L117.584 15.378Z" fill="#FFFBFC"/>
</svg>
