<svg width="144" height="52" viewBox="0 0 144 52" fill="none" xmlns="http://www.w3.org/2000/svg">
<path d="M75.5334 25.0925H72.0156V20.8008H70.3845V25.0925H66.8667V26.9091H70.3845V31.2008H72.0156V26.9091H75.5334V25.0925Z" fill="#476565"/>
<path fill-rule="evenodd" clip-rule="evenodd" d="M138.181 1.2381H96.0857C94.0343 1.2381 92.3714 2.90104 92.3714 4.95238V47.0476C92.3714 49.099 94.0343 50.7619 96.0857 50.7619H138.181C140.232 50.7619 141.895 49.099 141.895 47.0476V4.95238C141.895 2.90104 140.232 1.2381 138.181 1.2381ZM96.0857 0C93.3506 0 91.1333 2.21726 91.1333 4.95238V47.0476C91.1333 49.7827 93.3506 52 96.0857 52H138.181C140.916 52 143.133 49.7827 143.133 47.0476V4.95238C143.133 2.21726 140.916 0 138.181 0H96.0857Z" fill="#476565"/>
<path fill-rule="evenodd" clip-rule="evenodd" d="M116.767 13.876C116.735 13.8702 116.703 13.8672 116.669 13.8672C116.636 13.8672 116.603 13.8702 116.571 13.876L107.315 13.876C106.994 13.876 106.733 14.1562 106.733 14.5019C106.733 14.8476 106.994 15.1278 107.315 15.1278L116.085 15.1278L116.085 35.7702C116.085 36.1183 116.347 36.4005 116.669 36.4005C116.992 36.4005 117.254 36.1183 117.254 35.7702L117.254 15.1278L126.952 15.1278C127.273 15.1278 127.533 14.8476 127.533 14.5019C127.533 14.1562 127.273 13.876 126.952 13.876L116.767 13.876Z" fill="#FFFBFC"/>
<path fill-rule="evenodd" clip-rule="evenodd" d="M5 0C2.23858 0 0 2.23858 0 5V47C0 49.7614 2.23858 52 5 52H47C49.7614 52 52 49.7614 52 47V5C52 2.23858 49.7614 0 47 0H5ZM13.8667 17.9643C13.8667 17.6162 14.1581 17.334 14.5175 17.334H20.2423C20.9414 17.334 21.5871 17.696 21.9353 18.2832L29.6876 31.357C29.8037 31.5527 30.0189 31.6734 30.2519 31.6734H39.2159C39.5753 31.6734 39.8667 31.9556 39.8667 32.3037C39.8667 32.6518 39.5753 32.934 39.2159 32.934H30.2519C29.5528 32.934 28.9071 32.5719 28.559 31.9848L20.8067 18.911C20.6906 18.7153 20.4754 18.5946 20.2423 18.5946H14.5175C14.1581 18.5946 13.8667 18.3124 13.8667 17.9643ZM28.8477 17.9643C28.8477 17.6162 29.139 17.334 29.4984 17.334H39.2159C39.5753 17.334 39.8666 17.6162 39.8666 17.9643C39.8666 18.3124 39.5753 18.5946 39.2159 18.5946H29.4984C29.139 18.5946 28.8477 18.3124 28.8477 17.9643Z" fill="#D9D9D9"/>
<path fill-rule="evenodd" clip-rule="evenodd" d="M47.0476 1.2381H4.95238C2.90104 1.2381 1.2381 2.90104 1.2381 4.95238V47.0476C1.2381 49.099 2.90104 50.7619 4.95238 50.7619H47.0476C49.099 50.7619 50.7619 49.099 50.7619 47.0476V4.95238C50.7619 2.90104 49.099 1.2381 47.0476 1.2381ZM4.95238 0C2.21726 0 0 2.21726 0 4.95238V47.0476C0 49.7827 2.21726 52 4.95238 52H47.0476C49.7827 52 52 49.7827 52 47.0476V4.95238C52 2.21726 49.7827 0 47.0476 0H4.95238Z" fill="#476565"/>
</svg>
