<svg width="111" height="84" viewBox="0 0 111 84" fill="none" xmlns="http://www.w3.org/2000/svg">
<path d="M89.9249 22.6137C89.9249 22.6137 89.4588 21.9549 89.3096 21.8306C89.1605 21.7063 88.713 21.4391 88.4085 21.2526C88.1102 21.0662 87.6317 20.5504 87.4763 20.3577C87.3209 20.165 86.9294 19.8667 86.9294 19.8667L85.7859 19.3944C85.7859 19.3944 84.7977 19.0029 84.6175 18.804C84.4373 18.6051 84.0395 18.052 84.0395 18.052L84.2011 17.1322L84.3813 16.1689L84.8226 15.8582C84.8226 15.8582 84.7169 15.7774 84.5864 15.6655C84.922 15.6655 85.3384 15.7277 85.8169 15.9576L84.9531 15.3859C84.2384 14.9136 83.7909 14.0932 83.2813 13.2231C83.0203 12.7881 82.7344 12.3344 82.3305 11.9491C82.2745 11.8994 82.2435 11.8559 82.1689 11.8C82.1005 11.7378 82.0322 11.6943 81.97 11.657C81.8395 11.5762 81.7214 11.5141 81.5971 11.4581C81.3547 11.3463 81.1186 11.2531 80.8886 11.1598L80.5592 11.0231C80.4598 10.9796 80.3604 10.9299 80.2485 10.874L79.5835 10.5446C79.1423 10.3271 78.6948 10.1095 78.2411 9.89824C77.3338 9.47563 76.4016 9.09032 75.4258 8.79822C74.4563 8.49991 73.4433 8.30725 72.4303 8.22025C72.1755 8.2016 71.871 8.18296 71.5416 8.26375C71.2247 8.35076 70.9823 8.4937 70.771 8.59935C70.6591 8.6615 70.5908 8.69257 70.4602 8.7485L70.1122 8.90387C69.8823 9.00952 69.6523 9.12139 69.4286 9.23947C68.9811 9.47563 68.5399 9.73665 68.1111 10.0287C67.6822 10.3271 67.3031 10.6192 66.8992 10.9485C66.5014 11.2779 66.1161 11.6446 65.793 12.0921C65.4698 12.5333 65.2274 13.0491 65.0969 13.5774L65.6873 13.7265L65.6687 13.7763L64.811 14.1429L63.1206 15.0503L62.1946 16.2808L61.5855 17.8967C61.5855 17.8967 60.7652 20.4509 60.7466 20.5193C60.7217 20.5876 59.7211 23.1668 59.7211 23.1668C59.7211 23.1668 59.6776 23.1606 59.6093 23.1606L59.5471 22.6261C58.59 22.7442 57.6267 22.9555 56.707 23.3284C55.7872 23.6888 54.9544 24.2419 54.1838 24.7205C53.4131 25.2052 52.6239 25.5408 51.7538 25.6527C51.325 25.7148 50.8713 25.7273 50.4362 25.7148L49.0441 25.634C47.1797 25.5222 45.3339 25.3233 43.4757 25.0934L37.8948 24.4222L15.59 21.6255L4.44072 20.1961L1.6565 19.8357L1.613 19.8294C1.60057 19.8294 1.5322 19.8232 1.49492 19.8232C1.40791 19.8232 1.31469 19.8481 1.2339 19.8854C1.0661 19.96 0.941803 20.0967 0.879655 20.2645C0.848581 20.3453 0.829937 20.4385 0.836152 20.5255C0.836152 20.5628 0.842364 20.5939 0.848579 20.6311L1.15932 21.2526C2.02939 21.9611 3.65144 22.4397 3.65144 22.4397L8.04529 23.3346L22.1777 25.7273L26.4721 26.386L29.2314 26.9391L30.0269 27.6725C29.8902 27.7471 29.8281 27.9024 29.6976 27.9832C28.0071 28.9838 26.4783 30.2765 25.1918 31.7867C24.3218 32.837 23.5387 33.9681 22.8986 35.1799C22.5816 35.789 22.2771 36.398 22.0472 37.0692C21.8172 37.728 21.6432 38.3806 21.4754 39.0331C21.1398 40.3382 20.885 41.6557 20.5991 42.9546C20.4624 43.6134 20.307 44.2162 20.0895 44.8377C19.8844 45.453 19.6607 46.0807 19.4183 46.6897C18.455 49.1508 17.3239 51.5621 16.1369 53.9361C15.5403 55.1231 14.9313 56.304 14.2911 57.4723C13.9742 58.0503 13.651 58.6345 13.3154 59.1876C13.2284 59.3368 13.1538 59.4424 13.0668 59.5729L12.7685 59.9582C12.5696 60.2131 12.3583 60.4554 12.1408 60.6854C11.7058 61.1515 11.221 61.5741 10.7114 61.9408L10.5188 62.0588L10.4255 62.121C10.4007 62.1334 10.2888 62.2018 10.2391 62.2577C10.1148 62.3758 10.0278 62.5249 9.98429 62.6803L9.91593 62.9227C9.82892 63.2272 9.72328 63.538 9.61141 63.8425C9.16395 65.0792 8.64812 66.3035 8.10122 67.503C7.00742 69.9081 5.65881 72.2386 4.7701 74.8302C4.32885 76.1229 4.01811 77.4715 3.92489 78.8574C3.83167 80.2371 3.9684 81.6292 4.29778 82.9653L4.38479 83.3196H4.64581H4.74524H11.6623C11.6623 83.3196 11.5504 81.915 11.4758 81.567C11.4013 81.219 11.0719 80.5354 10.9911 80.4049C10.9041 80.2743 10.264 79.9077 10.264 79.9077L9.60519 79.9201L8.92778 79.802L8.2193 79.7772L8.23173 79.1557L8.36846 77.6331L9.21988 74.1963L12.6007 68.0126L14.4279 65.39L16.3917 63.3826L18.2189 61.3317L20.45 59.4051L22.5879 57.7271L25.7822 54.7503L27.9015 53.1655L29.9275 50.1638L33.2275 46.0558C33.2275 46.0558 33.7931 45.5773 34.3151 45.3411C34.4954 45.6145 34.7688 45.9377 35.1044 46.3292C35.8253 47.1745 36.8135 48.3304 37.3044 49.5609C37.8638 51.4564 37.4287 56.6209 37.4287 56.652C37.3231 57.4785 36.4282 60.2752 33.849 62.1831C33.5694 62.3882 33.4202 62.6368 33.414 62.9227C33.1032 71.4059 34.4643 78.006 37.5655 83.0896L37.7022 83.3072H45.5887C45.5887 83.3072 45.8933 83.0834 45.9181 82.897C45.9678 82.4682 45.2407 81.0698 44.7373 80.5043C44.2401 79.9387 43.0282 79.7461 43.0282 79.7461L41.8909 80.1314C41.8909 80.1314 40.0203 80.5229 39.983 80.3924C39.9395 80.2557 38.9451 76.3715 38.709 75.6443C38.4728 74.9172 38.2802 70.6663 38.131 69.9205C37.9818 69.1748 38.2988 67.1239 38.3299 66.5645C38.3547 66.0052 39.4299 65.16 39.4299 65.16L40.8406 64.0165L42.587 61.8475L44.3271 59.0571C44.3271 59.0571 46.1605 54.6135 46.4712 53.9921C46.7882 53.3768 46.4712 52.9356 46.4712 52.9356L47.7763 52.948C47.621 53.2587 47.795 53.7373 47.795 53.7373C47.6893 54.2096 47.5277 54.6508 47.2729 55.0361C47.217 55.1107 47.1673 55.1915 47.1113 55.2661L47.0243 55.3717L46.9808 55.4277C46.956 55.4587 46.9187 55.5023 46.8938 55.5395C46.7882 55.7011 46.726 55.8814 46.7012 56.0616C46.6825 56.2729 46.7074 56.3537 46.7074 56.4655L46.7944 57.752C46.9249 59.4673 47.1113 61.1763 47.3226 62.8854C47.7515 66.2911 48.2735 69.6844 48.9136 73.059L49.156 74.3268L49.2803 74.9607L49.3424 75.2777L49.3611 75.3585L49.3673 75.3957C49.3735 75.4206 49.3797 75.4579 49.3922 75.4827C49.4295 75.6008 49.4854 75.7065 49.5475 75.7935C49.9639 76.328 50.1566 77.1732 50.3617 77.9749C50.747 79.6156 51.0577 81.3184 51.5238 82.9964L51.6357 83.4066H52.0583H58.9878C58.9878 83.3072 58.9816 83.2015 58.9753 83.1021H59.6403C59.6403 83.1021 59.4228 82.1015 59.3731 81.7597C59.3296 81.4179 58.9691 80.4546 58.8511 80.1625C58.733 79.8704 58.0866 79.8642 58.0866 79.8642L57.5584 80.0382L57.055 79.8145L56.4149 79.5099L55.8928 79.628L55.4578 79.5099L53.3696 68.4663C53.3696 68.4663 52.6052 63.5193 52.5493 63.0221C52.4933 62.5249 52.6052 61.1328 52.7419 60.4306C52.8849 59.7283 53.873 58.0938 54.1589 57.6588C54.4448 57.2237 56.6448 54.8 56.8002 54.57C56.9555 54.3401 57.7759 53.6192 58.1053 53.1717C58.4284 52.7305 60.9765 50.9344 62.2505 50.2943C63.5246 49.6541 64.7986 49.4366 64.7986 49.4366C64.7986 49.4366 64.8234 49.5361 64.8607 49.6914C64.6929 49.7474 64.5251 49.7971 64.3573 49.853C64.7178 51.848 65.3082 53.7062 65.65 54.6819C65.9173 55.4277 66.228 56.478 66.2839 57.4661C65.8489 57.6153 65.5816 57.9012 65.4387 58.0814C65.3268 58.2305 65.2647 58.4108 65.2585 58.6034C65.2585 58.7464 65.2336 59.1255 65.1155 59.4424C64.5251 60.8345 62.3065 61.9345 61.4737 62.3447L61.3991 62.382C61.1443 62.5063 60.8833 62.643 60.6285 62.6617C60.442 62.6803 60.2307 62.643 60.007 62.6057L59.8641 62.5809C58.9008 62.4069 58.155 62.382 57.6392 62.8233C57.1606 63.2396 57.1109 63.6685 57.0612 64.0786C57.055 64.1408 57.0488 64.2029 57.0363 64.2713C57.2663 64.4267 57.316 64.5883 57.403 64.7374L57.0301 64.8493L57.2601 65.5702L56.6821 65.9431L57.1233 66.9436L57.8256 67.9442L57.5397 68.1742C57.5397 68.1742 57.9996 68.6962 58.416 69.0318C58.8324 69.3674 59.7335 69.125 59.7335 69.125L60.9268 68.7024L62.5426 68.6216L63.4003 68.5408L64.2206 67.9567L65.3393 67.0431C65.3393 67.0431 66.3399 66.1047 66.893 65.5764C67.4523 65.0481 67.2907 65.0171 67.8625 64.7125C68.428 64.408 69.5902 63.221 70.0314 62.6679C70.4789 62.1148 70.8953 60.7289 70.9947 60.1695C71.0941 59.6102 71.0817 58.2243 71.0693 57.2921C71.0569 56.3599 71.119 55.496 71.1749 54.9802C71.2309 54.4582 71.6162 52.8423 71.6162 52.8423C71.6162 52.8423 72.4055 50.1638 72.3433 49.7412C72.2812 49.3186 72.6665 47.7773 72.6665 47.7773L72.4925 46.6213C72.4925 46.6213 73.0083 46.2982 73.319 46.0744C73.6298 45.8507 74.2575 45.2168 74.6552 44.7569C75.053 44.297 75.7677 42.8987 75.8982 42.588C76.0287 42.2772 76.2648 40.8478 76.2648 40.8478L76.5134 38.8094H77.0728C77.0728 38.8094 76.992 37.3116 76.9485 37.1252C76.9112 36.9387 76.7993 36.2054 76.6626 35.7268C76.5259 35.2483 75.2891 33.3279 75.2891 33.3279C75.2891 33.3279 74.5806 31.7494 74.3569 30.9974C74.1332 30.2454 74.2513 29.0832 74.2513 29.0832L74.6304 28.1821L74.2575 27.7781L75.5377 27.9087L77.4581 28.4991C77.4581 28.4991 78.9123 28.4307 78.9807 28.4556C79.0491 28.4804 81.0254 28.7974 81.6841 28.9341C82.3429 29.0708 83.5486 29.4561 83.5486 29.4561C83.5486 29.4561 87.091 29.077 87.2961 29.0087C87.4949 28.9403 88.0418 28.5923 88.1724 28.3437C88.3029 28.0889 88.7192 27.2188 88.8249 26.9764C88.9305 26.7341 88.9989 25.864 88.9989 25.5098C88.9989 25.1555 88.7938 24.5713 88.7938 24.5713L89.6328 23.4775L89.9249 22.6137Z" fill="#D08E39"/>
<path d="M76.905 35.6579C76.5197 34.707 76.0411 33.8307 75.5688 32.9607C75.3264 32.5381 75.1524 32.1155 74.9784 31.6742C74.8044 31.233 74.6677 30.7855 74.5869 30.338C74.4315 29.555 74.4688 28.747 74.9038 28.1629C74.8603 28.1566 74.8106 28.1504 74.7671 28.1442C74.5372 28.1256 74.2824 28.1815 74.0214 28.2685C73.9219 28.4549 73.8349 28.6476 73.7914 28.8465C73.6547 29.3934 73.6547 29.9465 73.7355 30.4685C73.8971 31.5188 74.2699 32.4821 74.7547 33.3833C75.2208 34.2533 75.6807 35.1172 76.0349 35.9935C76.3022 36.646 76.47 37.3048 76.5073 37.9698C76.501 37.9698 76.4948 37.9636 76.4886 37.9636L75.8858 37.8393L75.9293 38.4607C76.0847 40.5551 75.5005 42.7116 74.1954 44.3523C73.5552 45.1727 72.7411 45.8377 71.8089 46.3038C70.8705 46.7761 69.8264 47.0806 68.7699 47.4287C68.5026 47.5157 68.2416 47.6089 67.9744 47.7021L67.2037 47.9756C66.6879 48.1558 66.1659 48.3174 65.6376 48.4852C64.5873 48.8145 63.5184 49.1439 62.4681 49.5665C61.4178 49.9891 60.4048 50.536 59.4726 51.1948C58.5341 51.8411 57.6827 52.6366 57.0364 53.5689L57.6019 54.0536C58.3974 53.314 59.1432 52.5558 60.0008 51.9282C60.846 51.2818 61.8093 50.7971 62.8037 50.3931C63.3133 50.188 63.8416 50.0078 64.3698 49.8338C64.6619 49.7405 64.9602 49.6473 65.2523 49.5541C65.4698 49.4857 65.6873 49.4174 65.9049 49.3552C66.4331 49.1937 66.9614 49.0258 67.4958 48.8518L68.7636 48.4168L69.062 48.3174C69.8637 48.0501 70.6902 47.7953 71.5106 47.4535C71.7032 47.3727 71.9021 47.2919 72.0948 47.1987C72.1383 47.1801 72.1818 47.1614 72.2253 47.1366C72.4987 46.9998 72.7598 46.8445 73.0208 46.6767C73.7417 46.2043 74.3942 45.6077 74.9225 44.9303C76.2027 43.3207 76.8615 41.2822 76.8926 39.25L77.3835 39.6229L77.4581 38.7528C77.5389 37.6901 77.3028 36.5963 76.905 35.6579Z" fill="#D08E39"/>
<path d="M75.7178 15.1553C75.5562 15.2671 75.0714 15.5654 75.0093 16.0875C76.2212 15.3417 76.7618 15.7892 77.346 15.8389C75.5562 15.5095 75.494 17.3242 75.8172 17.5604C76.2212 17.8276 77.228 17.7033 77.7686 17.6536C78.098 17.6225 78.2907 17.4361 78.2845 17.088C78.2782 16.5784 78.3404 15.957 78.7195 15.8824C78.9867 15.8451 79.0302 15.5716 79.0302 15.5716C77.3336 15.5965 76.6251 14.5338 75.7178 15.1553Z" fill="#002522"/>
<path d="M69.2731 16.8339C69.2482 16.5915 69.1798 16.3554 68.9996 16.1938C69.1363 16.5356 69.0183 16.8712 68.9002 17.1819C68.7759 17.4989 68.6019 17.7972 68.4341 18.1017C68.086 18.7046 67.7132 19.3012 67.3589 19.904C66.6318 21.1159 65.8984 22.3278 65.1154 23.5024C64.3323 24.677 63.5182 25.8267 62.617 26.877C62.1696 27.399 61.6972 27.9024 61.1876 28.2877C60.939 28.4742 60.6718 28.6296 60.4667 28.6793C60.4108 28.6917 60.2865 28.6917 60.1746 28.6606C60.0566 28.642 59.9447 28.5923 59.839 28.5363C59.4102 28.3002 59.0498 27.7533 58.9192 27.2064C58.7887 26.8148 59.0311 26.1001 59.2486 25.4724C59.721 24.1736 60.3176 22.8685 60.821 21.5136C61.082 20.8424 61.2871 20.1153 61.4797 19.4503C61.6848 18.7729 61.8961 18.1017 62.1199 17.4367C62.2317 17.1074 62.356 16.778 62.4803 16.461C62.5425 16.3057 62.6108 16.1441 62.6792 16.0198C62.7351 15.9017 62.8221 15.796 62.9216 15.678C63.3317 15.2243 63.9159 14.8203 64.4939 14.4972L64.5125 14.4847L64.5312 14.4723C64.6866 14.3666 64.9476 14.2548 65.1775 14.1864C65.4137 14.1118 65.6685 14.0745 65.9233 14.0621C66.1781 14.0621 66.4516 14.0683 66.7188 14.1367C66.9985 14.1864 67.2657 14.2859 67.5578 14.3791C67.3775 14.1367 67.1476 13.9192 66.8866 13.7452C66.6256 13.5649 66.3148 13.4469 65.9917 13.3785C65.6685 13.2977 65.3267 13.3101 64.9973 13.3536C64.6555 13.4096 64.3572 13.5028 64.0154 13.7017L64.0526 13.6768C63.3939 14.0435 62.7724 14.435 62.2069 15.0254C62.0701 15.1746 61.9334 15.3486 61.8215 15.5474C61.7221 15.7277 61.6475 15.8955 61.5667 16.0695C61.4176 16.4113 61.2871 16.7469 61.1566 17.0825C60.9018 17.7599 60.6718 18.4373 60.4481 19.1209C60.2243 19.817 60.0255 20.4509 59.7645 21.1097C59.2673 22.421 58.6644 23.7012 58.1548 25.0685C58.0305 25.4165 57.9062 25.7645 57.813 26.1499C57.7633 26.3425 57.726 26.5414 57.7074 26.7651C57.7012 26.877 57.6949 26.9951 57.7074 27.1318C57.7198 27.2685 57.7447 27.3617 57.7695 27.4736C57.8752 27.8962 58.0554 28.2691 58.2978 28.6233C58.4159 28.7911 58.5588 28.9589 58.7142 29.1081C58.5712 30.351 58.5836 31.0595 60.6718 32.116C61.8713 32.5884 64.4566 29.077 65.8363 26.1436C67.3776 22.9741 69.7081 18.8724 69.2731 16.8339Z" fill="#002522"/>
<path d="M23.551 24.739C17.9018 23.9062 14.7758 23.3407 11.0034 22.8124C6.34231 22.1599 4.00556 21.8181 2.55752 21.439C1.45129 21.1531 1.56937 19.7796 1.56937 19.7796C1.56937 19.7858 0.326416 19.5994 0.326416 19.6056C0.338846 19.6491 0.860883 20.7305 0.867098 20.7367C0.891957 20.7989 0.910602 20.861 0.935461 20.9294C1.04111 21.1842 1.19027 21.439 1.37671 21.6565C1.75581 22.0915 2.24056 22.3588 2.70667 22.5514C3.65753 22.943 4.62703 23.0424 5.53439 23.2102L8.30618 23.6825L19.3871 25.5842L24.9369 26.4854C25.8567 26.6345 26.8076 26.765 27.6901 26.9266C28.1251 27.0136 28.5228 27.1379 28.8771 27.3368C29.1692 27.4984 29.4364 27.7221 29.685 27.9707C29.9584 27.8091 30.2257 27.6475 30.5054 27.4984C30.9839 27.256 31.5743 27.0136 31.6489 26.9639C32.2952 26.2057 29.3059 25.5842 23.551 24.739Z" fill="#002522"/>
<path d="M83.4366 28.8097C83.4179 28.8034 83.3931 28.7972 83.3744 28.791C83.3558 28.791 83.3371 28.791 83.3247 28.791L83.4366 28.8097Z" fill="#002522"/>
<path d="M89.2729 24.6772C89.2729 24.6772 89.2729 24.6696 89.2729 24.6772C89.2729 24.6696 89.2653 24.6772 89.2729 24.6772Z" fill="#002522"/>
<path d="M87.3084 28.2129C87.2835 28.2191 87.2586 28.2253 87.2276 28.2378C87.2089 28.2564 87.1903 28.275 87.1716 28.2875L87.3084 28.2129Z" fill="#002522"/>
<path d="M83.4366 28.8097C83.4179 28.8034 83.3931 28.7972 83.3744 28.791C83.3558 28.791 83.3371 28.791 83.3247 28.791L83.4366 28.8097Z" fill="#002522"/>
<path d="M67.7505 58.3424C69.472 58.2305 69.6274 59.2995 69.3415 61.3628C70.398 59.865 69.8697 58.0876 69.9319 55.4525C70.0437 52.457 71.4234 50.3129 71.5042 47.4541C70.6901 47.7959 69.8573 48.0507 69.0556 48.318L68.7573 48.4174C66.5821 51.1146 69.3228 55.3593 67.7505 58.3424Z" fill="#002522"/>
<path d="M90.0615 22.0039C89.6265 21.3451 88.9802 21.0717 88.5327 20.7734C88.2965 20.618 88.135 20.4875 87.961 20.2824C87.7869 20.0773 87.6005 19.8101 87.3084 19.5615C87.0039 19.3129 86.6621 19.1886 86.3824 19.0892C86.1027 18.9897 85.8666 18.8965 85.6242 18.7722C85.1581 18.5299 84.7293 18.2067 84.3626 17.8276C84.3502 17.7965 84.3377 17.7406 84.375 17.6225C84.3999 17.5417 84.4496 17.4423 84.4931 17.2993C84.5428 17.1564 84.5615 16.9637 84.5615 16.8457C84.5615 16.7151 84.5615 16.6157 84.5677 16.5473C84.5739 16.4852 84.5863 16.4541 84.6112 16.4044C84.6547 16.3174 84.7541 16.2428 84.8349 16.218L85.8293 15.9632C85.3197 15.7146 84.8784 15.6648 84.5366 15.6648C84.3067 15.6648 83.7722 15.8202 83.766 15.8202C83.7163 15.8326 83.6665 15.8389 83.6168 15.8264C83.0451 15.7146 81.8394 13.1541 81.5473 12.8931C81.2304 12.5699 80.2049 12.1038 79.3846 12.2219C80.0744 12.4891 80.7145 13.0546 81.0315 13.7134C81.423 14.6021 82.6225 17.579 83.9648 18.7101C83.9648 18.7101 83.9648 18.7039 83.9586 18.7039C84.3315 19.0519 84.7541 19.3502 85.2078 19.5864C85.4875 19.7355 85.8044 19.8598 86.0841 19.9593C86.3575 20.0587 86.5875 20.1457 86.7366 20.2762C86.9044 20.4067 87.066 20.6304 87.2711 20.879C87.4762 21.1338 87.7807 21.3824 88.0417 21.544C88.2655 21.687 88.4768 21.8113 88.6694 21.9356C88.6943 22.1034 88.3649 22.122 88.0417 22.0909C87.731 22.0598 86.9852 22.0101 86.3638 22.1406C85.1581 22.3954 84.9841 22.9921 85.2824 23.2904C85.7858 23.7503 87.2773 24.0486 87.5508 24.148C87.7932 24.235 87.9796 24.378 88.1101 24.5582C88.2593 25.1424 88.0977 25.7079 87.8429 26.2362C87.8304 26.23 87.8118 26.2237 87.7994 26.2175C87.5756 26.143 87.383 26.1367 87.1841 26.1492C86.9977 26.1616 86.8485 26.1865 86.6807 26.2051C86.3575 26.261 86.0344 26.3232 85.7174 26.4475C85.0773 26.665 84.549 27.1062 84.1016 27.4853C83.6479 27.8707 83.1445 28.169 82.5603 28.3803C83.1694 28.3554 83.8033 28.169 84.3564 27.8644C84.9095 27.5599 85.3942 27.2803 85.9349 27.1746C86.2022 27.1125 86.4818 27.0814 86.7615 27.0752C86.8982 27.0752 87.0536 27.069 87.1655 27.0752C87.2773 27.0876 87.3892 27.1187 87.4513 27.1497C87.5197 27.187 87.5197 27.2057 87.5197 27.1995C87.5197 27.1995 87.5383 27.2305 87.5259 27.3113C87.5073 27.4729 87.3954 27.7029 87.2462 27.9017L87.2711 27.8769C87.1841 28.0074 87.066 28.1317 86.9293 28.2435C86.8796 28.287 86.8299 28.3243 86.7739 28.3616C86.314 28.4797 85.8293 28.5667 85.3507 28.6351C84.692 28.7221 84.0208 28.778 83.3682 28.7842C83.3869 28.7904 83.4117 28.7967 83.4304 28.8029L83.3123 28.7904C83.3309 28.7904 83.3496 28.7904 83.362 28.7904C81.9948 28.4362 80.5964 27.9763 79.0863 27.8769C78.7134 27.852 78.3218 27.8396 77.9614 27.852C77.6009 27.8582 77.2902 27.8396 76.9546 27.7837C76.6252 27.7339 76.3145 27.6407 75.9851 27.5226C75.6806 27.417 75.3077 27.2678 74.8851 27.2305V27.2243C74.8726 27.2243 74.854 27.2243 74.8416 27.2243C74.8291 27.2243 74.8167 27.2181 74.8043 27.2181C74.767 27.2181 74.7359 27.2181 74.6986 27.2181C73.9591 27.1995 73.2319 27.1808 72.511 27.1C71.728 27.0192 70.9573 26.8763 70.2426 26.6153C69.8884 26.4848 69.5404 26.3045 69.2793 26.0932C69.211 26.0373 69.1985 26.0187 69.0805 25.8944C68.9935 25.8074 68.9313 25.7576 68.8754 25.6955C68.7697 25.5774 68.6765 25.4407 68.6081 25.2729C68.4714 24.9311 68.4155 24.5271 68.3782 24.1294C68.3285 23.7254 68.3347 23.3152 68.316 22.8988C68.2042 23.3712 68.1047 23.8497 68.0612 24.3469C67.8997 25.1734 67.6511 26.261 67.1477 27.4978C65.1714 32.0781 63.9036 32.569 65.6313 34.8934C67.4211 37.112 64.3013 42.1336 62.8408 45.4833C61.1131 48.8144 59.4103 49.3427 59.6216 50.3619C60.9764 49.3178 63.1516 48.8642 64.4691 48.4167C71.6409 45.8997 72.8342 45.9619 74.4314 42.1709C74.7483 41.4126 74.9659 40.698 75.0964 40.0081C75.3139 38.9392 75.0777 37.8578 74.5122 36.8448C74.5122 36.8448 74.8416 36.9442 75.1772 37.1866C74.9659 35.49 74.3133 33.8182 73.4992 31.9289C73.0828 30.7108 73.0144 29.443 73.4681 28.4859C73.6048 28.4238 73.7353 28.3554 73.8721 28.3057C73.9156 28.2871 73.9591 28.2746 74.0026 28.2622C74.1082 28.2249 74.2139 28.2 74.3195 28.1752C74.4935 28.169 74.6613 28.1565 74.8353 28.1441C74.854 28.1441 74.8664 28.1503 74.8851 28.1503C75.1212 28.1876 75.3698 28.2746 75.6681 28.3803C76.0224 28.5046 76.4077 28.6226 76.7992 28.6786C77.1783 28.7407 77.6009 28.7656 77.9614 28.7594C78.3218 28.7469 78.6636 28.7594 79.0117 28.778C80.3976 28.865 81.7586 29.3125 83.1818 29.6792L83.2439 29.6916H83.2999C84.0332 29.6854 84.7417 29.6232 85.4564 29.53C86.1711 29.4306 86.8796 29.3063 87.6005 29.0577L87.6751 29.0328L87.7372 28.9831C88.7689 28.1317 89.3717 26.8328 89.3468 25.4904C89.3406 25.3226 89.3344 25.1548 89.3033 24.9932C89.2785 24.8316 89.2474 24.6763 89.2536 24.6576C89.2536 24.6576 89.2536 24.6576 89.2598 24.6514C89.2723 24.6265 89.3158 24.5768 89.3655 24.5085C89.4649 24.378 89.5581 24.2474 89.6452 24.1107C89.8192 23.8373 89.9621 23.5452 90.0864 23.2469L90.1734 23.0169L90.2169 22.8926C90.2293 22.8367 90.2542 22.7435 90.2542 22.6751C90.2728 22.4017 90.1672 22.1717 90.0615 22.0039Z" fill="#002522"/>
<path d="M48.3044 47.193C48.1614 45.8008 47.6829 44.1726 47.5462 42.6562C47.3224 44.1415 47.4219 45.6641 47.5959 47.1557C47.5959 47.1557 47.5959 47.1557 47.5959 47.1619C46.0298 47.2178 43.9292 46.3353 42.7235 45.2167C41.6919 44.2596 40.9088 43.3584 38.8703 42.0223C38.8517 42.0036 38.8268 41.9788 38.8082 41.9601C37.5404 40.7793 35.9991 40.0957 35.0731 38.6787C34.4392 37.6284 33.8612 36.3109 33.2895 34.6143C35.098 43.346 32.32 39.1945 29.7471 44.4087C23.1967 56.3722 19.8283 56.9812 16.0186 61.1203C14.2785 63.0903 12.2152 65.57 10.7982 67.7763C8.42416 71.4741 6.38573 76.6075 6.48516 79.9448C6.4603 79.9635 6.42301 79.9821 6.40437 79.9945C6.05634 80.2493 5.71453 80.5166 5.39136 80.8087C5.7456 80.7279 6.08741 80.6347 6.42301 80.5352V80.5414C7.24336 80.2369 7.52924 82.0143 7.54167 83.3008H8.77841C8.82191 82.8471 8.75976 81.9087 8.64168 81.4674C8.53603 81.0883 8.38066 80.7092 8.10721 80.355C8.95863 80.0629 9.44961 80.4482 9.63605 82.8347L9.64848 83.3008H10.792L10.7858 82.8285C10.7796 82.3686 10.6677 81.3183 10.27 80.4731C10.7858 80.6533 11.0406 82.2691 10.9909 83.2946H11.0717H11.5067H11.9728L11.9666 82.8285C11.9604 82.0765 11.8672 81.3307 11.5626 80.5849C11.401 80.2245 11.1897 79.8205 10.7236 79.5471C10.4875 79.4166 10.1954 79.3668 9.93435 79.3979C9.7852 79.4166 9.65469 79.4601 9.53661 79.5098C9.2383 79.2923 8.90271 79.2053 8.54846 79.2425C8.92756 72.3006 13.6322 66.4774 16.4661 63.5751C19.0825 60.7909 21.0215 59.2931 22.8922 57.8451C23.843 57.1117 24.7379 56.4157 25.6639 55.5953C27.373 54.1162 28.6968 52.3264 29.9708 50.5987C31.3194 48.7715 32.7115 46.8822 34.5386 45.428C35.0172 45.0489 36.633 44.5082 38.1121 44.5641C40.4303 46.6709 41.4681 54.5077 40.5359 57.9072C39.6348 60.2999 38.6466 61.5988 36.633 64.2525C35.8313 65.8497 36.5522 71.0018 36.7573 72.1577C37.0432 73.7984 38.224 80.8149 39.5602 80.8957V80.9019H39.5788L39.9206 80.8832C39.9331 80.8832 39.9517 80.877 39.9641 80.877H39.9704C40.2562 80.8522 40.5421 80.79 40.828 80.7092C40.9399 80.6844 41.0455 80.6533 41.1698 80.6222C41.8721 80.442 42.4252 80.4793 42.8105 80.7341C43.4133 81.1256 43.6682 82.0889 43.7924 83.2822H44.7371C44.6066 82.1013 44.3518 81.0945 43.8173 80.4358C43.8297 80.442 43.8359 80.4482 43.8484 80.4544C44.3456 80.7652 44.7806 81.3369 45.0105 82.3686C45.0727 82.642 45.1224 82.9403 45.1535 83.2884H45.7874H46.297L46.2473 82.785C46.036 80.616 44.5382 79.6279 43.6868 79.3793C42.8167 79.1307 41.928 79.4103 41.1449 79.6589C40.9585 79.7211 40.7721 79.777 40.5981 79.8267C40.4862 79.8516 40.3681 79.8764 40.2127 79.9075C39.0879 76.2159 38.485 72.369 38.4167 68.4661C38.4042 67.7452 38.4167 67.0492 38.6963 66.4588C39.0008 65.8186 39.6348 65.3339 40.2438 64.8678L40.3619 64.7746C42.7297 62.9536 46.3094 56.8756 46.7507 53.4512C47.2292 53.6128 47.4157 53.675 47.7823 53.7309C48.2174 52.0902 48.4038 49.5484 48.3044 47.193Z" fill="#002522"/>
<path d="M72.2191 51.6551C72.6168 50.1387 73.0208 48.5664 73.0146 46.6709C72.7598 46.8387 72.4925 46.9941 72.2191 47.1308C72.1756 47.1557 72.1321 47.1681 72.0886 47.1929C72.0326 48.7342 71.6908 50.0455 71.3304 51.4252C70.9575 52.8546 70.5722 54.3399 70.51 56.1236C70.4914 56.6394 70.5038 57.149 70.51 57.6462C70.5349 59.1812 70.5597 60.6231 69.8015 61.9033C69.2608 62.8231 68.7202 63.2519 67.9806 63.8361C67.6947 64.066 67.384 64.3084 67.0422 64.6067C66.7874 64.8305 66.4207 65.1785 66.0292 65.5514C65.445 66.1107 64.78 66.7446 64.3885 67.0491L64.2704 67.1424C63.6738 67.6147 63.102 68.0621 62.4743 68.0621C62.4681 68.0621 62.4619 68.0621 62.4494 68.0621C61.8777 68.0249 61.1319 68.0062 60.4359 68.2237C60.3302 68.2548 60.2121 68.2983 60.094 68.3418H60.0878C60.1748 68.2921 60.2556 68.2486 60.324 68.2237C60.8087 68.0373 61.4737 68 61.8404 67.8944C62.5551 67.6831 62.6732 67.2977 63.2387 66.5333C63.2947 66.4774 63.3568 66.4152 63.4127 66.3593C63.0088 66.6452 62.611 66.9435 62.1822 67.1548C61.7534 67.3661 61.2873 67.4593 60.815 67.478L59.3421 67.5588C59.0997 67.5712 58.8635 67.5712 58.6584 67.5525C58.4658 67.5277 58.3291 67.478 58.1923 67.391C57.8257 67.0678 57.546 66.7446 57.3347 66.465C57.8567 66.7695 58.4658 66.9559 58.9257 66.9932C59.92 67.0802 61.25 66.3904 62.8658 65.5887C62.9715 65.5452 63.0771 65.5079 63.1828 65.4644C62.1946 65.7068 61.1816 65.9118 60.1997 65.8746C59.7149 65.8497 59.224 65.7689 58.8076 65.5887C58.5404 65.4768 58.2731 65.3339 57.9935 65.1847C57.8878 65.1288 57.7759 65.0853 57.6889 65.0107C57.546 64.8988 57.4279 64.5259 57.0488 64.2649L56.4087 63.9666L56.4211 64.6937C56.4273 64.8864 56.4708 65.0604 56.5454 65.2034L55.9861 65.0604V65.657C55.9861 66.1915 56.4708 66.9311 57.0488 67.5525L56.7194 67.5836L56.8748 68.1181C57.0799 68.8328 58.2669 69.4418 59.1556 69.4853C59.1805 69.4853 59.2053 69.4853 59.2364 69.4853C59.6342 69.4853 60.0505 69.3362 60.4172 69.2057C60.5229 69.1684 60.6285 69.1311 60.728 69.1C61.2811 68.926 61.915 68.9446 62.4308 68.9757C63.4003 68.9819 64.1834 68.3915 64.8546 67.8633L64.9726 67.7701C65.4015 67.4345 66.0789 66.7881 66.6817 66.2101C67.0608 65.8497 67.4213 65.5079 67.6636 65.2904C67.993 65.0045 68.2913 64.7683 68.5648 64.5446C69.323 63.9418 69.9755 63.4259 70.6032 62.357C71.4919 60.853 71.4609 59.2061 71.436 57.6151C71.4298 57.1304 71.4174 56.6332 71.436 56.1422C71.4857 54.4704 71.8586 53.041 72.2191 51.6551Z" fill="#002522"/>
<path d="M57.6826 65.0107C57.7945 65.0853 57.9188 65.1475 58.0431 65.2096L57.6826 65.0107Z" fill="#002522"/>
<path d="M59.6155 80.7461C59.4664 80.4105 59.2799 80.0811 58.9878 79.7766C58.8387 79.6274 58.6522 79.4907 58.4161 79.3975C58.1799 79.3043 57.894 79.2918 57.6454 79.3664L57.6206 79.3726L57.6081 79.3789L57.3285 79.4907C57.2104 79.354 57.0861 79.2359 56.9432 79.1489C56.6014 78.9314 56.216 78.8879 55.8245 79.0246C55.8059 79.0308 55.781 79.0433 55.7561 79.0495C55.2838 76.6257 54.8177 74.1957 54.3827 71.7658C53.9166 69.1431 53.4567 66.5143 53.1149 63.8854C53.0341 63.2329 52.9533 62.5679 52.9222 61.934C52.8849 61.3249 52.9968 60.7221 53.1832 60.1317C53.5685 58.9571 54.3454 57.9068 55.203 56.9187C55.6381 56.4215 56.098 55.9429 56.5144 55.4271C56.937 54.8989 57.3471 54.4079 57.7946 53.9107C58.6709 52.9226 60.1127 52.1582 61.0822 51.2197C54.1092 54.8367 49.9391 57.2356 50.3431 60.2001C50.3804 62.7978 52.2883 72.6731 53.668 79.8201C53.2827 80.0687 52.9409 80.3173 52.5804 80.5907C52.9906 80.4913 53.4194 80.3608 53.8109 80.2427L53.7923 80.2551C54.8612 79.9941 55.1657 82.2004 55.2155 83.3998H56.4833C56.4584 82.5608 56.2098 81.6597 56.098 81.3365C55.9488 80.9325 55.7624 80.5224 55.4516 80.1557C55.607 80.0936 55.7748 80.0314 55.9115 79.9755C56.5951 79.789 57.2726 80.6529 57.4155 83.3998H58.4285C58.3539 81.784 58.1302 80.9947 57.8319 80.3173C58.3228 80.1308 58.7517 81.1687 58.9257 82.3371C58.9754 82.6913 59.0065 83.058 59.0065 83.3998H59.5658H59.6031H60.1438L60.1065 82.8094C60.0381 82.1071 59.9076 81.4173 59.6155 80.7461Z" fill="#002522"/>
<path d="M100.186 7.03293L100.813 0.526061C100.826 0.40798 100.993 0.40798 101.006 0.526061L101.621 7.02671C101.677 7.59226 102.131 8.03972 102.703 8.0708L110.757 8.55555C110.875 8.56176 110.875 8.73578 110.757 8.74821L102.696 9.24539C102.131 9.28268 101.671 9.72392 101.615 10.2895L100.987 16.7963C100.975 16.9144 100.807 16.9144 100.795 16.7963L100.179 10.2957C100.123 9.73014 99.6697 9.28268 99.098 9.2516L91.0436 8.76685C90.9256 8.76064 90.9256 8.58663 91.0436 8.57419L99.1042 8.07701C99.676 8.04594 100.13 7.59847 100.186 7.03293Z" fill="#FEFEFC"/>
</svg>
