<svg width="24" height="24" viewBox="0 0 24 24" fill="none" xmlns="http://www.w3.org/2000/svg">
<path fill-rule="evenodd" clip-rule="evenodd" d="M12 3.59065L4.5 7.81173V16.1883L12 20.4093L19.5 16.1883V7.81173L12 3.59065ZM12.433 2.1131C12.1651 1.9623 11.8349 1.9623 11.567 2.1131L3.43301 6.691C3.16506 6.8418 3 7.1205 3 7.42211V16.5779C3 16.8795 3.16506 17.1582 3.43301 17.309L11.567 21.8869C11.8349 22.0377 12.1651 22.0377 12.433 21.8869L20.567 17.309C20.8349 17.1582 21 16.8795 21 16.5779V7.42211C21 7.1205 20.8349 6.8418 20.567 6.69099L12.433 2.1131Z" fill="#789594"/>
<path fill-rule="evenodd" clip-rule="evenodd" d="M13.6049 11.8554L17.4072 15.6577C17.7001 15.9506 18.175 15.9506 18.4678 15.6577C18.7607 15.3648 18.7607 14.8899 18.4678 14.597L14.4746 10.6038C13.9598 10.0889 13.1156 10.1213 12.6417 10.6742L9.24307 14.6392C8.9735 14.9537 9.00993 15.4272 9.32442 15.6968C9.63891 15.9663 10.1124 15.9299 10.382 15.6154L13.6049 11.8554Z" fill="#789594"/>
<path fill-rule="evenodd" clip-rule="evenodd" d="M8.01869 13.7691L9.28221 15.0326C9.57511 15.3255 10.05 15.3255 10.3429 15.0326C10.6358 14.7397 10.6358 14.2649 10.3429 13.972L8.87552 12.5046C8.33764 11.9667 7.44805 12.03 6.99164 12.6385L5.46254 14.6773C5.21402 15.0087 5.28117 15.4788 5.61254 15.7273C5.94392 15.9758 6.41402 15.9087 6.66254 15.5773L8.01869 13.7691Z" fill="#789594"/>
<path d="M11 8.5C11 9.32843 10.3284 10 9.5 10C8.67157 10 8 9.32843 8 8.5C8 7.67157 8.67157 7 9.5 7C10.3284 7 11 7.67157 11 8.5Z" fill="#789594"/>
</svg>
