<svg width="168" height="168" viewBox="0 0 168 168" fill="none" xmlns="http://www.w3.org/2000/svg">
<path d="M81.3202 58.6017L83.224 38.6408C83.25 38.4627 83.3388 38.3 83.4743 38.1824C83.6097 38.0647 83.7827 38 83.9616 38C84.1406 38 84.3136 38.0647 84.449 38.1824C84.5845 38.3 84.6733 38.4627 84.6993 38.6408L86.5713 58.5538C86.6907 59.6668 87.194 60.7025 87.994 61.4809C88.7939 62.2592 89.8399 62.7309 90.9499 62.814L114.254 64.2182C114.452 64.2182 114.642 64.2972 114.782 64.4378C114.921 64.5784 115 64.7692 115 64.9681C115 65.167 114.921 65.3577 114.782 65.4984C114.642 65.639 114.452 65.718 114.254 65.718L90.934 67.17C89.8265 67.2525 88.7825 67.722 87.9829 68.4971C87.1832 69.2722 86.6783 70.3042 86.5554 71.4143L84.6517 91.3592C84.6257 91.5372 84.5368 91.7 84.4014 91.8176C84.266 91.9353 84.093 92 83.9141 92C83.7351 92 83.5621 91.9353 83.4266 91.8176C83.2912 91.7 83.2024 91.5372 83.1763 91.3592L81.3202 71.4462C81.2038 70.3278 80.6996 69.2863 79.8961 68.5044C79.0926 67.7225 78.041 67.2501 76.9258 67.17L53.6371 65.7659C53.4601 65.7397 53.2983 65.6503 53.1814 65.5141C53.0644 65.3779 53 65.2039 53 65.0239C53 64.8439 53.0644 64.6699 53.1814 64.5337C53.2983 64.3975 53.4601 64.3082 53.6371 64.282L76.9417 62.83C78.0468 62.7481 79.0889 62.2809 79.8882 61.509C80.6875 60.7371 81.194 59.7089 81.3202 58.6017Z" fill="#789594"/>
<path d="M43.9939 126.748C42.8239 126.748 41.7979 127.306 41.1679 128.278V126.928H39.0439V136H41.1679V131.338C41.1679 129.952 41.7799 128.584 43.3459 128.584C44.6239 128.584 45.1639 129.538 45.1639 130.69V136H47.2699V130.186C47.2699 128.296 45.9559 126.748 43.9939 126.748Z" fill="#789594"/>
<path d="M53.6116 126.748C50.8396 126.748 48.9136 128.674 48.9136 131.464C48.9136 134.254 50.8216 136.18 53.6116 136.18C56.4016 136.18 58.3096 134.272 58.3096 131.464C58.3096 128.674 56.3836 126.748 53.6116 126.748ZM53.6116 134.362C51.9736 134.362 51.0556 133.084 51.0556 131.464C51.0556 129.844 51.9736 128.566 53.6116 128.566C55.2676 128.566 56.1676 129.844 56.1676 131.464C56.1676 133.084 55.2676 134.362 53.6116 134.362Z" fill="#789594"/>
<path d="M64.305 139.96H66.411V134.74C67.059 135.658 68.211 136.18 69.471 136.18C71.973 136.18 73.611 134.11 73.611 131.482C73.611 128.908 72.009 126.748 69.471 126.748C68.211 126.748 67.059 127.288 66.411 128.224V126.928H64.305V139.96ZM66.393 131.464C66.393 129.88 67.311 128.584 68.931 128.584C70.497 128.584 71.487 129.772 71.487 131.464C71.487 133.174 70.515 134.362 68.949 134.362C67.311 134.362 66.393 133.066 66.393 131.464Z" fill="#789594"/>
<path d="M80.6716 126.766C80.4196 126.748 80.2216 126.748 80.0056 126.766C78.8176 126.82 78.0256 127.342 77.3956 128.422V126.928H75.2716V136H77.3956V131.554C77.3956 129.304 78.8536 128.422 80.6716 128.656V126.766Z" fill="#789594"/>
<path d="M90.151 131.572C90.151 128.836 88.459 126.73 85.723 126.73C82.987 126.73 81.187 128.764 81.187 131.464C81.187 134.2 83.041 136.18 85.777 136.18C87.649 136.18 89.161 135.298 89.935 133.48L87.973 133.12C87.541 134.02 86.767 134.416 85.777 134.416C84.391 134.416 83.329 133.516 83.221 132.094H90.115C90.151 131.932 90.151 131.752 90.151 131.572ZM83.293 130.528C83.491 129.25 84.445 128.422 85.705 128.422C86.929 128.422 87.937 129.25 88.045 130.528H83.293Z" fill="#789594"/>
<path d="M97.471 126.928L95.257 133.552L93.043 126.928H90.847L94.195 136H96.319L99.667 126.928H97.471Z" fill="#789594"/>
<path d="M102.212 125.254C102.95 125.254 103.526 124.678 103.526 123.94C103.526 123.202 102.95 122.626 102.212 122.626C101.474 122.626 100.898 123.202 100.898 123.94C100.898 124.678 101.474 125.254 102.212 125.254ZM103.274 136V126.928H101.15V136H103.274Z" fill="#789594"/>
<path d="M114.04 131.572C114.04 128.836 112.348 126.73 109.612 126.73C106.876 126.73 105.076 128.764 105.076 131.464C105.076 134.2 106.93 136.18 109.666 136.18C111.538 136.18 113.05 135.298 113.824 133.48L111.862 133.12C111.43 134.02 110.656 134.416 109.666 134.416C108.28 134.416 107.218 133.516 107.11 132.094H114.004C114.04 131.932 114.04 131.752 114.04 131.572ZM107.182 130.528C107.38 129.25 108.334 128.422 109.594 128.422C110.818 128.422 111.826 129.25 111.934 130.528H107.182Z" fill="#789594"/>
<path d="M125.896 126.928L124.222 133.318L122.332 126.928H120.46L118.588 133.318L116.914 126.928H114.754L117.508 136H119.56L121.396 129.808L123.232 136H125.284L128.038 126.928H125.896Z" fill="#789594"/>
</svg>
