<svg width="168" height="168" viewBox="0 0 168 168" fill="none" xmlns="http://www.w3.org/2000/svg">
<g clip-path="url(#clip0_16012_328268)">
<rect width="168" height="168" fill="#315A5A"/>
<path d="M82.1847 62.7345L83.4743 49.4272C83.4919 49.3085 83.5521 49.2 83.6439 49.1216C83.7356 49.0431 83.8528 49 83.974 49C84.0952 49 84.2124 49.0431 84.3042 49.1216C84.396 49.2 84.4561 49.3085 84.4737 49.4272L85.7418 62.7025C85.8227 63.4445 86.1637 64.135 86.7056 64.6539C87.2475 65.1728 87.9561 65.4873 88.708 65.5427L104.495 66.4788C104.629 66.4788 104.757 66.5315 104.852 66.6252C104.946 66.7189 105 66.8461 105 66.9787C105 67.1113 104.946 67.2385 104.852 67.3323C104.757 67.426 104.629 67.4787 104.495 67.4787L88.6972 68.4467C87.947 68.5017 87.2398 68.8147 86.6981 69.3314C86.1564 69.8481 85.8143 70.5361 85.7311 71.2762L84.4415 84.5728C84.4239 84.6915 84.3636 84.8 84.2719 84.8784C84.1802 84.9569 84.063 85 83.9418 85C83.8206 85 83.7034 84.9569 83.6116 84.8784C83.5198 84.8 83.4597 84.6915 83.442 84.5728L82.1847 71.2975C82.1058 70.5519 81.7642 69.8575 81.2199 69.3363C80.6756 68.815 79.9633 68.5001 79.2078 68.4467L63.4316 67.5106C63.3117 67.4931 63.2021 67.4335 63.1229 67.3427C63.0436 67.2519 63 67.1359 63 67.0159C63 66.8959 63.0436 66.7799 63.1229 66.6891C63.2021 66.5983 63.3117 66.5388 63.4316 66.5213L79.2186 65.5533C79.9672 65.4987 80.6731 65.1873 81.2146 64.6727C81.756 64.1581 82.0992 63.4726 82.1847 62.7345Z" fill="#81ABA8"/>
<path d="M47.5828 107.534C46.519 107.534 45.5861 108.042 45.0133 108.926V107.698H43.082V115.947H45.0133V111.708C45.0133 110.448 45.5697 109.204 46.9936 109.204C48.1557 109.204 48.6467 110.071 48.6467 111.119V115.947H50.5615V110.66C50.5615 108.942 49.3668 107.534 47.5828 107.534Z" fill="#81ABA8"/>
<path d="M56.3277 107.534C53.8072 107.534 52.056 109.286 52.056 111.822C52.056 114.359 53.7909 116.11 56.3277 116.11C58.8645 116.11 60.5994 114.376 60.5994 111.822C60.5994 109.286 58.8481 107.534 56.3277 107.534ZM56.3277 114.457C54.8383 114.457 54.0036 113.295 54.0036 111.822C54.0036 110.349 54.8383 109.187 56.3277 109.187C57.8334 109.187 58.6517 110.349 58.6517 111.822C58.6517 113.295 57.8334 114.457 56.3277 114.457Z" fill="#81ABA8"/>
<path d="M66.0508 119.547H67.9657V114.801C68.5549 115.636 69.6023 116.11 70.748 116.11C73.0229 116.11 74.5123 114.228 74.5123 111.839C74.5123 109.498 73.0557 107.534 70.748 107.534C69.6023 107.534 68.5549 108.025 67.9657 108.876V107.698H66.0508V119.547ZM67.9493 111.822C67.9493 110.382 68.784 109.204 70.257 109.204C71.6809 109.204 72.581 110.284 72.581 111.822C72.581 113.377 71.6972 114.457 70.2733 114.457C68.784 114.457 67.9493 113.279 67.9493 111.822Z" fill="#81ABA8"/>
<path d="M80.9321 107.551C80.7029 107.534 80.5229 107.534 80.3265 107.551C79.2463 107.6 78.5262 108.075 77.9533 109.057V107.698H76.0221V115.947H77.9533V111.904C77.9533 109.859 79.279 109.057 80.9321 109.269V107.551Z" fill="#81ABA8"/>
<path d="M89.5512 111.921C89.5512 109.433 88.0127 107.518 85.525 107.518C83.0373 107.518 81.4006 109.367 81.4006 111.822C81.4006 114.31 83.0864 116.11 85.5741 116.11C87.2762 116.11 88.651 115.309 89.3548 113.656L87.5708 113.328C87.178 114.147 86.4743 114.507 85.5741 114.507C84.3139 114.507 83.3483 113.688 83.2501 112.395H89.5184C89.5512 112.248 89.5512 112.084 89.5512 111.921ZM83.3155 110.971C83.4956 109.809 84.363 109.057 85.5086 109.057C86.6216 109.057 87.5381 109.809 87.6363 110.971H83.3155Z" fill="#81ABA8"/>
<path d="M96.207 107.698L94.1939 113.721L92.1808 107.698H90.1841L93.2283 115.947H95.1595L98.2037 107.698H96.207Z" fill="#81ABA8"/>
<path d="M100.518 106.176C101.189 106.176 101.712 105.652 101.712 104.981C101.712 104.31 101.189 103.786 100.518 103.786C99.8466 103.786 99.3229 104.31 99.3229 104.981C99.3229 105.652 99.8466 106.176 100.518 106.176ZM101.483 115.947V107.698H99.552V115.947H101.483Z" fill="#81ABA8"/>
<path d="M111.272 111.921C111.272 109.433 109.734 107.518 107.246 107.518C104.758 107.518 103.122 109.367 103.122 111.822C103.122 114.31 104.808 116.11 107.295 116.11C108.997 116.11 110.372 115.309 111.076 113.656L109.292 113.328C108.899 114.147 108.195 114.507 107.295 114.507C106.035 114.507 105.069 113.688 104.971 112.395H111.24C111.272 112.248 111.272 112.084 111.272 111.921ZM105.037 110.971C105.217 109.809 106.084 109.057 107.23 109.057C108.343 109.057 109.259 109.809 109.357 110.971H105.037Z" fill="#81ABA8"/>
<path d="M122.052 107.698L120.53 113.508L118.812 107.698H117.11L115.408 113.508L113.885 107.698H111.922L114.426 115.947H116.291L117.961 110.317L119.63 115.947H121.496L124 107.698H122.052Z" fill="#81ABA8"/>
</g>
<defs>
<clipPath id="clip0_16012_328268">
<rect width="168" height="168" fill="white"/>
</clipPath>
</defs>
</svg>
