<svg width="24" height="24" viewBox="0 0 24 24" fill="none" xmlns="http://www.w3.org/2000/svg">
    <path fill-rule="evenodd" clip-rule="evenodd" d="M14.2474 4.699L18.6024 13.4648C18.7642 13.7904 18.5353 14.1744 18.1719 14.1869L10.1655 14.4631L8.35535 10.8197L13.4118 4.60588C13.6413 4.32382 14.0856 4.37334 14.2474 4.699ZM6.58226 10.6221L9.25187 15.9955L18.2236 15.686C19.6773 15.6359 20.593 14.1 19.9458 12.7973L19.0905 11.0759C20.0726 10.5799 20.4702 9.38288 19.9783 8.39741L19.085 6.60796C18.5948 5.62587 17.4056 5.22349 16.4209 5.70259L15.5907 4.0316C14.9435 2.72893 13.1664 2.53089 12.2483 3.65912L6.58226 10.6221ZM4.77967 15.9841C5.27113 16.9733 6.47145 17.3768 7.46066 16.8853L9.25179 15.9955L6.58218 10.6221L4.79105 11.512C3.80184 12.0034 3.39834 13.2037 3.8898 14.193L4.77967 15.9841ZM10.581 20.9182C10.0864 21.164 9.4862 20.9622 9.24047 20.4676L8.3506 18.6765L10.1417 17.7866L11.0316 19.5777C11.2773 20.0723 11.0756 20.6725 10.581 20.9182Z" fill="#14B9EA"/>
</svg>
