<svg width="24" height="24" viewBox="0 0 24 24" fill="none" xmlns="http://www.w3.org/2000/svg">
<path d="M3.38638 3L10.6358 8.92336L7.91804 11.6385L3.39436 12.9947L2 16.1772L8.8281 16.1879L8.39702 20.2725L10.2278 21.6376H13.8148L15.6349 20.2725L15.1932 16.1799L22 16.1719L20.6429 13.0266L16.0429 11.634L13.3784 8.92336L20.6269 3L14.2565 5.28313H9.68849L3.38638 3ZM21.0953 3.78765L14.8579 8.9074L16.5396 10.8233L20.6163 12.0793L21.984 6.62427L21.0953 3.78765ZM2.93667 3.7983L2.03193 6.66152L3.38371 12.0793L7.42398 10.8286L9.1421 8.9074L2.93667 3.7983ZM9.73106 13.9065L10.6393 15.2689L8.34912 14.8308L9.73106 13.9065ZM14.2725 13.9065L15.6456 14.8308L13.3642 15.2689L14.2725 13.9065ZM2.01064 17.082L3.38371 21.1852L7.44971 20.2725L7.81604 17.105L2.01064 17.082ZM16.1937 17.0899L16.5503 20.2725L20.611 21.1852L21.984 17.0979L16.1937 17.0899ZM11.0057 17.5396H12.9819L13.3642 17.9938L13.3784 19.3651L10.6323 19.3491L10.6393 17.9938L11.0057 17.5396Z" fill="#81ABA8"/>
</svg>
