<svg fill="none" height="24" viewBox="0 0 24 24" width="24" xmlns="http://www.w3.org/2000/svg"><path clip-rule="evenodd" d="m5 4.5h4c.27614 0 .5.22386.5.5v4c0 .27614-.22386.5-.5.5h-4c-.27614 0-.5-.22386-.5-.5v-4c0-.27614.22386-.5.5-.5zm-2 .5c0-1.10457.89543-2 2-2h4c1.1046 0 2 .89543 2 2v4c0 1.1046-.8954 2-2 2h-4c-1.10457 0-2-.8954-2-2zm2 9.5h4c.27614 0 .5.2239.5.5v4c0 .2761-.22386.5-.5.5h-4c-.27614 0-.5-.2239-.5-.5v-4c0-.2761.22386-.5.5-.5zm-2 .5c0-1.1046.89543-2 2-2h4c1.1046 0 2 .8954 2 2v4c0 1.1046-.8954 2-2 2h-4c-1.10457 0-2-.8954-2-2zm16-10.5h-4c-.2761 0-.5.22386-.5.5v4c0 .27614.2239.5.5.5h4c.2761 0 .5-.22386.5-.5v-4c0-.27614-.2239-.5-.5-.5zm-4-1.5c-1.1046 0-2 .89543-2 2v4c0 1.1046.8954 2 2 2h4c1.1046 0 2-.8954 2-2v-4c0-1.10457-.8954-2-2-2zm0 11.5h4c.2761 0 .5.2239.5.5v4c0 .2761-.2239.5-.5.5h-4c-.2761 0-.5-.2239-.5-.5v-4c0-.2761.2239-.5.5-.5zm-2 .5c0-1.1046.8954-2 2-2h4c1.1046 0 2 .8954 2 2v4c0 1.1046-.8954 2-2 2h-4c-1.1046 0-2-.8954-2-2z" fill="#99a8a7" fill-rule="evenodd"/></svg>