<svg xmlns="http://www.w3.org/2000/svg" width="39" height="48" fill="none" class="Footer_logo__kpOAO"><path fill="#F59DB6" d="M19.429 38.282a2.67 2.67 0 0 0 2.676-2.663 2.67 2.67 0 0 0-2.676-2.663 2.67 2.67 0 0 0-2.677 2.663 2.67 2.67 0 0 0 2.677 2.663Z" opacity=".5"/><path fill="#EAC9F8" fill-rule="evenodd" d="m31.76 44.808-4.539-2.114a.721.721 0 0 0-.97.365l-2.126 4.516c-.289.6-1.128.548-1.364-.052L18.143 34.94c-.131-.392.052-.81.446-.94l8.632-3.133c.393-.13.813.053.945.444l4.617 12.582c.21.6-.42 1.175-1.023.914Z" clip-rule="evenodd"/><path fill="#fff" d="M23.47 47s-.027 0 0 0c-.132 0-.237-.078-.263-.182l-4.434-12.112.026-.079c.026-.026.052-.078.079-.078l8.474-3.08c.079-.026.184 0 .21.104l4.408 12.06c.052.105 0 .235-.079.314a.28.28 0 0 1-.315.052l-4.093-1.906a1.474 1.474 0 0 0-.656-.13c-.524.026-.97.365-1.207.861l-1.889 3.994a.273.273 0 0 1-.262.183ZM19.06 34.785l4.382 11.93s0 .026.026.026.026 0 .026-.026l1.89-3.994c.288-.6.839-.992 1.442-1.018a1.34 1.34 0 0 1 .787.156l4.093 1.906h.027v-.026l-4.382-11.956-8.29 3.002Z"/><path fill="#EAC9F8" fill-rule="evenodd" d="m7.097 44.808 4.54-2.114a.721.721 0 0 1 .97.365l2.125 4.516c.289.6 1.128.548 1.364-.052l4.618-12.609c.131-.391-.052-.809-.446-.94l-8.632-3.132c-.393-.13-.813.052-.944.444L6.074 43.868a.76.76 0 0 0 1.023.94Z" clip-rule="evenodd"/><path fill="#fff" d="M15.388 47a.289.289 0 0 1-.262-.156l-1.89-3.994c-.236-.496-.708-.835-1.206-.861-.236 0-.446.026-.656.13L7.28 44.025a.28.28 0 0 1-.315-.052.342.342 0 0 1-.079-.314l4.434-12.112.053-.026c.026-.026.079-.026.13 0l8.528 3.106.026.052c.026.027.026.079 0 .131L15.65 46.87c-.026.052-.13.13-.262.13 0 0 .026 0 0 0Zm-1.889-4.28 1.889 3.994s0 .026.026.026c.027 0 .027-.026.027-.026l4.381-11.956-8.29-3.002L7.15 43.712v.026h.026l4.093-1.906c.236-.104.524-.157.787-.157a1.854 1.854 0 0 1 1.443 1.045Z"/><path fill="#F59DB6" d="M19.429 35.959c.739 0 1.338-.596 1.338-1.332 0-.735-.6-1.331-1.338-1.331-.74 0-1.338.596-1.338 1.331 0 .736.599 1.332 1.338 1.332Z" opacity=".5"/><path fill="#fff" fill-rule="evenodd" d="m21.711 1.005 1.233.705a4.488 4.488 0 0 0 2.283.626h1.417c1.627 0 3.148.862 3.962 2.271l.708 1.227a4.67 4.67 0 0 0 1.68 1.671l1.232.705a4.513 4.513 0 0 1 2.283 3.942v1.41c0 .808.21 1.592.603 2.27l.709 1.227a4.533 4.533 0 0 1 0 4.542l-.709 1.227a4.524 4.524 0 0 0-.603 2.271v1.41a4.544 4.544 0 0 1-2.283 3.942l-1.233.704a4.67 4.67 0 0 0-1.679 1.671l-.708 1.227a4.545 4.545 0 0 1-3.962 2.271h-1.417c-.813 0-1.6.209-2.283.6l-1.233.705a4.596 4.596 0 0 1-4.565 0l-1.233-.704a4.583 4.583 0 0 0-2.283-.6h-1.417a4.577 4.577 0 0 1-3.961-2.272l-.709-1.227a4.67 4.67 0 0 0-1.679-1.67l-1.233-.705a4.513 4.513 0 0 1-2.283-3.942v-1.41c0-.809-.21-1.592-.603-2.27L1.036 21.6a4.533 4.533 0 0 1 0-4.542l.709-1.227a4.525 4.525 0 0 0 .603-2.27v-1.41c0-1.619.866-3.133 2.283-3.942l1.233-.705a4.67 4.67 0 0 0 1.68-1.67l.708-1.228a4.545 4.545 0 0 1 3.961-2.27h1.417c.813 0 1.6-.21 2.283-.601l1.233-.705a4.533 4.533 0 0 1 4.565-.026Z" clip-rule="evenodd"/><path fill="#5E58A5" d="M19.429 38.673a4.94 4.94 0 0 1-2.493-.652l-1.233-.705a4.102 4.102 0 0 0-2.073-.548h-1.417a4.996 4.996 0 0 1-4.329-2.48l-.708-1.227a4.219 4.219 0 0 0-1.522-1.514l-1.233-.705a4.96 4.96 0 0 1-2.493-4.307v-1.41a4.05 4.05 0 0 0-.55-2.062l-.709-1.227a4.93 4.93 0 0 1 0-4.96l.708-1.227a4.05 4.05 0 0 0 .551-2.062v-1.41A4.96 4.96 0 0 1 4.421 7.87l1.233-.704a4.508 4.508 0 0 0 1.522-1.54l.708-1.227a4.995 4.995 0 0 1 4.33-2.48h1.416c.735 0 1.443-.183 2.073-.549l1.233-.704c1.548-.888 3.463-.888 4.985 0l1.233.704c.63.366 1.338.549 2.073.549h1.417c1.784 0 3.437.94 4.329 2.48l.708 1.226a4.22 4.22 0 0 0 1.522 1.515l1.233.704a4.96 4.96 0 0 1 2.493 4.308v1.41c0 .73.183 1.435.55 2.061l.71 1.227a4.93 4.93 0 0 1 0 4.96l-.71 1.227a4.05 4.05 0 0 0-.55 2.062v1.41a4.96 4.96 0 0 1-2.493 4.307l-1.233.705a4.22 4.22 0 0 0-1.522 1.514l-.708 1.227a4.996 4.996 0 0 1-4.33 2.48h-1.416c-.735 0-1.443.182-2.073.548l-1.233.705c-.76.47-1.627.678-2.492.678ZM12.213 2.754A4.19 4.19 0 0 0 8.62 4.816L7.91 6.043A5.121 5.121 0 0 1 6.074 7.87l-1.233.705a4.097 4.097 0 0 0-2.073 3.577v1.41c0 .86-.236 1.722-.656 2.479l-.708 1.227a4.135 4.135 0 0 0 0 4.124l.708 1.227c.446.757.656 1.619.656 2.48v1.41c0 1.462.787 2.82 2.073 3.576l1.233.705c.76.444 1.39 1.07 1.836 1.827l.709 1.227a4.126 4.126 0 0 0 3.594 2.062h1.417a5.22 5.22 0 0 1 2.493.653l1.233.705c1.285.73 2.86.73 4.145 0l1.233-.705a4.94 4.94 0 0 1 2.493-.653h1.417a4.19 4.19 0 0 0 3.594-2.062l.709-1.227a5.12 5.12 0 0 1 1.836-1.827l1.233-.705a4.097 4.097 0 0 0 2.073-3.576v-1.41c0-.861.236-1.723.656-2.48l.709-1.227a4.135 4.135 0 0 0 0-4.124l-.709-1.227a4.875 4.875 0 0 1-.656-2.48v-1.41c0-1.461-.787-2.819-2.073-3.576l-1.233-.705a5.12 5.12 0 0 1-1.836-1.827l-.709-1.227a4.126 4.126 0 0 0-3.594-2.062h-1.417a5.22 5.22 0 0 1-2.493-.653l-1.233-.704a4.193 4.193 0 0 0-4.145 0l-1.233.704a4.94 4.94 0 0 1-2.493.653h-1.417Z"/><path fill="#5E58A5" d="M11.767 16.98c-.183-.338-.42-.626-.76-.782-.315-.183-.709-.261-1.155-.261H8.12a.704.704 0 0 0-.708.705v6.787c0 .078.026.13.052.182.027.053.08.079.158.079h.472c.053 0 .105-.026.158-.079.026-.052.052-.104.052-.182V20.87c0-.131.105-.21.21-.21h1.364c.446 0 .814-.078 1.155-.26a1.83 1.83 0 0 0 .76-.784c.184-.339.263-.783.263-1.305a3.845 3.845 0 0 0-.289-1.331Zm-.97 2.376c-.21.235-.551.366-.997.366H8.488a.235.235 0 0 1-.236-.235v-2.428c0-.13.104-.235.236-.235H9.8c.446 0 .787.13.996.366.21.26.315.6.315 1.07.027.522-.078.861-.315 1.096Z"/><path fill="#5E58A5" d="M8.068 23.69h-.472c-.08 0-.132-.026-.158-.079-.026-.052-.052-.104-.052-.182v-6.787c0-.392.315-.731.734-.731h1.758c.446 0 .84.078 1.155.26.315.183.577.445.76.81.184.34.263.783.263 1.305 0 .522-.079.966-.262 1.305-.184.34-.447.627-.761.784-.315.182-.709.26-1.155.26H8.514a.206.206 0 0 0-.21.21v2.558c0 .078-.026.13-.052.182-.053.079-.105.105-.184.105Zm.052-7.727a.704.704 0 0 0-.708.705v6.787c0 .078.026.13.052.183a.144.144 0 0 0 .132.078h.472c.052 0 .105-.026.157-.079a.376.376 0 0 0 .053-.182V20.87c0-.13.105-.235.236-.235h1.364c.446 0 .814-.078 1.129-.26.314-.183.577-.444.734-.784.184-.339.263-.783.263-1.305 0-.522-.08-.966-.263-1.305-.184-.34-.42-.6-.734-.783-.315-.183-.709-.261-1.129-.261H8.12v.026Zm1.706 3.785H8.514a.235.235 0 0 1-.236-.235v-2.428c0-.13.105-.235.236-.235h1.312c.446 0 .787.13.997.392.21.261.315.6.315 1.07 0 .47-.105.836-.341 1.07-.21.235-.551.366-.971.366Zm-1.312-2.872c-.105 0-.21.105-.21.21v2.427c0 .104.105.209.21.209h1.312c.42 0 .76-.13.97-.366.21-.235.315-.6.315-1.044 0-.444-.104-.809-.314-1.044-.21-.235-.551-.365-.997-.365H8.514v-.026ZM20.242 23.69c-.053 0-.079-.026-.131-.079-.027-.052-.053-.104-.053-.156v-.13l2.204-7.153a.42.42 0 0 1 .105-.183.239.239 0 0 1 .184-.078h.603c.079 0 .158.026.184.078a.42.42 0 0 1 .105.183l2.204 7.152c0 .052.026.079.026.13 0 .053-.026.105-.052.157a.144.144 0 0 1-.132.079h-.446c-.078 0-.13-.026-.157-.079-.026-.052-.053-.078-.079-.13l-.42-1.384c-.052-.104-.13-.182-.262-.182H21.58a.252.252 0 0 0-.236.182l-.446 1.41a.438.438 0 0 1-.053.13c-.026.053-.078.079-.157.079h-.446v-.026Zm1.548-2.715h2.125c.079 0 .105-.078.105-.13l-1.076-3.473c-.026-.104-.157-.104-.183 0l-1.076 3.472c0 .053.052.13.105.13Z"/><path fill="#5E58A5" d="M25.49 23.69h-.447c-.078 0-.13-.026-.157-.079-.026-.052-.053-.078-.079-.13l-.446-1.41c-.026-.104-.131-.156-.236-.156H21.58c-.105 0-.184.078-.236.156l-.446 1.41a.438.438 0 0 1-.053.13c-.026.053-.105.079-.183.079h-.446a.145.145 0 0 1-.132-.079.37.37 0 0 1-.052-.156v-.13l2.23-7.153a.42.42 0 0 1 .105-.183c.053-.052.105-.078.21-.078h.603c.08 0 .158.026.21.078a.42.42 0 0 1 .105.183l2.204 7.152c0 .052.026.079.026.13a.28.28 0 0 1-.052.157c-.079.053-.131.079-.184.079Zm-3.91-1.775h2.545c.105 0 .21.078.262.182l.446 1.41c0 .026.027.078.053.104.026.053.079.053.131.053h.446c.052 0 .079-.027.105-.053.026-.052.052-.078.052-.156 0-.026 0-.078-.026-.13l-2.151-7.153a.42.42 0 0 0-.105-.183c-.026-.052-.105-.052-.184-.052h-.603c-.079 0-.131.026-.184.052a.42.42 0 0 0-.105.183l-2.204 7.152v.105c0 .052.026.104.053.156.026.052.078.052.105.052h.446c.078 0 .105-.026.157-.052.026-.052.053-.078.053-.104l.446-1.41c.052-.078.157-.156.262-.156Zm2.335-.94H21.79a.2.2 0 0 1-.105-.052c-.026-.026-.026-.079-.026-.105l1.075-3.472c.027-.052.053-.078.105-.078.053 0 .105.026.105.078l1.076 3.472c0 .026 0 .079-.026.105-.026.026-.026.052-.079.052Zm-1.05-3.68c-.026 0-.078.025-.078.051l-1.076 3.472c0 .026 0 .052.026.079.027.026.053.026.08.026h2.124c.027 0 .053 0 .079-.026.026-.027.026-.053.026-.079l-1.075-3.472c-.053-.026-.08-.052-.105-.052ZM15.703 23.429l-1.942-3.29a.961.961 0 0 1 0-.991l1.916-3.08a.493.493 0 0 1 .84 0l1.915 3.106c.183.313.183.678.026.992l-1.89 3.289c-.183.287-.655.287-.865-.026Z"/><path fill="#5E58A5" d="M16.149 23.69a.542.542 0 0 1-.446-.261l-1.942-3.29a1.01 1.01 0 0 1 0-1.018l1.916-3.08a.516.516 0 0 1 .446-.235c.183 0 .34.079.446.235l1.915 3.107c.184.313.184.678.026.992l-1.889 3.289c-.13.156-.288.26-.472.26Zm-.42-.288c.079.157.236.235.42.235a.497.497 0 0 0 .42-.235l1.889-3.289a.915.915 0 0 0-.026-.965l-1.916-3.107c-.078-.157-.236-.235-.42-.235a.473.473 0 0 0-.42.235l-1.915 3.08a.962.962 0 0 0 0 .992l1.968 3.29Z"/><path fill="#fff" d="M15.992 22.123 14.6 19.748a.166.166 0 0 1 0-.157l1.39-2.245c.053-.104.21-.104.263 0l1.39 2.245a.165.165 0 0 1 0 .157l-1.364 2.375c-.079.105-.21.105-.289 0Z"/><path fill="#5E58A5" d="M31.865 16.98c-.184-.338-.42-.626-.761-.782-.315-.183-.708-.261-1.154-.261h-1.758a.704.704 0 0 0-.709.705v6.787c0 .078.027.13.053.182.026.053.078.079.157.079h.473c.052 0 .104-.026.157-.079a.375.375 0 0 0 .052-.182V20.87c0-.131.105-.21.21-.21h1.365c.446 0 .813-.078 1.154-.26.315-.183.577-.444.76-.784.185-.339.263-.783.263-1.305 0-.522-.078-.966-.262-1.331Zm-.945 2.376c-.21.235-.55.366-.997.366h-1.311a.235.235 0 0 1-.237-.235v-2.428c0-.13.105-.235.236-.235h1.312c.446 0 .788.13.997.366.21.26.315.6.315 1.07 0 .522-.105.861-.315 1.096Z"/><path fill="#5E58A5" d="M28.192 23.69h-.473c-.078 0-.13-.026-.157-.079-.026-.052-.053-.104-.053-.182v-6.787c0-.392.315-.731.735-.731h1.758c.446 0 .84.078 1.155.26.314.183.577.445.76.81.184.34.263.783.263 1.305 0 .522-.079.966-.263 1.305-.183.34-.446.627-.76.784-.315.182-.709.26-1.155.26h-1.364a.206.206 0 0 0-.21.21v2.558c0 .078-.026.13-.053.182-.078.079-.13.105-.183.105Zm.026-7.727a.704.704 0 0 0-.709.705v6.787c0 .078.027.13.053.183a.144.144 0 0 0 .131.078h.473c.052 0 .104-.026.157-.079.026-.052.052-.104.052-.182V20.87c0-.13.105-.235.236-.235h1.365c.446 0 .813-.078 1.128-.26.315-.183.577-.444.735-.784.183-.339.262-.783.262-1.305 0-.522-.079-.966-.262-1.305-.184-.34-.42-.6-.735-.783-.315-.183-.708-.261-1.128-.261h-1.758v.026Zm1.705 3.785h-1.311a.235.235 0 0 1-.237-.235v-2.428c0-.13.105-.235.236-.235h1.312c.446 0 .788.13.997.392.21.261.315.6.315 1.07 0 .47-.105.836-.34 1.07-.184.235-.526.366-.972.366Zm-1.311-2.872c-.105 0-.21.105-.21.21v2.427c0 .104.104.209.21.209h1.311c.42 0 .761-.13.971-.366.21-.235.315-.6.315-1.044 0-.444-.105-.809-.315-1.044-.21-.235-.55-.365-.997-.365h-1.285v-.026Z"/></svg>