<svg width="24" height="24" viewBox="0 0 24 24" fill="none" xmlns="http://www.w3.org/2000/svg">
<path fill-rule="evenodd" clip-rule="evenodd" d="M3.5312 8.6899L4.91581 6.3101C5.07856 6.02215 5.4229 5.88477 5.73793 5.98558L6.75402 6.3352C7.37385 6.54847 8.04545 6.41367 8.6088 6.07856C9.16598 5.74712 9.62245 5.23364 9.74959 4.59792L9.95668 3.5625C10.0195 3.23599 10.3052 3 10.6377 3H13.3863C13.7188 3 14.0045 3.23599 14.0673 3.5625L14.2743 4.59792C14.4015 5.23364 14.8579 5.74712 15.4151 6.07856C15.9785 6.41367 16.6501 6.54847 17.2699 6.3352L18.286 5.98558C18.601 5.88477 18.9454 6.02215 19.1081 6.3101L20.4927 8.6899L20.5026 8.70732C20.661 8.98768 20.6029 9.34055 20.3629 9.55529L19.6262 10.1999C19.1154 10.6469 18.935 11.3213 18.935 12C18.935 12.6787 19.1154 13.3531 19.6262 13.8001L20.3629 14.4447C20.6029 14.6594 20.661 15.0123 20.5026 15.2927L20.4927 15.3101L19.1081 17.6899C18.9454 17.9778 18.601 18.1152 18.286 18.0144L17.2699 17.6648C16.6501 17.4515 15.9785 17.5863 15.4151 17.9214C14.8579 18.2529 14.4015 18.7664 14.2743 19.4021L14.0673 20.4375C14.0045 20.764 13.7188 21 13.3863 21H10.6377C10.3052 21 10.0195 20.764 9.95668 20.4375L9.74959 19.4021C9.62245 18.7664 9.16598 18.2529 8.6088 17.9214C8.04545 17.5863 7.37385 17.4515 6.75402 17.6648L5.73793 18.0144C5.4229 18.1152 5.07856 17.9779 4.91581 17.6899L3.5312 15.3101L3.52135 15.2927C3.36289 15.0123 3.421 14.6594 3.661 14.4447L4.39775 13.8001C4.90854 13.3531 5.08889 12.6787 5.08889 12C5.08889 11.3213 4.90854 10.6469 4.39775 10.1999L3.661 9.55529C3.421 9.34055 3.36289 8.98768 3.52135 8.70732L3.5312 8.6899ZM5.15976 8.87355L5.8872 7.62325L6.26597 7.75358C7.40337 8.14495 8.53544 7.86752 9.37567 7.36771C10.1783 6.89027 10.9862 6.06336 11.2205 4.8921L11.2989 4.5H12.725L12.8035 4.8921C13.0377 6.06336 13.8456 6.89027 14.6483 7.36771C15.4885 7.86752 16.6206 8.14495 17.758 7.75358L18.1367 7.62325L18.8642 8.87355L18.6384 9.07107C17.6718 9.91688 17.435 11.0988 17.435 12C17.435 12.9012 17.6718 14.0831 18.6384 14.9289L18.8642 15.1265L18.1367 16.3767L17.758 16.2464C16.6206 15.8551 15.4885 16.1325 14.6483 16.6323C13.8456 17.1097 13.0377 17.9366 12.8035 19.1079L12.725 19.5H11.2989L11.2205 19.1079C10.9862 17.9366 10.1783 17.1097 9.37567 16.6323C8.53544 16.1325 7.40337 15.8551 6.26597 16.2464L5.8872 16.3767L5.15976 15.1265L5.3855 14.9289C6.35214 14.0831 6.58889 12.9012 6.58889 12C6.58889 11.0988 6.35214 9.91688 5.3855 9.07107L5.15976 8.87355ZM13.5 12C13.5 12.8284 12.8284 13.5 12 13.5C11.1716 13.5 10.5 12.8284 10.5 12C10.5 11.1716 11.1716 10.5 12 10.5C12.8284 10.5 13.5 11.1716 13.5 12ZM15 12C15 13.6569 13.6569 15 12 15C10.3431 15 9 13.6569 9 12C9 10.3431 10.3431 9 12 9C13.6569 9 15 10.3431 15 12Z" fill="#789594"/>
</svg>
