<svg width="24" height="24" viewBox="0 0 24 24" fill="none" xmlns="http://www.w3.org/2000/svg">
<path d="M10.5685 9.69476L11.0775 4.31987C11.0931 4.23018 11.1391 4.14901 11.2072 4.09053C11.2754 4.03205 11.3615 4 11.4504 4C11.5393 4 11.6253 4.03205 11.6935 4.09053C11.7617 4.14901 11.8076 4.23018 11.8233 4.31987L12.3204 9.68262C12.3542 10.0976 12.5335 10.486 12.8251 10.776C13.1167 11.066 13.5009 11.2379 13.9067 11.2599L19.5768 11.6117C19.6643 11.6278 19.7435 11.6749 19.8005 11.7447C19.8576 11.8146 19.8889 11.9028 19.8889 11.9939C19.8889 12.085 19.8576 12.1732 19.8005 12.2431C19.7435 12.313 19.6643 12.3601 19.5768 12.3761L13.8948 12.728C13.4915 12.7573 13.1112 12.9316 12.821 13.2201C12.5308 13.5087 12.3494 13.893 12.3086 14.3052L11.8114 19.6801C11.7957 19.7698 11.7498 19.851 11.6816 19.9095C11.6135 19.968 11.5274 20 11.4385 20C11.3496 20 11.2636 19.968 11.1954 19.9095C11.1272 19.851 11.0813 19.7698 11.0656 19.6801L10.5685 14.3174C10.53 13.9042 10.3492 13.5186 10.0585 13.2296C9.7679 12.9406 9.38633 12.767 8.98223 12.7401L3.31212 12.3883C3.22461 12.3722 3.14542 12.3251 3.08836 12.2553C3.03131 12.1854 3 12.0972 3 12.0061C3 11.915 3.03131 11.8267 3.08836 11.7568C3.14542 11.687 3.22461 11.6399 3.31212 11.6239L8.98223 11.2599C9.3861 11.2382 9.76885 11.068 10.0602 10.7806C10.3516 10.4931 10.532 10.1076 10.5685 9.69476V9.69476Z" fill="#B4CAC9"/>
<path d="M17.6888 4.89825L17.8696 3.10662C17.8752 3.07673 17.8915 3.04967 17.9157 3.03018C17.94 3.01068 17.9705 3 18.0021 3C18.0337 3 18.0643 3.01068 18.0885 3.03018C18.1127 3.04967 18.129 3.07673 18.1346 3.10662L18.3112 4.89421C18.3232 5.03254 18.3869 5.16201 18.4905 5.25867C18.5941 5.35533 18.7306 5.41262 18.8747 5.41996L20.8891 5.53725C20.9202 5.54259 20.9483 5.55829 20.9686 5.58158C20.9889 5.60487 21 5.63427 21 5.66464C21 5.69501 20.9889 5.72442 20.9686 5.74771C20.9483 5.771 20.9202 5.78669 20.8891 5.79204L18.8705 5.90933C18.7272 5.9191 18.5921 5.9772 18.489 6.07338C18.386 6.16956 18.3215 6.29765 18.307 6.43508L18.1304 8.2267C18.1248 8.25659 18.1085 8.28366 18.0843 8.30316C18.06 8.32265 18.0295 8.33333 17.9979 8.33333C17.9663 8.33333 17.9357 8.32265 17.9115 8.30316C17.8873 8.28366 17.871 8.25659 17.8654 8.2267L17.6888 6.43913C17.6751 6.3014 17.6109 6.17286 17.5076 6.07653C17.4044 5.98019 17.2688 5.92234 17.1253 5.91336L15.1109 5.79609C15.0798 5.79074 15.0517 5.77504 15.0314 5.75175C15.0111 5.72846 15 5.69906 15 5.66869C15 5.63832 15.0111 5.60891 15.0314 5.58562C15.0517 5.56233 15.0798 5.54664 15.1109 5.54129L17.1253 5.41996C17.2687 5.41274 17.4047 5.35602 17.5082 5.26019C17.6117 5.16436 17.6758 5.03586 17.6888 4.89825V4.89825Z" fill="#B8D1D0"/>
</svg>
