<svg width="26" height="25" viewBox="0 0 26 25" fill="none" xmlns="http://www.w3.org/2000/svg">
    <path d="M23.5565 13.4582L15.4989 12.9915C14.9246 12.9545 14.3825 12.7161 13.9694 12.319C13.5564 11.9219 13.2995 11.3921 13.2448 10.8244L12.5383 3.43954C12.5161 3.31631 12.4508 3.20473 12.3539 3.12438C12.257 3.04403 12.1347 3 12.0084 3C11.8821 3 11.7598 3.04403 11.6629 3.12438C11.5661 3.20473 11.5008 3.31631 11.4785 3.43954L10.7552 10.8244C10.7072 11.3946 10.4525 11.9282 10.0381 12.3266C9.62366 12.725 9.07768 12.9612 8.50112 12.9915L0.443539 13.4916C0.319188 13.5136 0.206596 13.5783 0.125515 13.6743C0.0444351 13.7703 0 13.8915 0 14.0167C0 14.1419 0.0444351 14.2631 0.125515 14.3591C0.206596 14.4551 0.319188 14.5197 0.443539 14.5418L8.50112 15.0085C9.07422 15.0488 9.61455 15.2883 10.0269 15.6848C10.4393 16.0812 10.6972 16.6092 10.7552 17.1757L11.4617 24.5605C11.4839 24.6837 11.5492 24.7953 11.6461 24.8757C11.743 24.956 11.8653 25 11.9916 25C12.1179 25 12.2402 24.956 12.3371 24.8757C12.4339 24.7953 12.4992 24.6837 12.5215 24.5605L13.228 17.1757C13.2827 16.608 13.5396 16.0782 13.9526 15.6811C14.3656 15.284 14.9079 15.0455 15.4821 15.0085L23.5565 14.5085C23.6808 14.4864 23.7934 14.4217 23.8745 14.3257C23.9556 14.2297 24 14.1085 24 13.9833C24 13.8582 23.9556 13.737 23.8745 13.641C23.7934 13.545 23.6808 13.4803 23.5565 13.4582Z" fill="#14B9EA"/>
    <path d="M25.8522 3.32762L23.1663 3.1791C22.9749 3.16733 22.7942 3.09147 22.6565 2.96513C22.5188 2.83878 22.4332 2.6702 22.4149 2.48957L22.1794 0.139855C22.172 0.100645 22.1503 0.0651428 22.118 0.0395769C22.0857 0.0140111 22.0449 0 22.0028 0C21.9607 0 21.9199 0.0140111 21.8876 0.0395769C21.8554 0.0651428 21.8336 0.100645 21.8262 0.139855L21.5851 2.48957C21.5691 2.671 21.4842 2.84079 21.346 2.96756C21.2079 3.09432 21.0259 3.16948 20.8337 3.1791L18.1478 3.33824C18.1064 3.34525 18.0689 3.36582 18.0418 3.39636C18.0148 3.42691 18 3.46549 18 3.50532C18 3.54515 18.0148 3.58371 18.0418 3.61425C18.0689 3.6448 18.1064 3.66537 18.1478 3.67238L20.8337 3.8209C21.0247 3.83371 21.2048 3.90992 21.3423 4.03607C21.4798 4.16221 21.5657 4.33021 21.5851 4.51044L21.8206 6.86016C21.828 6.89937 21.8497 6.93487 21.882 6.96044C21.9143 6.986 21.9551 7 21.9972 7C22.0393 7 22.0801 6.986 22.1124 6.96044C22.1446 6.93487 22.1664 6.89937 22.1738 6.86016L22.4093 4.51044C22.4276 4.32981 22.5132 4.16123 22.6509 4.03489C22.7885 3.90854 22.9693 3.83267 23.1607 3.8209L25.8522 3.66178C25.8936 3.65477 25.9311 3.63418 25.9582 3.60364C25.9852 3.57309 26 3.53453 26 3.4947C26 3.45487 25.9852 3.41631 25.9582 3.38576C25.9311 3.35522 25.8936 3.33463 25.8522 3.32762Z" fill="#22C480"/>
</svg>
