<svg width="22" height="22" viewBox="0 0 22 22" fill="none" xmlns="http://www.w3.org/2000/svg">
<path fill-rule="evenodd" clip-rule="evenodd" d="M11 22C17.0751 22 22 17.0751 22 11C22 8.91546 21.4202 6.96636 20.413 5.30516C19.6694 5.30513 18.6365 5.30419 17.5103 5.30316C14.9069 5.3008 11.8045 5.29798 10.624 5.30483C10.3553 5.30483 9.97282 5.30483 9.51195 5.44273C8.84346 5.64321 8.35044 6.28229 8.3453 6.97627V6.9916C8.3453 8.25316 9.41682 8.84436 11.1035 9.35703C13.1276 9.94823 15.7469 10.7367 15.7469 13.5356C15.7469 16.3346 12.9091 17.1428 10.6072 17.1428H10.559H5.9098C5.80181 17.1428 5.71439 17.056 5.71439 16.9488V13.6544C5.71375 13.6148 5.71503 13.5759 5.71696 13.5382C5.7446 13.0626 5.96893 12.728 6.42017 12.728C6.69785 12.728 6.77755 12.8468 6.91639 13.2407C7.63053 15.1726 9.27733 16.1577 10.9049 16.1775C12.3537 16.1775 12.9091 15.4676 12.9091 14.5808C12.9091 13.1219 11.421 12.6297 9.67457 12.117C7.65045 11.506 5.76517 10.3434 5.76517 7.99778C5.76517 5.65214 7.86835 4.71427 10.4678 4.71427H20.0283C18.0406 1.86452 14.738 0 11 0C4.92487 0 0 4.92487 0 11C0 17.0751 4.92487 22 11 22Z" fill="#E4EEEE"/>
</svg>
