<svg width="20" height="24" viewBox="0 0 20 24" fill="none" xmlns="http://www.w3.org/2000/svg">
<path d="M18.4347 9.67667C18.8205 9.60974 19.2139 9.59792 19.6031 9.64154C19.7361 9.66629 19.8734 9.65413 20 9.60641L19.952 9.56489C19.0335 8.77502 18.0445 8.07056 16.9974 7.4603C15.605 6.64912 14.6671 4.6116 14.3918 3.99523C14.1741 3.51738 13.7862 3.13724 13.3035 2.92857C13.5396 2.91406 13.776 2.95405 13.9942 3.04544C14.2123 3.13682 14.4064 3.27714 14.5615 3.45551C14.8047 3.65671 15.685 5.23116 16.1396 5.27587C16.3019 5.26992 16.463 5.24527 16.6197 5.20242H16.6549L16.8694 5.15133H16.8918L17.0615 5.10981L17.3816 5.01719L17.3528 4.99803C16.8662 4.67867 16.5557 4.13257 16.2164 3.54494C16.0378 3.23041 15.8229 2.9378 15.5762 2.67309C15.5073 2.5989 15.4323 2.53053 15.3521 2.46869C15.27 2.40886 15.1833 2.35547 15.0928 2.30901C14.9264 2.22598 14.7727 2.15892 14.6095 2.09504C14.4462 2.03117 14.2894 1.97368 14.1709 1.90981L13.7196 1.68626L12.8105 1.24554C12.1946 0.952881 11.5618 0.696945 10.9155 0.479079C10.2581 0.263362 9.58016 0.115678 8.89245 0.0383597C8.71502 0.0166114 8.53659 0.00382223 8.35787 3.79724e-05C8.14554 -0.0015104 7.93556 0.0443123 7.74328 0.134164C7.56402 0.214004 7.42317 0.300232 7.29513 0.354524C7.16708 0.408815 6.97504 0.49504 6.82779 0.571687C6.20468 0.870462 5.61641 1.23674 5.07361 1.6639C4.79107 1.87363 4.52563 2.10536 4.27977 2.35692C4.07283 2.57667 3.89725 2.82384 3.758 3.09145C3.90473 3.06469 4.05382 3.05292 4.20295 3.05631C4.71211 3.0861 5.21439 3.18827 5.69461 3.35971C5.24647 3.35971 2.92254 3.23516 1.68374 4.06549C1.44564 4.22542 1.24832 4.43868 1.10756 4.68825C1.05634 4.78725 0.989112 4.93097 0.915488 5.10981C0.906191 5.13591 0.895513 5.16149 0.883486 5.18645C0.668995 5.74721 0.494633 6.32244 0.361717 6.90781C0.122528 7.92425 0.00115922 8.96473 0 10.0088C0 10.1685 0 10.3282 0 10.491C0 10.6539 0.0224025 10.7625 0.0352066 10.8998V10.986C0.0480107 11.1053 0.0640236 11.2234 0.0832297 11.3405L0.102435 11.4523C0.149641 11.7401 0.213765 12.0248 0.294489 12.305C0.446667 12.7908 0.661895 13.2546 0.934693 13.6846C1.06273 13.8411 1.19078 13.905 1.30282 13.7581L1.38284 13.6463C1.47567 13.5154 1.61332 13.327 1.77977 13.0587L1.98464 12.7393V12.7202L2.1799 12.4008L2.22471 12.3306C2.36876 12.0974 2.54481 11.8419 2.69205 11.5673L2.75928 11.4555L2.95774 11.117L3.01536 11.0212L3.26825 10.5836L3.32907 10.4783C3.39629 10.3569 3.4635 10.2355 3.53392 10.1142C3.55633 10.0695 3.58195 10.0248 3.60756 9.98006L3.86684 9.50102C4.15493 8.9613 4.43661 8.40561 4.69269 7.85312C4.81753 7.59124 4.94558 7.33256 5.08323 7.07707C5.28184 6.68914 5.51428 6.31938 5.77784 5.97208C5.91386 5.79328 6.07197 5.63232 6.2484 5.49304C6.42254 5.34959 6.63762 5.26465 6.863 5.25033C6.14597 5.88905 5.53778 7.63276 5.03202 9.54892C4.71192 10.7848 4.86556 11.3852 3.92125 14.2978C2.98335 17.1529 3.84444 18.194 4.9904 19.0212C7.36876 20.6499 9.90717 20.6659 10.1825 22.8535L10.3297 24L10.9251 23.01C11.1386 22.6473 11.3074 22.2602 11.4277 21.8571V21.8028L11.911 22.1605C12.2136 21.6031 12.3392 20.9671 12.2711 20.3369C12.2031 19.7066 11.9447 19.1119 11.5301 18.6315C11.5685 18.7146 11.6069 18.7976 11.6421 18.8838C11.7889 19.214 11.8964 19.5602 11.9622 19.9154C12.0316 20.3027 12.003 20.7012 11.879 21.0747L11.7221 21.5186L11.3412 21.2375C11.2839 21.1967 11.2228 21.1614 11.1588 21.1321C11.1299 21.3476 11.0871 21.5609 11.0307 21.7709C10.9219 22.1375 10.7682 22.4893 10.573 22.8184C10.1953 19.8036 7.32074 19.9058 5.65941 18.6667C3.99808 17.4275 3.86685 15.9521 4.89117 13.4004C5.20388 12.6158 5.43139 11.7999 5.56979 10.9669C5.5986 10.7785 5.63379 10.5932 5.67541 10.408C5.67359 10.3814 5.67359 10.3547 5.67541 10.3282L5.70423 10.194C5.70423 10.4815 5.70423 10.7657 5.74904 11.0467C5.76445 11.318 5.81834 11.5857 5.9091 11.8419C5.94951 11.9521 6.01154 12.053 6.09156 12.1389C6.12997 12.1805 6.17477 12.2156 6.23559 12.2763C6.27893 12.3245 6.32488 12.3703 6.37323 12.4136C6.57707 12.5681 6.8039 12.6899 7.04546 12.7745C7.55638 12.9525 8.08759 13.0663 8.62676 13.113C9.14533 13.1737 9.67349 13.1864 10.2049 13.1992H10.2849C10.8364 13.2024 11.3837 13.2963 11.9046 13.4771C12.3704 13.633 12.8571 13.7181 13.3483 13.7294C14.3817 13.8286 15.402 14.0352 16.3924 14.3457C16.8147 14.3585 17.2371 14.3209 17.6504 14.2339C17.9417 14.1765 18.2298 14.0998 18.5147 14.0136C19.1549 13.7421 19.5967 13.0044 18.7228 13.1034C18.5173 13.1165 18.313 13.1443 18.1114 13.1864C17.8201 13.2439 17.5288 13.3972 17.1511 13.5058C16.7958 13.5864 16.426 13.5766 16.0756 13.4771C15.7689 13.3535 15.445 13.2781 15.1152 13.2535C15.2694 13.166 15.441 13.1136 15.6178 13.1002C15.797 13.1002 15.9667 13.1002 16.1268 13.1002C16.4266 13.138 16.7307 13.1251 17.0262 13.0619C17.2951 12.9852 17.5736 12.7809 17.9161 12.6435C18.25 12.5036 18.6073 12.4278 18.9693 12.42H18.9437C19.0237 12.42 19.1037 12.42 19.1869 12.42C19.4398 12.0687 19.6543 11.6918 19.5711 11.3597C19.4732 11.2279 19.3367 11.1297 19.1805 11.0787C18.9885 11.0116 17.9481 10.8008 17.5992 10.4815C17.4712 10.2707 17.596 9.85231 18.4347 9.67667ZM12.9257 5.4643C12.8345 5.54436 12.7663 5.64719 12.728 5.76223C12.6898 5.87728 12.6829 6.00041 12.7081 6.11899C12.7369 6.49264 12.2887 6.78965 11.7478 6.84713C11.0531 6.92378 10.6818 6.52777 10.7875 6.05512C10.9699 5.27588 10.5698 5.53136 10.3009 5.84434C10.2956 5.85046 10.2884 5.85473 10.2805 5.85654C10.2725 5.85835 10.2642 5.8576 10.2568 5.8544C10.2493 5.85121 10.2431 5.84573 10.2389 5.83875C10.2347 5.83178 10.2329 5.82367 10.2337 5.81559C10.3489 5.014 10.8195 4.98207 11.0307 4.98207C11.666 5.02714 12.2953 5.13411 12.9097 5.30143C12.9253 5.30782 12.9389 5.31833 12.9489 5.33183C12.959 5.34533 12.9652 5.36131 12.9668 5.37805C12.9685 5.3948 12.9655 5.41168 12.9583 5.42687C12.951 5.44206 12.9398 5.455 12.9257 5.4643Z" fill="#20C580"/>
</svg>
