<svg width="82" height="82" viewBox="0 0 82 82" fill="none" xmlns="http://www.w3.org/2000/svg">
<mask id="mask0_16272_330820" style="mask-type:alpha" maskUnits="userSpaceOnUse" x="0" y="0" width="82" height="82">
<rect width="82" height="82" fill="#D9D9D9"/>
</mask>
<g mask="url(#mask0_16272_330820)">
<rect width="82" height="82" fill="url(#paint0_linear_16272_330820)"/>
<path d="M184.601 58.6321V117.816C193.817 117.816 193.817 126.921 193.817 126.921H175.385C166.169 126.921 166.169 117.816 166.169 117.816V72.2899L184.601 58.6321V58.6321ZM60.185 85.9477V117.816C60.185 117.816 60.185 126.921 69.401 126.921H87.8331C87.8331 126.921 87.8331 117.816 78.6171 117.816V99.6054L60.185 85.9477V85.9477Z" fill="#B0BEC5"/>
<path d="M30.6429 13.4043C31.6679 30.8293 47.2992 40.3105 54.9867 42.873C61.3929 53.9772 68.8242 72.3418 47.2992 56.9668C20.3929 37.748 29.3617 -8.37697 30.6429 13.4043Z" fill="#ED9A26"/>
<mask id="mask1_16272_330820" style="mask-type:alpha" maskUnits="userSpaceOnUse" x="28" y="7" width="34" height="56">
<path d="M30.6428 13.4043C31.6678 30.8293 47.299 40.3105 54.9865 42.873C61.3928 53.9772 68.824 72.3418 47.299 56.9668C20.3928 37.748 29.3615 -8.37697 30.6428 13.4043Z" fill="#ED9A26"/>
</mask>
<g mask="url(#mask1_16272_330820)">
<path d="M38.7556 56.1459C36.4209 49.2242 47.5108 35.9574 53.3477 38.8415C56.2661 39.8028 62.1028 42.3024 62.1028 44.6097C62.1028 46.9169 60.1572 57.1073 59.1844 61.9141C55.2932 63.8368 41.0904 63.0677 38.7556 56.1459Z" fill="#B57017"/>
</g>
<path d="M106.265 35.8689C106.265 35.8689 55.5771 20.8453 55.5771 63.1845C55.5771 71.8344 60.1851 95.0526 60.1851 95.0526V113.263L78.6171 108.71V104.158C82.7643 97.7842 98.4315 100.516 110.873 90.5C118.707 84.5817 106.265 35.8689 106.265 35.8689V35.8689Z" fill="#B57017"/>
<path d="M64.793 85.9476V117.816C74.009 117.816 74.009 126.921 74.009 126.921H55.577C46.361 126.921 46.361 117.816 46.361 117.816V85.9476H64.793V85.9476ZM208.102 -0.551762C208.102 -0.551762 206.72 -4.6491 203.955 -8.74644C202.572 -11.0227 200.729 -13.299 198.886 -14.2096C192.435 -18.7621 184.601 -18.7621 184.601 -18.7621C184.601 -18.7621 176.307 -47.4435 166.169 -46.0777C156.032 -44.7119 156.953 -9.65695 156.953 -9.65695C154.188 -5.55962 152.345 -0.551762 152.345 -0.551762C146.816 14.0165 134.374 31.3164 125.158 31.3164H115.942L97.5098 90.5002C97.5098 90.5002 113.177 98.6948 150.041 99.6053L152.806 117.816C152.806 117.816 152.806 126.921 162.022 126.921H180.454C180.454 126.921 180.454 117.816 171.238 117.816V97.7843C199.347 90.0449 198.886 58.632 198.886 58.632C198.886 58.632 196.121 43.6084 194.278 35.869C191.513 24.4875 228.838 29.4954 235.75 13.106V4.00083L208.102 -0.551762V-0.551762Z" fill="#D6EAE9"/>
<path d="M147.737 85.9476L149.58 99.6054C113.638 99.6054 97.0491 90.5002 97.0491 90.5002C97.0491 90.5002 95.2059 90.0449 92.4411 88.6791C80.4603 95.508 66.6363 94.5975 64.7931 104.158V108.711L46.361 113.263V95.0528C46.361 95.0528 41.753 71.8345 41.753 63.1846C41.753 20.8454 92.4411 31.3164 92.4411 31.3164H125.158C125.158 31.3164 128.844 41.3321 138.521 49.5268C179.072 82.3055 147.737 85.9476 147.737 85.9476V85.9476ZM184.601 -18.7621C184.601 -18.7621 176.307 -47.4435 166.169 -46.0777C156.032 -44.7119 166.169 -9.65695 166.169 -9.65695C166.169 -9.65695 147.737 26.7638 166.169 26.7638C169.856 18.5691 204.416 17.6586 207.641 13.106C210.867 8.55344 208.102 -0.551758 208.102 -0.551758C208.102 -0.551758 205.337 -9.65695 198.886 -14.2095C192.435 -18.7621 184.601 -18.7621 184.601 -18.7621V-18.7621Z" fill="#ED9A26"/>
</g>
<defs>
<linearGradient id="paint0_linear_16272_330820" x1="87.125" y1="69.1875" x2="3.84375" y2="8.96875" gradientUnits="userSpaceOnUse">
<stop stop-color="#63412E"/>
<stop offset="1" stop-color="#152C2A"/>
</linearGradient>
</defs>
</svg>
