<svg width="64" height="64" viewBox="0 0 64 64" fill="none" xmlns="http://www.w3.org/2000/svg">
<mask id="mask0_16139_329750" style="mask-type:alpha" maskUnits="userSpaceOnUse" x="0" y="0" width="64" height="64">
<rect width="64" height="64" rx="24" fill="#D9D9D9"/>
</mask>
<g mask="url(#mask0_16139_329750)">
<rect width="64" height="64" rx="24" fill="url(#paint0_linear_16139_329750)"/>
<path d="M144.079 45.7617V91.9539C151.272 91.9539 151.272 99.0604 151.272 99.0604H136.886C129.693 99.0604 129.693 91.9539 129.693 91.9539V56.4215L144.079 45.7617ZM46.9737 67.0812V91.9539C46.9737 91.9539 46.9737 99.0604 54.1667 99.0604H68.5526C68.5526 99.0604 68.5526 91.9539 61.3597 91.9539V77.7409L46.9737 67.0812Z" fill="#B0BEC5"/>
<path d="M45.1753 51.0915L37.9823 33.3253C37.9823 33.3253 33.6666 32.6146 30.0701 26.2188L23.956 22.6655L20.7192 26.2188C24.3157 50.0255 45.1753 51.0915 45.1753 51.0915Z" fill="#ED9A26"/>
<path fill-rule="evenodd" clip-rule="evenodd" d="M29.0618 43.6494C33.8017 48.2597 39.3037 50.0262 42.4973 50.6944C43.4212 50.6089 44.2239 50.4515 44.8284 50.2343L37.9825 33.3253C37.9825 33.3253 37.3179 33.2158 36.2928 32.6963C32.7772 34.7701 29.2317 39.7884 29.0618 43.6494Z" fill="#B57017"/>
<path d="M30.0702 26.2188C28.9912 24.4422 27.9123 21.9549 27.193 19.1123C27.193 16.9804 25.7544 15.5591 23.5965 15.5591C21.4386 15.5591 20 16.9804 20 19.1123C20 21.5996 20.3596 24.0869 20.7193 26.2188H30.0702Z" fill="#CFD8DC"/>
<path d="M82.9386 27.9955C82.9386 27.9955 43.3772 16.2698 43.3772 49.315C43.3772 56.0661 46.9737 74.1877 46.9737 74.1877V88.4007L61.3597 84.8474V81.2942C64.5965 76.3196 76.8246 78.4516 86.5351 70.6344C92.6491 66.0152 82.9386 27.9955 82.9386 27.9955Z" fill="#B57017"/>
<path d="M50.5702 67.081V91.9538C57.7632 91.9538 57.7632 99.0602 57.7632 99.0602H43.3772C36.1842 99.0602 36.1842 91.9538 36.1842 91.9538V67.081H50.5702ZM162.421 -0.430641C162.421 -0.430641 161.342 -3.62856 159.184 -6.82648C158.105 -8.60311 156.667 -10.3797 155.228 -11.0904C150.193 -14.6436 144.079 -14.6436 144.079 -14.6436C144.079 -14.6436 137.605 -37.0291 129.693 -35.9631C121.781 -34.8971 122.5 -7.53713 122.5 -7.53713C120.342 -4.33921 118.904 -0.430641 118.904 -0.430641C114.588 10.9397 104.877 24.4421 97.6842 24.4421H90.4912L76.1053 70.6343C76.1053 70.6343 88.3334 77.0301 117.105 77.7408L119.263 91.9538C119.263 91.9538 119.263 99.0602 126.456 99.0602H140.842C140.842 99.0602 140.842 91.9538 133.649 91.9538V76.3195C155.588 70.279 155.228 45.7616 155.228 45.7616C155.228 45.7616 153.07 34.0358 151.632 27.9953C149.474 19.1122 178.605 23.0208 184 10.2291V3.1226L162.421 -0.430641Z" fill="#D6EAE9"/>
<path d="M115.307 67.081L116.746 77.7408C88.693 77.7408 75.7456 70.6343 75.7456 70.6343C75.7456 70.6343 74.307 70.279 72.1491 69.213C62.7982 74.5428 52.0088 73.8322 50.5702 81.294V84.8473L36.1842 88.4005V74.1875C36.1842 74.1875 32.5877 56.066 32.5877 49.3148C32.5877 16.2696 72.1491 24.4421 72.1491 24.4421H97.6842C97.6842 24.4421 100.561 32.2592 108.114 38.6551C139.763 64.2384 115.307 67.081 115.307 67.081ZM144.079 -14.6436C144.079 -14.6436 137.605 -37.0291 129.693 -35.9631C121.781 -34.8971 129.693 -7.53713 129.693 -7.53713C129.693 -7.53713 115.307 20.8888 129.693 20.8888C132.57 14.493 159.544 13.7823 162.061 10.2291C164.579 6.67585 162.421 -0.430641 162.421 -0.430641C162.421 -0.430641 160.263 -7.53713 155.228 -11.0904C150.193 -14.6436 144.079 -14.6436 144.079 -14.6436Z" fill="#ED9A26"/>
</g>
<defs>
<linearGradient id="paint0_linear_16139_329750" x1="68" y1="54" x2="3" y2="7" gradientUnits="userSpaceOnUse">
<stop stop-color="#63412E"/>
<stop offset="1" stop-color="#152C2A"/>
</linearGradient>
</defs>
</svg>
