<svg width="32" height="32" viewBox="0 0 32 32" fill="none" xmlns="http://www.w3.org/2000/svg">
<mask id="mask0_16101_329844" style="mask-type:alpha" maskUnits="userSpaceOnUse" x="0" y="0" width="32" height="32">
<rect width="32" height="32" rx="16" fill="#D9D9D9"/>
</mask>
<g mask="url(#mask0_16101_329844)">
<rect width="32" height="32" rx="16" fill="url(#paint0_linear_16101_329844)"/>
<path d="M72.0395 22.8808V45.9769C75.636 45.9769 75.636 49.5301 75.636 49.5301H68.443C64.8465 49.5301 64.8465 45.9769 64.8465 45.9769V28.2107L72.0395 22.8808V22.8808ZM23.4868 33.5405V45.9769C23.4868 45.9769 23.4868 49.5301 27.0833 49.5301H34.2763C34.2763 49.5301 34.2763 45.9769 30.6798 45.9769V38.8704L23.4868 33.5405V33.5405Z" fill="#B0BEC5"/>
<path d="M22.5877 25.5457L18.9912 16.6626C18.9912 16.6626 16.8333 16.3073 15.0351 13.1093L11.978 11.3327L10.3596 13.1093C12.1579 25.0127 22.5877 25.5457 22.5877 25.5457Z" fill="#ED9A26"/>
<path fill-rule="evenodd" clip-rule="evenodd" d="M14.5309 21.8247C16.9007 24.1297 19.6516 25.013 21.2484 25.3471C21.7104 25.3044 22.1119 25.2257 22.4142 25.117L18.9913 16.6626C18.9913 16.6626 18.6589 16.6079 18.1464 16.3481C16.3885 17.3851 14.6158 19.8942 14.5309 21.8247Z" fill="#B57017"/>
<path d="M15.0351 13.1093C14.4956 12.221 13.9561 10.9774 13.5965 9.5561C13.5965 8.49013 12.8772 7.77948 11.7982 7.77948C10.7193 7.77948 10 8.49013 10 9.5561C10 10.7997 10.1798 12.0434 10.3596 13.1093H15.0351Z" fill="#CFD8DC"/>
<path d="M41.4693 13.9977C41.4693 13.9977 21.6886 8.13481 21.6886 24.6574C21.6886 28.033 23.4868 37.0938 23.4868 37.0938V44.2003L30.6798 42.4236V40.647C32.2983 38.1597 38.4123 39.2257 43.2676 35.3171C46.3246 33.0075 41.4693 13.9977 41.4693 13.9977V13.9977Z" fill="#B57017"/>
<path d="M25.2851 33.5405V45.9769C28.8816 45.9769 28.8816 49.5301 28.8816 49.5301H21.6886C18.0921 49.5301 18.0921 45.9769 18.0921 45.9769V33.5405H25.2851V33.5405ZM81.2106 -0.21532C81.2106 -0.21532 80.6711 -1.81428 79.5921 -3.41324C79.0527 -4.30155 78.3334 -5.18987 77.6141 -5.54519C75.0965 -7.32181 72.0395 -7.32181 72.0395 -7.32181C72.0395 -7.32181 68.8027 -18.5145 64.8465 -17.9816C60.8904 -17.4486 61.25 -3.76857 61.25 -3.76857C60.1711 -2.16961 59.4518 -0.21532 59.4518 -0.21532C57.2939 5.46987 52.4386 12.221 48.8421 12.221H45.2456L38.0526 35.3171C38.0526 35.3171 44.1667 38.5151 58.5526 38.8704L59.6316 45.9769C59.6316 45.9769 59.6316 49.5301 63.2281 49.5301H70.4211C70.4211 49.5301 70.4211 45.9769 66.8246 45.9769V38.1597C77.7939 35.1395 77.6141 22.8808 77.6141 22.8808C77.6141 22.8808 76.5351 17.0179 75.8158 13.9977C74.7369 9.5561 89.3027 11.5104 92 5.11455V1.5613L81.2106 -0.21532V-0.21532Z" fill="#D6EAE9"/>
<path d="M57.6536 33.5405L58.3729 38.8704C44.3465 38.8704 37.8728 35.3171 37.8728 35.3171C37.8728 35.3171 37.1535 35.1395 36.0746 34.6065C31.3992 37.2714 26.0044 36.9161 25.2851 40.647V42.4236L18.0921 44.2003V37.0938C18.0921 37.0938 16.2939 28.033 16.2939 24.6574C16.2939 8.1348 36.0746 12.221 36.0746 12.221H48.8421C48.8421 12.221 50.2807 16.1296 54.0571 19.3275C69.8816 32.1192 57.6536 33.5405 57.6536 33.5405ZM72.0395 -7.32181C72.0395 -7.32181 68.8027 -18.5145 64.8465 -17.9816C60.8904 -17.4486 64.8465 -3.76857 64.8465 -3.76857C64.8465 -3.76857 57.6536 10.4444 64.8465 10.4444C66.2851 7.24649 79.772 6.89117 81.0308 5.11455C82.2895 3.33792 81.2106 -0.215321 81.2106 -0.215321C81.2106 -0.215321 80.1316 -3.76857 77.6141 -5.54519C75.0965 -7.32181 72.0395 -7.32181 72.0395 -7.32181Z" fill="#ED9A26"/>
</g>
<defs>
<linearGradient id="paint0_linear_16101_329844" x1="34" y1="27" x2="1.5" y2="3.5" gradientUnits="userSpaceOnUse">
<stop stop-color="#63412E"/>
<stop offset="1" stop-color="#152C2A"/>
</linearGradient>
</defs>
</svg>
