<svg width="24" height="24" viewBox="0 0 24 24" fill="none" xmlns="http://www.w3.org/2000/svg">
<rect width="24" height="24" rx="4" fill="#FAF9F4"/>
<path fill-rule="evenodd" clip-rule="evenodd" d="M19.6554 11.0573C19.833 11.2017 19.9529 11.4051 19.9934 11.6306C20.0013 11.6962 20.0021 11.7625 19.9959 11.8283C19.9786 11.8802 19.9786 11.9222 19.9786 11.9691C19.9642 12.0602 19.9436 12.1502 19.9169 12.2385C19.8626 12.4226 19.7793 12.5969 19.6702 12.7549C19.6498 12.7847 19.6238 12.8186 19.6059 12.842C19.6 12.8497 19.595 12.8563 19.5913 12.8612C19.5919 12.8648 19.5934 12.87 19.5953 12.8766C19.6012 12.8974 19.611 12.9324 19.611 12.9773C19.6401 13.1578 19.6483 13.341 19.6357 13.5234C19.6113 13.8758 19.5279 14.2217 19.389 14.5464C19.2506 14.886 19.0332 15.1876 18.7551 15.4261L18.723 15.4533L18.6786 15.4706C18.3346 15.5985 17.9817 15.7009 17.6228 15.777C17.2535 15.8633 16.8744 15.9007 16.4954 15.8882H16.4658H16.4313C15.6476 15.6355 14.8385 15.4698 14.0187 15.394C13.7956 15.3787 13.5738 15.3473 13.3551 15.3001C13.1334 15.2414 12.9158 15.1679 12.7039 15.0801C12.3733 14.9615 12.0355 14.8641 11.6925 14.7886C11.5312 15.0142 11.4568 15.2907 11.4828 15.567C11.5072 15.8711 11.7808 16.3944 11.9768 16.7692C12.018 16.8482 12.0558 16.9205 12.0872 16.9829C12.3077 17.4727 12.3878 18.0143 12.3185 18.5472C12.2492 19.08 12.0333 19.583 11.695 20C11.161 18.8817 10.1599 18.351 9.26348 17.8757C7.97303 17.1916 6.89938 16.6224 7.74801 14.581C7.98801 13.984 8.13648 13.3278 8.25809 12.7903C8.36148 12.3334 8.44545 11.9623 8.54973 11.7863V11.8011C8.4804 12.21 8.4804 12.6277 8.54973 13.0366C8.5822 13.2282 8.65447 13.4109 8.76187 13.5728C8.87363 13.7203 9.02388 13.834 9.19604 13.9015C9.56814 14.0491 9.961 14.1375 10.3604 14.1634C10.5651 14.1931 10.7699 14.1931 10.9771 14.1931H10.9771C11.0866 14.1922 11.1962 14.1972 11.3052 14.2079C11.4137 14.2178 11.5247 14.2301 11.6333 14.2474C12.0636 14.317 12.4876 14.4211 12.9012 14.5588C13.2726 14.7064 13.6663 14.79 14.0656 14.8059C14.9141 14.8725 15.752 15.0383 16.562 15.3001C16.8861 15.3113 17.2104 15.2864 17.529 15.2259C17.609 15.2106 17.6878 15.1929 17.7663 15.1753C17.8016 15.1674 17.8367 15.1595 17.8719 15.1518C18.427 14.9887 19.0609 14.1263 18.3357 14.2079C18.1343 14.2173 17.9339 14.2421 17.7362 14.282C17.5572 14.3186 17.4167 14.3522 17.2981 14.3805C16.9362 14.467 16.7784 14.5047 16.3548 14.4303C16.0558 14.3265 15.745 14.2601 15.4297 14.2326C15.6939 14.0623 16.0075 13.9857 16.3203 14.0151C16.5514 14.0444 16.7857 14.0344 17.0135 13.9855C17.1285 13.9526 17.2457 13.8892 17.3724 13.8208C17.4741 13.7659 17.5818 13.7077 17.6992 13.6593C18.034 13.5536 18.3847 13.5076 18.7353 13.5234C18.8228 13.4311 18.8874 13.3195 18.9238 13.1976C18.9603 13.0757 18.9675 12.9469 18.945 12.8216C18.8741 12.7136 18.7662 12.6354 18.6416 12.6017C18.5925 12.5908 18.53 12.5787 18.4587 12.5648C18.0927 12.4937 17.4922 12.377 17.2527 12.1495C17.0875 11.9914 16.9987 11.5095 17.5808 11.3761C17.8886 11.3218 18.2025 11.311 18.5133 11.3439C18.6465 11.3588 19.0091 11.3934 19.093 11.3242C19.0365 11.128 18.3973 10.7775 17.7609 10.4285C17.2029 10.1225 16.6471 9.81771 16.488 9.61915C15.7797 8.89614 15.185 8.06964 14.7242 7.16788C14.5748 6.79081 14.2921 6.48205 13.9299 6.30054C14.3602 6.26898 14.7871 6.39744 15.1288 6.66132C15.1781 6.70228 15.241 6.81459 15.3215 6.95849C15.5469 7.36146 15.9109 8.01219 16.5053 8.03768C16.5679 8.04371 16.631 8.03261 16.6878 8.00556C16.3937 7.72761 16.195 7.39227 16.009 7.07821C15.7269 6.60213 15.4738 6.17495 14.9611 6.07073C14.9533 6.0677 14.9457 6.06469 14.938 6.06169C14.821 6.01578 14.7113 5.97275 14.5886 5.91012L14.2407 5.73714L13.55 5.40108C13.0942 5.18041 12.6245 4.98974 12.1439 4.83027C11.6686 4.67388 11.1783 4.56705 10.6811 4.51151C10.5725 4.49915 10.427 4.48433 10.3258 4.48433C10.2306 4.48465 10.1368 4.5075 10.052 4.55104C9.99315 4.57573 9.92591 4.61032 9.85832 4.64509C9.80415 4.67295 9.74976 4.70093 9.69927 4.72402C9.6774 4.73403 9.65543 4.74403 9.63342 4.75405C9.54128 4.79601 9.44845 4.83828 9.35885 4.88216C8.90813 5.10061 8.4829 5.36829 8.09089 5.68031C7.79677 5.88822 7.53848 6.14278 7.32617 6.43398C7.69699 6.40703 8.06945 6.45492 8.42145 6.57483C7.88663 6.60046 7.36261 6.73482 6.88127 6.96974C6.39993 7.20466 5.97135 7.53522 5.62159 7.94131C4.98761 8.62085 4.49423 12.0877 5.21208 13.0045C5.56253 12.8401 6.03638 12.0371 6.57483 11.1246C7.40465 9.71827 8.38793 8.0519 9.30951 8.06239C8.75447 8.55907 8.32524 9.89343 7.89601 11.3884C7.55065 12.6017 6.3789 15.3693 5.63884 15.436C5.35022 15.4533 5.24416 15.3149 5.04928 15.0332L4.88646 14.8108C4.60187 14.4146 4.38512 13.9736 4.24509 13.5061C4.11582 13.0484 4.03804 12.5776 4.0132 12.1025C3.98809 11.6354 3.99881 11.167 4.04527 10.7015C4.09531 10.2401 4.17274 9.78216 4.27716 9.33004C4.38108 8.87751 4.51542 8.43253 4.67925 7.99815C4.72366 7.88695 4.76805 7.77822 4.82479 7.66702C4.85358 7.60474 4.88655 7.54447 4.92347 7.48664C4.96589 7.42859 5.01291 7.37404 5.06408 7.32355C5.24407 7.15213 5.44759 7.00735 5.66846 6.89359C5.99162 6.72474 6.33593 6.60008 6.69219 6.52294C6.8048 6.26995 6.95908 6.03773 7.14856 5.83599C7.33596 5.63935 7.5398 5.45913 7.75787 5.2973C8.17605 4.96522 8.62937 4.68017 9.10969 4.44726C9.22317 4.38795 9.37118 4.32124 9.46986 4.27923C9.52196 4.25705 9.57681 4.22867 9.63732 4.19736C9.69141 4.16937 9.75002 4.13905 9.81522 4.10873C9.9625 4.03855 10.1233 4.00144 10.2864 4C10.4259 4.00037 10.5651 4.01029 10.7033 4.02966C11.2341 4.0877 11.7575 4.20116 12.2648 4.36819C12.7643 4.53501 13.2529 4.73309 13.7276 4.96124L14.4282 5.30224L14.776 5.47521C14.861 5.52122 14.9695 5.56294 15.0875 5.60836C15.0963 5.61173 15.1051 5.61512 15.114 5.61854C15.2423 5.66796 15.3607 5.71985 15.489 5.78409C15.5583 5.8197 15.6251 5.86017 15.6888 5.90518C15.7495 5.95436 15.8071 6.00717 15.8614 6.06332C16.0504 6.26917 16.2158 6.49543 16.3548 6.73792C16.3702 6.76476 16.3854 6.79151 16.4006 6.81815C16.644 7.2452 16.8702 7.642 17.2231 7.8746L17.4698 8.03768C17.4656 8.05147 17.4598 8.06474 17.4526 8.07722L17.4008 8.17359L17.1541 8.29962C17.1052 8.3233 17.0672 8.36487 17.048 8.41576C17.0388 8.43856 17.0338 8.46283 17.0332 8.48741V8.64556C17.0345 8.72905 17.0237 8.81228 17.0011 8.89267C16.991 8.92501 16.9793 8.95364 16.9689 8.97888C16.954 9.01534 16.9419 9.04475 16.9419 9.06811C16.9349 9.09315 16.9349 9.11967 16.9419 9.14471C17.0114 9.458 17.9212 9.98449 18.6725 10.4193C19.1479 10.6944 19.5599 10.9328 19.6554 11.0573ZM13.5695 8.88589C13.5966 9.22936 13.1797 9.4987 12.6864 9.55554C12.0524 9.61731 11.7317 9.2689 11.8033 8.82905C11.8748 8.3892 11.5664 8.38921 11.3592 8.63631C11.3546 8.64226 11.3482 8.64654 11.341 8.64852C11.3337 8.6505 11.326 8.65006 11.3191 8.64727C11.3121 8.64447 11.3062 8.63948 11.3023 8.63304C11.2985 8.62661 11.2968 8.61908 11.2975 8.6116C11.4012 7.8777 11.8304 7.84557 12.0228 7.84557C12.6016 7.88675 13.175 7.98441 13.7348 8.13716C13.7504 8.14096 13.7646 8.14902 13.7758 8.16044C13.7871 8.17186 13.7949 8.1862 13.7985 8.20185C13.8021 8.21749 13.8013 8.23382 13.7961 8.24902C13.791 8.26421 13.7817 8.27768 13.7693 8.28789C13.6859 8.36073 13.6234 8.45455 13.5883 8.55968C13.5531 8.6648 13.5467 8.77742 13.5695 8.88589Z" fill="#193330"/>
</svg>
