<svg width="16" height="16" viewBox="0 0 16 16" fill="none" xmlns="http://www.w3.org/2000/svg">
<path fill-rule="evenodd" clip-rule="evenodd" d="M15 8C15 11.866 11.866 15 8 15C4.13401 15 1 11.866 1 8C1 4.13401 4.13401 1 8 1C11.866 1 15 4.13401 15 8ZM8 13C10.7614 13 13 10.7614 13 8C13 5.23858 10.7614 3 8 3C5.23858 3 3 5.23858 3 8C3 10.7614 5.23858 13 8 13Z" fill="#588382"/>
<path fill-rule="evenodd" clip-rule="evenodd" d="M8 5C8.55228 5 9 5.44772 9 6L9 8C9 8.26522 8.89464 8.51957 8.70711 8.70711L6.70711 10.7071C6.31658 11.0976 5.68342 11.0976 5.29289 10.7071C4.90237 10.3166 4.90237 9.68342 5.29289 9.29289L7 7.58579L7 6C7 5.44772 7.44772 5 8 5Z" fill="#588382"/>
</svg>
