<svg width="24" height="24" viewBox="0 0 24 24" fill="none" xmlns="http://www.w3.org/2000/svg">
<path fill-rule="evenodd" clip-rule="evenodd" d="M16.2505 11H7.75049C5.95754 10.9952 4.50525 9.54295 4.50049 7.75V7.75C4.50561 5.9572 5.95769 4.50513 7.75049 4.5H16.2505C18.0431 4.50549 19.495 5.95735 19.5005 7.75V7.75C19.4954 9.5428 18.0433 10.9949 16.2505 11Z" stroke="#789594" stroke-width="1.5" stroke-linecap="round" stroke-linejoin="round"/>
<path fill-rule="evenodd" clip-rule="evenodd" d="M16.2505 20.5H7.75049C5.95754 20.4952 4.50525 19.0429 4.50049 17.25V17.25C4.50561 15.4572 5.95769 14.0051 7.75049 14H16.2505C18.0431 14.0055 19.495 15.4574 19.5005 17.25V17.25C19.4954 19.0428 18.0433 20.4949 16.2505 20.5V20.5Z" stroke="#789594" stroke-width="1.5" stroke-linecap="round" stroke-linejoin="round"/>
<path fill-rule="evenodd" clip-rule="evenodd" d="M7.75 8.5C8.16421 8.5 8.5 8.16421 8.5 7.75C8.5 7.33579 8.16421 7 7.75 7C7.33579 7 7 7.33579 7 7.75C7 8.16421 7.33579 8.5 7.75 8.5Z" stroke="#789594" stroke-width="1.5" stroke-linecap="round" stroke-linejoin="round"/>
<path fill-rule="evenodd" clip-rule="evenodd" d="M16.25 18C16.6642 18 17 17.6642 17 17.25C17 16.8358 16.6642 16.5 16.25 16.5C15.8358 16.5 15.5 16.8358 15.5 17.25C15.5 17.6642 15.8358 18 16.25 18Z" stroke="#789594" stroke-width="1.5" stroke-linecap="round" stroke-linejoin="round"/>
</svg>