<svg width="24" height="24" viewBox="0 0 24 24" fill="none" xmlns="http://www.w3.org/2000/svg">
<path d="M21.75 18.5V20C21.75 21.6568 20.4069 23 18.75 23H3.75C2.09315 23 0.75 21.6568 0.75 20V9.5C0.75 7.84314 2.09315 6.5 3.75 6.5H18.75C20.4069 6.5 21.75 7.84314 21.75 9.5V11" stroke="var(--green-80)" stroke-width="1.5" stroke-linecap="round" stroke-linejoin="round"/>
<path d="M18.75 6.49999L16.421 1.84199C16.2431 1.48599 15.9311 1.21527 15.5535 1.08943C15.176 0.96358 14.7639 0.992921 14.408 1.17099L3.75 6.49999" stroke="var(--green-80)" stroke-width="1.5" stroke-linecap="round" stroke-linejoin="round"/>
<path fill-rule="evenodd" clip-rule="evenodd" d="M21.75 18.5C22.5784 18.5 23.25 17.8284 23.25 17V12.5C23.25 11.6716 22.5784 11 21.75 11H18C15.9289 11 14.25 12.6789 14.25 14.75C14.25 16.8211 15.9289 18.5 18 18.5H21.75Z" stroke="var(--green-80)" stroke-width="1.5" stroke-linecap="round" stroke-linejoin="round"/>
<path d="M18 14.375C18.2071 14.375 18.375 14.5429 18.375 14.75C18.375 14.9571 18.2071 15.125 18 15.125C17.7929 15.125 17.625 14.9571 17.625 14.75C17.625 14.5429 17.7929 14.375 18 14.375" stroke="var(--green-80)" stroke-width="1.5" stroke-linecap="round" stroke-linejoin="round"/>
</svg>
