<svg width="158" height="52" viewBox="0 0 158 52" fill="none" xmlns="http://www.w3.org/2000/svg">
<path d="M90.1333 25.0925H85.912V20.8008H83.9546V25.0925H79.7333V26.9091H83.9546V31.2008H85.912V26.9091H90.1333V25.0925Z" fill="#476565"/>
<path fill-rule="evenodd" clip-rule="evenodd" d="M152.181 1.2381H110.086C108.034 1.2381 106.371 2.90104 106.371 4.95238V47.0476C106.371 49.099 108.034 50.7619 110.086 50.7619H152.181C154.232 50.7619 155.895 49.099 155.895 47.0476V4.95238C155.895 2.90104 154.232 1.2381 152.181 1.2381ZM110.086 0C107.351 0 105.133 2.21726 105.133 4.95238V47.0476C105.133 49.7827 107.351 52 110.086 52H152.181C154.916 52 157.133 49.7827 157.133 47.0476V4.95238C157.133 2.21726 154.916 0 152.181 0H110.086Z" fill="#476565"/>
<path fill-rule="evenodd" clip-rule="evenodd" d="M130.767 13.876C130.735 13.8702 130.703 13.8672 130.669 13.8672C130.636 13.8672 130.603 13.8702 130.571 13.876L121.315 13.876C120.994 13.876 120.733 14.1562 120.733 14.5019C120.733 14.8476 120.994 15.1278 121.315 15.1278L130.085 15.1278L130.085 35.7702C130.085 36.1183 130.347 36.4005 130.669 36.4005C130.992 36.4005 131.254 36.1183 131.254 35.7702L131.254 15.1278L140.952 15.1278C141.273 15.1278 141.533 14.8476 141.533 14.5019C141.533 14.1562 141.273 13.876 140.952 13.876L130.767 13.876Z" fill="#FFFBFC"/>
<path d="M27.8159 21.189C25.4546 21.189 23.361 22.6778 22.9472 25.2374L23.8722 25.368C24.1887 23.3308 25.9171 22.1032 27.7672 22.1032C29.7391 22.1032 31.3457 23.4091 31.3457 25.8381V26.3866C28.6193 26.4128 22.5333 26.3605 22.5333 30.8007C22.5333 33.3081 24.4808 34.6663 26.6231 34.6663C29.1061 34.6663 30.7615 32.9424 31.3457 30.9835V34.4051H32.2708V25.8643C32.2708 22.939 30.3963 21.189 27.8159 21.189ZM31.3457 28.45C31.3457 31.1664 29.4956 33.7521 26.7935 33.7521C25.0894 33.7521 23.4827 32.7596 23.4827 30.8268C23.4827 27.118 29.3983 27.2486 31.3457 27.2486V28.45Z" fill="white"/>
<path d="M36.93 34.4051V15.5996H35.9806V34.4051H36.93Z" fill="white"/>
<path d="M44.9206 22.3382V21.4502H42.3402V18.107L41.4151 18.2637V21.4502H39.4433V22.3382H41.3908V31.4798C41.3908 33.7782 42.1454 34.6663 43.8495 34.6663C44.312 34.6663 44.6772 34.614 45.0667 34.5096V33.5693C44.7502 33.6999 44.3363 33.7521 43.9712 33.7521C42.5836 33.7521 42.3402 33.0208 42.3402 31.3753V22.3382H44.9206Z" fill="white"/>
<path fill-rule="evenodd" clip-rule="evenodd" d="M60.8373 1.2381H5.0294C2.94615 1.2381 1.25735 2.90104 1.25735 4.95238V47.0476C1.25735 49.099 2.94615 50.7619 5.02939 50.7619H60.8373C62.9205 50.7619 64.6093 49.099 64.6093 47.0476V4.95238C64.6093 2.90104 62.9205 1.2381 60.8373 1.2381ZM5.0294 0C2.25174 0 0 2.21726 0 4.95238V47.0476C0 49.7827 2.25173 52 5.02939 52H60.8373C63.6149 52 65.8667 49.7827 65.8667 47.0476V4.95238C65.8667 2.21726 63.6149 0 60.8373 0H5.0294Z" fill="#476565"/>
<path fill-rule="evenodd" clip-rule="evenodd" d="M22.9662 25.3123C22.9467 25.2841 22.9389 25.2486 22.9445 25.214C23.3661 22.6141 25.4986 21.1135 27.8799 21.1135C29.1816 21.1135 30.3148 21.5539 31.1236 22.3726C31.9333 23.1922 32.4076 24.3806 32.4076 25.8544V34.2798C32.4076 34.3509 32.3537 34.4086 32.2872 34.4086H31.372C31.3055 34.4086 31.2516 34.3509 31.2516 34.2798V31.5877C30.5145 33.2852 28.9385 34.6663 26.6998 34.6663C25.6177 34.6663 24.5781 34.3244 23.8064 33.6586C23.032 32.9905 22.5333 32.0006 22.5333 30.7241C22.5333 29.5931 22.9237 28.7412 23.5541 28.1057C24.1807 27.474 25.0387 27.0615 25.9697 26.7897C27.7426 26.2721 29.8207 26.2543 31.1757 26.2426C31.2013 26.2424 31.2265 26.2422 31.2516 26.242V25.8286C31.2516 24.663 30.866 23.778 30.2525 23.1833C29.6374 22.5869 28.7829 22.2729 27.8317 22.2729C26.0465 22.2729 24.3984 23.4518 24.0971 25.386C24.0864 25.4545 24.027 25.5016 23.9626 25.4926L23.0475 25.3637C23.0149 25.3592 22.9856 25.3406 22.9662 25.3123ZM31.372 26.3697C31.3097 26.3703 31.2456 26.3709 31.1798 26.3714C28.3997 26.3955 22.6537 26.4451 22.6537 30.7241C22.6537 33.1976 24.5804 34.5375 26.6998 34.5375C29.0031 34.5375 30.5866 33.0424 31.2516 31.2629C31.2958 31.1446 31.3359 31.025 31.372 30.9045V34.2798H32.2872V25.8544C32.2872 22.9686 30.4327 21.2423 27.8799 21.2423C25.5832 21.2423 23.5425 22.6619 23.0853 25.1092C23.0774 25.1512 23.0701 25.1934 23.0632 25.236L23.9783 25.3648C24.2914 23.3551 26.0014 22.1441 27.8317 22.1441C29.7825 22.1441 31.372 23.4324 31.372 25.8286V26.3697ZM26.8684 33.5068C29.46 33.5068 31.2516 31.031 31.2516 28.4052V27.3487C31.2289 27.3486 31.2059 27.3486 31.1824 27.3486C30.1678 27.3466 28.371 27.3432 26.7873 27.7384C25.9435 27.9489 25.1719 28.27 24.6134 28.7548C24.0595 29.2357 23.7134 29.8784 23.7134 30.7499C23.7134 31.6597 24.0906 32.3438 24.6703 32.8043C25.2534 33.2676 26.0454 33.5068 26.8684 33.5068ZM31.372 27.22C31.3121 27.22 31.2484 27.2198 31.1812 27.2197C29.0871 27.2156 23.593 27.2049 23.593 30.7499C23.593 32.6565 25.1825 33.6356 26.8684 33.6356C29.5416 33.6356 31.372 31.0848 31.372 28.4052V27.22ZM37.0169 34.2798C37.0169 34.3509 36.963 34.4086 36.8965 34.4086H35.9573C35.8907 34.4086 35.8368 34.3509 35.8368 34.2798V15.7284C35.8368 15.6573 35.8907 15.5996 35.9573 15.5996H36.8965C36.963 15.5996 37.0169 15.6573 37.0169 15.7284V34.2798ZM36.8965 15.7284V34.2798H35.9573V15.7284H36.8965ZM44.9222 22.376C44.9222 22.4472 44.8682 22.5048 44.8017 22.5048H42.3693V31.291C42.3693 32.1059 42.432 32.6548 42.642 33.002C42.8414 33.3318 43.1937 33.5068 43.8625 33.5068C44.2161 33.5068 44.6091 33.456 44.903 33.335C44.94 33.3198 44.9817 33.3251 45.0144 33.3491C45.0471 33.3731 45.0667 33.4128 45.0667 33.4553V34.3829C45.0667 34.442 45.0291 34.4935 44.9754 34.5078C44.5806 34.6135 44.2095 34.6663 43.7421 34.6663C42.8813 34.6663 42.2313 34.4424 41.8017 33.8992C41.3765 33.3615 41.1892 32.5375 41.1892 31.394V22.5048H39.3829C39.3164 22.5048 39.2625 22.4472 39.2625 22.376V21.5C39.2625 21.4288 39.3164 21.3711 39.3829 21.3711H41.2133V18.3565C41.2133 18.2932 41.2564 18.2392 41.3149 18.2293L42.2301 18.0747C42.2649 18.0688 42.3003 18.0795 42.3271 18.104C42.3539 18.1285 42.3693 18.1643 42.3693 18.202V21.3711H44.8017C44.8682 21.3711 44.9222 21.4288 44.9222 21.5V22.376ZM42.2489 21.5H44.8017V22.376H42.2489V31.291C42.2489 32.9142 42.4897 33.6356 43.8625 33.6356C44.179 33.6356 44.5325 33.5961 44.8258 33.4996C44.8673 33.486 44.9075 33.4712 44.9462 33.4553V34.3829C44.5609 34.4859 44.1997 34.5375 43.7421 34.5375C42.0562 34.5375 41.3096 33.6614 41.3096 31.394V22.376H39.3829V21.5H41.3337V18.3565L42.2489 18.202V21.5Z" fill="#D6EAE9"/>
</svg>
