<svg width="157" height="52" viewBox="0 0 157 52" fill="none" xmlns="http://www.w3.org/2000/svg">
<path fill-rule="evenodd" clip-rule="evenodd" d="M6 0C2.68629 0 0 2.68629 0 6V46C0 49.3137 2.68629 52 6 52H60C63.3137 52 66 49.3137 66 46V6C66 2.68629 63.3137 0 60 0H6ZM36.9298 15.5996V15.6046C36.9801 15.6202 37.0168 15.6697 37.0168 15.7284V34.2798C37.0168 34.3385 36.9801 34.3881 36.9298 34.4036V34.4051H36.9245C36.9155 34.4074 36.9061 34.4086 36.8964 34.4086H35.9571C35.8906 34.4086 35.8367 34.3509 35.8367 34.2798V15.7284C35.8367 15.6573 35.8906 15.5996 35.9571 15.5996H35.9804H36.8964H36.9298ZM35.9804 34.2798V15.7284H35.9571V34.2798H35.9804ZM23.9782 25.3648L23.8749 25.3503C24.1986 23.3236 25.9223 22.1032 27.7671 22.1032C28.6326 22.1032 29.4278 22.3548 30.0477 22.8426C29.4404 22.3817 28.6693 22.1441 27.8316 22.1441C26.0012 22.1441 24.2913 23.3551 23.9782 25.3648ZM31.1797 26.3714L31.3456 26.3699V26.3866L31.1514 26.3884C29.7967 26.4001 27.7452 26.4179 25.9836 26.9192C27.7447 26.4011 29.818 26.3832 31.1797 26.3714ZM26.6997 34.6663L26.6622 34.6661L26.6229 34.6663C24.4807 34.6663 22.5332 33.3081 22.5332 30.8007L22.5334 30.7625L22.5332 30.7241C22.5332 29.5931 22.9236 28.7412 23.5539 28.1057C24.1806 27.474 25.0386 27.0615 25.9695 26.7897C27.7425 26.2721 29.8206 26.2543 31.1756 26.2426L31.2514 26.242V25.8286C31.2514 24.663 30.8659 23.778 30.2524 23.1833C29.6372 22.5869 28.7828 22.2729 27.8316 22.2729C26.0464 22.2729 24.3983 23.4518 24.097 25.386C24.0863 25.4545 24.0268 25.5016 23.9625 25.4926L23.0473 25.3637C23.0148 25.3592 22.9855 25.3406 22.966 25.3123C22.9466 25.2841 22.9388 25.2486 22.9444 25.214C23.366 22.6141 25.4985 21.1135 27.8797 21.1135C29.1815 21.1135 30.3147 21.5539 31.1235 22.3726C31.9331 23.1922 32.4074 24.3806 32.4074 25.8544V34.2798C32.4074 34.3509 32.3535 34.4086 32.287 34.4086H31.3719C31.3054 34.4086 31.2514 34.3509 31.2514 34.2798V31.5877C30.5144 33.2852 28.9384 34.6663 26.6997 34.6663ZM31.3456 30.9835C31.3343 31.0214 31.3227 31.0591 31.3106 31.0968C31.3226 31.0612 31.3343 31.0255 31.3456 30.9897V30.9835ZM32.287 34.2798H32.2707V25.8643C32.2707 24.5599 31.898 23.4892 31.2562 22.7031C31.9078 23.4815 32.287 24.5494 32.287 25.8544V34.2798ZM26.7934 33.7521C28.7209 33.7521 30.215 32.4363 30.9131 30.6959C30.2099 32.3753 28.7473 33.6357 26.8682 33.6357C25.1824 33.6357 23.5929 32.6565 23.5929 30.7499C23.5929 29.3767 24.4172 28.5371 25.549 28.0239C24.3594 28.5402 23.4826 29.399 23.4826 30.8268C23.4826 32.7596 25.0893 33.7521 26.7934 33.7521ZM42.327 18.104L42.3316 18.1084L42.34 18.107V18.1179C42.3587 18.1411 42.3692 18.1709 42.3692 18.202V21.3711H44.8016C44.8516 21.3711 44.8945 21.4038 44.9127 21.4502H44.9205V21.4792C44.9209 21.4818 44.9212 21.4844 44.9214 21.4871C44.9218 21.4913 44.922 21.4956 44.922 21.5V22.376C44.922 22.4472 44.8681 22.5048 44.8016 22.5048H42.3692V31.291C42.3692 32.1059 42.4318 32.6548 42.6419 33.002C42.8413 33.3318 43.1936 33.5068 43.8624 33.5068C44.216 33.5068 44.609 33.456 44.9029 33.335C44.9399 33.3198 44.9816 33.3251 45.0143 33.3491C45.047 33.3731 45.0665 33.4128 45.0665 33.4553V33.5693V34.3829V34.5096C44.677 34.614 44.3119 34.6663 43.8493 34.6663L43.7988 34.666L43.7419 34.6663C42.8812 34.6663 42.2312 34.4424 41.8016 33.8992C41.3763 33.3615 41.1891 32.5375 41.1891 31.394V22.5048H39.3828C39.3163 22.5048 39.2624 22.4472 39.2624 22.376V21.5C39.2624 21.4288 39.3163 21.3711 39.3828 21.3711H41.2132V18.3565C41.2132 18.2932 41.2563 18.2392 41.3148 18.2293L42.23 18.0747C42.2648 18.0688 42.3002 18.0795 42.327 18.104ZM44.9461 33.4553V33.6138C44.6494 33.7119 44.2915 33.7521 43.9711 33.7521C43.3359 33.7521 42.9405 33.5989 42.6984 33.2749C42.9423 33.5193 43.311 33.6357 43.8624 33.6357C44.1789 33.6357 44.5324 33.5961 44.8257 33.4996C44.8671 33.486 44.9074 33.4712 44.9461 33.4553ZM44.8016 22.376H42.34V22.3382H44.8016V22.376ZM41.3095 31.394C41.3095 32.5339 41.4982 33.3221 41.9 33.8242C41.5539 33.3128 41.3906 32.5489 41.3906 31.4798V22.3382H39.4431V21.5H39.3828V22.376H41.3095V31.394ZM41.3336 18.3565V21.4502H41.415V18.3428L41.3336 18.3565ZM26.8682 33.5068C29.4599 33.5068 31.2514 31.031 31.2514 28.4052V27.3487L31.1823 27.3486H31.1822C30.1676 27.3466 28.3709 27.3432 26.7872 27.7384C25.9434 27.9489 25.1718 28.27 24.6133 28.7548C24.0594 29.2357 23.7133 29.8784 23.7133 30.7499C23.7133 31.6597 24.0905 32.3438 24.6702 32.8043C25.2532 33.2676 26.0453 33.5068 26.8682 33.5068Z" fill="#D9D9D9"/>
<path fill-rule="evenodd" clip-rule="evenodd" d="M59.7143 1.2381H6.28571C3.68209 1.2381 1.57143 2.90104 1.57143 4.95238V47.0476C1.57143 49.099 3.68209 50.7619 6.28571 50.7619H59.7143C62.3179 50.7619 64.4286 49.099 64.4286 47.0476V4.95238C64.4286 2.90104 62.3179 1.2381 59.7143 1.2381ZM6.28571 0C2.81421 0 0 2.21726 0 4.95238V47.0476C0 49.7827 2.81421 52 6.28571 52H59.7143C63.1858 52 66 49.7827 66 47.0476V4.95238C66 2.21726 63.1858 0 59.7143 0H6.28571Z" fill="#476565"/>
<path d="M90.1334 25.0925H85.9121V20.8008H83.9547V25.0925H79.7334V26.9091H83.9547V31.2008H85.9121V26.9091H90.1334V25.0925Z" fill="#476565"/>
<path fill-rule="evenodd" clip-rule="evenodd" d="M110 0C107.239 0 105 2.23858 105 5V47C105 49.7614 107.239 52 110 52H152C154.761 52 157 49.7614 157 47V5C157 2.23858 154.761 0 152 0H110ZM130.536 13.8672C130.569 13.8672 130.602 13.8702 130.634 13.876L140.818 13.876C141.14 13.876 141.4 14.1562 141.4 14.5019C141.4 14.8476 141.14 15.1278 140.818 15.1278L131.12 15.1278L131.12 35.7702C131.12 36.1183 130.859 36.4005 130.536 36.4005C130.213 36.4005 129.952 36.1183 129.952 35.7702L129.952 15.1278L121.182 15.1278C120.861 15.1278 120.6 14.8476 120.6 14.5019C120.6 14.1562 120.861 13.876 121.182 13.876L130.438 13.876C130.47 13.8702 130.503 13.8672 130.536 13.8672Z" fill="#D9D9D9"/>
<path fill-rule="evenodd" clip-rule="evenodd" d="M152.048 1.2381H109.952C107.901 1.2381 106.238 2.90104 106.238 4.95238V47.0476C106.238 49.099 107.901 50.7619 109.952 50.7619H152.048C154.099 50.7619 155.762 49.099 155.762 47.0476V4.95238C155.762 2.90104 154.099 1.2381 152.048 1.2381ZM109.952 0C107.217 0 105 2.21726 105 4.95238V47.0476C105 49.7827 107.217 52 109.952 52H152.048C154.783 52 157 49.7827 157 47.0476V4.95238C157 2.21726 154.783 0 152.048 0H109.952Z" fill="#476565"/>
</svg>
