<svg width="273" height="52" viewBox="0 0 273 52" fill="none" xmlns="http://www.w3.org/2000/svg">
<path fill-rule="evenodd" clip-rule="evenodd" d="M60.8373 1.2381H5.0294C2.94615 1.2381 1.25735 2.90104 1.25735 4.95238V47.0476C1.25735 49.099 2.94615 50.7619 5.02939 50.7619H60.8373C62.9205 50.7619 64.6093 49.099 64.6093 47.0476V4.95238C64.6093 2.90104 62.9205 1.2381 60.8373 1.2381ZM5.0294 0C2.25174 0 0 2.21726 0 4.95238V47.0476C0 49.7827 2.25173 52 5.02939 52H60.8373C63.6149 52 65.8667 49.7827 65.8667 47.0476V4.95238C65.8667 2.21726 63.6149 0 60.8373 0H5.0294Z" fill="#476565"/>
<path d="M90.1333 25.0925H85.912V20.8008H83.9547V25.0925H79.7333V26.9091H83.9547V31.2008H85.912V26.9091H90.1333V25.0925Z" fill="#476565"/>
<path d="M204.533 25.0925H201.016V20.8008H199.384V25.0925H195.867V26.9091H199.384V31.2008H201.016V26.9091H204.533V25.0925Z" fill="#476565"/>
<path fill-rule="evenodd" clip-rule="evenodd" d="M175.403 1.2381H110.597C108.582 1.2381 106.949 2.90104 106.949 4.95238V47.0476C106.949 49.099 108.582 50.7619 110.597 50.7619H175.403C177.418 50.7619 179.051 49.099 179.051 47.0476V4.95238C179.051 2.90104 177.418 1.2381 175.403 1.2381ZM110.597 0C107.911 0 105.733 2.21726 105.733 4.95238V47.0476C105.733 49.7827 107.911 52 110.597 52H175.403C178.089 52 180.267 49.7827 180.267 47.0476V4.95238C180.267 2.21726 178.089 0 175.403 0H110.597Z" fill="#476565"/>
<path fill-rule="evenodd" clip-rule="evenodd" d="M267.181 1.2381H225.086C223.034 1.2381 221.371 2.90104 221.371 4.95238V47.0476C221.371 49.099 223.034 50.7619 225.086 50.7619H267.181C269.232 50.7619 270.895 49.099 270.895 47.0476V4.95238C270.895 2.90104 269.232 1.2381 267.181 1.2381ZM225.086 0C222.351 0 220.133 2.21726 220.133 4.95238V47.0476C220.133 49.7827 222.351 52 225.086 52H267.181C269.916 52 272.133 49.7827 272.133 47.0476V4.95238C272.133 2.21726 269.916 0 267.181 0H225.086Z" fill="#476565"/>
<path fill-rule="evenodd" clip-rule="evenodd" d="M245.767 13.876C245.735 13.8702 245.703 13.8672 245.669 13.8672C245.636 13.8672 245.603 13.8702 245.571 13.876L236.315 13.876C235.994 13.876 235.733 14.1562 235.733 14.5019C235.733 14.8476 235.994 15.1278 236.315 15.1278L245.085 15.1278L245.085 35.7702C245.085 36.1183 245.346 36.4005 245.669 36.4005C245.992 36.4005 246.254 36.1183 246.254 35.7702L246.254 15.1278L255.952 15.1278C256.273 15.1278 256.533 14.8476 256.533 14.5019C256.533 14.1562 256.273 13.876 255.952 13.876L245.767 13.876Z" fill="#FFFBFC"/>
<path d="M27.8159 21.189C25.4546 21.189 23.361 22.6778 22.9472 25.2374L23.8722 25.368C24.1887 23.3308 25.9171 22.1032 27.7672 22.1032C29.7391 22.1032 31.3457 23.4091 31.3457 25.8381V26.3866C28.6193 26.4128 22.5333 26.3605 22.5333 30.8007C22.5333 33.3081 24.4808 34.6663 26.6231 34.6663C29.1061 34.6663 30.7615 32.9424 31.3457 30.9835V34.4051H32.2708V25.8643C32.2708 22.939 30.3963 21.189 27.8159 21.189ZM31.3457 28.45C31.3457 31.1664 29.4956 33.7521 26.7935 33.7521C25.0894 33.7521 23.4827 32.7596 23.4827 30.8268C23.4827 27.118 29.3983 27.2486 31.3457 27.2486V28.45Z" fill="white"/>
<path d="M36.93 34.4051V15.5996H35.9806V34.4051H36.93Z" fill="white"/>
<path d="M44.9206 22.3382V21.4502H42.3402V18.107L41.4151 18.2637V21.4502H39.4433V22.3382H41.3908V31.4798C41.3908 33.7782 42.1454 34.6663 43.8495 34.6663C44.312 34.6663 44.6772 34.614 45.0667 34.5096V33.5693C44.7502 33.6999 44.3363 33.7521 43.9712 33.7521C42.5836 33.7521 42.3402 33.0208 42.3402 31.3753V22.3382H44.9206Z" fill="white"/>
<path fill-rule="evenodd" clip-rule="evenodd" d="M22.9662 25.3123C22.9467 25.2841 22.9389 25.2486 22.9445 25.214C23.3661 22.6141 25.4986 21.1135 27.8799 21.1135C29.1816 21.1135 30.3148 21.5539 31.1236 22.3726C31.9333 23.1922 32.4076 24.3806 32.4076 25.8544V34.2798C32.4076 34.3509 32.3537 34.4086 32.2872 34.4086H31.372C31.3055 34.4086 31.2516 34.3509 31.2516 34.2798V31.5877C30.5145 33.2852 28.9385 34.6663 26.6998 34.6663C25.6177 34.6663 24.5781 34.3244 23.8064 33.6586C23.032 32.9905 22.5333 32.0006 22.5333 30.7241C22.5333 29.5931 22.9237 28.7412 23.5541 28.1057C24.1807 27.474 25.0387 27.0615 25.9697 26.7897C27.7426 26.2721 29.8207 26.2543 31.1757 26.2426C31.2013 26.2424 31.2265 26.2422 31.2516 26.242V25.8286C31.2516 24.663 30.866 23.778 30.2525 23.1833C29.6374 22.5869 28.7829 22.2729 27.8317 22.2729C26.0465 22.2729 24.3984 23.4518 24.0971 25.386C24.0864 25.4545 24.027 25.5016 23.9626 25.4926L23.0475 25.3637C23.0149 25.3592 22.9856 25.3406 22.9662 25.3123ZM31.372 26.3697C31.3097 26.3703 31.2456 26.3709 31.1798 26.3714C28.3997 26.3955 22.6537 26.4451 22.6537 30.7241C22.6537 33.1976 24.5804 34.5375 26.6998 34.5375C29.0031 34.5375 30.5866 33.0424 31.2516 31.2629C31.2958 31.1446 31.3359 31.025 31.372 30.9045V34.2798H32.2872V25.8544C32.2872 22.9686 30.4327 21.2423 27.8799 21.2423C25.5832 21.2423 23.5425 22.6619 23.0853 25.1092C23.0774 25.1512 23.0701 25.1934 23.0632 25.236L23.9783 25.3648C24.2914 23.3551 26.0014 22.1441 27.8317 22.1441C29.7825 22.1441 31.372 23.4324 31.372 25.8286V26.3697ZM26.8684 33.5068C29.46 33.5068 31.2516 31.031 31.2516 28.4052V27.3487C31.2289 27.3486 31.2059 27.3486 31.1824 27.3486C30.1678 27.3466 28.371 27.3432 26.7873 27.7384C25.9435 27.9489 25.1719 28.27 24.6134 28.7548C24.0595 29.2357 23.7134 29.8784 23.7134 30.7499C23.7134 31.6597 24.0906 32.3438 24.6703 32.8043C25.2534 33.2676 26.0454 33.5068 26.8684 33.5068ZM31.372 27.22C31.3121 27.22 31.2484 27.2198 31.1812 27.2197C29.0871 27.2156 23.593 27.2049 23.593 30.7499C23.593 32.6565 25.1825 33.6356 26.8684 33.6356C29.5416 33.6356 31.372 31.0848 31.372 28.4052V27.22ZM37.0169 34.2798C37.0169 34.3509 36.963 34.4086 36.8965 34.4086H35.9573C35.8907 34.4086 35.8368 34.3509 35.8368 34.2798V15.7284C35.8368 15.6573 35.8907 15.5996 35.9573 15.5996H36.8965C36.963 15.5996 37.0169 15.6573 37.0169 15.7284V34.2798ZM36.8965 15.7284V34.2798H35.9573V15.7284H36.8965ZM44.9222 22.376C44.9222 22.4472 44.8682 22.5048 44.8017 22.5048H42.3693V31.291C42.3693 32.1059 42.432 32.6548 42.642 33.002C42.8414 33.3318 43.1937 33.5068 43.8625 33.5068C44.2161 33.5068 44.6091 33.456 44.903 33.335C44.94 33.3198 44.9817 33.3251 45.0144 33.3491C45.0471 33.3731 45.0667 33.4128 45.0667 33.4553V34.3829C45.0667 34.442 45.0291 34.4935 44.9754 34.5078C44.5806 34.6135 44.2095 34.6663 43.7421 34.6663C42.8813 34.6663 42.2313 34.4424 41.8017 33.8992C41.3765 33.3615 41.1892 32.5375 41.1892 31.394V22.5048H39.3829C39.3164 22.5048 39.2625 22.4472 39.2625 22.376V21.5C39.2625 21.4288 39.3164 21.3711 39.3829 21.3711H41.2133V18.3565C41.2133 18.2932 41.2564 18.2392 41.3149 18.2293L42.2301 18.0747C42.2649 18.0688 42.3003 18.0795 42.3271 18.104C42.3539 18.1285 42.3693 18.1643 42.3693 18.202V21.3711H44.8017C44.8682 21.3711 44.9222 21.4288 44.9222 21.5V22.376ZM42.2489 21.5H44.8017V22.376H42.2489V31.291C42.2489 32.9142 42.4897 33.6356 43.8625 33.6356C44.179 33.6356 44.5325 33.5961 44.8258 33.4996C44.8673 33.486 44.9075 33.4712 44.9462 33.4553V34.3829C44.5609 34.4859 44.1997 34.5375 43.7421 34.5375C42.0562 34.5375 41.3096 33.6614 41.3096 31.394V22.376H39.3829V21.5H41.3337V18.3565L42.2489 18.202V21.5Z" fill="#D6EAE9"/>
<path d="M122.49 24.8104C122.49 23.1592 124.05 22.2046 125.66 22.2046C127.32 22.2046 128.754 23.2108 129.006 24.9394L129.962 24.7846C129.66 22.6174 127.723 21.3015 125.61 21.3015C123.421 21.3015 121.535 22.7206 121.535 24.9136C121.535 27.4163 124.05 27.9323 125.811 28.3709C127.949 28.9127 129.358 29.4287 129.358 31.08C129.358 32.9376 127.547 33.7633 125.987 33.7633C124.126 33.7633 122.541 32.5764 122.289 30.693L121.333 30.8736C121.635 33.3504 123.799 34.6663 126.062 34.6663C128.301 34.6663 130.339 33.3504 130.339 31.0284C130.339 28.3193 127.622 27.8549 125.71 27.3647C123.874 26.9003 122.49 26.3585 122.49 24.8104Z" fill="white"/>
<path d="M139.122 21.3531C136.758 21.3531 135.123 23.0302 134.494 25.0168V15.8318H133.513V34.4083H134.494V27.9839C134.494 25.0426 136.179 22.282 138.997 22.282C141.26 22.282 142.619 24.0364 142.619 26.1263V34.4083H143.6V25.9973C143.6 23.4688 141.789 21.3531 139.122 21.3531Z" fill="white"/>
<path d="M147.97 17.5347C148.423 17.5347 148.775 17.1992 148.775 16.7348C148.775 16.2446 148.423 15.9092 147.97 15.9092C147.517 15.9092 147.165 16.2446 147.165 16.7348C147.165 17.1992 147.517 17.5347 147.97 17.5347ZM148.448 34.4083V21.6112H147.492V34.4083H148.448Z" fill="white"/>
<path d="M156.979 21.6112H154.287V19.1085C154.287 17.7927 154.589 16.9928 155.369 16.6574C156.023 16.3736 157.105 16.58 157.105 16.58V15.6512C157.105 15.6512 156.602 15.5996 156.124 15.5996C153.734 15.5996 153.331 17.5089 153.331 19.5213V21.6112H151.319V22.4626H153.331V34.4083H154.287V22.4626H156.979V21.6112Z" fill="white"/>
<path d="M164.516 22.4884V21.6112H161.849V18.3087L160.893 18.4635V21.6112H158.856V22.4884H160.868V31.5186C160.868 33.7891 161.648 34.6663 163.409 34.6663C163.887 34.6663 164.264 34.6147 164.667 34.5115V33.5826C164.34 33.7117 163.912 33.7633 163.535 33.7633C162.101 33.7633 161.849 33.0408 161.849 31.4154V22.4884H164.516Z" fill="white"/>
<path fill-rule="evenodd" clip-rule="evenodd" d="M129.012 25.0446C128.986 25.0246 128.968 24.9944 128.963 24.9608C128.724 23.3303 127.362 22.3709 125.76 22.3709C124.982 22.3709 124.221 22.6002 123.658 23.0209C123.098 23.4396 122.734 24.0464 122.734 24.8147C122.734 25.5286 123.05 26.0069 123.593 26.3693C124.146 26.7379 124.927 26.9821 125.84 27.2113C125.974 27.2455 126.114 27.2798 126.256 27.3149C127.111 27.5249 128.086 27.7647 128.884 28.2097C129.352 28.4709 129.767 28.8062 130.064 29.254C130.362 29.7032 130.537 30.2582 130.537 30.9497C130.537 32.138 130.01 33.0715 129.197 33.7046C128.387 34.3354 127.296 34.6663 126.16 34.6663C123.869 34.6663 121.645 33.3409 121.334 30.8127C121.326 30.7458 121.371 30.684 121.436 30.6718L122.386 30.4936C122.42 30.4873 122.454 30.4952 122.482 30.5156C122.51 30.536 122.528 30.567 122.533 30.6015C122.773 32.3856 124.285 33.5208 126.085 33.5208C126.842 33.5208 127.654 33.3215 128.273 32.9054C128.889 32.492 129.312 31.8672 129.312 31.0006C129.312 30.6127 129.228 30.2983 129.077 30.0353C128.925 29.7716 128.699 29.552 128.404 29.3611C127.808 28.9762 126.946 28.7192 125.88 28.4513C125.81 28.4339 125.738 28.4163 125.665 28.3984C124.838 28.1961 123.859 27.9567 123.066 27.4964C122.632 27.2445 122.248 26.9235 121.972 26.5008C121.696 26.0768 121.533 25.5572 121.533 24.9166C121.533 22.6604 123.489 21.2254 125.71 21.2254C127.856 21.2254 129.849 22.5544 130.161 24.7713C130.17 24.8402 130.124 24.9042 130.056 24.915L129.106 25.0677C129.073 25.073 129.039 25.0647 129.012 25.0446ZM122.428 30.7446C122.731 32.5298 124.277 33.648 126.085 33.648C127.636 33.648 129.437 32.8334 129.437 31.0006C129.437 29.3714 128.036 28.8623 125.91 28.3277C125.84 28.3104 125.769 28.2929 125.697 28.2752C123.963 27.851 121.658 27.287 121.658 24.9166C121.658 22.7528 123.534 21.3527 125.71 21.3527C127.769 21.3527 129.661 22.6002 130.017 24.6636C130.018 24.6671 130.018 24.6706 130.019 24.6741C130.025 24.7122 130.031 24.7506 130.037 24.7893L129.086 24.942C129.084 24.9228 129.081 24.9036 129.077 24.8845C128.804 23.2142 127.392 22.2437 125.76 22.2437C124.159 22.2437 122.609 23.1855 122.609 24.8147C122.609 26.3421 123.984 26.8767 125.81 27.3349C125.946 27.3696 126.087 27.4041 126.23 27.4394C128.084 27.8957 130.412 28.4684 130.412 30.9497C130.412 33.2407 128.386 34.539 126.16 34.539C123.909 34.539 121.759 33.2407 121.458 30.7969L122.409 30.6188C122.414 30.6611 122.421 30.703 122.428 30.7446ZM143.596 34.2844H142.621V26.113C142.621 24.0511 141.271 22.32 139.02 22.32C136.219 22.32 134.543 25.0438 134.543 27.9459V34.2844H133.567V15.956H134.543V25.0184C134.581 24.8992 134.623 24.7812 134.668 24.6646C135.368 22.8632 136.937 21.4036 139.145 21.4036C141.796 21.4036 143.596 23.491 143.596 25.9857V34.2844ZM134.668 24.3395C135.432 22.6298 136.99 21.2763 139.145 21.2763C141.87 21.2763 143.721 23.4264 143.721 25.9857V34.2844C143.721 34.3547 143.666 34.4117 143.596 34.4117H142.621C142.552 34.4117 142.496 34.3547 142.496 34.2844V26.113C142.496 25.1099 142.168 24.1934 141.572 23.5291C140.978 22.8662 140.111 22.4473 139.02 22.4473C137.664 22.4473 136.58 23.105 135.831 24.1211C135.08 25.1396 134.668 26.5182 134.668 27.9459V34.2844C134.668 34.3547 134.612 34.4117 134.543 34.4117H133.567C133.498 34.4117 133.442 34.3547 133.442 34.2844V15.956C133.442 15.8857 133.498 15.8287 133.567 15.8287H134.543C134.612 15.8287 134.668 15.8857 134.668 15.956V24.3395ZM148.542 34.2844C148.542 34.3547 148.486 34.4117 148.417 34.4117H147.466C147.397 34.4117 147.341 34.3547 147.341 34.2844V21.6582C147.341 21.5879 147.397 21.5309 147.466 21.5309H148.417C148.486 21.5309 148.542 21.5879 148.542 21.6582V34.2844ZM148.867 16.847C148.867 17.3807 148.455 17.7634 147.942 17.7634C147.428 17.7634 147.016 17.3807 147.016 16.847C147.016 16.2904 147.425 15.9051 147.942 15.9051C148.458 15.9051 148.867 16.2904 148.867 16.847ZM148.417 21.6582V34.2844H147.466V21.6582H148.417ZM156.898 21.5309C156.967 21.5309 157.023 21.5879 157.023 21.6582V22.4982C157.023 22.5685 156.967 22.6255 156.898 22.6255H154.347V34.2844C154.347 34.3547 154.291 34.4117 154.222 34.4117H153.272C153.203 34.4117 153.147 34.3547 153.147 34.2844V22.6255H151.271C151.202 22.6255 151.146 22.5685 151.146 22.4982V21.6582C151.146 21.5879 151.202 21.5309 151.271 21.5309H153.147V19.5962C153.147 18.6003 153.246 17.6043 153.66 16.8546C153.868 16.4769 154.157 16.1611 154.552 15.9407C154.945 15.7206 155.438 15.5996 156.048 15.5996C156.289 15.5996 156.536 15.6125 156.722 15.6254C156.815 15.6318 156.893 15.6382 156.948 15.643L157.012 15.6489L157.03 15.6505L157.034 15.651L157.036 15.6511L157.023 15.7778C157.023 15.7778 156.523 15.7269 156.048 15.7269C153.672 15.7269 153.272 17.6106 153.272 19.5962V21.6582H151.271V22.4982H153.272V34.2844H154.222V22.4982H156.898V21.6582H154.222V19.1889C154.222 17.8907 154.522 17.1015 155.298 16.7706C155.813 16.5486 156.596 16.6306 156.898 16.6741C156.977 16.6855 157.023 16.6942 157.023 16.6942V15.7778L157.036 15.6511C157.099 15.6576 157.148 15.7124 157.148 15.7778V16.6942C157.148 16.7321 157.132 16.7679 157.103 16.7921M157 16.8194L156.998 16.8189L156.99 16.8174L156.956 16.8117C156.926 16.8068 156.883 16.8002 156.829 16.793C156.72 16.7786 156.569 16.7623 156.399 16.7546C156.052 16.7388 155.644 16.7594 155.346 16.8878C154.99 17.0398 154.744 17.295 154.584 17.6679C154.422 18.0458 154.347 18.5475 154.347 19.1889V21.5309H156.898M157 16.8194C157 16.8194 157 16.8194 157 16.8194ZM164.517 22.5237C164.517 22.594 164.461 22.651 164.392 22.651H161.866V31.3315C161.866 32.1367 161.931 32.6789 162.149 33.022C162.356 33.3478 162.722 33.5208 163.416 33.5208C163.783 33.5208 164.192 33.4705 164.497 33.351C164.535 33.336 164.578 33.3412 164.612 33.3649C164.646 33.3887 164.667 33.4279 164.667 33.4698V34.3863C164.667 34.4447 164.628 34.4956 164.572 34.5097C164.162 34.6141 163.777 34.6663 163.291 34.6663C162.397 34.6663 161.722 34.4451 161.276 33.9084C160.835 33.3772 160.64 32.5631 160.64 31.4333V22.651H158.764C158.695 22.651 158.639 22.594 158.639 22.5237V21.6582C158.639 21.5879 158.695 21.5309 158.764 21.5309H160.665V18.5525C160.665 18.4899 160.71 18.4366 160.771 18.4268L161.721 18.2741C161.757 18.2683 161.794 18.2788 161.822 18.303C161.85 18.3272 161.866 18.3626 161.866 18.3998V21.5309H164.392C164.461 21.5309 164.517 21.5879 164.517 21.6582V22.5237ZM161.741 21.6582H164.392V22.5237H161.741V31.3315C161.741 32.9353 161.991 33.648 163.416 33.648C163.745 33.648 164.112 33.6089 164.417 33.5136C164.46 33.5002 164.501 33.4856 164.542 33.4698V34.3863C164.141 34.4881 163.766 34.539 163.291 34.539C161.54 34.539 160.765 33.6735 160.765 31.4333V22.5237H158.764V21.6582H160.79V18.5525L161.741 18.3998V21.6582ZM148.742 16.847C148.742 17.3052 148.392 17.6361 147.942 17.6361C147.491 17.6361 147.141 17.3052 147.141 16.847C147.141 16.3633 147.491 16.0324 147.942 16.0324C148.392 16.0324 148.742 16.3633 148.742 16.847Z" fill="#D6EAE9"/>
</svg>
