<svg width="157" height="52" viewBox="0 0 157 52" fill="none" xmlns="http://www.w3.org/2000/svg">
<path d="M90.1334 25.0925H85.9121V20.8008H83.9547V25.0925H79.7334V26.9091H83.9547V31.2008H85.9121V26.9091H90.1334V25.0925Z" fill="#476565"/>
<path d="M27.8158 21.189C25.4544 21.189 23.3609 22.6778 22.947 25.2374L23.8721 25.368C24.1886 23.3308 25.917 22.1032 27.7671 22.1032C29.7389 22.1032 31.3456 23.4091 31.3456 25.8381V26.3866C28.6191 26.4128 22.5332 26.3605 22.5332 30.8007C22.5332 33.3081 24.4807 34.6663 26.6229 34.6663C29.106 34.6663 30.7614 32.9424 31.3456 30.9835V34.4051H32.2707V25.8643C32.2707 22.939 30.3962 21.189 27.8158 21.189ZM31.3456 28.45C31.3456 31.1664 29.4955 33.7521 26.7934 33.7521C25.0893 33.7521 23.4826 32.7596 23.4826 30.8268C23.4826 27.118 29.3981 27.2486 31.3456 27.2486V28.45Z" fill="white"/>
<path d="M36.9298 34.4051V15.5996H35.9804V34.4051H36.9298Z" fill="white"/>
<path d="M44.9205 22.3382V21.4502H42.34V18.107L41.415 18.2637V21.4502H39.4431V22.3382H41.3906V31.4798C41.3906 33.7782 42.1453 34.6663 43.8494 34.6663C44.3119 34.6663 44.677 34.614 45.0665 34.5096V33.5693C44.7501 33.6999 44.3362 33.7521 43.9711 33.7521C42.5835 33.7521 42.34 33.0208 42.34 31.3753V22.3382H44.9205Z" fill="white"/>
<path fill-rule="evenodd" clip-rule="evenodd" d="M60.8373 1.2381H5.0294C2.94615 1.2381 1.25735 2.90104 1.25735 4.95238V47.0476C1.25735 49.099 2.94615 50.7619 5.02939 50.7619H60.8373C62.9205 50.7619 64.6093 49.099 64.6093 47.0476V4.95238C64.6093 2.90104 62.9205 1.2381 60.8373 1.2381ZM5.0294 0C2.25174 0 0 2.21726 0 4.95238V47.0476C0 49.7827 2.25173 52 5.02939 52H60.8373C63.6149 52 65.8667 49.7827 65.8667 47.0476V4.95238C65.8667 2.21726 63.6149 0 60.8373 0H5.0294Z" fill="#476565"/>
<path fill-rule="evenodd" clip-rule="evenodd" d="M22.966 25.3123C22.9466 25.2841 22.9388 25.2486 22.9444 25.214C23.366 22.6141 25.4985 21.1135 27.8797 21.1135C29.1815 21.1135 30.3147 21.5539 31.1235 22.3726C31.9331 23.1922 32.4074 24.3806 32.4074 25.8544V34.2798C32.4074 34.3509 32.3535 34.4086 32.287 34.4086H31.3719C31.3054 34.4086 31.2514 34.3509 31.2514 34.2798V31.5877C30.5144 33.2852 28.9384 34.6663 26.6997 34.6663C25.6176 34.6663 24.578 34.3244 23.8063 33.6586C23.0319 32.9905 22.5332 32.0006 22.5332 30.7241C22.5332 29.5931 22.9236 28.7412 23.5539 28.1057C24.1806 27.474 25.0386 27.0615 25.9695 26.7897C27.7425 26.2721 29.8206 26.2543 31.1756 26.2426C31.2011 26.2424 31.2264 26.2422 31.2514 26.242V25.8286C31.2514 24.663 30.8659 23.778 30.2524 23.1833C29.6372 22.5869 28.7828 22.2729 27.8316 22.2729C26.0464 22.2729 24.3983 23.4518 24.097 25.386C24.0863 25.4545 24.0268 25.5016 23.9625 25.4926L23.0473 25.3637C23.0148 25.3592 22.9855 25.3406 22.966 25.3123ZM31.3719 26.3697C31.3095 26.3703 31.2455 26.3709 31.1797 26.3714C28.3995 26.3955 22.6536 26.4451 22.6536 30.7241C22.6536 33.1976 24.5803 34.5375 26.6997 34.5375C29.003 34.5375 30.5864 33.0424 31.2514 31.2629C31.2957 31.1446 31.3358 31.025 31.3719 30.9045V34.2798H32.287V25.8544C32.287 22.9686 30.4326 21.2423 27.8797 21.2423C25.583 21.2423 23.5424 22.6619 23.0852 25.1092C23.0773 25.1512 23.0699 25.1934 23.063 25.236L23.9782 25.3648C24.2913 23.3551 26.0012 22.1441 27.8316 22.1441C29.7823 22.1441 31.3719 23.4324 31.3719 25.8286V26.3697ZM26.8682 33.5068C29.4599 33.5068 31.2514 31.031 31.2514 28.4052V27.3487C31.2288 27.3486 31.2057 27.3486 31.1822 27.3486C30.1676 27.3466 28.3709 27.3432 26.7872 27.7384C25.9434 27.9489 25.1718 28.27 24.6133 28.7548C24.0594 29.2357 23.7133 29.8784 23.7133 30.7499C23.7133 31.6597 24.0905 32.3438 24.6702 32.8043C25.2532 33.2676 26.0453 33.5068 26.8682 33.5068ZM31.3719 27.22C31.312 27.22 31.2483 27.2198 31.1811 27.2197C29.087 27.2156 23.5929 27.2049 23.5929 30.7499C23.5929 32.6565 25.1824 33.6356 26.8682 33.6356C29.5415 33.6356 31.3719 31.0848 31.3719 28.4052V27.22ZM37.0168 34.2798C37.0168 34.3509 36.9629 34.4086 36.8964 34.4086H35.9571C35.8906 34.4086 35.8367 34.3509 35.8367 34.2798V15.7284C35.8367 15.6573 35.8906 15.5996 35.9571 15.5996H36.8964C36.9629 15.5996 37.0168 15.6573 37.0168 15.7284V34.2798ZM36.8964 15.7284V34.2798H35.9571V15.7284H36.8964ZM44.922 22.376C44.922 22.4472 44.8681 22.5048 44.8016 22.5048H42.3692V31.291C42.3692 32.1059 42.4318 32.6548 42.6419 33.002C42.8413 33.3318 43.1936 33.5068 43.8624 33.5068C44.216 33.5068 44.609 33.456 44.9029 33.335C44.9399 33.3198 44.9816 33.3251 45.0143 33.3491C45.047 33.3731 45.0665 33.4128 45.0665 33.4553V34.3829C45.0665 34.442 45.0289 34.4935 44.9753 34.5078C44.5804 34.6135 44.2094 34.6663 43.7419 34.6663C42.8812 34.6663 42.2312 34.4424 41.8016 33.8992C41.3763 33.3615 41.1891 32.5375 41.1891 31.394V22.5048H39.3828C39.3163 22.5048 39.2624 22.4472 39.2624 22.376V21.5C39.2624 21.4288 39.3163 21.3711 39.3828 21.3711H41.2132V18.3565C41.2132 18.2932 41.2563 18.2392 41.3148 18.2293L42.23 18.0747C42.2648 18.0688 42.3002 18.0795 42.327 18.104C42.3538 18.1285 42.3692 18.1643 42.3692 18.202V21.3711H44.8016C44.8681 21.3711 44.922 21.4288 44.922 21.5V22.376ZM42.2488 21.5H44.8016V22.376H42.2488V31.291C42.2488 32.9142 42.4896 33.6356 43.8624 33.6356C44.1789 33.6356 44.5324 33.5961 44.8257 33.4996C44.8671 33.486 44.9074 33.4712 44.9461 33.4553V34.3829C44.5608 34.4859 44.1995 34.5375 43.7419 34.5375C42.0561 34.5375 41.3095 33.6614 41.3095 31.394V22.376H39.3828V21.5H41.3336V18.3565L42.2488 18.202V21.5Z" fill="#D6EAE9"/>
<path fill-rule="evenodd" clip-rule="evenodd" d="M110 0C107.239 0 105 2.23858 105 5V47C105 49.7614 107.239 52 110 52H152C154.761 52 157 49.7614 157 47V5C157 2.23858 154.761 0 152 0H110ZM130.536 13.8672C130.569 13.8672 130.602 13.8702 130.634 13.876L140.818 13.876C141.14 13.876 141.4 14.1562 141.4 14.5019C141.4 14.8476 141.14 15.1278 140.818 15.1278L131.12 15.1278L131.12 35.7702C131.12 36.1183 130.859 36.4005 130.536 36.4005C130.213 36.4005 129.952 36.1183 129.952 35.7702L129.952 15.1278L121.182 15.1278C120.861 15.1278 120.6 14.8476 120.6 14.5019C120.6 14.1562 120.861 13.876 121.182 13.876L130.438 13.876C130.47 13.8702 130.503 13.8672 130.536 13.8672Z" fill="#D9D9D9"/>
<path fill-rule="evenodd" clip-rule="evenodd" d="M152.048 1.2381H109.952C107.901 1.2381 106.238 2.90104 106.238 4.95238V47.0476C106.238 49.099 107.901 50.7619 109.952 50.7619H152.048C154.099 50.7619 155.762 49.099 155.762 47.0476V4.95238C155.762 2.90104 154.099 1.2381 152.048 1.2381ZM109.952 0C107.217 0 105 2.21726 105 4.95238V47.0476C105 49.7827 107.217 52 109.952 52H152.048C154.783 52 157 49.7827 157 47.0476V4.95238C157 2.21726 154.783 0 152.048 0H109.952Z" fill="#476565"/>
</svg>
