<svg width="635" height="196" viewBox="0 0 635 196" fill="none" xmlns="http://www.w3.org/2000/svg">
<path d="M56.7653 194.365H140.804V187.169C119.987 185.627 114.076 182.286 114.076 172.52V60.9818C114.076 47.8748 116.389 45.0478 133.608 45.0478C151.855 45.0478 157.509 51.2158 164.962 71.5188H172.415L168.046 37.5948C167.789 35.2818 166.247 33.9968 163.934 34.2538C160.336 34.5108 154.168 34.7678 148 34.7678H49.8263C43.6583 34.7678 37.2333 34.5108 33.6353 34.2538C31.3223 33.9968 29.7803 35.2818 29.5233 37.5948L25.1543 71.5188H32.6073C40.0603 51.2158 45.7143 45.0478 63.9613 45.0478C81.1803 45.0478 83.4933 47.8748 83.4933 60.9818V172.52C83.4933 182.286 77.5823 185.627 56.7653 187.169V194.365Z" fill="#D6EAE9"/>
<path d="M207.43 195.907C224.906 195.907 239.298 187.169 247.522 177.403C249.578 174.576 251.634 175.09 251.634 177.917C252.405 188.454 259.344 195.907 271.937 195.907C279.647 195.907 287.614 193.337 290.698 187.426V183.571C283.245 185.37 278.362 182.8 278.362 173.805V121.12C278.362 88.2238 265.769 76.1448 235.7 76.1448C208.972 76.1448 181.216 84.8828 181.216 104.672C181.216 112.125 185.842 117.779 194.323 117.779C202.29 117.779 208.972 113.153 208.972 103.13C208.972 91.8218 214.112 84.6258 228.247 84.6258C244.438 84.6258 251.377 94.9058 251.377 113.41V118.036C251.377 124.204 249.321 126.003 243.41 126.774C190.468 133.713 173.763 147.077 173.763 167.637C173.763 187.683 189.954 195.907 207.43 195.907ZM221.822 180.744C207.944 180.744 201.776 172.006 201.776 161.983C201.776 151.189 208.972 138.082 241.097 134.741C249.578 133.97 251.377 137.054 251.377 142.965V151.446C251.377 168.408 238.527 180.744 221.822 180.744Z" fill="#D6EAE9"/>
<path d="M414.614 195.907C422.067 195.907 430.034 193.337 433.375 187.426V183.571C425.922 185.37 421.039 182.8 421.039 173.805V119.321C421.039 86.1678 402.535 75.8878 383.774 75.8878C362.7 75.8878 351.906 87.7098 347.023 92.8498C343.682 96.7048 340.084 93.8778 340.084 84.6258V34.5108C340.084 28.0858 336.486 25.0018 329.804 26.2868L296.651 32.7118V39.6508C309.244 38.3658 313.099 42.2208 313.099 53.7858V172.006C313.099 182.8 308.73 186.141 296.651 187.426V194.365H356.532V187.426C344.453 186.141 340.084 182.8 340.084 172.006V125.232C340.084 106.214 350.621 92.0788 367.583 92.0788C384.802 92.0788 394.054 106.214 394.054 125.232V174.062C394.054 189.225 402.792 195.907 414.614 195.907Z" fill="#D6EAE9"/>
<path d="M505.218 195.907C536.829 195.907 565.87 174.576 565.87 136.026C565.87 97.4758 536.829 76.1448 505.218 76.1448C473.607 76.1448 444.566 97.4758 444.566 136.026C444.566 174.576 473.607 195.907 505.218 195.907ZM510.615 187.169C488.77 187.169 473.607 158.642 473.607 125.746C473.607 97.7328 484.401 84.8828 499.821 84.8828C521.666 84.8828 536.829 113.41 536.829 146.306C536.829 174.319 525.778 187.169 510.615 187.169Z" fill="#D6EAE9"/>
<path d="M632.694 34.7956L606.171 33.2468C604.281 33.1239 602.497 32.3329 601.137 31.0153C599.777 29.6977 598.932 27.9396 598.752 26.056L596.426 1.55175C596.353 1.14284 596.138 0.772608 595.819 0.505992C595.5 0.239377 595.098 0.0932617 594.682 0.0932617C594.266 0.0932617 593.864 0.239377 593.545 0.505992C593.226 0.772608 593.011 1.14284 592.938 1.55175L590.557 26.056C590.399 27.948 589.56 29.7186 588.196 31.0406C586.832 32.3626 585.035 33.1464 583.137 33.2468L556.614 34.9063C556.205 34.9794 555.834 35.1939 555.567 35.5125C555.301 35.831 555.154 36.2333 555.154 36.6487C555.154 37.0641 555.301 37.4662 555.567 37.7848C555.834 38.1033 556.205 38.3178 556.614 38.391L583.137 39.9398C585.024 40.0734 586.802 40.8682 588.16 42.1837C589.517 43.4992 590.366 45.2511 590.557 47.1307L592.882 71.6349C592.956 72.0438 593.17 72.4141 593.489 72.6807C593.808 72.9473 594.211 73.0933 594.627 73.0933C595.042 73.0933 595.445 72.9473 595.764 72.6807C596.083 72.4141 596.298 72.0438 596.371 71.6349L598.696 47.1307C598.877 45.247 599.722 43.489 601.082 42.1714C602.441 40.8538 604.226 40.0626 606.116 39.9398L632.694 38.2804C633.104 38.2072 633.474 37.9926 633.741 37.674C634.008 37.3555 634.154 36.9534 634.154 36.538C634.154 36.1226 634.008 35.7205 633.741 35.4019C633.474 35.0834 633.104 34.8687 632.694 34.7956Z" fill="#EF9C32"/>
</svg>
